<svg xmlns="http://www.w3.org/2000/svg" viewBox="0 0 65.57 65.57"><defs><style>.cls-1{fill:#d7e9ff;}.cls-2{fill:#0068ff;}.cls-3{fill:#fff;}</style></defs><g id="Layer_2" data-name="Layer 2"><g id="Layer_1-2" data-name="Layer 1"><circle class="cls-1" cx="32.79" cy="32.79" r="32.79"/><path class="cls-2" d="M32.79,20.07a3.58,3.58,0,0,0,3.41-2.48,13,13,0,0,1-3.41.41,13.07,13.07,0,0,1-3.42-.41A3.59,3.59,0,0,0,32.79,20.07Z"/><path class="cls-2" d="M50.87,21.88a.86.86,0,0,0-.44-.48l-6.91-3.19A33.59,33.59,0,0,0,39,17h-.16a.81.81,0,0,0-.79.64,5.44,5.44,0,0,1-10.61,0,.81.81,0,0,0-.79-.64h-.16a33.59,33.59,0,0,0-4.48,1.18L15.14,21.4a.81.81,0,0,0-.43.48.79.79,0,0,0,0,.64l3,5.92a.82.82,0,0,0,.73.45.59.59,0,0,0,.23,0l3.34-1V47.73a.82.82,0,0,0,.82.82H42.7a.82.82,0,0,0,.82-.82V27.87l3.34,1a.62.62,0,0,0,.23,0,.82.82,0,0,0,.73-.45l3-5.92A.84.84,0,0,0,50.87,21.88Z"/><path class="cls-3" d="M26.75,30.81a2.58,2.58,0,0,1,.79-2,2.86,2.86,0,0,1,2.07-.76,2.91,2.91,0,0,1,2.09.75,2.66,2.66,0,0,1,.79,2v.65a2.55,2.55,0,0,1-.79,2,3.25,3.25,0,0,1-4.15,0,2.64,2.64,0,0,1-.8-2Zm1.74.7a1.22,1.22,0,0,0,.32.88,1.08,1.08,0,0,0,.82.33,1,1,0,0,0,.81-.34,1.28,1.28,0,0,0,.3-.89v-.68a1.29,1.29,0,0,0-.3-.88,1.18,1.18,0,0,0-1.64,0,1.33,1.33,0,0,0-.31.92Zm1.66,9-1.28-.69,6.45-10.33,1.28.69Zm2.92-2.25a2.58,2.58,0,0,1,.8-2,3.28,3.28,0,0,1,4.16,0,2.64,2.64,0,0,1,.79,2V39a2.61,2.61,0,0,1-.78,2,2.87,2.87,0,0,1-2.08.75,2.94,2.94,0,0,1-2.1-.76,2.66,2.66,0,0,1-.79-2Zm1.75.71a1.19,1.19,0,0,0,.32.85,1.06,1.06,0,0,0,.82.36q1.11,0,1.11-1.23v-.69a1.25,1.25,0,0,0-.31-.87,1.16,1.16,0,0,0-1.64,0,1.29,1.29,0,0,0-.3.9Z"/></g></g></svg>