<svg xmlns="http://www.w3.org/2000/svg" viewBox="0 0 65.57 65.57"><defs><style>.cls-1{fill:#d7e9ff;}.cls-2,.cls-3{fill:#0068ff;}.cls-3,.cls-4{stroke:#0068ff;stroke-linecap:round;stroke-linejoin:round;}.cls-4{fill:none;}</style></defs><g id="Layer_2" data-name="Layer 2"><g id="Layer_1-2" data-name="Layer 1"><circle class="cls-1" cx="32.79" cy="32.79" r="32.79"/><path class="cls-2" d="M31,42a3.08,3.08,0,1,0,3.08,3.08A3.06,3.06,0,0,0,31,42Z"/><path class="cls-2" d="M32.7,34.32H44.16a3.08,3.08,0,0,0,2.69-1.58l5.5-10A1.54,1.54,0,0,0,51,20.48H28.26L26.8,17.41h-5v3.07h3.08l5.53,11.67-2.08,3.77A3.07,3.07,0,0,0,31,40.47H49.46V37.4H31.66a.38.38,0,0,1-.38-.39.37.37,0,0,1,0-.18Z"/><path class="cls-2" d="M46.39,42a3.08,3.08,0,1,0,3.07,3.08A3.06,3.06,0,0,0,46.39,42Z"/><line class="cls-3" x1="12.48" y1="28.94" x2="23.71" y2="28.94"/><line class="cls-4" x1="8.02" y1="33.4" x2="19.25" y2="33.4"/><line class="cls-3" x1="12.48" y1="37.86" x2="23.71" y2="37.86"/></g></g></svg>