<svg xmlns="http://www.w3.org/2000/svg" viewBox="0 0 65.57 65.57"><defs><style>.cls-1{fill:#d7e9ff;}.cls-2{fill:#0068ff;}</style></defs><g id="Layer_2" data-name="Layer 2"><g id="Layer_1-2" data-name="Layer 1"><circle class="cls-1" cx="32.79" cy="32.79" r="32.79"/><path class="cls-2" d="M47.51,17H44.25a1.12,1.12,0,1,0,0,2.23h2.14v2.14a1.12,1.12,0,0,0,2.24,0V18.06A1.12,1.12,0,0,0,47.51,17Z"/><path class="cls-2" d="M47.51,36.64a1.12,1.12,0,0,0-1.12,1.12V39.9H44.25a1.12,1.12,0,1,0,0,2.24h3.26A1.12,1.12,0,0,0,48.63,41V37.76A1.12,1.12,0,0,0,47.51,36.64Z"/><path class="cls-2" d="M24.56,22.44a1.12,1.12,0,0,0,1.11-1.12V19.18h2.14a1.12,1.12,0,1,0,0-2.23H24.56a1.12,1.12,0,0,0-1.12,1.11v3.26A1.12,1.12,0,0,0,24.56,22.44Z"/><path class="cls-2" d="M29.58,33.35,17.49,45.44a1.86,1.86,0,0,0,2.63,2.64L32.22,36l-.72-1.92Z"/><path class="cls-2" d="M45.18,31.9,42.7,28.06a1.13,1.13,0,0,1-.14-.9l1.17-4.37a.77.77,0,0,0-1-.95L38.4,23a1.12,1.12,0,0,1-.89-.14l-3.84-2.48a.78.78,0,0,0-1.2.63l-.2,4.51a1.14,1.14,0,0,1-.42.82l-3.56,2.87a.78.78,0,0,0,.22,1.34l2.81,1.05c2.23.83,1.81.41,2.64,2.64l1,2.81a.78.78,0,0,0,1.34.22l2.87-3.56A1.1,1.1,0,0,1,40,33.3l4.51-.2A.78.78,0,0,0,45.18,31.9Z"/></g></g></svg>