<svg xmlns="http://www.w3.org/2000/svg" viewBox="0 0 65.57 65.57"><defs><style>.cls-1{fill:#d7e9ff;}.cls-2{fill:#0068ff;}.cls-3{fill:#fff;}</style></defs><g id="Layer_2" data-name="Layer 2"><g id="Layer_1-2" data-name="Layer 1"><circle class="cls-1" cx="32.79" cy="32.79" r="32.79"/><path class="cls-2" d="M46.64,28.77,46.21,28a.85.85,0,0,1,0-.79l.43-.82a2.91,2.91,0,0,0-.85-3.7l-.74-.55a.83.83,0,0,1-.34-.71l0-.93a2.92,2.92,0,0,0-2.37-3l-.91-.17a.82.82,0,0,1-.61-.49L40.47,16a2.93,2.93,0,0,0-3.42-1.65l-.89.24a.85.85,0,0,1-.77-.17l-.7-.61a2.94,2.94,0,0,0-3.8,0l-.71.61a.83.83,0,0,1-.76.17l-.9-.24A2.93,2.93,0,0,0,25.1,16l-.37.85a.84.84,0,0,1-.62.49l-.91.17a2.93,2.93,0,0,0-2.37,3l0,.93a.84.84,0,0,1-.35.71l-.74.55a2.92,2.92,0,0,0-.85,3.7l.44.82a.85.85,0,0,1,0,.79l-.44.82a2.92,2.92,0,0,0,.85,3.7l.74.56a.82.82,0,0,1,.35.7l0,.93a2.92,2.92,0,0,0,2.37,3l.48.09h0l.43.09a.85.85,0,0,1,.62.48l.36.86a3,3,0,0,0,3.43,1.64l.89-.24a.86.86,0,0,1,.77.18l.71.6a.9.9,0,0,0,.18.15h0a2.94,2.94,0,0,0,3.41,0h0a1,1,0,0,0,.2-.16l.71-.6a.86.86,0,0,1,.77-.18l.89.24a2.76,2.76,0,0,0,.75.1,2.94,2.94,0,0,0,2.68-1.74l.36-.86a.85.85,0,0,1,.62-.48l.4-.08h0l.51-.1a2.91,2.91,0,0,0,2.37-3l0-.93a.81.81,0,0,1,.34-.7l.74-.56A2.91,2.91,0,0,0,46.64,28.77Z"/><polygon class="cls-2" points="34.48 41.49 34.48 41.49 34.48 41.49 34.48 41.49"/><path class="cls-3" d="M40.68,26.92,38,29.52l.63,3.69a1.76,1.76,0,0,1-2.55,1.85l-3.31-1.74-3.3,1.74a1.76,1.76,0,0,1-2.55-1.85l.64-3.69-2.69-2.6a1.76,1.76,0,0,1-.43-1.8,1.73,1.73,0,0,1,1.41-1.19l3.69-.54L31.21,20a1.77,1.77,0,0,1,1.57-1,1.74,1.74,0,0,1,1.57,1L36,23.39l3.7.54a1.75,1.75,0,0,1,1.42,1.19A1.77,1.77,0,0,1,40.68,26.92Z"/><path class="cls-2" d="M47.87,46.54,43.7,39l-.51.1a1.08,1.08,0,0,0-.78.62L42,40.8A3.74,3.74,0,0,1,38.56,43a3.8,3.8,0,0,1-.94-.13l-1.14-.3a1,1,0,0,0-1,.22l-.89.76a1.64,1.64,0,0,1-.26.2l4.42,8.05a1.31,1.31,0,0,0,1.14.68h0a1.31,1.31,0,0,0,1.14-.74l1.71-3.52,3.83.24a1.3,1.3,0,0,0,1.19-.6A1.32,1.32,0,0,0,47.87,46.54Z"/><path class="cls-2" d="M31,43.57l-.89-.77a1.06,1.06,0,0,0-1-.22l-1.13.3a3.71,3.71,0,0,1-4.33-2.08l-.47-1.08a1.08,1.08,0,0,0-.78-.62l-.55-.1L17.7,46.54a1.3,1.3,0,0,0,.05,1.33,1.28,1.28,0,0,0,1.18.6l3.83-.24,1.71,3.53a1.32,1.32,0,0,0,1.15.73h0a1.32,1.32,0,0,0,1.15-.67l4.42-8.07Z"/></g></g></svg>