<svg xmlns="http://www.w3.org/2000/svg" viewBox="0 0 65.57 65.57"><defs><style>.cls-1{fill:#d7e9ff;}.cls-2{fill:#0068ff;}.cls-3{fill:#fff;}.cls-4{fill:none;stroke:#0068ff;stroke-miterlimit:10;}</style></defs><g id="Layer_2" data-name="Layer 2"><g id="Layer_1-2" data-name="Layer 1"><circle class="cls-1" cx="32.79" cy="32.79" r="32.79"/><circle class="cls-2" cx="32.79" cy="20.87" r="11.66"/><rect class="cls-2" x="12.02" y="44.98" width="7.2" height="7.2" rx="3.44"/><rect class="cls-2" x="29.19" y="44.98" width="7.2" height="7.2" rx="3.44"/><rect class="cls-2" x="46.35" y="44.98" width="7.2" height="7.2" rx="3.44"/><path class="cls-3" d="M27.09,17a2.46,2.46,0,0,1,.75-1.86,2.69,2.69,0,0,1,1.95-.71,2.75,2.75,0,0,1,2,.7,2.51,2.51,0,0,1,.75,1.92v.61a2.43,2.43,0,0,1-.75,1.86,2.73,2.73,0,0,1-2,.7,2.76,2.76,0,0,1-2-.7,2.5,2.5,0,0,1-.75-1.91Zm1.65.66a1.18,1.18,0,0,0,.29.83,1,1,0,0,0,.78.31,1,1,0,0,0,.76-.31,1.25,1.25,0,0,0,.28-.85V17a1.19,1.19,0,0,0-.28-.83,1,1,0,0,0-.78-.31,1,1,0,0,0-.76.31,1.25,1.25,0,0,0-.29.87Zm1.56,8.48-1.21-.65,6.09-9.75,1.21.66Zm2.76-2.12a2.43,2.43,0,0,1,.75-1.86,3.08,3.08,0,0,1,3.92,0,2.48,2.48,0,0,1,.75,1.92v.62a2.46,2.46,0,0,1-.74,1.85,2.71,2.71,0,0,1-2,.71,2.78,2.78,0,0,1-2-.71,2.48,2.48,0,0,1-.74-1.89Zm1.64.67a1.12,1.12,0,0,0,.31.8,1,1,0,0,0,.77.34c.7,0,1-.39,1-1.16v-.65a1.15,1.15,0,0,0-.29-.83,1,1,0,0,0-.77-.31,1,1,0,0,0-.77.31,1.23,1.23,0,0,0-.29.85Z"/><path class="cls-4" d="M15.62,45V39a2,2,0,0,1,2-2H48a2,2,0,0,1,2,2V45"/><line class="cls-4" x1="32.79" y1="47.26" x2="32.79" y2="32.53"/></g></g></svg>