<svg xmlns="http://www.w3.org/2000/svg" viewBox="0 0 65.57 65.57"><defs><style>.cls-1{fill:#d7e9ff;}.cls-2{fill:#0068ff;}.cls-3{fill:#fff;}</style></defs><g id="Layer_2" data-name="Layer 2"><g id="Layer_1-2" data-name="Layer 1"><circle class="cls-1" cx="32.79" cy="32.79" r="32.79"/><path class="cls-2" d="M51.6,28.2l-3.31-.42a16.18,16.18,0,0,0-1-2.42l2-2.64a2.61,2.61,0,0,0-.21-3.48l-2.78-2.78a2.62,2.62,0,0,0-3.49-.22l-2.63,2a17.82,17.82,0,0,0-2.42-1L37.38,14a2.65,2.65,0,0,0-2.62-2.33H30.81A2.64,2.64,0,0,0,28.2,14l-.42,3.31a17.44,17.44,0,0,0-2.43,1l-2.63-2a2.62,2.62,0,0,0-3.48.21l-2.78,2.78a2.62,2.62,0,0,0-.22,3.49l2.05,2.64a16.22,16.22,0,0,0-1,2.42L14,28.2a2.63,2.63,0,0,0-2.33,2.61v3.95A2.65,2.65,0,0,0,14,37.38l3.31.42a16.67,16.67,0,0,0,1,2.42l-2.05,2.63a2.6,2.6,0,0,0,.22,3.48l2.77,2.78a2.63,2.63,0,0,0,3.5.22l2.63-2a16.63,16.63,0,0,0,2.42,1l.42,3.3a2.64,2.64,0,0,0,2.61,2.33h3.95a2.65,2.65,0,0,0,2.62-2.32l.42-3.31a16.63,16.63,0,0,0,2.42-1l2.63,2a2.63,2.63,0,0,0,3.49-.21l2.77-2.78a2.62,2.62,0,0,0,.22-3.49l-2-2.63a16.63,16.63,0,0,0,1-2.42l3.3-.42a2.65,2.65,0,0,0,2.33-2.62V30.81A2.63,2.63,0,0,0,51.6,28.2Z"/><path class="cls-3" d="M32.79,26a1.92,1.92,0,0,0,1.83-1.32,7.76,7.76,0,0,1-3.67,0A1.92,1.92,0,0,0,32.79,26Z"/><path class="cls-3" d="M42.5,26.93a.47.47,0,0,0-.24-.26L38.55,25a17,17,0,0,0-2.4-.63h-.09a.43.43,0,0,0-.42.34,2.92,2.92,0,0,1-5.7,0,.45.45,0,0,0-.43-.34h-.08A16.75,16.75,0,0,0,27,25l-3.71,1.71a.42.42,0,0,0-.23.26.41.41,0,0,0,0,.34l1.61,3.18a.44.44,0,0,0,.39.24.3.3,0,0,0,.13,0L27,30.14V40.81a.44.44,0,0,0,.44.44H38.11a.43.43,0,0,0,.44-.44V30.14l1.79.53a.32.32,0,0,0,.13,0,.44.44,0,0,0,.39-.24l1.61-3.18A.45.45,0,0,0,42.5,26.93Z"/></g></g></svg>