<svg xmlns="http://www.w3.org/2000/svg" width="22.05" height="30.661" viewBox="0 0 22.05 30.661">
  <g id="best-seller" transform="translate(-21.251 -4.56)">
    <path id="Path_34" data-name="Path 34" d="M41.069,30.883A7.969,7.969,0,1,0,33.1,22.913,7.969,7.969,0,0,0,41.069,30.883Z" transform="translate(-8.793 -7.706)" fill="#2b68ff"/>
    <path id="Path_35" data-name="Path 35" d="M47.534,33.275l-1,2.989a.451.451,0,0,0,.679.518l3-2,3,2a.451.451,0,0,0,.679-.518l-1-2.989L54.876,31.3a.451.451,0,0,0-.319-.77H51.629l-.982-2.945a.451.451,0,0,0-.856,0l-.982,2.945H45.881a.451.451,0,0,0-.319.77Z" transform="translate(-17.942 -16.86)" fill="#d7e9fe"/>
    <path id="Path_36" data-name="Path 36" d="M43.255,31.634l-4.185-8.5a1.436,1.436,0,0,0,1.157-1.406v-.851a.529.529,0,0,1,.328-.49l.787-.327a1.433,1.433,0,0,0,.775-1.873l-.323-.784a.529.529,0,0,1,.115-.578l.6-.6a1.436,1.436,0,0,0,0-2.027h0l-.6-.6a.529.529,0,0,1-.115-.578l.326-.787a1.433,1.433,0,0,0-.777-1.873l-.784-.324a.529.529,0,0,1-.328-.49V8.692a1.435,1.435,0,0,0-1.433-1.434h-.853a.529.529,0,0,1-.49-.328l-.326-.787a1.433,1.433,0,0,0-1.874-.774l-.782.323a.531.531,0,0,1-.579-.115l-.6-.6a1.435,1.435,0,0,0-2.027,0l-.6.6a.529.529,0,0,1-.578.115l-.788-.327a1.434,1.434,0,0,0-1.873.777L27.1,6.93a.529.529,0,0,1-.49.328H25.76a1.435,1.435,0,0,0-1.433,1.434v.851a.529.529,0,0,1-.328.49l-.787.327a1.433,1.433,0,0,0-.774,1.873l.324.783a.529.529,0,0,1-.115.578l-.6.6a1.436,1.436,0,0,0,0,2.027l.6.6a.529.529,0,0,1,.115.578l-.326.787a1.433,1.433,0,0,0,.777,1.873l.781.325a.529.529,0,0,1,.328.49v.847a1.436,1.436,0,0,0,1.157,1.406l-4.185,8.5a.451.451,0,0,0,.55.626l4.023-1.369,1.369,4.023a.452.452,0,0,0,.4.305h.029a.452.452,0,0,0,.4-.252l4.2-8.539,4.2,8.54a.452.452,0,0,0,.4.252h.029a.452.452,0,0,0,.4-.305l1.369-4.023,4.023,1.369a.451.451,0,0,0,.55-.626ZM25.229,21.725v-.847a1.429,1.429,0,0,0-.885-1.325l-.783-.324a.531.531,0,0,1-.288-.694l.326-.786a1.43,1.43,0,0,0-.311-1.562l-.6-.6a.531.531,0,0,1,0-.751l.6-.6a1.429,1.429,0,0,0,.309-1.563l-.323-.782a.531.531,0,0,1,.287-.694l.787-.326a1.43,1.43,0,0,0,.884-1.324V8.693a.532.532,0,0,1,.531-.531h.848a1.429,1.429,0,0,0,1.325-.885l.324-.783A.531.531,0,0,1,28.95,6.2l.787.325A1.43,1.43,0,0,0,31.3,6.221l.6-.6a.544.544,0,0,1,.751,0l.6.6a1.429,1.429,0,0,0,1.563.311L35.6,6.2a.53.53,0,0,1,.694.287l.327.787a1.429,1.429,0,0,0,1.324.884h.852a.532.532,0,0,1,.531.531V9.54a1.429,1.429,0,0,0,.885,1.323l.784.325a.531.531,0,0,1,.288.694l-.327.787a1.43,1.43,0,0,0,.311,1.562l.6.6a.531.531,0,0,1,0,.751l-.6.6a1.429,1.429,0,0,0-.309,1.563l.324.783a.531.531,0,0,1-.287.694l-.787.326a1.43,1.43,0,0,0-.884,1.324v.851a.532.532,0,0,1-.531.531h-.849a1.43,1.43,0,0,0-1.325.885l-.324.783a.531.531,0,0,1-.694.288l-.787-.324a1.43,1.43,0,0,0-1.562.309l-.6.6a.544.544,0,0,1-.751,0l-.6-.6a1.429,1.429,0,0,0-1.563-.309l-.783.325a.531.531,0,0,1-.694-.287l-.327-.789a1.43,1.43,0,0,0-1.324-.885C25.468,22.255,25.23,22.018,25.229,21.725ZM32.921,25.7c.136-.066,1.35-1.058,2.336-.65a1.434,1.434,0,0,0,1.873-.777l.324-.783C37.536,23.289,37.73,23.159,32.921,25.7Z" transform="translate(0 0)" fill="#2b68ff"/>
  </g>
</svg>
