<svg xmlns="http://www.w3.org/2000/svg" width="20.163" height="28.113" viewBox="0 0 20.163 28.113">
  <g id="discount" transform="translate(-42.082)">
    <path id="Path_37" data-name="Path 37" d="M172.656,203.091a1.125,1.125,0,1,0,1.125,1.125A1.126,1.126,0,0,0,172.656,203.091Z" transform="translate(-117.221 -183.907)" fill="#2b68ff"/>
    <path id="Path_38" data-name="Path 38" d="M103.394,156a1.125,1.125,0,1,0,1.125,1.125A1.126,1.126,0,0,0,103.394,156Z" transform="translate(-54.502 -141.263)" fill="#2b68ff"/>
    <path id="Path_39" data-name="Path 39" d="M62.242,26.617,61.082,7.411a1.411,1.411,0,0,0-1.408-1.325H57.092V4.929a4.929,4.929,0,1,0-9.858,0V6.086H44.652a1.411,1.411,0,0,0-1.408,1.325l-1.16,19.206a1.41,1.41,0,0,0,1.408,1.5H60.834a1.41,1.41,0,0,0,1.408-1.5ZM49.879,4.929a2.284,2.284,0,1,1,4.568,0V6.086H49.879V4.929ZM46.35,15.861A2.542,2.542,0,1,1,48.892,18.4,2.544,2.544,0,0,1,46.35,15.861Zm3.357,7.734a.709.709,0,0,1-.631-1.03l4.882-9.6a.708.708,0,1,1,1.263.642l-4.882,9.6A.709.709,0,0,1,49.707,23.595Zm5.728-.744a2.542,2.542,0,1,1,2.542-2.541A2.544,2.544,0,0,1,55.434,22.851Z" transform="translate(0 0)" fill="#2b68ff"/>
  </g>
</svg>
