<svg xmlns="http://www.w3.org/2000/svg" width="24.403" height="21.103" viewBox="0 0 24.403 21.103">
  <g id="domain-registration" transform="translate(0 -34.62)">
    <g id="Group_32" data-name="Group 32" transform="translate(0 34.62)">
      <g id="Group_31" data-name="Group 31" transform="translate(0 0)">
        <path id="Path_40" data-name="Path 40" d="M22.5,34.62H1.9a1.9,1.9,0,0,0-1.9,1.9v2.157a.271.271,0,0,0,.271.271H24.132a.271.271,0,0,0,.271-.271V36.518A1.9,1.9,0,0,0,22.5,34.62ZM3.422,37.4a.612.612,0,1,1,.612-.612A.612.612,0,0,1,3.422,37.4Zm1.961,0A.612.612,0,1,1,6,36.783.612.612,0,0,1,5.384,37.4Zm1.961,0a.612.612,0,1,1,.612-.612A.612.612,0,0,1,7.345,37.4Z" transform="translate(0 -34.62)" fill="#2b68ff"/>
        <path id="Path_41" data-name="Path 41" d="M24.132,148.15H.271a.271.271,0,0,0-.271.271v13.523a1.9,1.9,0,0,0,1.9,1.9H22.5a1.9,1.9,0,0,0,1.9-1.9V148.421A.271.271,0,0,0,24.132,148.15ZM8.494,154.7l-.946,2.921a.542.542,0,0,1-.973.124L5.847,156.6l-.727,1.143a.543.543,0,0,1-.973-.124L3.2,154.7a.542.542,0,0,1,1.032-.334l.591,1.825.566-.89a.543.543,0,0,1,.915,0l.566.89.591-1.825A.542.542,0,0,1,8.494,154.7Zm6.355,0-.946,2.921a.542.542,0,0,1-.973.124L12.2,156.6l-.727,1.143a.543.543,0,0,1-.973-.124L9.555,154.7a.542.542,0,0,1,1.032-.334l.591,1.825.566-.89a.543.543,0,0,1,.915,0l.566.89.591-1.825A.542.542,0,0,1,14.848,154.7Zm6.355,0-.946,2.921a.543.543,0,0,1-.973.124l-.727-1.143-.727,1.143a.542.542,0,0,1-.973-.124L15.91,154.7a.542.542,0,0,1,1.032-.334l.591,1.825.566-.89a.543.543,0,0,1,.915,0l.566.89.591-1.825A.542.542,0,0,1,21.2,154.7Z" transform="translate(0 -142.739)" fill="#2b68ff"/>
      </g>
    </g>
  </g>
</svg>
