<svg id="blocks1" xmlns="http://www.w3.org/2000/svg" width="17.325" height="17.402" viewBox="0 0 17.325 17.402">
  <path id="Path_13" data-name="Path 13" d="M1.258,13.032H6.649a1.259,1.259,0,0,0,1.258-1.258V9.258A1.259,1.259,0,0,0,6.649,8H1.258A1.259,1.259,0,0,0,0,9.258v2.516A1.259,1.259,0,0,0,1.258,13.032Z" transform="translate(0.073 -2.099)" fill="#2b68ff"/>
  <path id="Path_14" data-name="Path 14" d="M1.258,22.032H6.649a1.259,1.259,0,0,0,1.258-1.258V18.258A1.259,1.259,0,0,0,6.649,17H1.258A1.259,1.259,0,0,0,0,18.258v2.516A1.259,1.259,0,0,0,1.258,22.032Z" transform="translate(0.073 -4.63)" fill="#2b68ff"/>
  <path id="Path_15" data-name="Path 15" d="M19.649,8H14.258A1.259,1.259,0,0,0,13,9.258v2.516a1.259,1.259,0,0,0,1.258,1.258h5.391a1.259,1.259,0,0,0,1.258-1.258V9.258A1.259,1.259,0,0,0,19.649,8Z" transform="translate(-3.582 -2.099)" fill="#2b68ff"/>
  <path id="Path_16" data-name="Path 16" d="M19.649,17H14.258A1.259,1.259,0,0,0,13,18.258v2.516a1.259,1.259,0,0,0,1.258,1.258h5.391a1.259,1.259,0,0,0,1.258-1.258V18.258A1.259,1.259,0,0,0,19.649,17Z" transform="translate(-3.582 -4.63)" fill="#2b68ff"/>
  <path id="Path_17" data-name="Path 17" d="M18.244,0H9.258A1.259,1.259,0,0,0,8,1.258v1.8A1.259,1.259,0,0,0,9.258,4.313h8.986A1.259,1.259,0,0,0,19.5,3.055v-1.8A1.259,1.259,0,0,0,18.244,0Z" transform="translate(-2.176 0.15)" fill="#2b68ff"/>
  <circle id="Ellipse_3" data-name="Ellipse 3" cx="2" cy="2" r="2" transform="translate(0)" fill="#2b68ff"/>
</svg>
