<svg xmlns="http://www.w3.org/2000/svg" width="23.894" height="24.558" viewBox="0 0 23.894 24.558">
  <g id="settingsj" transform="translate(-5.768)">
    <g id="Group_62" data-name="Group 62" transform="translate(5.768)">
      <path id="Path_74" data-name="Path 74" d="M29.426,15.508l-2.591-2.032a9.643,9.643,0,0,0,.086-1.2,9.643,9.643,0,0,0-.086-1.2l2.6-2.032a.612.612,0,0,0,.147-.786L27.124,4.009a.607.607,0,0,0-.749-.264L23.317,4.979A9.317,9.317,0,0,0,21.242,3.77L20.782.516A.632.632,0,0,0,20.168,0H15.256a.62.62,0,0,0-.608.516l-.46,3.254a9.087,9.087,0,0,0-2.075,1.209L9.055,3.745a.614.614,0,0,0-.749.264L5.85,8.264A.615.615,0,0,0,6,9.05l2.591,2.032a9.643,9.643,0,0,0-.086,1.2,9.643,9.643,0,0,0,.086,1.2L6,15.508a.612.612,0,0,0-.147.786l2.456,4.255a.607.607,0,0,0,.749.264l3.057-1.234a9.317,9.317,0,0,0,2.075,1.209l.46,3.254a.62.62,0,0,0,.608.516h4.912a.62.62,0,0,0,.608-.516l.46-3.254a9.087,9.087,0,0,0,2.075-1.209l3.057,1.234a.614.614,0,0,0,.749-.264l2.456-4.255A.615.615,0,0,0,29.426,15.508ZM17.712,16.577a4.3,4.3,0,1,1,4.3-4.3A4.295,4.295,0,0,1,17.712,16.577Z" transform="translate(-5.768)" fill="#2b68ff"/>
    </g>
  </g>
</svg>
