<svg id="Group_10" data-name="Group 10" xmlns="http://www.w3.org/2000/svg" width="25.52" height="26.38" viewBox="0 0 25.52 26.38">
  <g id="Group_9" data-name="Group 9">
    <circle id="Ellipse_2" data-name="Ellipse 2" cx="3.118" cy="3.118" r="3.118" transform="translate(7.032 20.143)" fill="#2b68ff"/>
    <path id="Path_11" data-name="Path 11" d="M269.615,324.1h0a3.118,3.118,0,1,0,3.118,3.118A3.118,3.118,0,0,0,269.615,324.1Z" transform="translate(-250.364 -303.955)" fill="#2b68ff"/>
    <path id="Path_12" data-name="Path 12" d="M31.479,16.96H15.218L14.9,15.114H28.265a.955.955,0,0,0,.891-.6l3.182-8.019a.955.955,0,0,0-.891-1.3h-18.2L12.482.8a.955.955,0,0,0-.955-.8H7.868a.955.955,0,0,0,0,1.909h2.864l2.737,16.165a.955.955,0,0,0,.955.8H31.479a.955.955,0,1,0,0-1.909Z" transform="translate(-6.913 0.001)" fill="#2b68ff"/>
  </g>
</svg>
