<svg id="settings" xmlns="http://www.w3.org/2000/svg" width="19.143" height="19.139" viewBox="0 0 19.143 19.139">
  <g id="Group_16" data-name="Group 16" transform="translate(0 0)">
    <g id="Group_15" data-name="Group 15">
      <path id="Path_21" data-name="Path 21" d="M162.3,159.29l-4.31-4.31a2.109,2.109,0,0,1-.664-1.55,3.911,3.911,0,0,0-1.259-2.872,3.825,3.825,0,0,0-2.776-1.257h0a3.939,3.939,0,0,0-2.442.9.4.4,0,0,0,.045.652l2.438,1.462a2.169,2.169,0,0,1-1.169,1.719l-2.182-1.31a.43.43,0,0,0-.412,0,.4.4,0,0,0-.207.327,3.955,3.955,0,0,0,1.079,2.976,4.005,4.005,0,0,0,2.9,1.252,3.638,3.638,0,0,0,.911-.12l5.091,5.091a2.09,2.09,0,1,0,2.955-2.957Z" transform="translate(-143.772 -143.721)" fill="#0b1b46"/>
      <path id="Path_22" data-name="Path 22" d="M10.36,14.5a.391.391,0,0,0-.327-.114A4.7,4.7,0,0,1,6.089,12.9a4.75,4.75,0,0,1-1.3-3.57,1.192,1.192,0,0,1,.621-.98,1.277,1.277,0,0,1,.629-.15h.022a.416.416,0,0,0,.407-.4A.4.4,0,0,0,6.33,7.5a1.194,1.194,0,0,1,.246-1.59,4.729,4.729,0,0,1,2.93-1.073A4.607,4.607,0,0,1,12.88,6.344,4.671,4.671,0,0,1,14.353,9.8a1.336,1.336,0,0,0,.431.952l1.734,1.734a.4.4,0,0,0,.34.112l1.551-.229a.856.856,0,0,0,.734-.857V7.736a.853.853,0,0,0-.724-.856L16.21,6.555a7.627,7.627,0,0,0-.73-1.287l.84-2.15a.858.858,0,0,0-.371-1.06L12.779.173a.857.857,0,0,0-1.112.212L10.291,2.194a6.2,6.2,0,0,0-1.439,0L7.475.383A.858.858,0,0,0,6.368.171L3.2,2.052A.884.884,0,0,0,2.824,3.12l.838,2.145a7.369,7.369,0,0,0-.73,1.29l-2.2.325A.857.857,0,0,0,0,7.737v3.772a.855.855,0,0,0,.726.857l2.208.325a7.627,7.627,0,0,0,.73,1.287l-.84,2.15a.857.857,0,0,0,.371,1.06l3.182,1.892a.87.87,0,0,0,1.1-.22l1.375-1.808a7.487,7.487,0,0,0,1.44,0l1.377,1.811a.843.843,0,0,0,.672.33.877.877,0,0,0,.435-.117l.917-.546a.4.4,0,0,0,.078-.625Z" transform="translate(0 -0.054)" fill="#0b1b46"/>
    </g>
  </g>
</svg>
