<svg xmlns="http://www.w3.org/2000/svg" xmlns:xlink="http://www.w3.org/1999/xlink" width="385.455" height="337.514" viewBox="0 0 385.455 337.514">
  <defs>
    <clipPath id="clip-path">
      <rect id="Rectangle_318" data-name="Rectangle 318" width="385.455" height="158.3" fill="#060606"/>
    </clipPath>
  </defs>
  <g id="Group_456" data-name="Group 456" opacity="0.6">
    <g id="white_dots" data-name="white dots">
      <g id="Group_452" data-name="Group 452" clip-path="url(#clip-path)">
        <path id="Path_15154" data-name="Path 15154" d="M2.995,0a3.06,3.06,0,0,1,3,3.12,3.059,3.059,0,0,1-3,3.12A3.059,3.059,0,0,1,0,3.12,3.059,3.059,0,0,1,2.995,0" transform="translate(0 152.06)" fill="#060606"/>
        <path id="Path_15155" data-name="Path 15155" d="M83.173,0a3.06,3.06,0,0,1,3,3.12,3,3,0,1,1-5.99,0A3.059,3.059,0,0,1,83.173,0" transform="translate(-50.988 152.06)" fill="#060606"/>
        <path id="Path_15156" data-name="Path 15156" d="M163.351,0a3.059,3.059,0,0,1,3,3.12,3,3,0,1,1-5.99,0A3.059,3.059,0,0,1,163.351,0" transform="translate(-101.977 152.06)" fill="#060606"/>
        <path id="Path_15157" data-name="Path 15157" d="M243.53,0a3.06,3.06,0,0,1,3,3.12,3,3,0,1,1-5.99,0A3.059,3.059,0,0,1,243.53,0" transform="translate(-152.966 152.06)" fill="#060606"/>
        <path id="Path_15158" data-name="Path 15158" d="M323.708,0a3.06,3.06,0,0,1,3,3.12,3,3,0,1,1-5.99,0A3.059,3.059,0,0,1,323.708,0" transform="translate(-203.955 152.06)" fill="#060606"/>
        <path id="Path_15159" data-name="Path 15159" d="M403.886,0a3.06,3.06,0,0,1,3,3.12,3,3,0,1,1-5.99,0A3.059,3.059,0,0,1,403.886,0" transform="translate(-254.943 152.06)" fill="#060606"/>
        <path id="Path_15160" data-name="Path 15160" d="M484.064,0a3.06,3.06,0,0,1,3,3.12,3,3,0,1,1-5.99,0A3.059,3.059,0,0,1,484.064,0" transform="translate(-305.931 152.06)" fill="#060606"/>
        <path id="Path_15161" data-name="Path 15161" d="M564.242,0a3.06,3.06,0,0,1,3,3.12,3,3,0,1,1-5.99,0A3.059,3.059,0,0,1,564.242,0" transform="translate(-356.92 152.06)" fill="#060606"/>
        <path id="Path_15162" data-name="Path 15162" d="M644.42,0a3.059,3.059,0,0,1,3,3.12,3,3,0,1,1-5.99,0A3.059,3.059,0,0,1,644.42,0" transform="translate(-407.909 152.06)" fill="#060606"/>
        <path id="Path_15163" data-name="Path 15163" d="M724.6,0a3.06,3.06,0,0,1,3,3.12,3,3,0,1,1-5.99,0A3.059,3.059,0,0,1,724.6,0" transform="translate(-458.897 152.06)" fill="#060606"/>
        <path id="Path_15164" data-name="Path 15164" d="M804.777,0a3.06,3.06,0,0,1,3,3.12,3,3,0,1,1-5.99,0A3.059,3.059,0,0,1,804.777,0" transform="translate(-509.886 152.06)" fill="#060606"/>
        <path id="Path_15165" data-name="Path 15165" d="M884.955,0a3.06,3.06,0,0,1,3,3.12,3,3,0,1,1-5.99,0A3.059,3.059,0,0,1,884.955,0" transform="translate(-560.874 152.06)" fill="#060606"/>
        <path id="Path_15166" data-name="Path 15166" d="M965.133,0a3.06,3.06,0,0,1,3,3.12,3,3,0,1,1-5.99,0A3.059,3.059,0,0,1,965.133,0" transform="translate(-611.863 152.06)" fill="#060606"/>
        <path id="Path_15167" data-name="Path 15167" d="M1045.311,0a3.06,3.06,0,0,1,3,3.12,3,3,0,1,1-5.99,0A3.059,3.059,0,0,1,1045.311,0" transform="translate(-662.851 152.06)" fill="#060606"/>
        <path id="Path_15168" data-name="Path 15168" d="M2.995,80.178a3.123,3.123,0,0,1,0,6.24,3.123,3.123,0,0,1,0-6.24" transform="translate(0 41.47)" fill="#060606"/>
        <path id="Path_15169" data-name="Path 15169" d="M83.173,80.178a3.123,3.123,0,1,1-2.995,3.12,3.06,3.06,0,0,1,2.995-3.12" transform="translate(-50.988 41.47)" fill="#060606"/>
        <path id="Path_15170" data-name="Path 15170" d="M163.351,80.178a3.123,3.123,0,1,1-2.995,3.12,3.059,3.059,0,0,1,2.995-3.12" transform="translate(-101.977 41.47)" fill="#060606"/>
        <path id="Path_15171" data-name="Path 15171" d="M243.53,80.178a3.123,3.123,0,1,1-2.995,3.12,3.06,3.06,0,0,1,2.995-3.12" transform="translate(-152.966 41.47)" fill="#060606"/>
        <path id="Path_15172" data-name="Path 15172" d="M323.708,80.178a3.123,3.123,0,1,1-2.995,3.12,3.06,3.06,0,0,1,2.995-3.12" transform="translate(-203.955 41.47)" fill="#060606"/>
        <path id="Path_15173" data-name="Path 15173" d="M403.886,80.178a3.123,3.123,0,1,1-2.995,3.12,3.06,3.06,0,0,1,2.995-3.12" transform="translate(-254.943 41.47)" fill="#060606"/>
        <path id="Path_15174" data-name="Path 15174" d="M484.064,80.178a3.123,3.123,0,1,1-2.995,3.12,3.06,3.06,0,0,1,2.995-3.12" transform="translate(-305.931 41.47)" fill="#060606"/>
        <path id="Path_15175" data-name="Path 15175" d="M564.242,80.178a3.123,3.123,0,1,1-2.995,3.12,3.06,3.06,0,0,1,2.995-3.12" transform="translate(-356.92 41.47)" fill="#060606"/>
        <path id="Path_15176" data-name="Path 15176" d="M644.42,80.178a3.123,3.123,0,1,1-2.995,3.12,3.059,3.059,0,0,1,2.995-3.12" transform="translate(-407.909 41.47)" fill="#060606"/>
        <path id="Path_15177" data-name="Path 15177" d="M724.6,80.178A3.123,3.123,0,1,1,721.6,83.3a3.06,3.06,0,0,1,2.995-3.12" transform="translate(-458.897 41.47)" fill="#060606"/>
        <path id="Path_15178" data-name="Path 15178" d="M804.777,80.178a3.123,3.123,0,1,1-2.995,3.12,3.06,3.06,0,0,1,2.995-3.12" transform="translate(-509.886 41.47)" fill="#060606"/>
        <path id="Path_15179" data-name="Path 15179" d="M884.955,80.178a3.123,3.123,0,1,1-2.995,3.12,3.06,3.06,0,0,1,2.995-3.12" transform="translate(-560.874 41.47)" fill="#060606"/>
        <path id="Path_15180" data-name="Path 15180" d="M965.133,80.178a3.123,3.123,0,1,1-2.995,3.12,3.06,3.06,0,0,1,2.995-3.12" transform="translate(-611.863 41.47)" fill="#060606"/>
        <path id="Path_15181" data-name="Path 15181" d="M1045.311,80.178a3.123,3.123,0,1,1-2.995,3.12,3.06,3.06,0,0,1,2.995-3.12" transform="translate(-662.851 41.47)" fill="#060606"/>
        <path id="Path_15182" data-name="Path 15182" d="M2.995,160.356a3.123,3.123,0,0,1,0,6.24,3.123,3.123,0,0,1,0-6.24" transform="translate(0 -69.12)" fill="#060606"/>
        <path id="Path_15183" data-name="Path 15183" d="M83.173,160.356a3.123,3.123,0,1,1-2.995,3.12,3.059,3.059,0,0,1,2.995-3.12" transform="translate(-50.988 -69.12)" fill="#060606"/>
        <path id="Path_15184" data-name="Path 15184" d="M163.351,160.356a3.123,3.123,0,1,1-2.995,3.12,3.059,3.059,0,0,1,2.995-3.12" transform="translate(-101.977 -69.12)" fill="#060606"/>
        <path id="Path_15185" data-name="Path 15185" d="M243.53,160.356a3.123,3.123,0,1,1-2.995,3.12,3.06,3.06,0,0,1,2.995-3.12" transform="translate(-152.966 -69.12)" fill="#060606"/>
        <path id="Path_15186" data-name="Path 15186" d="M323.708,160.356a3.123,3.123,0,1,1-2.995,3.12,3.06,3.06,0,0,1,2.995-3.12" transform="translate(-203.955 -69.12)" fill="#060606"/>
        <path id="Path_15187" data-name="Path 15187" d="M403.886,160.356a3.123,3.123,0,1,1-2.995,3.12,3.06,3.06,0,0,1,2.995-3.12" transform="translate(-254.943 -69.12)" fill="#060606"/>
        <path id="Path_15188" data-name="Path 15188" d="M484.064,160.356a3.123,3.123,0,1,1-2.995,3.12,3.06,3.06,0,0,1,2.995-3.12" transform="translate(-305.931 -69.12)" fill="#060606"/>
        <path id="Path_15189" data-name="Path 15189" d="M564.242,160.356a3.123,3.123,0,1,1-2.995,3.12,3.06,3.06,0,0,1,2.995-3.12" transform="translate(-356.92 -69.12)" fill="#060606"/>
        <path id="Path_15190" data-name="Path 15190" d="M644.42,160.356a3.123,3.123,0,1,1-2.995,3.12,3.059,3.059,0,0,1,2.995-3.12" transform="translate(-407.909 -69.12)" fill="#060606"/>
        <path id="Path_15191" data-name="Path 15191" d="M724.6,160.356a3.123,3.123,0,1,1-2.995,3.12,3.06,3.06,0,0,1,2.995-3.12" transform="translate(-458.897 -69.12)" fill="#060606"/>
        <path id="Path_15192" data-name="Path 15192" d="M804.777,160.356a3.123,3.123,0,1,1-2.995,3.12,3.06,3.06,0,0,1,2.995-3.12" transform="translate(-509.886 -69.12)" fill="#060606"/>
        <path id="Path_15193" data-name="Path 15193" d="M884.955,160.356a3.123,3.123,0,1,1-2.995,3.12,3.06,3.06,0,0,1,2.995-3.12" transform="translate(-560.874 -69.12)" fill="#060606"/>
        <path id="Path_15194" data-name="Path 15194" d="M965.133,160.356a3.123,3.123,0,1,1-2.995,3.12,3.06,3.06,0,0,1,2.995-3.12" transform="translate(-611.863 -69.12)" fill="#060606"/>
        <path id="Path_15195" data-name="Path 15195" d="M1045.311,160.356a3.123,3.123,0,1,1-2.995,3.12,3.06,3.06,0,0,1,2.995-3.12" transform="translate(-662.851 -69.12)" fill="#060606"/>
        <path id="Path_15196" data-name="Path 15196" d="M2.995,240.535a3.123,3.123,0,0,1,0,6.24,3.123,3.123,0,0,1,0-6.24" transform="translate(0 -179.711)" fill="#060606"/>
        <path id="Path_15197" data-name="Path 15197" d="M83.173,240.535a3.123,3.123,0,1,1-2.995,3.12,3.06,3.06,0,0,1,2.995-3.12" transform="translate(-50.988 -179.711)" fill="#060606"/>
        <path id="Path_15198" data-name="Path 15198" d="M163.351,240.535a3.123,3.123,0,1,1-2.995,3.12,3.06,3.06,0,0,1,2.995-3.12" transform="translate(-101.977 -179.711)" fill="#060606"/>
        <path id="Path_15199" data-name="Path 15199" d="M243.53,240.535a3.123,3.123,0,1,1-2.995,3.12,3.06,3.06,0,0,1,2.995-3.12" transform="translate(-152.966 -179.711)" fill="#060606"/>
        <path id="Path_15200" data-name="Path 15200" d="M323.708,240.535a3.123,3.123,0,1,1-2.995,3.12,3.06,3.06,0,0,1,2.995-3.12" transform="translate(-203.955 -179.711)" fill="#060606"/>
        <path id="Path_15201" data-name="Path 15201" d="M403.886,240.535a3.123,3.123,0,1,1-2.995,3.12,3.06,3.06,0,0,1,2.995-3.12" transform="translate(-254.943 -179.711)" fill="#060606"/>
        <path id="Path_15202" data-name="Path 15202" d="M484.064,240.535a3.123,3.123,0,1,1-2.995,3.12,3.06,3.06,0,0,1,2.995-3.12" transform="translate(-305.931 -179.711)" fill="#060606"/>
        <path id="Path_15203" data-name="Path 15203" d="M564.242,240.535a3.123,3.123,0,1,1-2.995,3.12,3.06,3.06,0,0,1,2.995-3.12" transform="translate(-356.92 -179.711)" fill="#060606"/>
        <path id="Path_15204" data-name="Path 15204" d="M644.42,240.535a3.123,3.123,0,1,1-2.995,3.12,3.059,3.059,0,0,1,2.995-3.12" transform="translate(-407.909 -179.711)" fill="#060606"/>
        <path id="Path_15205" data-name="Path 15205" d="M724.6,240.535a3.123,3.123,0,1,1-2.995,3.12,3.06,3.06,0,0,1,2.995-3.12" transform="translate(-458.897 -179.711)" fill="#060606"/>
        <path id="Path_15206" data-name="Path 15206" d="M804.777,240.535a3.123,3.123,0,1,1-2.995,3.12,3.06,3.06,0,0,1,2.995-3.12" transform="translate(-509.886 -179.711)" fill="#060606"/>
        <path id="Path_15207" data-name="Path 15207" d="M884.955,240.535a3.123,3.123,0,1,1-2.995,3.12,3.06,3.06,0,0,1,2.995-3.12" transform="translate(-560.874 -179.711)" fill="#060606"/>
        <path id="Path_15208" data-name="Path 15208" d="M965.133,240.535a3.123,3.123,0,1,1-2.995,3.12,3.06,3.06,0,0,1,2.995-3.12" transform="translate(-611.863 -179.711)" fill="#060606"/>
        <path id="Path_15209" data-name="Path 15209" d="M1045.311,240.535a3.123,3.123,0,1,1-2.995,3.12,3.06,3.06,0,0,1,2.995-3.12" transform="translate(-662.851 -179.711)" fill="#060606"/>
        <path id="Path_15210" data-name="Path 15210" d="M2.995,320.713a3.123,3.123,0,0,1,0,6.24,3.123,3.123,0,0,1,0-6.24" transform="translate(0 -290.301)" fill="#060606"/>
        <path id="Path_15211" data-name="Path 15211" d="M83.173,320.713a3.123,3.123,0,1,1-2.995,3.12,3.06,3.06,0,0,1,2.995-3.12" transform="translate(-50.988 -290.301)" fill="#060606"/>
        <path id="Path_15212" data-name="Path 15212" d="M163.351,320.713a3.123,3.123,0,1,1-2.995,3.12,3.06,3.06,0,0,1,2.995-3.12" transform="translate(-101.977 -290.301)" fill="#060606"/>
        <path id="Path_15213" data-name="Path 15213" d="M243.53,320.713a3.123,3.123,0,1,1-2.995,3.12,3.06,3.06,0,0,1,2.995-3.12" transform="translate(-152.966 -290.301)" fill="#060606"/>
        <path id="Path_15214" data-name="Path 15214" d="M323.708,320.713a3.123,3.123,0,1,1-2.995,3.12,3.06,3.06,0,0,1,2.995-3.12" transform="translate(-203.955 -290.301)" fill="#060606"/>
        <path id="Path_15215" data-name="Path 15215" d="M403.886,320.713a3.123,3.123,0,1,1-2.995,3.12,3.06,3.06,0,0,1,2.995-3.12" transform="translate(-254.943 -290.301)" fill="#060606"/>
        <path id="Path_15216" data-name="Path 15216" d="M484.064,320.713a3.123,3.123,0,1,1-2.995,3.12,3.06,3.06,0,0,1,2.995-3.12" transform="translate(-305.931 -290.301)" fill="#060606"/>
        <path id="Path_15217" data-name="Path 15217" d="M564.242,320.713a3.123,3.123,0,1,1-2.995,3.12,3.06,3.06,0,0,1,2.995-3.12" transform="translate(-356.92 -290.301)" fill="#060606"/>
        <path id="Path_15218" data-name="Path 15218" d="M644.42,320.713a3.123,3.123,0,1,1-2.995,3.12,3.059,3.059,0,0,1,2.995-3.12" transform="translate(-407.909 -290.301)" fill="#060606"/>
        <path id="Path_15219" data-name="Path 15219" d="M724.6,320.713a3.123,3.123,0,1,1-2.995,3.12,3.06,3.06,0,0,1,2.995-3.12" transform="translate(-458.897 -290.301)" fill="#060606"/>
        <path id="Path_15220" data-name="Path 15220" d="M804.777,320.713a3.123,3.123,0,1,1-2.995,3.12,3.06,3.06,0,0,1,2.995-3.12" transform="translate(-509.886 -290.301)" fill="#060606"/>
        <path id="Path_15221" data-name="Path 15221" d="M884.955,320.713a3.123,3.123,0,1,1-2.995,3.12,3.06,3.06,0,0,1,2.995-3.12" transform="translate(-560.874 -290.301)" fill="#060606"/>
        <path id="Path_15222" data-name="Path 15222" d="M965.133,320.713a3.123,3.123,0,1,1-2.995,3.12,3.06,3.06,0,0,1,2.995-3.12" transform="translate(-611.863 -290.301)" fill="#060606"/>
        <path id="Path_15223" data-name="Path 15223" d="M1045.311,320.713a3.123,3.123,0,1,1-2.995,3.12,3.06,3.06,0,0,1,2.995-3.12" transform="translate(-662.851 -290.301)" fill="#060606"/>
        <path id="Path_15224" data-name="Path 15224" d="M2.995,400.891a3.123,3.123,0,0,1,0,6.24,3.123,3.123,0,0,1,0-6.24" transform="translate(0 -400.891)" fill="#060606"/>
        <path id="Path_15225" data-name="Path 15225" d="M83.173,400.891a3.123,3.123,0,1,1-2.995,3.12,3.059,3.059,0,0,1,2.995-3.12" transform="translate(-50.988 -400.891)" fill="#060606"/>
        <path id="Path_15226" data-name="Path 15226" d="M163.351,400.891a3.123,3.123,0,1,1-2.995,3.12,3.059,3.059,0,0,1,2.995-3.12" transform="translate(-101.977 -400.891)" fill="#060606"/>
        <path id="Path_15227" data-name="Path 15227" d="M243.53,400.891a3.123,3.123,0,1,1-2.995,3.12,3.06,3.06,0,0,1,2.995-3.12" transform="translate(-152.966 -400.891)" fill="#060606"/>
        <path id="Path_15228" data-name="Path 15228" d="M323.708,400.891a3.123,3.123,0,1,1-2.995,3.12,3.06,3.06,0,0,1,2.995-3.12" transform="translate(-203.955 -400.891)" fill="#060606"/>
        <path id="Path_15229" data-name="Path 15229" d="M403.886,400.891a3.123,3.123,0,1,1-2.995,3.12,3.06,3.06,0,0,1,2.995-3.12" transform="translate(-254.943 -400.891)" fill="#060606"/>
        <path id="Path_15230" data-name="Path 15230" d="M484.064,400.891a3.123,3.123,0,1,1-2.995,3.12,3.06,3.06,0,0,1,2.995-3.12" transform="translate(-305.931 -400.891)" fill="#060606"/>
        <path id="Path_15231" data-name="Path 15231" d="M564.242,400.891a3.123,3.123,0,1,1-2.995,3.12,3.06,3.06,0,0,1,2.995-3.12" transform="translate(-356.92 -400.891)" fill="#060606"/>
        <path id="Path_15232" data-name="Path 15232" d="M644.42,400.891a3.123,3.123,0,1,1-2.995,3.12,3.059,3.059,0,0,1,2.995-3.12" transform="translate(-407.909 -400.891)" fill="#060606"/>
        <path id="Path_15233" data-name="Path 15233" d="M724.6,400.891a3.123,3.123,0,1,1-2.995,3.12,3.06,3.06,0,0,1,2.995-3.12" transform="translate(-458.897 -400.891)" fill="#060606"/>
        <path id="Path_15234" data-name="Path 15234" d="M804.777,400.891a3.123,3.123,0,1,1-2.995,3.12,3.06,3.06,0,0,1,2.995-3.12" transform="translate(-509.886 -400.891)" fill="#060606"/>
        <path id="Path_15235" data-name="Path 15235" d="M884.955,400.891a3.123,3.123,0,1,1-2.995,3.12,3.06,3.06,0,0,1,2.995-3.12" transform="translate(-560.874 -400.891)" fill="#060606"/>
        <path id="Path_15236" data-name="Path 15236" d="M965.133,400.891a3.123,3.123,0,1,1-2.995,3.12,3.06,3.06,0,0,1,2.995-3.12" transform="translate(-611.863 -400.891)" fill="#060606"/>
        <path id="Path_15237" data-name="Path 15237" d="M1045.311,400.891a3.123,3.123,0,1,1-2.995,3.12,3.059,3.059,0,0,1,2.995-3.12" transform="translate(-662.851 -400.891)" fill="#060606"/>
      </g>
    </g>
    <g id="white_dots-2" data-name="white dots" transform="translate(0 179.214)">
      <g id="Group_452-2" data-name="Group 452" clip-path="url(#clip-path)">
        <path id="Path_15154-2" data-name="Path 15154" d="M2.995,0a3.06,3.06,0,0,1,3,3.12,3.059,3.059,0,0,1-3,3.12A3.059,3.059,0,0,1,0,3.12,3.059,3.059,0,0,1,2.995,0" transform="translate(0 152.06)" fill="#060606"/>
        <path id="Path_15155-2" data-name="Path 15155" d="M83.173,0a3.06,3.06,0,0,1,3,3.12,3,3,0,1,1-5.99,0A3.059,3.059,0,0,1,83.173,0" transform="translate(-50.988 152.06)" fill="#060606"/>
        <path id="Path_15156-2" data-name="Path 15156" d="M163.351,0a3.059,3.059,0,0,1,3,3.12,3,3,0,1,1-5.99,0A3.059,3.059,0,0,1,163.351,0" transform="translate(-101.977 152.06)" fill="#060606"/>
        <path id="Path_15157-2" data-name="Path 15157" d="M243.53,0a3.06,3.06,0,0,1,3,3.12,3,3,0,1,1-5.99,0A3.059,3.059,0,0,1,243.53,0" transform="translate(-152.966 152.06)" fill="#060606"/>
        <path id="Path_15158-2" data-name="Path 15158" d="M323.708,0a3.06,3.06,0,0,1,3,3.12,3,3,0,1,1-5.99,0A3.059,3.059,0,0,1,323.708,0" transform="translate(-203.955 152.06)" fill="#060606"/>
        <path id="Path_15159-2" data-name="Path 15159" d="M403.886,0a3.06,3.06,0,0,1,3,3.12,3,3,0,1,1-5.99,0A3.059,3.059,0,0,1,403.886,0" transform="translate(-254.943 152.06)" fill="#060606"/>
        <path id="Path_15160-2" data-name="Path 15160" d="M484.064,0a3.06,3.06,0,0,1,3,3.12,3,3,0,1,1-5.99,0A3.059,3.059,0,0,1,484.064,0" transform="translate(-305.931 152.06)" fill="#060606"/>
        <path id="Path_15161-2" data-name="Path 15161" d="M564.242,0a3.06,3.06,0,0,1,3,3.12,3,3,0,1,1-5.99,0A3.059,3.059,0,0,1,564.242,0" transform="translate(-356.92 152.06)" fill="#060606"/>
        <path id="Path_15162-2" data-name="Path 15162" d="M644.42,0a3.059,3.059,0,0,1,3,3.12,3,3,0,1,1-5.99,0A3.059,3.059,0,0,1,644.42,0" transform="translate(-407.909 152.06)" fill="#060606"/>
        <path id="Path_15163-2" data-name="Path 15163" d="M724.6,0a3.06,3.06,0,0,1,3,3.12,3,3,0,1,1-5.99,0A3.059,3.059,0,0,1,724.6,0" transform="translate(-458.897 152.06)" fill="#060606"/>
        <path id="Path_15164-2" data-name="Path 15164" d="M804.777,0a3.06,3.06,0,0,1,3,3.12,3,3,0,1,1-5.99,0A3.059,3.059,0,0,1,804.777,0" transform="translate(-509.886 152.06)" fill="#060606"/>
        <path id="Path_15168-2" data-name="Path 15168" d="M2.995,80.178a3.123,3.123,0,0,1,0,6.24,3.123,3.123,0,0,1,0-6.24" transform="translate(0 41.47)" fill="#060606"/>
        <path id="Path_15169-2" data-name="Path 15169" d="M83.173,80.178a3.123,3.123,0,1,1-2.995,3.12,3.06,3.06,0,0,1,2.995-3.12" transform="translate(-50.988 41.47)" fill="#060606"/>
        <path id="Path_15170-2" data-name="Path 15170" d="M163.351,80.178a3.123,3.123,0,1,1-2.995,3.12,3.059,3.059,0,0,1,2.995-3.12" transform="translate(-101.977 41.47)" fill="#060606"/>
        <path id="Path_15171-2" data-name="Path 15171" d="M243.53,80.178a3.123,3.123,0,1,1-2.995,3.12,3.06,3.06,0,0,1,2.995-3.12" transform="translate(-152.966 41.47)" fill="#060606"/>
        <path id="Path_15172-2" data-name="Path 15172" d="M323.708,80.178a3.123,3.123,0,1,1-2.995,3.12,3.06,3.06,0,0,1,2.995-3.12" transform="translate(-203.955 41.47)" fill="#060606"/>
        <path id="Path_15173-2" data-name="Path 15173" d="M403.886,80.178a3.123,3.123,0,1,1-2.995,3.12,3.06,3.06,0,0,1,2.995-3.12" transform="translate(-254.943 41.47)" fill="#060606"/>
        <path id="Path_15174-2" data-name="Path 15174" d="M484.064,80.178a3.123,3.123,0,1,1-2.995,3.12,3.06,3.06,0,0,1,2.995-3.12" transform="translate(-305.931 41.47)" fill="#060606"/>
        <path id="Path_15175-2" data-name="Path 15175" d="M564.242,80.178a3.123,3.123,0,1,1-2.995,3.12,3.06,3.06,0,0,1,2.995-3.12" transform="translate(-356.92 41.47)" fill="#060606"/>
        <path id="Path_15176-2" data-name="Path 15176" d="M644.42,80.178a3.123,3.123,0,1,1-2.995,3.12,3.059,3.059,0,0,1,2.995-3.12" transform="translate(-407.909 41.47)" fill="#060606"/>
        <path id="Path_15177-2" data-name="Path 15177" d="M724.6,80.178A3.123,3.123,0,1,1,721.6,83.3a3.06,3.06,0,0,1,2.995-3.12" transform="translate(-458.897 41.47)" fill="#060606"/>
        <path id="Path_15178-2" data-name="Path 15178" d="M804.777,80.178a3.123,3.123,0,1,1-2.995,3.12,3.06,3.06,0,0,1,2.995-3.12" transform="translate(-509.886 41.47)" fill="#060606"/>
        <path id="Path_15179-2" data-name="Path 15179" d="M884.955,80.178a3.123,3.123,0,1,1-2.995,3.12,3.06,3.06,0,0,1,2.995-3.12" transform="translate(-560.874 41.47)" fill="#060606"/>
        <path id="Path_15180-2" data-name="Path 15180" d="M965.133,80.178a3.123,3.123,0,1,1-2.995,3.12,3.06,3.06,0,0,1,2.995-3.12" transform="translate(-611.863 41.47)" fill="#060606"/>
        <path id="Path_15182-2" data-name="Path 15182" d="M2.995,160.356a3.123,3.123,0,0,1,0,6.24,3.123,3.123,0,0,1,0-6.24" transform="translate(0 -69.12)" fill="#060606"/>
        <path id="Path_15183-2" data-name="Path 15183" d="M83.173,160.356a3.123,3.123,0,1,1-2.995,3.12,3.059,3.059,0,0,1,2.995-3.12" transform="translate(-50.988 -69.12)" fill="#060606"/>
        <path id="Path_15184-2" data-name="Path 15184" d="M163.351,160.356a3.123,3.123,0,1,1-2.995,3.12,3.059,3.059,0,0,1,2.995-3.12" transform="translate(-101.977 -69.12)" fill="#060606"/>
        <path id="Path_15185-2" data-name="Path 15185" d="M243.53,160.356a3.123,3.123,0,1,1-2.995,3.12,3.06,3.06,0,0,1,2.995-3.12" transform="translate(-152.966 -69.12)" fill="#060606"/>
        <path id="Path_15186-2" data-name="Path 15186" d="M323.708,160.356a3.123,3.123,0,1,1-2.995,3.12,3.06,3.06,0,0,1,2.995-3.12" transform="translate(-203.955 -69.12)" fill="#060606"/>
        <path id="Path_15187-2" data-name="Path 15187" d="M403.886,160.356a3.123,3.123,0,1,1-2.995,3.12,3.06,3.06,0,0,1,2.995-3.12" transform="translate(-254.943 -69.12)" fill="#060606"/>
        <path id="Path_15188-2" data-name="Path 15188" d="M484.064,160.356a3.123,3.123,0,1,1-2.995,3.12,3.06,3.06,0,0,1,2.995-3.12" transform="translate(-305.931 -69.12)" fill="#060606"/>
        <path id="Path_15189-2" data-name="Path 15189" d="M564.242,160.356a3.123,3.123,0,1,1-2.995,3.12,3.06,3.06,0,0,1,2.995-3.12" transform="translate(-356.92 -69.12)" fill="#060606"/>
        <path id="Path_15190-2" data-name="Path 15190" d="M644.42,160.356a3.123,3.123,0,1,1-2.995,3.12,3.059,3.059,0,0,1,2.995-3.12" transform="translate(-407.909 -69.12)" fill="#060606"/>
        <path id="Path_15191-2" data-name="Path 15191" d="M724.6,160.356a3.123,3.123,0,1,1-2.995,3.12,3.06,3.06,0,0,1,2.995-3.12" transform="translate(-458.897 -69.12)" fill="#060606"/>
        <path id="Path_15192-2" data-name="Path 15192" d="M804.777,160.356a3.123,3.123,0,1,1-2.995,3.12,3.06,3.06,0,0,1,2.995-3.12" transform="translate(-509.886 -69.12)" fill="#060606"/>
        <path id="Path_15193-2" data-name="Path 15193" d="M884.955,160.356a3.123,3.123,0,1,1-2.995,3.12,3.06,3.06,0,0,1,2.995-3.12" transform="translate(-560.874 -69.12)" fill="#060606"/>
        <path id="Path_15194-2" data-name="Path 15194" d="M965.133,160.356a3.123,3.123,0,1,1-2.995,3.12,3.06,3.06,0,0,1,2.995-3.12" transform="translate(-611.863 -69.12)" fill="#060606"/>
        <path id="Path_15196-2" data-name="Path 15196" d="M2.995,240.535a3.123,3.123,0,0,1,0,6.24,3.123,3.123,0,0,1,0-6.24" transform="translate(0 -179.711)" fill="#060606"/>
        <path id="Path_15197-2" data-name="Path 15197" d="M83.173,240.535a3.123,3.123,0,1,1-2.995,3.12,3.06,3.06,0,0,1,2.995-3.12" transform="translate(-50.988 -179.711)" fill="#060606"/>
        <path id="Path_15198-2" data-name="Path 15198" d="M163.351,240.535a3.123,3.123,0,1,1-2.995,3.12,3.06,3.06,0,0,1,2.995-3.12" transform="translate(-101.977 -179.711)" fill="#060606"/>
        <path id="Path_15199-2" data-name="Path 15199" d="M243.53,240.535a3.123,3.123,0,1,1-2.995,3.12,3.06,3.06,0,0,1,2.995-3.12" transform="translate(-152.966 -179.711)" fill="#060606"/>
        <path id="Path_15200-2" data-name="Path 15200" d="M323.708,240.535a3.123,3.123,0,1,1-2.995,3.12,3.06,3.06,0,0,1,2.995-3.12" transform="translate(-203.955 -179.711)" fill="#060606"/>
        <path id="Path_15201-2" data-name="Path 15201" d="M403.886,240.535a3.123,3.123,0,1,1-2.995,3.12,3.06,3.06,0,0,1,2.995-3.12" transform="translate(-254.943 -179.711)" fill="#060606"/>
        <path id="Path_15202-2" data-name="Path 15202" d="M484.064,240.535a3.123,3.123,0,1,1-2.995,3.12,3.06,3.06,0,0,1,2.995-3.12" transform="translate(-305.931 -179.711)" fill="#060606"/>
        <path id="Path_15203-2" data-name="Path 15203" d="M564.242,240.535a3.123,3.123,0,1,1-2.995,3.12,3.06,3.06,0,0,1,2.995-3.12" transform="translate(-356.92 -179.711)" fill="#060606"/>
        <path id="Path_15204-2" data-name="Path 15204" d="M644.42,240.535a3.123,3.123,0,1,1-2.995,3.12,3.059,3.059,0,0,1,2.995-3.12" transform="translate(-407.909 -179.711)" fill="#060606"/>
        <path id="Path_15205-2" data-name="Path 15205" d="M724.6,240.535a3.123,3.123,0,1,1-2.995,3.12,3.06,3.06,0,0,1,2.995-3.12" transform="translate(-458.897 -179.711)" fill="#060606"/>
        <path id="Path_15206-2" data-name="Path 15206" d="M804.777,240.535a3.123,3.123,0,1,1-2.995,3.12,3.06,3.06,0,0,1,2.995-3.12" transform="translate(-509.886 -179.711)" fill="#060606"/>
        <path id="Path_15207-2" data-name="Path 15207" d="M884.955,240.535a3.123,3.123,0,1,1-2.995,3.12,3.06,3.06,0,0,1,2.995-3.12" transform="translate(-560.874 -179.711)" fill="#060606"/>
        <path id="Path_15208-2" data-name="Path 15208" d="M965.133,240.535a3.123,3.123,0,1,1-2.995,3.12,3.06,3.06,0,0,1,2.995-3.12" transform="translate(-611.863 -179.711)" fill="#060606"/>
        <path id="Path_15209-2" data-name="Path 15209" d="M1045.311,240.535a3.123,3.123,0,1,1-2.995,3.12,3.06,3.06,0,0,1,2.995-3.12" transform="translate(-662.851 -179.711)" fill="#060606"/>
        <path id="Path_15210-2" data-name="Path 15210" d="M2.995,320.713a3.123,3.123,0,0,1,0,6.24,3.123,3.123,0,0,1,0-6.24" transform="translate(0 -290.301)" fill="#060606"/>
        <path id="Path_15211-2" data-name="Path 15211" d="M83.173,320.713a3.123,3.123,0,1,1-2.995,3.12,3.06,3.06,0,0,1,2.995-3.12" transform="translate(-50.988 -290.301)" fill="#060606"/>
        <path id="Path_15212-2" data-name="Path 15212" d="M163.351,320.713a3.123,3.123,0,1,1-2.995,3.12,3.06,3.06,0,0,1,2.995-3.12" transform="translate(-101.977 -290.301)" fill="#060606"/>
        <path id="Path_15213-2" data-name="Path 15213" d="M243.53,320.713a3.123,3.123,0,1,1-2.995,3.12,3.06,3.06,0,0,1,2.995-3.12" transform="translate(-152.966 -290.301)" fill="#060606"/>
        <path id="Path_15214-2" data-name="Path 15214" d="M323.708,320.713a3.123,3.123,0,1,1-2.995,3.12,3.06,3.06,0,0,1,2.995-3.12" transform="translate(-203.955 -290.301)" fill="#060606"/>
        <path id="Path_15215-2" data-name="Path 15215" d="M403.886,320.713a3.123,3.123,0,1,1-2.995,3.12,3.06,3.06,0,0,1,2.995-3.12" transform="translate(-254.943 -290.301)" fill="#060606"/>
        <path id="Path_15216-2" data-name="Path 15216" d="M484.064,320.713a3.123,3.123,0,1,1-2.995,3.12,3.06,3.06,0,0,1,2.995-3.12" transform="translate(-305.931 -290.301)" fill="#060606"/>
        <path id="Path_15217-2" data-name="Path 15217" d="M564.242,320.713a3.123,3.123,0,1,1-2.995,3.12,3.06,3.06,0,0,1,2.995-3.12" transform="translate(-356.92 -290.301)" fill="#060606"/>
        <path id="Path_15218-2" data-name="Path 15218" d="M644.42,320.713a3.123,3.123,0,1,1-2.995,3.12,3.059,3.059,0,0,1,2.995-3.12" transform="translate(-407.909 -290.301)" fill="#060606"/>
        <path id="Path_15219-2" data-name="Path 15219" d="M724.6,320.713a3.123,3.123,0,1,1-2.995,3.12,3.06,3.06,0,0,1,2.995-3.12" transform="translate(-458.897 -290.301)" fill="#060606"/>
        <path id="Path_15220-2" data-name="Path 15220" d="M804.777,320.713a3.123,3.123,0,1,1-2.995,3.12,3.06,3.06,0,0,1,2.995-3.12" transform="translate(-509.886 -290.301)" fill="#060606"/>
        <path id="Path_15221-2" data-name="Path 15221" d="M884.955,320.713a3.123,3.123,0,1,1-2.995,3.12,3.06,3.06,0,0,1,2.995-3.12" transform="translate(-560.874 -290.301)" fill="#060606"/>
        <path id="Path_15222-2" data-name="Path 15222" d="M965.133,320.713a3.123,3.123,0,1,1-2.995,3.12,3.06,3.06,0,0,1,2.995-3.12" transform="translate(-611.863 -290.301)" fill="#060606"/>
        <path id="Path_15223-2" data-name="Path 15223" d="M1045.311,320.713a3.123,3.123,0,1,1-2.995,3.12,3.06,3.06,0,0,1,2.995-3.12" transform="translate(-662.851 -290.301)" fill="#060606"/>
        <path id="Path_15224-2" data-name="Path 15224" d="M2.995,400.891a3.123,3.123,0,0,1,0,6.24,3.123,3.123,0,0,1,0-6.24" transform="translate(0 -400.891)" fill="#060606"/>
        <path id="Path_15225-2" data-name="Path 15225" d="M83.173,400.891a3.123,3.123,0,1,1-2.995,3.12,3.059,3.059,0,0,1,2.995-3.12" transform="translate(-50.988 -400.891)" fill="#060606"/>
        <path id="Path_15226-2" data-name="Path 15226" d="M163.351,400.891a3.123,3.123,0,1,1-2.995,3.12,3.059,3.059,0,0,1,2.995-3.12" transform="translate(-101.977 -400.891)" fill="#060606"/>
        <path id="Path_15227-2" data-name="Path 15227" d="M243.53,400.891a3.123,3.123,0,1,1-2.995,3.12,3.06,3.06,0,0,1,2.995-3.12" transform="translate(-152.966 -400.891)" fill="#060606"/>
        <path id="Path_15228-2" data-name="Path 15228" d="M323.708,400.891a3.123,3.123,0,1,1-2.995,3.12,3.06,3.06,0,0,1,2.995-3.12" transform="translate(-203.955 -400.891)" fill="#060606"/>
        <path id="Path_15229-2" data-name="Path 15229" d="M403.886,400.891a3.123,3.123,0,1,1-2.995,3.12,3.06,3.06,0,0,1,2.995-3.12" transform="translate(-254.943 -400.891)" fill="#060606"/>
        <path id="Path_15230-2" data-name="Path 15230" d="M484.064,400.891a3.123,3.123,0,1,1-2.995,3.12,3.06,3.06,0,0,1,2.995-3.12" transform="translate(-305.931 -400.891)" fill="#060606"/>
        <path id="Path_15231-2" data-name="Path 15231" d="M564.242,400.891a3.123,3.123,0,1,1-2.995,3.12,3.06,3.06,0,0,1,2.995-3.12" transform="translate(-356.92 -400.891)" fill="#060606"/>
        <path id="Path_15232-2" data-name="Path 15232" d="M644.42,400.891a3.123,3.123,0,1,1-2.995,3.12,3.059,3.059,0,0,1,2.995-3.12" transform="translate(-407.909 -400.891)" fill="#060606"/>
        <path id="Path_15233-2" data-name="Path 15233" d="M724.6,400.891a3.123,3.123,0,1,1-2.995,3.12,3.06,3.06,0,0,1,2.995-3.12" transform="translate(-458.897 -400.891)" fill="#060606"/>
        <path id="Path_15234-2" data-name="Path 15234" d="M804.777,400.891a3.123,3.123,0,1,1-2.995,3.12,3.06,3.06,0,0,1,2.995-3.12" transform="translate(-509.886 -400.891)" fill="#060606"/>
        <path id="Path_15235-2" data-name="Path 15235" d="M884.955,400.891a3.123,3.123,0,1,1-2.995,3.12,3.06,3.06,0,0,1,2.995-3.12" transform="translate(-560.874 -400.891)" fill="#060606"/>
        <path id="Path_15236-2" data-name="Path 15236" d="M965.133,400.891a3.123,3.123,0,1,1-2.995,3.12,3.06,3.06,0,0,1,2.995-3.12" transform="translate(-611.863 -400.891)" fill="#060606"/>
        <path id="Path_15237-2" data-name="Path 15237" d="M1045.311,400.891a3.123,3.123,0,1,1-2.995,3.12,3.059,3.059,0,0,1,2.995-3.12" transform="translate(-662.851 -400.891)" fill="#060606"/>
      </g>
    </g>
  </g>
</svg>
