<svg id="Group_459" data-name="Group 459" xmlns="http://www.w3.org/2000/svg" xmlns:xlink="http://www.w3.org/1999/xlink" width="76.778" height="91.607" viewBox="0 0 76.778 91.607">
  <defs>
    <style>
      .cls-1 {
        fill: none;
      }

      .cls-2 {
        fill: #c72;
      }

      .cls-3 {
        fill: #232323;
      }

      .cls-4 {
        clip-path: url(#clip-path);
      }

      .cls-5 {
        fill: #fff;
      }
    </style>
    <clipPath id="clip-path">
      <rect id="Rectangle_321" data-name="Rectangle 321" class="cls-1" width="76.778" height="91.608"/>
    </clipPath>
  </defs>
  <path id="Path_15247" data-name="Path 15247" class="cls-2" d="M40.766,102.829H12.155L6.393,43.585H46.527Z" transform="translate(-1.882 -12.828)"/>
  <path id="Path_15248" data-name="Path 15248" class="cls-3" d="M7.3,44.407H44.322l-5.486,56.422H12.786ZM4.189,41.584l6.035,62.067H41.4l6.034-62.067Z" transform="translate(-1.233 -12.239)"/>
  <g id="Group_458" data-name="Group 458">
    <g id="Group_457" data-name="Group 457" class="cls-4">
      <path id="Path_15249" data-name="Path 15249" class="cls-3" d="M45.8,42.325H3.361A3.365,3.365,0,0,1,0,38.965V37.872a3.365,3.365,0,0,1,3.361-3.361H45.8a3.365,3.365,0,0,1,3.361,3.361v1.092a3.365,3.365,0,0,1-3.361,3.36M3.361,37.334a.539.539,0,0,0-.538.538v1.092a.539.539,0,0,0,.538.538H45.8a.539.539,0,0,0,.538-.538V37.872a.539.539,0,0,0-.538-.538Z" transform="translate(0 -10.157)"/>
      <path id="Path_15250" data-name="Path 15250" class="cls-3" d="M6.667,35.45a1.412,1.412,0,0,1-1.411-1.411v-2.11a3.819,3.819,0,0,1,3.812-3.818H43.183A3.819,3.819,0,0,1,47,31.929v1.629a1.411,1.411,0,0,1-2.823,0V31.929a.994.994,0,0,0-.991-1H9.068a.993.993,0,0,0-.989,1v2.11A1.411,1.411,0,0,1,6.667,35.45" transform="translate(-1.547 -8.273)"/>
      <path id="Path_15251" data-name="Path 15251" class="cls-5" d="M45.467,66.653a200.257,200.257,0,0,1-20.173.852c-6.018-.049-11.659-.368-16.872-.852L10.962,90.4c2.7.625,10.144.836,12.9,1,0,0,10.8-.382,19.367-1Z" transform="translate(-2.479 -19.617)"/>
      <path id="Path_15252" data-name="Path 15252" class="cls-3" d="M26.128,68.437c-6,0-12.055-.291-18.011-.867a1.412,1.412,0,1,1,.271-2.81c6.07.586,12.239.875,18.359.852,6.029-.02,12.123-.341,18.111-.952a1.411,1.411,0,0,1,.287,2.808c-6.08.62-12.266.946-18.387.967h-.629" transform="translate(-2.014 -19.028)"/>
      <path id="Path_15253" data-name="Path 15253" class="cls-3" d="M21.9,102.2c-3.529,0-9.043-.3-11.044-1.2a1.411,1.411,0,0,1,1.15-2.578c1.78.795,9.674,1.114,12.2.882a1.411,1.411,0,0,1,.26,2.811c-.548.051-1.459.08-2.563.08" transform="translate(-2.95 -28.933)"/>
      <path id="Path_15254" data-name="Path 15254" class="cls-3" d="M34.817,22.66h-4a1.411,1.411,0,0,1-1.356-1.805L35.223,1.018A1.412,1.412,0,0,1,36.579,0h4a1.411,1.411,0,0,1,1.356,1.8L36.173,21.643a1.412,1.412,0,0,1-1.356,1.018M32.7,19.838h1.06L38.7,2.823h-1.06Z" transform="translate(-8.655)"/>
      <path id="Path_15255" data-name="Path 15255" class="cls-3" d="M41.4,103.652H10.224L4.189,41.585H47.434ZM12.786,100.83h26.05l5.487-56.422H7.3Z" transform="translate(-1.233 -12.239)"/>
      <path id="Path_15256" data-name="Path 15256" class="cls-3" d="M89.764,120.114c0,2.646-10.217,4.792-22.821,4.792s-22.821-2.145-22.821-4.792,10.218-4.792,22.821-4.792,22.821,2.145,22.821,4.792" transform="translate(-12.986 -33.941)"/>
      <path id="Path_15257" data-name="Path 15257" class="cls-2" d="M28.671,100.654H78.144a2.281,2.281,0,0,1,2.271,2.444C79.209,119.82,65.364,119.82,53.4,119.82c-11.928,0-25.73-.929-27-16.715a2.276,2.276,0,0,1,2.271-2.451" transform="translate(-7.768 -29.624)"/>
      <path id="Path_15258" data-name="Path 15258" class="cls-3" d="M52.814,120.643c-10.082,0-26.957,0-28.41-18.012a3.687,3.687,0,0,1,3.677-3.977H77.555a3.693,3.693,0,0,1,3.68,3.956c-1.3,18.032-16.339,18.032-28.422,18.032M28.081,101.477a.865.865,0,0,0-.639.281.848.848,0,0,0-.225.645c1.148,14.227,13.275,15.417,25.6,15.417,12.041,0,24.494,0,25.606-15.412a.87.87,0,0,0-.864-.931Z" transform="translate(-7.179 -29.035)"/>
      <path id="Path_15259" data-name="Path 15259" class="cls-2" d="M76.358,83.683h-45.9a4.056,4.056,0,0,1-3.435-6.213,31.17,31.17,0,0,1,52.773,0,4.056,4.056,0,0,1-3.435,6.213" transform="translate(-7.767 -18.51)"/>
      <path id="Path_15260" data-name="Path 15260" class="cls-3" d="M75.768,84.505h-45.9a5.468,5.468,0,0,1-4.63-8.377,32.582,32.582,0,0,1,55.162,0,5.467,5.467,0,0,1-4.629,8.377M52.817,63.716A29.621,29.621,0,0,0,27.624,77.633a2.645,2.645,0,0,0,2.241,4.049h45.9a2.644,2.644,0,0,0,2.241-4.049A29.618,29.618,0,0,0,52.817,63.716" transform="translate(-7.177 -17.922)"/>
      <path id="Path_15261" data-name="Path 15261" class="cls-5" d="M37.295,76.02a1.059,1.059,0,0,1-.761-1.794,29.537,29.537,0,0,1,16.355-8.664,1.059,1.059,0,0,1,.358,2.087A27.434,27.434,0,0,0,38.056,75.7a1.054,1.054,0,0,1-.761.323" transform="translate(-10.665 -19.291)"/>
      <path id="Path_15262" data-name="Path 15262" class="cls-2" d="M79.014,97.345H26.223a2.508,2.508,0,0,1,0-5.015H79.014a2.508,2.508,0,1,1,0,5.015" transform="translate(-6.98 -27.174)"/>
      <path id="Path_15263" data-name="Path 15263" class="cls-3" d="M78.425,98.168H25.635a3.919,3.919,0,0,1-3.829-4.755,3.941,3.941,0,0,1,3.829-3.082h52.79a3.919,3.919,0,1,1,0,7.837m-52.79-5.015a1.1,1.1,0,0,0-1.072.862,1.1,1.1,0,0,0,1.072,1.33h52.79a1.1,1.1,0,1,0,0-2.192Z" transform="translate(-6.391 -26.585)"/>
      <path id="Path_15264" data-name="Path 15264" class="cls-2" d="M23.715,100.423a.714.714,0,0,0,.651.708c4.177.4,4.394,4.579,8.983,4.579,4.816,0,4.816-4.609,9.631-4.609s4.818,4.609,9.635,4.609,4.818-4.609,9.635-4.609,4.818,4.609,9.636,4.609c4.591,0,4.808-4.185,8.986-4.579a.712.712,0,0,0-.063-1.422H24.429A.714.714,0,0,0,23.715,100.423Z" transform="translate(-6.98 -29.346)"/>
      <path id="Path_15265" data-name="Path 15265" class="cls-3" d="M71.3,106.533a7.74,7.74,0,0,1-5.794-2.7c-1.116-1.069-2-1.913-3.842-1.913s-2.725.844-3.842,1.913a7.573,7.573,0,0,1-11.587,0c-1.117-1.069-2-1.913-3.841-1.913s-2.724.844-3.84,1.913a7.571,7.571,0,0,1-11.585,0,5.241,5.241,0,0,0-3.323-1.89,2.124,2.124,0,0,1,.2-4.238H80.22a2.124,2.124,0,0,1,.195,4.238,5.252,5.252,0,0,0-3.324,1.89,7.736,7.736,0,0,1-5.794,2.7m-5.284-6a15.459,15.459,0,0,1,1.442,1.265c1.117,1.069,2,1.913,3.842,1.913s2.726-.844,3.843-1.913a15.366,15.366,0,0,1,1.443-1.265Zm-19.271,0a15.642,15.642,0,0,1,1.442,1.265c1.116,1.069,2,1.913,3.842,1.913s2.724-.844,3.841-1.913a15.747,15.747,0,0,1,1.442-1.265Zm-19.267,0a15.545,15.545,0,0,1,1.443,1.265c1.117,1.069,2,1.913,3.841,1.913s2.723-.844,3.84-1.913a15.629,15.629,0,0,1,1.442-1.265Zm52.745,0h0Z" transform="translate(-6.391 -28.757)"/>
      <path id="Path_15266" data-name="Path 15266" class="cls-3" d="M51.124,80.472a1.2,1.2,0,0,1-2.016-1.32c.365-.556,2.118-2.25,2.675-1.886s-.294,2.649-.658,3.206" transform="translate(-14.395 -22.725)"/>
      <path id="Path_15267" data-name="Path 15267" class="cls-3" d="M40.143,82.57a1.2,1.2,0,1,1-1.857-1.536c.424-.512,2.355-2,2.868-1.577s-.587,2.6-1.011,3.113" transform="translate(-11.187 -23.363)"/>
      <path id="Path_15268" data-name="Path 15268" class="cls-3" d="M64.253,83.531a1.2,1.2,0,0,1-2.4-.152c.042-.664.73-3,1.394-2.961s1.052,2.449,1.011,3.113" transform="translate(-18.202 -23.668)"/>
      <path id="Path_15269" data-name="Path 15269" class="cls-3" d="M62.564,72.43a1.2,1.2,0,1,1-2.207-.965c.266-.61,1.713-2.573,2.322-2.306s.152,2.661-.114,3.271" transform="translate(-17.734 -20.347)"/>
      <path id="Path_15270" data-name="Path 15270" class="cls-3" d="M77.4,71.043a1.2,1.2,0,1,1-1.89,1.495c-.413-.522-1.464-2.722-.943-3.134s2.42,1.118,2.833,1.639" transform="translate(-21.906 -20.406)"/>
      <path id="Path_15271" data-name="Path 15271" class="cls-3" d="M77.671,84.829a1.2,1.2,0,1,1-2.321.647c-.179-.641-.3-3.076.343-3.255s1.8,1.967,1.978,2.608" transform="translate(-22.135 -24.196)"/>
      <path id="Path_15272" data-name="Path 15272" class="cls-3" d="M88.861,79.075A1.2,1.2,0,0,1,86.92,80.5c-.394-.536-1.368-2.772-.831-3.166s2.379,1.2,2.773,1.74" transform="translate(-25.29 -22.742)"/>
      <path id="Path_15273" data-name="Path 15273" class="cls-5" d="M34.814,83.02a.965.965,0,1,1-.965-.965.965.965,0,0,1,.965.965" transform="translate(-9.678 -24.15)"/>
      <path id="Path_15274" data-name="Path 15274" class="cls-5" d="M47.832,96.022H27.522a.706.706,0,0,1,0-1.411h20.31a.706.706,0,0,1,0,1.411" transform="translate(-7.892 -27.845)"/>
      <path id="Path_15275" data-name="Path 15275" class="cls-5" d="M64.74,96.022H60.072a.706.706,0,0,1,0-1.411H64.74a.706.706,0,0,1,0,1.411" transform="translate(-17.472 -27.845)"/>
    </g>
  </g>
</svg>
