<svg xmlns="http://www.w3.org/2000/svg" xmlns:xlink="http://www.w3.org/1999/xlink" width="1069.869" height="646.073" viewBox="0 0 1069.869 646.073">
  <defs>
    <clipPath id="clip-path">
      <rect id="Rectangle_507" data-name="Rectangle 507" width="271.554" height="137.328" transform="translate(0 0)" fill="#060606"/>
    </clipPath>
    <clipPath id="clip-path-2">
      <rect id="Rectangle_318" data-name="Rectangle 318" width="398.75" height="163.76" fill="#060606"/>
    </clipPath>
    <clipPath id="clip-path-4">
      <rect id="Rectangle_564" data-name="Rectangle 564" width="465.958" height="499.096" fill="none"/>
    </clipPath>
  </defs>
  <g id="Group_1083" data-name="Group 1083" transform="translate(260.25 -6163.927)">
    <g id="Group_1033" data-name="Group 1033" transform="translate(638.724 6498.35) rotate(51)">
      <g id="Group_969" data-name="Group 969" transform="translate(0 0)" clip-path="url(#clip-path)">
        <path id="Path_29753" data-name="Path 29753" d="M216.575,0a88.792,88.792,0,0,0-9.4.481c-19.084,2.029-33.6,10.606-44.38,26.221-12.256,17.75-24.544,26.822-37.565,27.735-12.67.887-24.652-6.018-34.7-12.891l-.21-.144c-10.562-7.224-18.9-12.93-27.5-10.086-5.466,1.809-10.5,6.9-15.834,16.02C41.451,56.8,35.473,70.942,28.713,90.569c-6.64,19.278-16.719,35.3-28.38,45.111a.934.934,0,0,0,1.2,1.429c11.916-10.026,22.2-26.339,28.944-45.932C43.337,53.844,53.186,36.472,63.411,33.088c7.714-2.553,15.719,2.923,25.855,9.855l.211.144c10.31,7.054,22.635,14.138,35.881,13.213,13.624-.955,26.372-10.289,38.971-28.537C174.782,12.623,188.86,4.306,207.37,2.338c16.292-1.732,36.3,1.289,62.976,9.508a.934.934,0,0,0,.55-1.785C248.862,3.272,231.3,0,216.575,0" transform="translate(0 0)" fill="#060606"/>
      </g>
    </g>
    <g id="Group_1031" data-name="Group 1031" transform="translate(-260.25 6163.927)" opacity="0.66">
      <g id="white_dots" data-name="white dots" transform="translate(0 185.396)">
        <g id="Group_452" data-name="Group 452" clip-path="url(#clip-path-2)">
          <path id="Path_15154" data-name="Path 15154" d="M3.1,6.456A3.165,3.165,0,0,0,6.2,3.228,3.165,3.165,0,0,0,3.1,0,3.165,3.165,0,0,0,0,3.228,3.165,3.165,0,0,0,3.1,6.456" transform="translate(0 0)" fill="#060606"/>
          <path id="Path_15155" data-name="Path 15155" d="M83.276,6.456a3.165,3.165,0,0,0,3.1-3.228,3.1,3.1,0,1,0-6.2,0,3.165,3.165,0,0,0,3.1,3.228" transform="translate(-49.982 0)" fill="#060606"/>
          <path id="Path_15156" data-name="Path 15156" d="M163.454,6.456a3.165,3.165,0,0,0,3.1-3.228,3.1,3.1,0,1,0-6.2,0,3.165,3.165,0,0,0,3.1,3.228" transform="translate(-99.963 0)" fill="#060606"/>
          <path id="Path_15157" data-name="Path 15157" d="M243.633,6.456a3.165,3.165,0,0,0,3.1-3.228,3.1,3.1,0,1,0-6.2,0,3.165,3.165,0,0,0,3.1,3.228" transform="translate(-149.945 0)" fill="#060606"/>
          <path id="Path_15158" data-name="Path 15158" d="M323.811,6.456a3.165,3.165,0,0,0,3.1-3.228,3.1,3.1,0,1,0-6.2,0,3.165,3.165,0,0,0,3.1,3.228" transform="translate(-199.927 0)" fill="#060606"/>
          <path id="Path_15159" data-name="Path 15159" d="M403.989,6.456a3.165,3.165,0,0,0,3.1-3.228,3.1,3.1,0,1,0-6.2,0,3.165,3.165,0,0,0,3.1,3.228" transform="translate(-249.909 0)" fill="#060606"/>
          <path id="Path_15160" data-name="Path 15160" d="M484.167,6.456a3.165,3.165,0,0,0,3.1-3.228,3.1,3.1,0,1,0-6.2,0,3.165,3.165,0,0,0,3.1,3.228" transform="translate(-299.891 0)" fill="#060606"/>
          <path id="Path_15161" data-name="Path 15161" d="M564.345,6.456a3.165,3.165,0,0,0,3.1-3.228,3.1,3.1,0,1,0-6.2,0,3.165,3.165,0,0,0,3.1,3.228" transform="translate(-349.872 0)" fill="#060606"/>
          <path id="Path_15162" data-name="Path 15162" d="M644.523,6.456a3.165,3.165,0,0,0,3.1-3.228,3.1,3.1,0,1,0-6.2,0,3.165,3.165,0,0,0,3.1,3.228" transform="translate(-399.854 0)" fill="#060606"/>
          <path id="Path_15163" data-name="Path 15163" d="M724.7,6.456a3.165,3.165,0,0,0,3.1-3.228,3.1,3.1,0,1,0-6.2,0,3.165,3.165,0,0,0,3.1,3.228" transform="translate(-449.836 0)" fill="#060606"/>
          <path id="Path_15164" data-name="Path 15164" d="M804.88,6.456a3.165,3.165,0,0,0,3.1-3.228,3.1,3.1,0,1,0-6.2,0,3.165,3.165,0,0,0,3.1,3.228" transform="translate(-499.817 0)" fill="#060606"/>
          <path id="Path_15165" data-name="Path 15165" d="M885.058,6.456a3.165,3.165,0,0,0,3.1-3.228,3.1,3.1,0,1,0-6.2,0,3.165,3.165,0,0,0,3.1,3.228" transform="translate(-549.799 0)" fill="#060606"/>
          <path id="Path_15166" data-name="Path 15166" d="M965.236,6.456a3.165,3.165,0,0,0,3.1-3.228,3.1,3.1,0,1,0-6.2,0,3.165,3.165,0,0,0,3.1,3.228" transform="translate(-599.781 0)" fill="#060606"/>
          <path id="Path_15167" data-name="Path 15167" d="M1045.414,6.456a3.165,3.165,0,0,0,3.1-3.228,3.1,3.1,0,1,0-6.2,0,3.165,3.165,0,0,0,3.1,3.228" transform="translate(-649.762 0)" fill="#060606"/>
          <path id="Path_15168" data-name="Path 15168" d="M3.1,86.634a3.23,3.23,0,0,0,0-6.456,3.23,3.23,0,0,0,0,6.456" transform="translate(0 -48.717)" fill="#060606"/>
          <path id="Path_15169" data-name="Path 15169" d="M83.276,86.634a3.23,3.23,0,1,0-3.1-3.228,3.165,3.165,0,0,0,3.1,3.228" transform="translate(-49.982 -48.717)" fill="#060606"/>
          <path id="Path_15170" data-name="Path 15170" d="M163.454,86.634a3.23,3.23,0,1,0-3.1-3.228,3.165,3.165,0,0,0,3.1,3.228" transform="translate(-99.963 -48.717)" fill="#060606"/>
          <path id="Path_15171" data-name="Path 15171" d="M243.633,86.634a3.23,3.23,0,1,0-3.1-3.228,3.165,3.165,0,0,0,3.1,3.228" transform="translate(-149.945 -48.717)" fill="#060606"/>
          <path id="Path_15172" data-name="Path 15172" d="M323.811,86.634a3.23,3.23,0,1,0-3.1-3.228,3.165,3.165,0,0,0,3.1,3.228" transform="translate(-199.927 -48.717)" fill="#060606"/>
          <path id="Path_15173" data-name="Path 15173" d="M403.989,86.634a3.23,3.23,0,1,0-3.1-3.228,3.165,3.165,0,0,0,3.1,3.228" transform="translate(-249.909 -48.717)" fill="#060606"/>
          <path id="Path_15174" data-name="Path 15174" d="M484.167,86.634a3.231,3.231,0,1,0-3.1-3.228,3.165,3.165,0,0,0,3.1,3.228" transform="translate(-299.891 -48.717)" fill="#060606"/>
          <path id="Path_15175" data-name="Path 15175" d="M564.345,86.634a3.23,3.23,0,1,0-3.1-3.228,3.165,3.165,0,0,0,3.1,3.228" transform="translate(-349.872 -48.717)" fill="#060606"/>
          <path id="Path_15176" data-name="Path 15176" d="M644.523,86.634a3.23,3.23,0,1,0-3.1-3.228,3.165,3.165,0,0,0,3.1,3.228" transform="translate(-399.854 -48.717)" fill="#060606"/>
          <path id="Path_15177" data-name="Path 15177" d="M724.7,86.634a3.23,3.23,0,1,0-3.1-3.228,3.165,3.165,0,0,0,3.1,3.228" transform="translate(-449.836 -48.717)" fill="#060606"/>
          <path id="Path_15178" data-name="Path 15178" d="M804.88,86.634a3.23,3.23,0,1,0-3.1-3.228,3.165,3.165,0,0,0,3.1,3.228" transform="translate(-499.817 -48.717)" fill="#060606"/>
          <path id="Path_15179" data-name="Path 15179" d="M885.058,86.634a3.23,3.23,0,1,0-3.1-3.228,3.165,3.165,0,0,0,3.1,3.228" transform="translate(-549.799 -48.717)" fill="#060606"/>
          <path id="Path_15180" data-name="Path 15180" d="M965.236,86.634a3.231,3.231,0,1,0-3.1-3.228,3.165,3.165,0,0,0,3.1,3.228" transform="translate(-599.781 -48.717)" fill="#060606"/>
          <path id="Path_15181" data-name="Path 15181" d="M1045.414,86.634a3.23,3.23,0,1,0-3.1-3.228,3.165,3.165,0,0,0,3.1,3.228" transform="translate(-649.762 -48.717)" fill="#060606"/>
          <path id="Path_15182" data-name="Path 15182" d="M3.1,166.812a3.23,3.23,0,0,0,0-6.456,3.23,3.23,0,0,0,0,6.456" transform="translate(0 -97.434)" fill="#060606"/>
          <path id="Path_15183" data-name="Path 15183" d="M83.276,166.812a3.23,3.23,0,1,0-3.1-3.228,3.165,3.165,0,0,0,3.1,3.228" transform="translate(-49.982 -97.434)" fill="#060606"/>
          <path id="Path_15184" data-name="Path 15184" d="M163.454,166.812a3.23,3.23,0,1,0-3.1-3.228,3.165,3.165,0,0,0,3.1,3.228" transform="translate(-99.963 -97.434)" fill="#060606"/>
          <path id="Path_15185" data-name="Path 15185" d="M243.633,166.812a3.23,3.23,0,1,0-3.1-3.228,3.165,3.165,0,0,0,3.1,3.228" transform="translate(-149.945 -97.434)" fill="#060606"/>
          <path id="Path_15186" data-name="Path 15186" d="M323.811,166.812a3.23,3.23,0,1,0-3.1-3.228,3.165,3.165,0,0,0,3.1,3.228" transform="translate(-199.927 -97.434)" fill="#060606"/>
          <path id="Path_15187" data-name="Path 15187" d="M403.989,166.812a3.23,3.23,0,1,0-3.1-3.228,3.165,3.165,0,0,0,3.1,3.228" transform="translate(-249.909 -97.434)" fill="#060606"/>
          <path id="Path_15188" data-name="Path 15188" d="M484.167,166.812a3.23,3.23,0,1,0-3.1-3.228,3.165,3.165,0,0,0,3.1,3.228" transform="translate(-299.891 -97.434)" fill="#060606"/>
          <path id="Path_15189" data-name="Path 15189" d="M564.345,166.812a3.23,3.23,0,1,0-3.1-3.228,3.165,3.165,0,0,0,3.1,3.228" transform="translate(-349.872 -97.434)" fill="#060606"/>
          <path id="Path_15190" data-name="Path 15190" d="M644.523,166.812a3.23,3.23,0,1,0-3.1-3.228,3.165,3.165,0,0,0,3.1,3.228" transform="translate(-399.854 -97.434)" fill="#060606"/>
          <path id="Path_15191" data-name="Path 15191" d="M724.7,166.812a3.23,3.23,0,1,0-3.1-3.228,3.165,3.165,0,0,0,3.1,3.228" transform="translate(-449.836 -97.434)" fill="#060606"/>
          <path id="Path_15192" data-name="Path 15192" d="M804.88,166.812a3.23,3.23,0,1,0-3.1-3.228,3.165,3.165,0,0,0,3.1,3.228" transform="translate(-499.817 -97.434)" fill="#060606"/>
          <path id="Path_15193" data-name="Path 15193" d="M885.058,166.812a3.23,3.23,0,1,0-3.1-3.228,3.165,3.165,0,0,0,3.1,3.228" transform="translate(-549.799 -97.434)" fill="#060606"/>
          <path id="Path_15194" data-name="Path 15194" d="M965.236,166.812a3.23,3.23,0,1,0-3.1-3.228,3.165,3.165,0,0,0,3.1,3.228" transform="translate(-599.781 -97.434)" fill="#060606"/>
          <path id="Path_15195" data-name="Path 15195" d="M1045.414,166.812a3.23,3.23,0,1,0-3.1-3.228,3.165,3.165,0,0,0,3.1,3.228" transform="translate(-649.762 -97.434)" fill="#060606"/>
          <path id="Path_15196" data-name="Path 15196" d="M3.1,246.991a3.23,3.23,0,0,0,0-6.456,3.231,3.231,0,0,0,0,6.456" transform="translate(0 -146.152)" fill="#060606"/>
          <path id="Path_15197" data-name="Path 15197" d="M83.276,246.991a3.231,3.231,0,1,0-3.1-3.228,3.165,3.165,0,0,0,3.1,3.228" transform="translate(-49.982 -146.152)" fill="#060606"/>
          <path id="Path_15198" data-name="Path 15198" d="M163.454,246.991a3.231,3.231,0,1,0-3.1-3.228,3.165,3.165,0,0,0,3.1,3.228" transform="translate(-99.963 -146.152)" fill="#060606"/>
          <path id="Path_15199" data-name="Path 15199" d="M243.633,246.991a3.231,3.231,0,1,0-3.1-3.228,3.165,3.165,0,0,0,3.1,3.228" transform="translate(-149.945 -146.152)" fill="#060606"/>
          <path id="Path_15200" data-name="Path 15200" d="M323.811,246.991a3.231,3.231,0,1,0-3.1-3.228,3.165,3.165,0,0,0,3.1,3.228" transform="translate(-199.927 -146.152)" fill="#060606"/>
          <path id="Path_15201" data-name="Path 15201" d="M403.989,246.991a3.231,3.231,0,1,0-3.1-3.228,3.165,3.165,0,0,0,3.1,3.228" transform="translate(-249.909 -146.152)" fill="#060606"/>
          <path id="Path_15202" data-name="Path 15202" d="M484.167,246.991a3.231,3.231,0,1,0-3.1-3.228,3.165,3.165,0,0,0,3.1,3.228" transform="translate(-299.891 -146.152)" fill="#060606"/>
          <path id="Path_15203" data-name="Path 15203" d="M564.345,246.991a3.231,3.231,0,1,0-3.1-3.228,3.165,3.165,0,0,0,3.1,3.228" transform="translate(-349.872 -146.152)" fill="#060606"/>
          <path id="Path_15204" data-name="Path 15204" d="M644.523,246.991a3.231,3.231,0,1,0-3.1-3.228,3.165,3.165,0,0,0,3.1,3.228" transform="translate(-399.854 -146.152)" fill="#060606"/>
          <path id="Path_15205" data-name="Path 15205" d="M724.7,246.991a3.231,3.231,0,1,0-3.1-3.228,3.165,3.165,0,0,0,3.1,3.228" transform="translate(-449.836 -146.152)" fill="#060606"/>
          <path id="Path_15206" data-name="Path 15206" d="M804.88,246.991a3.231,3.231,0,1,0-3.1-3.228,3.165,3.165,0,0,0,3.1,3.228" transform="translate(-499.817 -146.152)" fill="#060606"/>
          <path id="Path_15207" data-name="Path 15207" d="M885.058,246.991a3.231,3.231,0,1,0-3.1-3.228,3.165,3.165,0,0,0,3.1,3.228" transform="translate(-549.799 -146.152)" fill="#060606"/>
          <path id="Path_15208" data-name="Path 15208" d="M965.236,246.991a3.231,3.231,0,1,0-3.1-3.228,3.165,3.165,0,0,0,3.1,3.228" transform="translate(-599.781 -146.152)" fill="#060606"/>
          <path id="Path_15209" data-name="Path 15209" d="M1045.414,246.991a3.231,3.231,0,1,0-3.1-3.228,3.165,3.165,0,0,0,3.1,3.228" transform="translate(-649.762 -146.152)" fill="#060606"/>
          <path id="Path_15210" data-name="Path 15210" d="M3.1,327.169a3.231,3.231,0,0,0,0-6.456,3.231,3.231,0,0,0,0,6.456" transform="translate(0 -194.869)" fill="#060606"/>
          <path id="Path_15211" data-name="Path 15211" d="M83.276,327.169a3.231,3.231,0,1,0-3.1-3.228,3.165,3.165,0,0,0,3.1,3.228" transform="translate(-49.982 -194.869)" fill="#060606"/>
          <path id="Path_15212" data-name="Path 15212" d="M163.454,327.169a3.231,3.231,0,1,0-3.1-3.228,3.165,3.165,0,0,0,3.1,3.228" transform="translate(-99.963 -194.869)" fill="#060606"/>
          <path id="Path_15213" data-name="Path 15213" d="M243.633,327.169a3.231,3.231,0,1,0-3.1-3.228,3.165,3.165,0,0,0,3.1,3.228" transform="translate(-149.945 -194.869)" fill="#060606"/>
          <path id="Path_15214" data-name="Path 15214" d="M323.811,327.169a3.231,3.231,0,1,0-3.1-3.228,3.165,3.165,0,0,0,3.1,3.228" transform="translate(-199.927 -194.869)" fill="#060606"/>
          <path id="Path_15215" data-name="Path 15215" d="M403.989,327.169a3.231,3.231,0,1,0-3.1-3.228,3.165,3.165,0,0,0,3.1,3.228" transform="translate(-249.909 -194.869)" fill="#060606"/>
          <path id="Path_15216" data-name="Path 15216" d="M484.167,327.169a3.231,3.231,0,1,0-3.1-3.228,3.165,3.165,0,0,0,3.1,3.228" transform="translate(-299.891 -194.869)" fill="#060606"/>
          <path id="Path_15217" data-name="Path 15217" d="M564.345,327.169a3.231,3.231,0,1,0-3.1-3.228,3.165,3.165,0,0,0,3.1,3.228" transform="translate(-349.872 -194.869)" fill="#060606"/>
          <path id="Path_15218" data-name="Path 15218" d="M644.523,327.169a3.231,3.231,0,1,0-3.1-3.228,3.165,3.165,0,0,0,3.1,3.228" transform="translate(-399.854 -194.869)" fill="#060606"/>
          <path id="Path_15219" data-name="Path 15219" d="M724.7,327.169a3.231,3.231,0,1,0-3.1-3.228,3.165,3.165,0,0,0,3.1,3.228" transform="translate(-449.836 -194.869)" fill="#060606"/>
          <path id="Path_15220" data-name="Path 15220" d="M804.88,327.169a3.231,3.231,0,1,0-3.1-3.228,3.165,3.165,0,0,0,3.1,3.228" transform="translate(-499.817 -194.869)" fill="#060606"/>
          <path id="Path_15221" data-name="Path 15221" d="M885.058,327.169a3.231,3.231,0,1,0-3.1-3.228,3.165,3.165,0,0,0,3.1,3.228" transform="translate(-549.799 -194.869)" fill="#060606"/>
          <path id="Path_15222" data-name="Path 15222" d="M965.236,327.169a3.231,3.231,0,1,0-3.1-3.228,3.165,3.165,0,0,0,3.1,3.228" transform="translate(-599.781 -194.869)" fill="#060606"/>
          <path id="Path_15223" data-name="Path 15223" d="M1045.414,327.169a3.231,3.231,0,1,0-3.1-3.228,3.165,3.165,0,0,0,3.1,3.228" transform="translate(-649.762 -194.869)" fill="#060606"/>
          <path id="Path_15224" data-name="Path 15224" d="M3.1,407.347a3.23,3.23,0,0,0,0-6.456,3.23,3.23,0,0,0,0,6.456" transform="translate(0 -243.587)" fill="#060606"/>
          <path id="Path_15225" data-name="Path 15225" d="M83.276,407.347a3.231,3.231,0,1,0-3.1-3.228,3.165,3.165,0,0,0,3.1,3.228" transform="translate(-49.982 -243.587)" fill="#060606"/>
          <path id="Path_15226" data-name="Path 15226" d="M163.454,407.347a3.231,3.231,0,1,0-3.1-3.228,3.165,3.165,0,0,0,3.1,3.228" transform="translate(-99.963 -243.587)" fill="#060606"/>
          <path id="Path_15227" data-name="Path 15227" d="M243.633,407.347a3.23,3.23,0,1,0-3.1-3.228,3.165,3.165,0,0,0,3.1,3.228" transform="translate(-149.945 -243.587)" fill="#060606"/>
          <path id="Path_15228" data-name="Path 15228" d="M323.811,407.347a3.231,3.231,0,1,0-3.1-3.228,3.165,3.165,0,0,0,3.1,3.228" transform="translate(-199.927 -243.587)" fill="#060606"/>
          <path id="Path_15229" data-name="Path 15229" d="M403.989,407.347a3.23,3.23,0,1,0-3.1-3.228,3.165,3.165,0,0,0,3.1,3.228" transform="translate(-249.909 -243.587)" fill="#060606"/>
          <path id="Path_15230" data-name="Path 15230" d="M484.167,407.347a3.231,3.231,0,1,0-3.1-3.228,3.165,3.165,0,0,0,3.1,3.228" transform="translate(-299.891 -243.587)" fill="#060606"/>
          <path id="Path_15231" data-name="Path 15231" d="M564.345,407.347a3.23,3.23,0,1,0-3.1-3.228,3.165,3.165,0,0,0,3.1,3.228" transform="translate(-349.872 -243.587)" fill="#060606"/>
          <path id="Path_15232" data-name="Path 15232" d="M644.523,407.347a3.23,3.23,0,1,0-3.1-3.228,3.165,3.165,0,0,0,3.1,3.228" transform="translate(-399.854 -243.587)" fill="#060606"/>
          <path id="Path_15233" data-name="Path 15233" d="M724.7,407.347a3.231,3.231,0,1,0-3.1-3.228,3.165,3.165,0,0,0,3.1,3.228" transform="translate(-449.836 -243.587)" fill="#060606"/>
          <path id="Path_15234" data-name="Path 15234" d="M804.88,407.347a3.23,3.23,0,1,0-3.1-3.228,3.165,3.165,0,0,0,3.1,3.228" transform="translate(-499.817 -243.587)" fill="#060606"/>
          <path id="Path_15235" data-name="Path 15235" d="M885.058,407.347a3.231,3.231,0,1,0-3.1-3.228,3.165,3.165,0,0,0,3.1,3.228" transform="translate(-549.799 -243.587)" fill="#060606"/>
          <path id="Path_15236" data-name="Path 15236" d="M965.236,407.347a3.231,3.231,0,1,0-3.1-3.228,3.165,3.165,0,0,0,3.1,3.228" transform="translate(-599.781 -243.587)" fill="#060606"/>
          <path id="Path_15237" data-name="Path 15237" d="M1045.414,407.347a3.23,3.23,0,1,0-3.1-3.228,3.165,3.165,0,0,0,3.1,3.228" transform="translate(-649.762 -243.587)" fill="#060606"/>
        </g>
      </g>
      <g id="white_dots-2" data-name="white dots" transform="translate(0 0)">
        <g id="Group_452-2" data-name="Group 452" clip-path="url(#clip-path-2)">
          <path id="Path_15154-2" data-name="Path 15154" d="M3.1,6.456A3.165,3.165,0,0,0,6.2,3.228,3.165,3.165,0,0,0,3.1,0,3.165,3.165,0,0,0,0,3.228,3.165,3.165,0,0,0,3.1,6.456" transform="translate(0 0)" fill="#060606"/>
          <path id="Path_15155-2" data-name="Path 15155" d="M83.276,6.456a3.165,3.165,0,0,0,3.1-3.228,3.1,3.1,0,1,0-6.2,0,3.165,3.165,0,0,0,3.1,3.228" transform="translate(-49.982 0)" fill="#060606"/>
          <path id="Path_15156-2" data-name="Path 15156" d="M163.454,6.456a3.165,3.165,0,0,0,3.1-3.228,3.1,3.1,0,1,0-6.2,0,3.165,3.165,0,0,0,3.1,3.228" transform="translate(-99.963 0)" fill="#060606"/>
          <path id="Path_15157-2" data-name="Path 15157" d="M243.633,6.456a3.165,3.165,0,0,0,3.1-3.228,3.1,3.1,0,1,0-6.2,0,3.165,3.165,0,0,0,3.1,3.228" transform="translate(-149.945 0)" fill="#060606"/>
          <path id="Path_15158-2" data-name="Path 15158" d="M323.811,6.456a3.165,3.165,0,0,0,3.1-3.228,3.1,3.1,0,1,0-6.2,0,3.165,3.165,0,0,0,3.1,3.228" transform="translate(-199.927 0)" fill="#060606"/>
          <path id="Path_15159-2" data-name="Path 15159" d="M403.989,6.456a3.165,3.165,0,0,0,3.1-3.228,3.1,3.1,0,1,0-6.2,0,3.165,3.165,0,0,0,3.1,3.228" transform="translate(-249.909 0)" fill="#060606"/>
          <path id="Path_15160-2" data-name="Path 15160" d="M484.167,6.456a3.165,3.165,0,0,0,3.1-3.228,3.1,3.1,0,1,0-6.2,0,3.165,3.165,0,0,0,3.1,3.228" transform="translate(-299.891 0)" fill="#060606"/>
          <path id="Path_15161-2" data-name="Path 15161" d="M564.345,6.456a3.165,3.165,0,0,0,3.1-3.228,3.1,3.1,0,1,0-6.2,0,3.165,3.165,0,0,0,3.1,3.228" transform="translate(-349.872 0)" fill="#060606"/>
          <path id="Path_15162-2" data-name="Path 15162" d="M644.523,6.456a3.165,3.165,0,0,0,3.1-3.228,3.1,3.1,0,1,0-6.2,0,3.165,3.165,0,0,0,3.1,3.228" transform="translate(-399.854 0)" fill="#060606"/>
          <path id="Path_15163-2" data-name="Path 15163" d="M724.7,6.456a3.165,3.165,0,0,0,3.1-3.228,3.1,3.1,0,1,0-6.2,0,3.165,3.165,0,0,0,3.1,3.228" transform="translate(-449.836 0)" fill="#060606"/>
          <path id="Path_15164-2" data-name="Path 15164" d="M804.88,6.456a3.165,3.165,0,0,0,3.1-3.228,3.1,3.1,0,1,0-6.2,0,3.165,3.165,0,0,0,3.1,3.228" transform="translate(-499.817 0)" fill="#060606"/>
          <path id="Path_15168-2" data-name="Path 15168" d="M3.1,86.634a3.23,3.23,0,0,0,0-6.456,3.23,3.23,0,0,0,0,6.456" transform="translate(0 -48.717)" fill="#060606"/>
          <path id="Path_15169-2" data-name="Path 15169" d="M83.276,86.634a3.23,3.23,0,1,0-3.1-3.228,3.165,3.165,0,0,0,3.1,3.228" transform="translate(-49.982 -48.717)" fill="#060606"/>
          <path id="Path_15170-2" data-name="Path 15170" d="M163.454,86.634a3.23,3.23,0,1,0-3.1-3.228,3.165,3.165,0,0,0,3.1,3.228" transform="translate(-99.963 -48.717)" fill="#060606"/>
          <path id="Path_15171-2" data-name="Path 15171" d="M243.633,86.634a3.23,3.23,0,1,0-3.1-3.228,3.165,3.165,0,0,0,3.1,3.228" transform="translate(-149.945 -48.717)" fill="#060606"/>
          <path id="Path_15172-2" data-name="Path 15172" d="M323.811,86.634a3.23,3.23,0,1,0-3.1-3.228,3.165,3.165,0,0,0,3.1,3.228" transform="translate(-199.927 -48.717)" fill="#060606"/>
          <path id="Path_15173-2" data-name="Path 15173" d="M403.989,86.634a3.23,3.23,0,1,0-3.1-3.228,3.165,3.165,0,0,0,3.1,3.228" transform="translate(-249.909 -48.717)" fill="#060606"/>
          <path id="Path_15174-2" data-name="Path 15174" d="M484.167,86.634a3.231,3.231,0,1,0-3.1-3.228,3.165,3.165,0,0,0,3.1,3.228" transform="translate(-299.891 -48.717)" fill="#060606"/>
          <path id="Path_15175-2" data-name="Path 15175" d="M564.345,86.634a3.23,3.23,0,1,0-3.1-3.228,3.165,3.165,0,0,0,3.1,3.228" transform="translate(-349.872 -48.717)" fill="#060606"/>
          <path id="Path_15176-2" data-name="Path 15176" d="M644.523,86.634a3.23,3.23,0,1,0-3.1-3.228,3.165,3.165,0,0,0,3.1,3.228" transform="translate(-399.854 -48.717)" fill="#060606"/>
          <path id="Path_15177-2" data-name="Path 15177" d="M724.7,86.634a3.23,3.23,0,1,0-3.1-3.228,3.165,3.165,0,0,0,3.1,3.228" transform="translate(-449.836 -48.717)" fill="#060606"/>
          <path id="Path_15178-2" data-name="Path 15178" d="M804.88,86.634a3.23,3.23,0,1,0-3.1-3.228,3.165,3.165,0,0,0,3.1,3.228" transform="translate(-499.817 -48.717)" fill="#060606"/>
          <path id="Path_15179-2" data-name="Path 15179" d="M885.058,86.634a3.23,3.23,0,1,0-3.1-3.228,3.165,3.165,0,0,0,3.1,3.228" transform="translate(-549.799 -48.717)" fill="#060606"/>
          <path id="Path_15180-2" data-name="Path 15180" d="M965.236,86.634a3.231,3.231,0,1,0-3.1-3.228,3.165,3.165,0,0,0,3.1,3.228" transform="translate(-599.781 -48.717)" fill="#060606"/>
          <path id="Path_15182-2" data-name="Path 15182" d="M3.1,166.812a3.23,3.23,0,0,0,0-6.456,3.23,3.23,0,0,0,0,6.456" transform="translate(0 -97.434)" fill="#060606"/>
          <path id="Path_15183-2" data-name="Path 15183" d="M83.276,166.812a3.23,3.23,0,1,0-3.1-3.228,3.165,3.165,0,0,0,3.1,3.228" transform="translate(-49.982 -97.434)" fill="#060606"/>
          <path id="Path_15184-2" data-name="Path 15184" d="M163.454,166.812a3.23,3.23,0,1,0-3.1-3.228,3.165,3.165,0,0,0,3.1,3.228" transform="translate(-99.963 -97.434)" fill="#060606"/>
          <path id="Path_15185-2" data-name="Path 15185" d="M243.633,166.812a3.23,3.23,0,1,0-3.1-3.228,3.165,3.165,0,0,0,3.1,3.228" transform="translate(-149.945 -97.434)" fill="#060606"/>
          <path id="Path_15186-2" data-name="Path 15186" d="M323.811,166.812a3.23,3.23,0,1,0-3.1-3.228,3.165,3.165,0,0,0,3.1,3.228" transform="translate(-199.927 -97.434)" fill="#060606"/>
          <path id="Path_15187-2" data-name="Path 15187" d="M403.989,166.812a3.23,3.23,0,1,0-3.1-3.228,3.165,3.165,0,0,0,3.1,3.228" transform="translate(-249.909 -97.434)" fill="#060606"/>
          <path id="Path_15188-2" data-name="Path 15188" d="M484.167,166.812a3.23,3.23,0,1,0-3.1-3.228,3.165,3.165,0,0,0,3.1,3.228" transform="translate(-299.891 -97.434)" fill="#060606"/>
          <path id="Path_15189-2" data-name="Path 15189" d="M564.345,166.812a3.23,3.23,0,1,0-3.1-3.228,3.165,3.165,0,0,0,3.1,3.228" transform="translate(-349.872 -97.434)" fill="#060606"/>
          <path id="Path_15190-2" data-name="Path 15190" d="M644.523,166.812a3.23,3.23,0,1,0-3.1-3.228,3.165,3.165,0,0,0,3.1,3.228" transform="translate(-399.854 -97.434)" fill="#060606"/>
          <path id="Path_15191-2" data-name="Path 15191" d="M724.7,166.812a3.23,3.23,0,1,0-3.1-3.228,3.165,3.165,0,0,0,3.1,3.228" transform="translate(-449.836 -97.434)" fill="#060606"/>
          <path id="Path_15192-2" data-name="Path 15192" d="M804.88,166.812a3.23,3.23,0,1,0-3.1-3.228,3.165,3.165,0,0,0,3.1,3.228" transform="translate(-499.817 -97.434)" fill="#060606"/>
          <path id="Path_15193-2" data-name="Path 15193" d="M885.058,166.812a3.23,3.23,0,1,0-3.1-3.228,3.165,3.165,0,0,0,3.1,3.228" transform="translate(-549.799 -97.434)" fill="#060606"/>
          <path id="Path_15194-2" data-name="Path 15194" d="M965.236,166.812a3.23,3.23,0,1,0-3.1-3.228,3.165,3.165,0,0,0,3.1,3.228" transform="translate(-599.781 -97.434)" fill="#060606"/>
          <path id="Path_15196-2" data-name="Path 15196" d="M3.1,246.991a3.23,3.23,0,0,0,0-6.456,3.231,3.231,0,0,0,0,6.456" transform="translate(0 -146.152)" fill="#060606"/>
          <path id="Path_15197-2" data-name="Path 15197" d="M83.276,246.991a3.231,3.231,0,1,0-3.1-3.228,3.165,3.165,0,0,0,3.1,3.228" transform="translate(-49.982 -146.152)" fill="#060606"/>
          <path id="Path_15198-2" data-name="Path 15198" d="M163.454,246.991a3.231,3.231,0,1,0-3.1-3.228,3.165,3.165,0,0,0,3.1,3.228" transform="translate(-99.963 -146.152)" fill="#060606"/>
          <path id="Path_15199-2" data-name="Path 15199" d="M243.633,246.991a3.231,3.231,0,1,0-3.1-3.228,3.165,3.165,0,0,0,3.1,3.228" transform="translate(-149.945 -146.152)" fill="#060606"/>
          <path id="Path_15200-2" data-name="Path 15200" d="M323.811,246.991a3.231,3.231,0,1,0-3.1-3.228,3.165,3.165,0,0,0,3.1,3.228" transform="translate(-199.927 -146.152)" fill="#060606"/>
          <path id="Path_15201-2" data-name="Path 15201" d="M403.989,246.991a3.231,3.231,0,1,0-3.1-3.228,3.165,3.165,0,0,0,3.1,3.228" transform="translate(-249.909 -146.152)" fill="#060606"/>
          <path id="Path_15202-2" data-name="Path 15202" d="M484.167,246.991a3.231,3.231,0,1,0-3.1-3.228,3.165,3.165,0,0,0,3.1,3.228" transform="translate(-299.891 -146.152)" fill="#060606"/>
          <path id="Path_15203-2" data-name="Path 15203" d="M564.345,246.991a3.231,3.231,0,1,0-3.1-3.228,3.165,3.165,0,0,0,3.1,3.228" transform="translate(-349.872 -146.152)" fill="#060606"/>
          <path id="Path_15204-2" data-name="Path 15204" d="M644.523,246.991a3.231,3.231,0,1,0-3.1-3.228,3.165,3.165,0,0,0,3.1,3.228" transform="translate(-399.854 -146.152)" fill="#060606"/>
          <path id="Path_15205-2" data-name="Path 15205" d="M724.7,246.991a3.231,3.231,0,1,0-3.1-3.228,3.165,3.165,0,0,0,3.1,3.228" transform="translate(-449.836 -146.152)" fill="#060606"/>
          <path id="Path_15206-2" data-name="Path 15206" d="M804.88,246.991a3.231,3.231,0,1,0-3.1-3.228,3.165,3.165,0,0,0,3.1,3.228" transform="translate(-499.817 -146.152)" fill="#060606"/>
          <path id="Path_15207-2" data-name="Path 15207" d="M885.058,246.991a3.231,3.231,0,1,0-3.1-3.228,3.165,3.165,0,0,0,3.1,3.228" transform="translate(-549.799 -146.152)" fill="#060606"/>
          <path id="Path_15208-2" data-name="Path 15208" d="M965.236,246.991a3.231,3.231,0,1,0-3.1-3.228,3.165,3.165,0,0,0,3.1,3.228" transform="translate(-599.781 -146.152)" fill="#060606"/>
          <path id="Path_15209-2" data-name="Path 15209" d="M1045.414,246.991a3.231,3.231,0,1,0-3.1-3.228,3.165,3.165,0,0,0,3.1,3.228" transform="translate(-649.762 -146.152)" fill="#060606"/>
          <path id="Path_15210-2" data-name="Path 15210" d="M3.1,327.169a3.231,3.231,0,0,0,0-6.456,3.231,3.231,0,0,0,0,6.456" transform="translate(0 -194.869)" fill="#060606"/>
          <path id="Path_15211-2" data-name="Path 15211" d="M83.276,327.169a3.231,3.231,0,1,0-3.1-3.228,3.165,3.165,0,0,0,3.1,3.228" transform="translate(-49.982 -194.869)" fill="#060606"/>
          <path id="Path_15212-2" data-name="Path 15212" d="M163.454,327.169a3.231,3.231,0,1,0-3.1-3.228,3.165,3.165,0,0,0,3.1,3.228" transform="translate(-99.963 -194.869)" fill="#060606"/>
          <path id="Path_15213-2" data-name="Path 15213" d="M243.633,327.169a3.231,3.231,0,1,0-3.1-3.228,3.165,3.165,0,0,0,3.1,3.228" transform="translate(-149.945 -194.869)" fill="#060606"/>
          <path id="Path_15214-2" data-name="Path 15214" d="M323.811,327.169a3.231,3.231,0,1,0-3.1-3.228,3.165,3.165,0,0,0,3.1,3.228" transform="translate(-199.927 -194.869)" fill="#060606"/>
          <path id="Path_15215-2" data-name="Path 15215" d="M403.989,327.169a3.231,3.231,0,1,0-3.1-3.228,3.165,3.165,0,0,0,3.1,3.228" transform="translate(-249.909 -194.869)" fill="#060606"/>
          <path id="Path_15216-2" data-name="Path 15216" d="M484.167,327.169a3.231,3.231,0,1,0-3.1-3.228,3.165,3.165,0,0,0,3.1,3.228" transform="translate(-299.891 -194.869)" fill="#060606"/>
          <path id="Path_15217-2" data-name="Path 15217" d="M564.345,327.169a3.231,3.231,0,1,0-3.1-3.228,3.165,3.165,0,0,0,3.1,3.228" transform="translate(-349.872 -194.869)" fill="#060606"/>
          <path id="Path_15218-2" data-name="Path 15218" d="M644.523,327.169a3.231,3.231,0,1,0-3.1-3.228,3.165,3.165,0,0,0,3.1,3.228" transform="translate(-399.854 -194.869)" fill="#060606"/>
          <path id="Path_15219-2" data-name="Path 15219" d="M724.7,327.169a3.231,3.231,0,1,0-3.1-3.228,3.165,3.165,0,0,0,3.1,3.228" transform="translate(-449.836 -194.869)" fill="#060606"/>
          <path id="Path_15220-2" data-name="Path 15220" d="M804.88,327.169a3.231,3.231,0,1,0-3.1-3.228,3.165,3.165,0,0,0,3.1,3.228" transform="translate(-499.817 -194.869)" fill="#060606"/>
          <path id="Path_15221-2" data-name="Path 15221" d="M885.058,327.169a3.231,3.231,0,1,0-3.1-3.228,3.165,3.165,0,0,0,3.1,3.228" transform="translate(-549.799 -194.869)" fill="#060606"/>
          <path id="Path_15222-2" data-name="Path 15222" d="M965.236,327.169a3.231,3.231,0,1,0-3.1-3.228,3.165,3.165,0,0,0,3.1,3.228" transform="translate(-599.781 -194.869)" fill="#060606"/>
          <path id="Path_15223-2" data-name="Path 15223" d="M1045.414,327.169a3.231,3.231,0,1,0-3.1-3.228,3.165,3.165,0,0,0,3.1,3.228" transform="translate(-649.762 -194.869)" fill="#060606"/>
          <path id="Path_15224-2" data-name="Path 15224" d="M3.1,407.347a3.23,3.23,0,0,0,0-6.456,3.23,3.23,0,0,0,0,6.456" transform="translate(0 -243.587)" fill="#060606"/>
          <path id="Path_15225-2" data-name="Path 15225" d="M83.276,407.347a3.231,3.231,0,1,0-3.1-3.228,3.165,3.165,0,0,0,3.1,3.228" transform="translate(-49.982 -243.587)" fill="#060606"/>
          <path id="Path_15226-2" data-name="Path 15226" d="M163.454,407.347a3.231,3.231,0,1,0-3.1-3.228,3.165,3.165,0,0,0,3.1,3.228" transform="translate(-99.963 -243.587)" fill="#060606"/>
          <path id="Path_15227-2" data-name="Path 15227" d="M243.633,407.347a3.23,3.23,0,1,0-3.1-3.228,3.165,3.165,0,0,0,3.1,3.228" transform="translate(-149.945 -243.587)" fill="#060606"/>
          <path id="Path_15228-2" data-name="Path 15228" d="M323.811,407.347a3.231,3.231,0,1,0-3.1-3.228,3.165,3.165,0,0,0,3.1,3.228" transform="translate(-199.927 -243.587)" fill="#060606"/>
          <path id="Path_15229-2" data-name="Path 15229" d="M403.989,407.347a3.23,3.23,0,1,0-3.1-3.228,3.165,3.165,0,0,0,3.1,3.228" transform="translate(-249.909 -243.587)" fill="#060606"/>
          <path id="Path_15230-2" data-name="Path 15230" d="M484.167,407.347a3.231,3.231,0,1,0-3.1-3.228,3.165,3.165,0,0,0,3.1,3.228" transform="translate(-299.891 -243.587)" fill="#060606"/>
          <path id="Path_15231-2" data-name="Path 15231" d="M564.345,407.347a3.23,3.23,0,1,0-3.1-3.228,3.165,3.165,0,0,0,3.1,3.228" transform="translate(-349.872 -243.587)" fill="#060606"/>
          <path id="Path_15232-2" data-name="Path 15232" d="M644.523,407.347a3.23,3.23,0,1,0-3.1-3.228,3.165,3.165,0,0,0,3.1,3.228" transform="translate(-399.854 -243.587)" fill="#060606"/>
          <path id="Path_15233-2" data-name="Path 15233" d="M724.7,407.347a3.231,3.231,0,1,0-3.1-3.228,3.165,3.165,0,0,0,3.1,3.228" transform="translate(-449.836 -243.587)" fill="#060606"/>
          <path id="Path_15234-2" data-name="Path 15234" d="M804.88,407.347a3.23,3.23,0,1,0-3.1-3.228,3.165,3.165,0,0,0,3.1,3.228" transform="translate(-499.817 -243.587)" fill="#060606"/>
          <path id="Path_15235-2" data-name="Path 15235" d="M885.058,407.347a3.231,3.231,0,1,0-3.1-3.228,3.165,3.165,0,0,0,3.1,3.228" transform="translate(-549.799 -243.587)" fill="#060606"/>
          <path id="Path_15236-2" data-name="Path 15236" d="M965.236,407.347a3.231,3.231,0,1,0-3.1-3.228,3.165,3.165,0,0,0,3.1,3.228" transform="translate(-599.781 -243.587)" fill="#060606"/>
          <path id="Path_15237-2" data-name="Path 15237" d="M1045.414,407.347a3.23,3.23,0,1,0-3.1-3.228,3.165,3.165,0,0,0,3.1,3.228" transform="translate(-649.762 -243.587)" fill="#060606"/>
        </g>
      </g>
    </g>
    <path id="Path_30230" data-name="Path 30230" d="M256.63,109A108.63,108.63,0,0,1,148,.37c1.843-.832,108.63,0,108.63,0Z" transform="translate(289.37 6545.299)" fill="#060606"/>
    <g id="Group_1038" data-name="Group 1038" transform="translate(29.042 6310.904)">
      <g id="Group_1037" data-name="Group 1037" clip-path="url(#clip-path-4)">
        <path id="Path_30233" data-name="Path 30233" d="M151.684,62.314c30.047,4.11,60.817,11.122,90.192,18.657,1.233,10.993-1.15,22.053-3.954,32.754a407.9,407.9,0,0,1-32.549,84.513c-22.947-3.459-46.189-7.4-69.137-10.858Z" transform="translate(21.394 30.242)" fill="#fff"/>
        <path id="Path_30234" data-name="Path 30234" d="M136.115,17.583a77.667,77.667,0,0,0,3.4,24.68" transform="translate(124.31 8.533)" fill="none" stroke="#000200" stroke-linecap="round" stroke-linejoin="round" stroke-width="1"/>
        <path id="Path_30235" data-name="Path 30235" d="M145.717,15.45c3.332.551,6.5,1.212,9.831,1.765q.343,13.274.688,26.549c-6.177-.7-12.138-1.089-18.316-1.791Z" transform="translate(104.864 7.498)" fill="#000200"/>
        <path id="Path_30236" data-name="Path 30236" d="M156.063,40.326c11.884.631,24.541,1.476,36.426,2.108,5.153-9.555,10.483-20.033,15.635-29.588,10.861,2,21.268,3.926,32.128,5.925q-.3,6.352-.6,12.7c-.2,4.291-2.874,8.535-6.229,11.216a16.382,16.382,0,0,1-12.071,3.424c-1.056,2.094-1.894,4.223-2.95,6.317,6.368,2.969,12.649,5.869,19.017,8.836-1,15.171-1.574,30.856-2.57,46.027L141.523,95.871c4.746-18.3,9.794-37.243,14.54-55.545" transform="translate(15.5 6.234)" fill="#ffb399"/>
        <path id="Path_30237" data-name="Path 30237" d="M144.479,24.225a1.485,1.485,0,1,1,1.485,1.485,1.486,1.486,0,0,1-1.485-1.485" transform="translate(103.91 11.036)" fill="#000200"/>
        <path id="Path_30238" data-name="Path 30238" d="M155.677,23.133a1.485,1.485,0,1,1,1.485,1.485,1.486,1.486,0,0,1-1.485-1.485" transform="translate(76.08 10.506)" fill="#000200"/>
        <path id="Path_30239" data-name="Path 30239" d="M152.536,22.934q-.011,2.665-.022,5.329c-.642-.116-1.245-.146-1.885-.261" transform="translate(89.689 11.13)" fill="none" stroke="#000200" stroke-linecap="round" stroke-linejoin="round" stroke-width="1"/>
        <path id="Path_30240" data-name="Path 30240" d="M156.62,28.447a1.789,1.789,0,0,1-3.008-1.628" transform="translate(81.222 13.016)" fill="none" stroke="#000200" stroke-linecap="round" stroke-linejoin="round" stroke-width="1"/>
        <path id="Path_30241" data-name="Path 30241" d="M148.856,20.485a3.511,3.511,0,0,0-5.3-.833" transform="translate(103.867 9.124)" fill="none" stroke="#000200" stroke-linecap="round" stroke-linejoin="round" stroke-width="1"/>
        <path id="Path_30242" data-name="Path 30242" d="M158.077,18.491l-4.281-.619" transform="translate(79.444 8.674)" fill="none" stroke="#000200" stroke-linecap="round" stroke-linejoin="round" stroke-width="1"/>
        <path id="Path_30243" data-name="Path 30243" d="M165.011,37.178a17.106,17.106,0,0,1-11.043-4.931" transform="translate(72.254 15.65)" fill="none" stroke="#000200" stroke-linecap="round" stroke-linejoin="round" stroke-width="1"/>
        <path id="Path_30244" data-name="Path 30244" d="M157.255,39.346q-.521,1-1.047,2.01" transform="translate(76.683 19.096)" fill="none" stroke="#000200" stroke-linecap="round" stroke-linejoin="round" stroke-width="1"/>
        <path id="Path_30245" data-name="Path 30245" d="M173.953,13.885c3.978.677,8.143,1.3,12.12,1.973q-4.469,13.586-8.939,27.17l-17.552-9.221a40.906,40.906,0,0,1,14.371-19.921" transform="translate(42.854 6.739)" fill="#000200"/>
        <path id="Path_30246" data-name="Path 30246" d="M183.1,15.583A36.14,36.14,0,0,0,169.6,31.038" transform="translate(30.949 7.563)" fill="none" stroke="#000200" stroke-linecap="round" stroke-linejoin="round" stroke-width="1"/>
        <path id="Path_30247" data-name="Path 30247" d="M130.71,23.514A23.872,23.872,0,0,1,141.77,3.459a23.412,23.412,0,0,1,35.685,17.964l10.7,3.851a1.12,1.12,0,0,1-.457,2.17Z" transform="translate(82.918 0)" fill="#fe9a60"/>
        <line id="Line_5" data-name="Line 5" x1="46.118" y1="0.713" transform="translate(214.255 20.709)" fill="none" stroke="#000200" stroke-linecap="round" stroke-linejoin="round" stroke-width="1"/>
        <path id="Path_30248" data-name="Path 30248" d="M243.973,103.332l38.843-39.79,50.84,36.947-15.444,39.774Z" transform="translate(-230.077 30.838)" fill="#ffb399"/>
        <path id="Path_30249" data-name="Path 30249" d="M60.566,89.99c11.079,10.409,22.2,20.977,33.276,31.386q19.9.762,39.811,1.525c12.288-2.173,25.426,3.268,33.319,12.933a36.016,36.016,0,0,1,5.485,35.279c-15.542,7.042-30.662,13.937-46.2,20.979a64.441,64.441,0,0,1-36.72,4.411c-10.379-1.843-19.658-7.422-28.668-12.9-17.6-10.7-33.944-23.749-49.913-36.765Z" transform="translate(274.86 43.674)" fill="#ffb399"/>
        <path id="Path_30250" data-name="Path 30250" d="M82.442,110.657a24.684,24.684,0,0,0-16.851,19.568" transform="translate(286.092 53.705)" fill="none" stroke="#000200" stroke-linecap="round" stroke-linejoin="round" stroke-width="1"/>
        <path id="Path_30251" data-name="Path 30251" d="M5.364,145.957,24.033,157.6a4.169,4.169,0,0,0,5.742-1.332L68.3,94.479a4.168,4.168,0,0,0-1.331-5.742L48.3,77.094a4.169,4.169,0,0,0-5.744,1.332L4.033,140.213a4.168,4.168,0,0,0,1.331,5.744" transform="translate(391.971 37.109)" fill="#000200"/>
        <line id="Line_6" data-name="Line 6" x1="40.503" y2="65.329" transform="translate(401.97 115.752)" fill="none" stroke="#fff" stroke-linecap="round" stroke-linejoin="round" stroke-width="1"/>
        <path id="Path_30252" data-name="Path 30252" d="M7.08,88.525c-.777,1.344-.694,2.846.186,3.352s2.219-.171,3-1.515.694-2.846-.186-3.354S7.857,87.181,7.08,88.525Z" transform="translate(445.439 42.146)" fill="none" stroke="#fff" stroke-linecap="round" stroke-linejoin="round" stroke-width="1"/>
        <path id="Path_30253" data-name="Path 30253" d="M27.93,170.794A279.286,279.286,0,0,1,2.3,145.484,9.227,9.227,0,0,1,.16,142.236c-.386-1.248-.082-3.41.983-4.166,8.637,3.954,16.765,7.679,25.4,11.633.217-.1.29.4.053.368s-.033-.493.15-.34L7.143,120.544a15.416,15.416,0,0,1-2.628-5.255c-.4-1.931.147-4.572,1.748-5.723,7.761,6.356,15.774,12.786,23.535,19.141q-7.758-8.388-15.517-16.775a14.1,14.1,0,0,1-3.293-4.723c-.631-1.828-.676-4.765.848-5.955,9.077,5.493,18.289,10.977,27.366,16.469q-3.487-9.95-6.972-19.9a13.008,13.008,0,0,1-1.047-5.154c.129-1.762.971-3.926,2.675-4.4A277.144,277.144,0,0,1,61.5,122.655a42.417,42.417,0,0,1,6.956,27.737c-1.089,9.43-6.581,18.488-14.984,22.905s-18.369,3.718-25.54-2.5" transform="translate(397.266 42.842)" fill="#ffb399"/>
        <path id="Path_30254" data-name="Path 30254" d="M23.941,115.874l-11.033-8.356" transform="translate(422.844 52.181)" fill="none" stroke="#000200" stroke-linecap="round" stroke-linejoin="round" stroke-width="1"/>
        <path id="Path_30255" data-name="Path 30255" d="M33.125,124.571q-7.083-5.5-14.164-11" transform="translate(404.67 55.121)" fill="none" stroke="#000200" stroke-linecap="round" stroke-linejoin="round" stroke-width="1"/>
        <path id="Path_30256" data-name="Path 30256" d="M30.545,132.335l-5.72-3.228" transform="translate(398.54 62.659)" fill="none" stroke="#000200" stroke-linecap="round" stroke-linejoin="round" stroke-width="1"/>
        <path id="Path_30257" data-name="Path 30257" d="M59.358,159.323a24.065,24.065,0,0,1-15.342-7.15c-7.9-8-17.4-14.871-23.954-24.01a5.948,5.948,0,0,1-.807-5.228" transform="translate(378.416 59.663)" fill="none" stroke="#000200" stroke-linecap="round" stroke-linejoin="round" stroke-width="1"/>
        <path id="Path_30258" data-name="Path 30258" d="M86.529,129.255C88.6,99.887,91.218,70.165,94.94,40.961,106.3,46.382,117.113,52.52,128.477,57.94c-1.1,1.006-2.833,1.941-3.935,2.947a65.072,65.072,0,0,1,6.525,3.648,163.572,163.572,0,0,1,20.193,15.688L192.432,116.7c-19.805,23.427-39.926,47.961-59.732,71.388-4.818-6.625-9.915-12.03-14.733-18.654-2.036,16.263-4.227,33.573-6.262,49.836l-31.936,5.809q3.38-47.915,6.76-95.827" transform="translate(155.043 19.879)" fill="#fb7d4d"/>
        <path id="Path_30259" data-name="Path 30259" d="M126.8,103.053,87.594,68.7l1.958-2.234L129,101.024c-.755.651-1.491,1.322-2.192,2.029" transform="translate(206.857 32.258)" fill="#ffadb5"/>
        <path id="Path_30260" data-name="Path 30260" d="M128.963,108.025l-36.166-31,1.932-2.255L130.7,105.6c-.591.8-1.167,1.61-1.736,2.421" transform="translate(197.425 36.286)" fill="#ffadb5"/>
        <path id="Path_30261" data-name="Path 30261" d="M131.765,115.709l-33.6-30.89,2.011-2.188,33.343,30.657q-.86,1.221-1.756,2.421" transform="translate(186.628 40.103)" fill="#ffadb5"/>
        <path id="Path_30262" data-name="Path 30262" d="M103.477,92.779l31.317,24.958c-.634.76-1.252,1.534-1.892,2.29L103.107,96.283a29.644,29.644,0,0,0,.37-3.5" transform="translate(178.017 45.028)" fill="#ffadb5"/>
        <path id="Path_30263" data-name="Path 30263" d="M108.494,99.4l26.39,23.076c-.264.307-.527.616-.792.924-.38.443-.765.885-1.145,1.328L107.638,102.6c.281-1.066.569-2.131.856-3.2" transform="translate(171.197 48.241)" fill="#ffadb5"/>
        <path id="Path_30264" data-name="Path 30264" d="M113.055,107.959l21.6,19.079c-.627.769-1.248,1.543-1.852,2.329L112.621,111.54c.134-1.194.285-2.387.434-3.581" transform="translate(164.021 52.395)" fill="#ffadb5"/>
        <path id="Path_30265" data-name="Path 30265" d="M117.337,115.326,134,132.028c-.55.856-1.081,1.721-1.613,2.589l-15.565-15.6c.183-1.227.365-2.455.518-3.687" transform="translate(158.447 55.97)" fill="#ffadb5"/>
        <path id="Path_30266" data-name="Path 30266" d="M138.7,153.245l15.643-87.924c.927-.781,1.86-1.557,2.789-2.335l.622.111L139.285,166.9l-.79-.14c.105-4.5.165-9.011.2-13.519" transform="translate(102.494 30.569)" fill="#ffadb5"/>
        <path id="Path_30267" data-name="Path 30267" d="M159.86,57.665a12.1,12.1,0,0,0,1.124-1.062c.253-.2.5-.4.755-.6l1.475.349c-12.579,53-23.291,107.142-31.839,160.922l-2.932-.468c8.452-53.176,19.026-106.7,31.418-159.139" transform="translate(111.967 27.179)" fill="#ffadb5"/>
        <path id="Path_30268" data-name="Path 30268" d="M154.009,57.366a22.7,22.7,0,0,0,2.617,1.925L123.4,209.736l-2.9-.64Z" transform="translate(130.35 27.841)" fill="#ffadb5"/>
        <path id="Path_30269" data-name="Path 30269" d="M138.144,62.8l-18.038,47.887c-6.057,16.083-7.259,33.684-7.182,50.869" transform="translate(160.09 30.478)" fill="none" stroke="#000200" stroke-linecap="round" stroke-linejoin="round" stroke-width="1"/>
        <path id="Path_30270" data-name="Path 30270" d="M160.876,53.78,128.8,76.03c-1.289,7.678-2.371,15.911-3.66,23.588" transform="translate(119.211 26.101)" fill="none" stroke="#000200" stroke-linecap="round" stroke-linejoin="round" stroke-width="1"/>
        <path id="Path_30271" data-name="Path 30271" d="M140.485,87.258q-27.251,35.227-54.5,70.453" transform="translate(197.758 42.348)" fill="none" stroke="#000200" stroke-linecap="round" stroke-linejoin="round" stroke-width="1"/>
        <path id="Path_30272" data-name="Path 30272" d="M84.088,282.073c33.95,9.261,67.446,18.277,101.4,27.538a38.253,38.253,0,0,0,.786,41.054c1.536,2.238,4.273,3.534,6.483,5.111s4.388,3.712,4.55,6.423l-128.715-.26c5.288-26.213,10.215-53.653,15.5-79.866" transform="translate(166.782 136.897)" fill="#fe5615"/>
        <path id="Path_30273" data-name="Path 30273" d="M193.8,337.408,71.47,328.466" transform="translate(166.001 159.413)" fill="none" stroke="#000200" stroke-linecap="round" stroke-linejoin="round" stroke-width="1"/>
        <path id="Path_30274" data-name="Path 30274" d="M114.462,310.3l-27.225-4.747" transform="translate(221.921 148.292)" fill="none" stroke="#000200" stroke-linecap="round" stroke-linejoin="round" stroke-width="1"/>
        <line id="Line_7" data-name="Line 7" x1="27.579" y1="2.749" transform="translate(309.184 461.663)" fill="none" stroke="#000200" stroke-linecap="round" stroke-linejoin="round" stroke-width="1"/>
        <path id="Path_30275" data-name="Path 30275" d="M113.424,319.365l-26.907-3.877" transform="translate(224.029 153.114)" fill="none" stroke="#000200" stroke-linecap="round" stroke-linejoin="round" stroke-width="1"/>
        <path id="Path_30276" data-name="Path 30276" d="M19.444,204.308,23.3,180.222c2.421-15.119,7.441-29.931,10.859-44.855L193.83,161.078q-.065,4.048-.131,8.094c36.08-8.634,72.548-17.735,108.628-26.367,18.8-4.5,39.354-5.28,57.295,1.922s33.154,21.341,40.9,39.054c5.524,12.637,7.225,26.792,5.756,40.5a108.822,108.822,0,0,1-12.5,39.178c-22.421,42.228-50.3,82.026-71.422,124.92-38.477-9.15-76.7-17.461-115.175-26.611.657-1.692,1.163-3.335,1.821-5.026-14.76,2.237-29.025,3.8-43.784,6.038q-22.1,3.349-44.2,6.7c-9.961-25.782-20.337-51.143-30.3-76.925-14.458-3.869-29.144-7.761-43.6-11.63a41.132,41.132,0,0,1-23.839-18.489c-4.9-8.612-6.764-18.687-6.865-28.6s1.471-19.75,3.038-29.536" transform="translate(34.818 65.697)" fill="#74c3a4"/>
        <path id="Path_30277" data-name="Path 30277" d="M277.094,230.766a85.151,85.151,0,0,0-49.644-9.13c-29.8,3.635-59.763,11.092-89.213,16.915" transform="translate(-16.463 107.27)" fill="none" stroke="#000200" stroke-linecap="round" stroke-linejoin="round" stroke-width="1"/>
        <path id="Path_30278" data-name="Path 30278" d="M142.241,338.608s29.2-5.361,42.586-8.318c20.122-4.444,39.067-16.138,47.829-34.789s7.845-41.305-1.417-59.713-26.439-32.425-46-38.9c-32.633-10.8-66.848-17.854-100.643-24.147" transform="translate(101.573 83.834)" fill="none" stroke="#000200" stroke-linecap="round" stroke-linejoin="round" stroke-width="1"/>
        <path id="Path_30279" data-name="Path 30279" d="M195.676,230.172q14.731,43.842,29.461,87.686" transform="translate(-49.822 111.708)" fill="none" stroke="#000200" stroke-linecap="round" stroke-linejoin="round" stroke-width="1"/>
        <path id="Path_30280" data-name="Path 30280" d="M130.978,248.964a411.017,411.017,0,0,1,89.6-12.527,11.381,11.381,0,0,1-2.706-3.816,3.434,3.434,0,0,1,4.512-4.7,11.308,11.308,0,0,1,3.174,1.959l9.136,7.14c2.607,2.038,5.359,4.143,8.619,4.71s7.146-.985,8.028-4.174c.677-2.454-.566-5.028-2.108-7.052a23.266,23.266,0,0,0-11.7-8.111c-4.719-1.423-9.978-1.719-14.4.453" transform="translate(19.887 107.389)" fill="none" stroke="#000200" stroke-linecap="round" stroke-linejoin="round" stroke-width="1"/>
        <path id="Path_30281" data-name="Path 30281" d="M293.569,254.681a229.544,229.544,0,0,1-47.824-7.805c-9.233-2.531-18.653-5.848-25.458-12.582-8.04-7.955-11.318-19.75-11.245-31.061s3.135-22.362,6.176-33.256" transform="translate(-138.104 82.493)" fill="none" stroke="#000200" stroke-linecap="round" stroke-linejoin="round" stroke-width="1"/>
        <path id="Path_30282" data-name="Path 30282" d="M172.44,158.351q-6.659,4.69-13.319,9.383" transform="translate(57.172 76.852)" fill="none" stroke="#000200" stroke-linecap="round" stroke-linejoin="round" stroke-width="1"/>
        <path id="Path_30283" data-name="Path 30283" d="M212.02,161.1l-52.138-7.97" transform="translate(16.462 74.317)" fill="none" stroke="#000200" stroke-linecap="round" stroke-linejoin="round" stroke-width="1"/>
        <path id="Path_30284" data-name="Path 30284" d="M102.284,187.28,76.53,217.426" transform="translate(250.002 90.892)" fill="none" stroke="#000200" stroke-linecap="round" stroke-linejoin="round" stroke-width="1"/>
        <path id="Path_30285" data-name="Path 30285" d="M145.92,302.728q-38.8-11.866-77.6-23.734" transform="translate(218.554 135.403)" fill="none" stroke="#000200" stroke-linecap="round" stroke-linejoin="round" stroke-width="1"/>
        <path id="Path_30286" data-name="Path 30286" d="M235.877,152.77c7.866-9.2,16.44-18.483,20.98-29.708-17.15-12.924-33.494-26.828-50.642-39.75,17.594-16.4,38.454-30.763,60.665-40a103.52,103.52,0,0,1,31.45-7.877l12.82-1.02c-1.289-2.072-2.834-4.446-4.125-6.518,12.328.337,24.852.444,37.181.781C326.855,90.9,318.231,155.173,309.656,219.2q-3.032,22.654-6.068,45.307L193.262,227.363a230.389,230.389,0,0,1,42.615-74.593" transform="translate(-165.305 13.542)" fill="#fb7d4d"/>
        <path id="Path_30287" data-name="Path 30287" d="M232.483,74.714a147.262,147.262,0,0,1,65.029-36.27l.312,1.211q-.08.913-.152,1.825a144.276,144.276,0,0,0-62.863,35.115c-.765-.643-1.537-1.274-2.326-1.88" transform="translate(-177.178 18.658)" fill="#ffadb5"/>
        <path id="Path_30288" data-name="Path 30288" d="M232.358,77.585a170.238,170.238,0,0,1,57.919-32.448,23.611,23.611,0,0,0,.423,2.988,167.287,167.287,0,0,0-56.078,31.429c-.756-.645-1.511-1.3-2.264-1.97" transform="translate(-169.869 21.906)" fill="#ffadb5"/>
        <path id="Path_30289" data-name="Path 30289" d="M233.369,85.241c-.7-.6-1.377-1.211-2.085-1.791l-.18-.141a140.633,140.633,0,0,1,48.187-31.967l1.093,2.761a137.63,137.63,0,0,0-47.015,31.138" transform="translate(-157.69 24.917)" fill="#ffadb5"/>
        <path id="Path_30290" data-name="Path 30290" d="M245.031,81.984,265.11,66.036l1.846,2.326-19.7,15.646c-.738-.677-1.485-1.35-2.228-2.024" transform="translate(-164.948 32.049)" fill="#ffadb5"/>
        <path id="Path_30291" data-name="Path 30291" d="M205.471,233.864,262.114,46.3c.75,1,1.482,2.014,2.183,3.04L208.35,234.605c-.96-.247-1.921-.487-2.879-.741" transform="translate(-103.53 22.471)" fill="#ffadb5"/>
        <path id="Path_30292" data-name="Path 30292" d="M209.556,232.038c23.629-62.739,45.473-126.97,65-191.123.719.986,1.459,1.962,2.206,2.935C257.386,107.346,235.753,170.9,212.371,233c-.937-.324-1.876-.642-2.815-.961" transform="translate(-122.066 19.857)" fill="#ffadb5"/>
        <path id="Path_30293" data-name="Path 30293" d="M214.382,233.094,281.517,32.5a29.872,29.872,0,0,0,1.659,4.4L217.191,234.067c-.937-.327-1.873-.646-2.809-.973" transform="translate(-135.645 15.774)" fill="#ffadb5"/>
        <path id="Path_30294" data-name="Path 30294" d="M221.174,227.842l69.247-193.8c.3-.043.6-.079.893-.128a24.69,24.69,0,0,0,2.513-.578L223.984,228.806q-1.4-.483-2.81-.964" transform="translate(-156.384 16.178)" fill="#ffadb5"/>
        <path id="Path_30295" data-name="Path 30295" d="M263.648,176.264l20.374-45.711,2.714,1.211-20.23,45.384c-.952-.3-1.9-.6-2.858-.884" transform="translate(-212.381 63.361)" fill="#ffadb5"/>
        <path id="Path_30296" data-name="Path 30296" d="M277.143,172.372,287.724,131.6l2.874.746-10.647,41.02c-.934-.334-1.873-.665-2.809-1" transform="translate(-236.288 63.871)" fill="#ffadb5"/>
        <path id="Path_30297" data-name="Path 30297" d="M223.34,194.66l16.013-60.729,2.873.758-16,60.661q-1.444-.348-2.89-.689" transform="translate(-108 65)" fill="#ffadb5"/>
        <path id="Path_30298" data-name="Path 30298" d="M215.989,192.738,229.222,145.7l2.861.8-13.236,47.052c-.958-.247-1.91-.52-2.858-.812" transform="translate(-86.938 70.709)" fill="#ffadb5"/>
        <path id="Path_30299" data-name="Path 30299" d="M232.3,34.345q.062,14.023.123,28.047" transform="translate(-111.506 16.668)" fill="none" stroke="#000200" stroke-linecap="round" stroke-linejoin="round" stroke-width="1"/>
        <path id="Path_30300" data-name="Path 30300" d="M294.326,96.394q-21.433-18.131-42.872-36.26" transform="translate(-201.859 29.184)" fill="none" stroke="#000200" stroke-linecap="round" stroke-linejoin="round" stroke-width="1"/>
        <path id="Path_30301" data-name="Path 30301" d="M201.39,31.856q10.728,18.809,21.457,37.616" transform="translate(-56.018 15.46)" fill="none" stroke="#000200" stroke-linecap="round" stroke-linejoin="round" stroke-width="1"/>
        <path id="Path_30302" data-name="Path 30302" d="M174.333,196.582l100.31,24.309a4.474,4.474,0,0,0,5.4-3.294L313.817,78.243a4.475,4.475,0,0,0-3.294-5.4l-100.31-24.31a4.476,4.476,0,0,0-5.4,3.3L171.037,191.179a4.477,4.477,0,0,0,3.3,5.4" transform="translate(-101.843 23.491)" fill="#000200"/>
        <line id="Line_8" data-name="Line 8" x1="101.702" y1="24.965" transform="translate(106.696 75.393)" fill="none" stroke="#fff" stroke-linecap="round" stroke-linejoin="round" stroke-width="1"/>
        <rect id="Rectangle_563" data-name="Rectangle 563" width="44.208" height="20.949" transform="translate(177.81 98.445) rotate(-166.377)" fill="#a9d4e4"/>
        <path id="Path_30303" data-name="Path 30303" d="M197.531,56.94l-1.573,3.67" transform="translate(-22.634 27.634)" fill="none" stroke="#000200" stroke-linecap="round" stroke-linejoin="round" stroke-width="1"/>
        <path id="Path_30304" data-name="Path 30304" d="M217.052,51.816q-.392,1.575-.786,3.147" transform="translate(-72.319 25.148)" fill="none" stroke="#000200" stroke-linecap="round" stroke-linejoin="round" stroke-width="1"/>
        <path id="Path_30305" data-name="Path 30305" d="M220.247,59.285q-9.868-3.023-19.734-6.045" transform="translate(-52.116 25.839)" fill="none" stroke="#000200" stroke-linecap="round" stroke-linejoin="round" stroke-width="1"/>
        <path id="Path_30306" data-name="Path 30306" d="M203.18,176.262c29.706,7.4,60.918,8.154,91.526,8.8,21.707.46,44.618.463,64.912-7.257a6.335,6.335,0,0,0,3.834-4.339,6.788,6.788,0,0,0-1.3-5.858,8.091,8.091,0,0,0,6.819-4.092,8.5,8.5,0,0,0,.138-8.162,8.536,8.536,0,0,0,7.317-3.85,8.772,8.772,0,0,0,.388-8.383,6.983,6.983,0,0,0,6.335-4.8c.832-2.7-.147-6.651-2.734-7.795-4.6-2.035-9.283-4.049-13.88-6.082l6.682-2.672a12.321,12.321,0,0,0,4.575-2.653c1.219-1.294,2.131-3.167,1.2-4.683l-16.373-1.3-17.831-1.417c-7.453-.591-15.15.086-21.326,4.3-16.472-1.514-33.1-3.566-49.539-5.386l-24.671-2.73c-.441-6.853-4.958-12.564-10.593-16.489a45.212,45.212,0,0,0-54.719,2.317c-12.575,10.44-16.162,30.3-12.582,46.246s15.966,32.328,31.826,36.279" transform="translate(-170.041 40.433)" fill="#ffb399"/>
        <path id="Path_30307" data-name="Path 30307" d="M278.583,101.251l-22.241-2.914" transform="translate(-193.376 47.725)" fill="none" stroke="#000200" stroke-linecap="round" stroke-linejoin="round" stroke-width="1"/>
        <path id="Path_30308" data-name="Path 30308" d="M192.078,112.107,180.264,108.5" transform="translate(6.129 52.657)" fill="none" stroke="#000200" stroke-linecap="round" stroke-linejoin="round" stroke-width="1"/>
        <path id="Path_30309" data-name="Path 30309" d="M178.137,124.1l-3.9-1.64" transform="translate(29.027 59.433)" fill="none" stroke="#000200" stroke-linecap="round" stroke-linejoin="round" stroke-width="1"/>
        <path id="Path_30310" data-name="Path 30310" d="M183.134,132.539l-4.456-1.31" transform="translate(17.429 63.689)" fill="none" stroke="#000200" stroke-linecap="round" stroke-linejoin="round" stroke-width="1"/>
        <path id="Path_30311" data-name="Path 30311" d="M187.534,140.275l-4.452-.807" transform="translate(6.488 67.687)" fill="none" stroke="#000200" stroke-linecap="round" stroke-linejoin="round" stroke-width="1"/>
        <path id="Path_30312" data-name="Path 30312" d="M275.513,233.7l36.493,81.7c-12.475,14.3-20.992,34.52-6.4,53.221,4.14,5.306,11.343,9.564,11.776,16.279l-46.145.3c-23.957-37.518-46.22-76.522-67.475-115.633,23.692-15.987,71.747-35.863,71.747-35.863" transform="translate(-154.086 113.422)" fill="#fe5615"/>
        <path id="Path_30313" data-name="Path 30313" d="M299.487,371.425a46.73,46.73,0,0,1-40.756-13.09c-27.34-27.915-36.074-68.384-48.162-105.54" transform="translate(-146.294 122.688)" fill="none" stroke="#000200" stroke-linecap="round" stroke-linejoin="round" stroke-width="1"/>
        <path id="Path_30314" data-name="Path 30314" d="M227.709,302.119q-6.648-7.159-13.3-14.316" transform="translate(-80.225 139.678)" fill="none" stroke="#000200" stroke-linecap="round" stroke-linejoin="round" stroke-width="1"/>
        <path id="Path_30315" data-name="Path 30315" d="M231.838,305.7l-16.1-12.551" transform="translate(-86.319 142.272)" fill="none" stroke="#000200" stroke-linecap="round" stroke-linejoin="round" stroke-width="1"/>
        <path id="Path_30316" data-name="Path 30316" d="M234.748,309.509,216.857,300.2" transform="translate(-90.893 145.695)" fill="none" stroke="#000200" stroke-linecap="round" stroke-linejoin="round" stroke-width="1"/>
      </g>
    </g>
    <path id="Path_30229" data-name="Path 30229" d="M148,81.276a81,81,0,0,0,81-81c-1.374-.62-81,0-81,0Z" transform="translate(397 6462.187)" fill="#fff"/>
  </g>
</svg>
