<svg xmlns="http://www.w3.org/2000/svg" xmlns:xlink="http://www.w3.org/1999/xlink" width="376.74" height="424.431" viewBox="0 0 376.74 424.431">
  <defs>
    <clipPath id="clip-path">
      <rect id="Rectangle_504" data-name="Rectangle 504" width="477.798" height="90.88" fill="#fff"/>
    </clipPath>
  </defs>
  <g id="Group_964" data-name="Group 964" transform="matrix(0.643, 0.766, -0.766, 0.643, 69.618, 0)">
    <g id="Group_963" data-name="Group 963" clip-path="url(#clip-path)">
      <path id="Path_29750" data-name="Path 29750" d="M299.892,90.879h-.186c-26.409-.111-45.092-23.461-58.734-40.511-7.909-9.884-14.738-18.419-19.654-17.684-3.49.523-6.436,5.692-9.005,15.8-3.02,11.876-6.084,17.328-9.937,17.677-.132.012-.265.018-.4.018-5.049,0-9.946-8.667-16.66-20.548-10.177-18.01-24.115-42.675-44.6-44.317C128.031.3,113.91,8.339,98.745,25.213,77.78,48.534,54.4,66.732,29.265,79.3,22.035,82.918,12.518,86.107.979,88.78a.808.808,0,0,1-.949-.42A.609.609,0,0,1,.554,87.6c11.4-2.642,20.79-5.784,27.9-9.341C53.423,65.773,76.654,47.685,97.5,24.494c8.1-9.014,15.986-15.615,23.438-19.621C127.792,1.19,134.5-.419,140.868.092c21.367,1.712,35.515,26.75,45.846,45.032C192.834,55.955,198.107,65.3,202.2,64.94c2.963-.268,5.858-5.887,8.608-16.7,2.784-10.95,5.937-16.12,10.226-16.763,5.93-.886,12.346,7.13,21.226,18.228,13.452,16.813,31.875,39.838,57.452,39.946h.177c9.479,0,19.444-3.191,29.624-9.485C341.1,73,353.347,61.588,365.907,46.246,400.6,3.873,438.1-9.457,477.38,6.626a.562.562,0,0,1,.334.827.864.864,0,0,1-1.031.268c-38.465-15.75-75.3-2.562-109.495,39.2-12.653,15.456-25.014,26.969-36.737,34.218-10.453,6.464-20.735,9.74-30.559,9.74" transform="translate(0 0.001)" fill="#fff"/>
    </g>
  </g>
</svg>
