<svg id="Group_962" data-name="Group 962" xmlns="http://www.w3.org/2000/svg" xmlns:xlink="http://www.w3.org/1999/xlink" width="652.219" height="202.822" viewBox="0 0 652.219 202.822">
  <defs>
    <clipPath id="clip-path">
      <rect id="Rectangle_503" data-name="Rectangle 503" width="652.219" height="202.822"/>
    </clipPath>
  </defs>
  <g id="Group_961" data-name="Group 961" clip-path="url(#clip-path)">
    <path id="Path_29749" data-name="Path 29749" d="M1.035,202.822a1.068,1.068,0,0,1-1.007-.9,1.175,1.175,0,0,1,.772-1.4C60.278,184.9,150.361,144.85,241.749,42.775,257.212,25.5,271.889,13.319,285.374,6.56c12.263-6.147,23.894-7.986,34.568-5.467,35.155,8.3,53.909,61.916,66.319,97.4,6.2,17.735,11.585,33.058,15.72,32.646,3.638-.355,7.748-13.013,12.216-37.623,4.226-23.288,9-34.28,15.463-35.638,8.941-1.885,18.69,15.191,32.181,38.812,20.5,35.889,48.569,85.039,87.582,85.268h.27c14.462,0,29.662-6.816,45.185-20.263,17.656-15.294,36.308-39.649,55.44-72.388a.969.969,0,0,1,1.434-.334,1.254,1.254,0,0,1,.3,1.612c-19.258,32.956-38.068,57.5-55.906,72.953-15.893,13.768-31.52,20.746-46.449,20.747h-.281c-40.138-.236-68.56-50-89.314-86.338-12.066-21.126-22.478-39.378-30.058-37.783-5.372,1.128-9.891,12.19-13.815,33.816-5,27.552-9.077,38.989-14.066,39.476-5.694.554-10.524-13.236-17.826-34.114-12.247-35.016-30.755-87.933-64.817-95.971-21.666-5.113-47.34,8.7-76.308,41.055C151.476,146.885,61.01,187.1,1.271,202.791a.939.939,0,0,1-.236.031" transform="translate(0 0)"/>
  </g>
</svg>
