<svg xmlns="http://www.w3.org/2000/svg" xmlns:xlink="http://www.w3.org/1999/xlink" width="698.614" height="468.871" viewBox="0 0 698.614 468.871">
  <defs>
    <clipPath id="clip-path">
      <rect id="Rectangle_505" data-name="Rectangle 505" width="686.043" height="187.061"/>
    </clipPath>
  </defs>
  <g id="Group_966" data-name="Group 966" transform="matrix(0.899, 0.438, -0.438, 0.899, 82.002, 0)">
    <g id="Group_965" data-name="Group 965" clip-path="url(#clip-path)">
      <path id="Path_29751" data-name="Path 29751" d="M685.429,187.061a.613.613,0,0,1-.58-.416c-6.53-19.206-24.756-68.681-52.917-113.186C604.015,29.339,575.953,5.2,548.526,1.7c-27-3.437-53.075,13.681-77.507,50.885-11.4,17.355-22.532,30.282-33.09,38.419-9.407,7.25-18.656,10.926-27.492,10.926h-.167c-23.758-.125-40.582-26.336-52.867-45.475-7.142-11.127-13.3-20.737-17.791-19.9-3.18.594-5.854,6.42-8.177,17.81-2.714,13.3-5.456,19.411-8.891,19.8a3.132,3.132,0,0,1-.35.02c-4.5,0-8.905-9.717-14.945-23.039C298.069,30.9,285.5,3.171,266.989,1.323,261.556.781,255.8,2.515,249.883,6.481,243.3,10.894,236.3,18.2,229.091,28.2c-18.9,26.2-39.957,46.631-62.593,60.739-9.726,6.06-23.855,10.98-41.994,14.624a363.683,363.683,0,0,1-52.233,6.119c-32.746,1.634-65.343-.561-71.18-4.793-1.1-.794-1.172-1.588-1.043-2.113.312-1.271,2.183-2.382,5.886-3.5a120.132,120.132,0,0,1,16.12-3.217c12.471-1.825,19.482-5.216,19.742-9.546.163-2.726-2.428-5.923-7.3-9-5.057-3.2-12.193-6.1-20.636-8.389a.613.613,0,0,1,.321-1.183c17.9,4.857,29.222,12.176,28.835,18.647-.21,3.518-3.988,8.227-20.788,10.686C3.4,100.029,1.4,102.406,1.237,103.069c-.071.291.271.611.572.828,5.032,3.648,34.521,6.351,70.4,4.562,24.62-1.228,69.524-5.532,93.64-20.559,22.5-14.023,43.443-34.349,62.247-60.415,7.3-10.119,14.4-17.528,21.1-22.023C255.361,1.335,261.386-.468,267.111.1c19.211,1.918,31.951,30.02,41.254,50.539,5.529,12.2,10.315,22.73,14.041,22.307,2.708-.3,5.341-6.638,7.828-18.825,2.5-12.265,5.325-18.054,9.153-18.77,5.3-.986,11.063,8,19.048,20.443,12.133,18.9,28.749,44.79,51.841,44.911h.16c8.56,0,17.556-3.589,26.744-10.67,10.45-8.054,21.49-20.88,32.814-38.121C494.7,14.289,521.176-3.015,548.681.488c14.785,1.883,29.96,9.829,45.1,23.618,13.106,11.934,26.29,28.318,39.185,48.7,28.231,44.616,46.5,94.2,53.042,113.447a.614.614,0,0,1-.58.811" transform="translate(0 0)"/>
    </g>
  </g>
</svg>
