<svg xmlns="http://www.w3.org/2000/svg" xmlns:xlink="http://www.w3.org/1999/xlink" width="277.619" height="297.461" viewBox="0 0 277.619 297.461">
  <defs>
    <clipPath id="clip-path">
      <rect id="Rectangle_507" data-name="Rectangle 507" width="271.554" height="137.328" fill="none"/>
    </clipPath>
  </defs>
  <g id="Group_970" data-name="Group 970" transform="translate(277.619 86.423) rotate(129)">
    <g id="Group_969" data-name="Group 969" transform="translate(0 0)" clip-path="url(#clip-path)">
      <path id="Path_29753" data-name="Path 29753" d="M216.575,137.328a88.792,88.792,0,0,1-9.4-.481c-19.084-2.029-33.6-10.606-44.38-26.221-12.256-17.75-24.544-26.822-37.565-27.735-12.67-.887-24.652,6.018-34.7,12.891l-.21.144c-10.562,7.224-18.9,12.93-27.5,10.086-5.466-1.809-10.5-6.9-15.834-16.02-5.539-9.466-11.517-23.608-18.277-43.235C22.073,27.481,11.994,11.461.333,1.649A.934.934,0,0,1,1.535.219c11.916,10.026,22.2,26.339,28.944,45.932,12.858,37.333,22.707,54.706,32.932,58.089,7.714,2.553,15.719-2.923,25.855-9.855l.211-.144c10.31-7.054,22.635-14.138,35.881-13.213,13.624.955,26.372,10.289,38.971,28.537,10.452,15.141,24.531,23.457,43.04,25.425,16.292,1.732,36.3-1.289,62.976-9.508a.934.934,0,0,1,.55,1.785c-22.033,6.79-39.6,10.061-54.321,10.061" transform="translate(0 0)" fill="#fefefe"/>
    </g>
  </g>
</svg>
