<svg xmlns="http://www.w3.org/2000/svg" width="114.564" height="78.427" viewBox="0 0 114.564 78.427">
  <g id="fire-truck-01" transform="translate(0 -80.7)">
    <path id="Path_29733" data-name="Path 29733" d="M54.117,175.773H82.445V121.4H28.139a5.644,5.644,0,0,0-5.639,5.639v48.735h5.325" transform="translate(-17.465 -31.593)" fill="#fff"/>
    <path id="Path_29734" data-name="Path 29734" d="M64.219,121.4h-25.2c-9.062,0-16.424,2.528-16.424,5.639v48.735H77.8V124.2C77.773,121.085,55.134,121.4,64.219,121.4Z" transform="translate(-17.543 -31.593)" fill="#f3b92d"/>
    <path id="Path_29735" data-name="Path 29735" d="M328.3,175.773h5.773v-50.01a4.355,4.355,0,0,0-4.363-4.363H290.4v54.373h11.613" transform="translate(-225.421 -31.593)" fill="#f3b92d"/>
    <g id="Group_959" data-name="Group 959" transform="translate(10.36 131.023)">
      <circle id="Ellipse_4" data-name="Ellipse 4" cx="13.157" cy="13.157" r="13.157" fill="#f3b92d"/>
      <path id="Path_29747" data-name="Path 29747" d="M13.157,0A13.157,13.157,0,1,1,0,13.157,13.157,13.157,0,0,1,13.157,0Z" transform="translate(66.232)" fill="#f3b92d"/>
    </g>
    <g id="Group_960" data-name="Group 960" transform="translate(17.655 138.318)">
      <circle id="Ellipse_6" data-name="Ellipse 6" cx="5.862" cy="5.862" r="5.862" transform="translate(66.232)" fill="#fff"/>
      <circle id="Ellipse_7" data-name="Ellipse 7" cx="5.862" cy="5.862" r="5.862" fill="#fff"/>
    </g>
    <path id="Path_29736" data-name="Path 29736" d="M296.24,175.773h.9V121.4H290.4v54.373h1.79" transform="translate(-225.421 -31.593)" fill="#f3b92d"/>
    <rect id="Rectangle_500" data-name="Rectangle 500" width="19.512" height="17.207" transform="translate(89.145 97.639)" fill="#e6e6e6"/>
    <path id="Path_29737" data-name="Path 29737" d="M436.464,156.4v17.207H422.3L435.5,156.4Z" transform="translate(-327.807 -58.761)" fill="#f2f2f2"/>
    <rect id="Rectangle_501" data-name="Rectangle 501" width="11.635" height="17.207" transform="translate(70.999 97.639)" fill="#e6e6e6"/>
    <rect id="Rectangle_502" data-name="Rectangle 502" width="9.465" height="7.16" transform="translate(89.19 82.647)" fill="#f3b92d"/>
    <path id="Path_29738" data-name="Path 29738" d="M23.651,153.939A15.037,15.037,0,0,0,8.749,167.1H7.071V120.218a3.753,3.753,0,0,1,3.759-3.759H47.168a1.88,1.88,0,0,0,0-3.759H10.808a7.535,7.535,0,0,0-7.518,7.518v46.855H1.88a1.88,1.88,0,1,0,0,3.759H8.749a15.017,15.017,0,0,0,14.9,13.135,15.27,15.27,0,0,0,6.355-1.412,15.014,15.014,0,0,0-6.355-28.616Zm0,26.292a11.3,11.3,0,0,1-11.277-11.255h0A11.277,11.277,0,1,1,23.651,180.23Z" transform="translate(0 -24.84)" fill="#1f2021"/>
    <path id="Path_29739" data-name="Path 29739" d="M374.742,329.5a7.742,7.742,0,1,0,7.742,7.742A7.745,7.745,0,0,0,374.742,329.5Zm0,11.725a3.983,3.983,0,1,1,3.983-3.983A3.992,3.992,0,0,1,374.742,341.225Z" transform="translate(-284.881 -193.129)" fill="#1f2021"/>
    <path id="Path_29740" data-name="Path 29740" d="M78.764,329.5a7.742,7.742,0,1,0,7.72,7.742A7.764,7.764,0,0,0,78.764,329.5Zm0,11.725a3.983,3.983,0,1,1,3.983-3.983A3.992,3.992,0,0,1,78.764,341.225Z" transform="translate(-55.113 -193.129)" fill="#1f2021"/>
    <path id="Path_29741" data-name="Path 29741" d="M252.719,142.234H250.7V94.1a6.245,6.245,0,0,0-6.243-6.243H240.7V82.58a1.891,1.891,0,0,0-1.88-1.88h-9.465a1.891,1.891,0,0,0-1.88,1.88V87.86H194.7a1.88,1.88,0,1,0,0,3.759h8.57v35.555a1.88,1.88,0,1,0,3.759,0V91.619h37.435a2.492,2.492,0,0,1,2.484,2.484v1.589H229.314a1.891,1.891,0,0,0-1.88,1.88v17.207a1.891,1.891,0,0,0,1.88,1.88h17.632v25.576H244.8a15.018,15.018,0,0,0-29.8,0H207v-9.062a1.88,1.88,0,0,0-3.759,0v9.062H182.28a1.88,1.88,0,1,0,0,3.759h32.714a15.021,15.021,0,0,0,29.8,0h7.921a1.88,1.88,0,1,0,0-3.759Zm-21.5-54.373v-3.4h5.728v3.4Zm-.022,25.039V99.451h15.753V112.9Zm-1.3,42.492a11.312,11.312,0,0,1-11.277-11.255v-.045a11.277,11.277,0,0,1,22.555.022,11.44,11.44,0,0,1-2.419,6.974A11.116,11.116,0,0,1,229.9,155.391Z" transform="translate(-140.034)" fill="#1f2021"/>
    <path id="Path_29742" data-name="Path 29742" d="M323.015,168.666a1.891,1.891,0,0,0,1.88-1.88V149.58a1.891,1.891,0,0,0-1.88-1.88H311.38a1.891,1.891,0,0,0-1.88,1.88v17.207a1.891,1.891,0,0,0,1.88,1.88Zm-9.778-17.207h7.9v13.448h-7.9Z" transform="translate(-240.247 -52.008)" fill="#1f2021"/>
    <path id="Path_29743" data-name="Path 29743" d="M455.859,264.331V260.08a1.88,1.88,0,0,0-3.759,0v4.251a1.88,1.88,0,0,0,3.759,0Z" transform="translate(-350.939 -137.783)" fill="#1f2021"/>
    <path id="Path_29744" data-name="Path 29744" d="M119.3,166.9a11.9,11.9,0,1,0,11.9,11.9A11.913,11.913,0,0,0,119.3,166.9Zm0,20.026a8.145,8.145,0,1,1,8.145-8.145A8.146,8.146,0,0,1,119.3,186.926Z" transform="translate(-83.368 -66.912)" fill="#1f2021"/>
    <path id="Path_29745" data-name="Path 29745" d="M140.651,194.4a5.751,5.751,0,1,0,5.751,5.751A5.763,5.763,0,0,0,140.651,194.4Zm0,7.72a1.991,1.991,0,1,1,1.991-1.991A2,2,0,0,1,140.651,202.12Z" transform="translate(-104.715 -88.259)" fill="#1f2021"/>
    <path id="Path_29746" data-name="Path 29746" d="M107.237,178.646a1.891,1.891,0,0,0,1.88-1.88V157.59a18.02,18.02,0,0,0-17.99-17.99H72.98a1.88,1.88,0,1,0,0,3.759h7.16a17.98,17.98,0,1,0,25.218,25.218v8.19A1.862,1.862,0,0,0,107.237,178.646Zm-16.111-6.825a14.231,14.231,0,1,1,14.231-14.231A14.238,14.238,0,0,1,91.126,171.821Z" transform="translate(-55.191 -45.721)" fill="#1f2021"/>
    <path id="Path_29748" data-name="Path 29748" d="M0,0H12.8" transform="translate(45.423 89.74)" fill="none" stroke="#1f2021" stroke-width="2"/>
    <line id="Line_3" data-name="Line 3" y2="12.799" transform="translate(65.114 123.639)" fill="none" stroke="#1f2021" stroke-miterlimit="10" stroke-width="2"/>
    <line id="Line_4" data-name="Line 4" x2="12.777" transform="translate(36.674 144.113)" fill="none" stroke="#1f2021" stroke-miterlimit="10" stroke-width="2"/>
  </g>
</svg>
