<svg xmlns="http://www.w3.org/2000/svg" xmlns:xlink="http://www.w3.org/1999/xlink" width="442.592" height="387.545" viewBox="0 0 442.592 387.545">
  <defs>
    <clipPath id="clip-path">
      <rect id="Rectangle_318" data-name="Rectangle 318" width="442.592" height="181.765" fill="#f7ce47"/>
    </clipPath>
  </defs>
  <g id="Group_480" data-name="Group 480" opacity="0.66">
    <g id="white_dots" data-name="white dots" transform="translate(0 0)">
      <g id="Group_452" data-name="Group 452" clip-path="url(#clip-path)">
        <path id="Path_15154" data-name="Path 15154" d="M3.439,0A3.513,3.513,0,0,0,0,3.583,3.513,3.513,0,0,0,3.439,7.165,3.513,3.513,0,0,0,6.878,3.583,3.513,3.513,0,0,0,3.439,0" transform="translate(435.714 174.6)" fill="#f7ce47"/>
        <path id="Path_15155" data-name="Path 15155" d="M83.617,0a3.513,3.513,0,0,0-3.439,3.583,3.442,3.442,0,1,0,6.878,0A3.513,3.513,0,0,0,83.617,0" transform="translate(322.02 174.6)" fill="#f7ce47"/>
        <path id="Path_15156" data-name="Path 15156" d="M163.8,0a3.513,3.513,0,0,0-3.439,3.583,3.442,3.442,0,1,0,6.878,0A3.513,3.513,0,0,0,163.8,0" transform="translate(208.325 174.6)" fill="#f7ce47"/>
        <path id="Path_15157" data-name="Path 15157" d="M243.974,0a3.513,3.513,0,0,0-3.439,3.583,3.442,3.442,0,1,0,6.878,0A3.513,3.513,0,0,0,243.974,0" transform="translate(94.629 174.6)" fill="#f7ce47"/>
        <path id="Path_15158" data-name="Path 15158" d="M324.152,0a3.513,3.513,0,0,0-3.439,3.583,3.442,3.442,0,1,0,6.878,0A3.513,3.513,0,0,0,324.152,0" transform="translate(-19.065 174.6)" fill="#f7ce47"/>
        <path id="Path_15159" data-name="Path 15159" d="M404.33,0a3.513,3.513,0,0,0-3.439,3.583,3.442,3.442,0,1,0,6.878,0A3.513,3.513,0,0,0,404.33,0" transform="translate(-132.76 174.6)" fill="#f7ce47"/>
        <path id="Path_15160" data-name="Path 15160" d="M484.508,0a3.513,3.513,0,0,0-3.439,3.583,3.442,3.442,0,1,0,6.878,0A3.513,3.513,0,0,0,484.508,0" transform="translate(-246.454 174.6)" fill="#f7ce47"/>
        <path id="Path_15161" data-name="Path 15161" d="M564.686,0a3.513,3.513,0,0,0-3.439,3.583,3.442,3.442,0,1,0,6.878,0A3.513,3.513,0,0,0,564.686,0" transform="translate(-360.148 174.6)" fill="#f7ce47"/>
        <path id="Path_15162" data-name="Path 15162" d="M644.864,0a3.513,3.513,0,0,0-3.439,3.583,3.442,3.442,0,1,0,6.878,0A3.513,3.513,0,0,0,644.864,0" transform="translate(-473.843 174.6)" fill="#f7ce47"/>
        <path id="Path_15163" data-name="Path 15163" d="M725.043,0A3.513,3.513,0,0,0,721.6,3.583a3.442,3.442,0,1,0,6.878,0A3.513,3.513,0,0,0,725.043,0" transform="translate(-587.539 174.6)" fill="#f7ce47"/>
        <path id="Path_15164" data-name="Path 15164" d="M805.221,0a3.513,3.513,0,0,0-3.439,3.583,3.442,3.442,0,1,0,6.878,0A3.513,3.513,0,0,0,805.221,0" transform="translate(-701.233 174.6)" fill="#f7ce47"/>
        <path id="Path_15165" data-name="Path 15165" d="M885.4,0a3.513,3.513,0,0,0-3.439,3.583,3.442,3.442,0,1,0,6.878,0A3.513,3.513,0,0,0,885.4,0" transform="translate(-814.927 174.6)" fill="#f7ce47"/>
        <path id="Path_15166" data-name="Path 15166" d="M965.577,0a3.513,3.513,0,0,0-3.439,3.583,3.442,3.442,0,1,0,6.878,0A3.513,3.513,0,0,0,965.577,0" transform="translate(-928.622 174.6)" fill="#f7ce47"/>
        <path id="Path_15167" data-name="Path 15167" d="M1045.755,0a3.513,3.513,0,0,0-3.439,3.583,3.442,3.442,0,1,0,6.878,0A3.513,3.513,0,0,0,1045.755,0" transform="translate(-1042.316 174.6)" fill="#f7ce47"/>
        <path id="Path_15168" data-name="Path 15168" d="M3.439,80.178a3.586,3.586,0,0,0,0,7.165,3.586,3.586,0,0,0,0-7.165" transform="translate(435.714 59.502)" fill="#f7ce47"/>
        <path id="Path_15169" data-name="Path 15169" d="M83.617,80.178a3.586,3.586,0,1,0,3.439,3.583,3.513,3.513,0,0,0-3.439-3.583" transform="translate(322.02 59.502)" fill="#f7ce47"/>
        <path id="Path_15170" data-name="Path 15170" d="M163.8,80.178a3.586,3.586,0,1,0,3.439,3.583,3.513,3.513,0,0,0-3.439-3.583" transform="translate(208.325 59.502)" fill="#f7ce47"/>
        <path id="Path_15171" data-name="Path 15171" d="M243.974,80.178a3.586,3.586,0,1,0,3.439,3.583,3.513,3.513,0,0,0-3.439-3.583" transform="translate(94.629 59.502)" fill="#f7ce47"/>
        <path id="Path_15172" data-name="Path 15172" d="M324.152,80.178a3.586,3.586,0,1,0,3.439,3.583,3.513,3.513,0,0,0-3.439-3.583" transform="translate(-19.065 59.502)" fill="#f7ce47"/>
        <path id="Path_15173" data-name="Path 15173" d="M404.33,80.178a3.586,3.586,0,1,0,3.439,3.583,3.513,3.513,0,0,0-3.439-3.583" transform="translate(-132.76 59.502)" fill="#f7ce47"/>
        <path id="Path_15174" data-name="Path 15174" d="M484.508,80.178a3.586,3.586,0,1,0,3.439,3.583,3.513,3.513,0,0,0-3.439-3.583" transform="translate(-246.454 59.502)" fill="#f7ce47"/>
        <path id="Path_15175" data-name="Path 15175" d="M564.686,80.178a3.586,3.586,0,1,0,3.439,3.583,3.513,3.513,0,0,0-3.439-3.583" transform="translate(-360.148 59.502)" fill="#f7ce47"/>
        <path id="Path_15176" data-name="Path 15176" d="M644.864,80.178a3.586,3.586,0,1,0,3.439,3.583,3.513,3.513,0,0,0-3.439-3.583" transform="translate(-473.843 59.502)" fill="#f7ce47"/>
        <path id="Path_15177" data-name="Path 15177" d="M725.043,80.178a3.586,3.586,0,1,0,3.439,3.583,3.513,3.513,0,0,0-3.439-3.583" transform="translate(-587.539 59.502)" fill="#f7ce47"/>
        <path id="Path_15178" data-name="Path 15178" d="M805.221,80.178a3.586,3.586,0,1,0,3.439,3.583,3.513,3.513,0,0,0-3.439-3.583" transform="translate(-701.233 59.502)" fill="#f7ce47"/>
        <path id="Path_15179" data-name="Path 15179" d="M885.4,80.178a3.586,3.586,0,1,0,3.439,3.583,3.513,3.513,0,0,0-3.439-3.583" transform="translate(-814.927 59.502)" fill="#f7ce47"/>
        <path id="Path_15180" data-name="Path 15180" d="M965.577,80.178a3.586,3.586,0,1,0,3.439,3.583,3.513,3.513,0,0,0-3.439-3.583" transform="translate(-928.622 59.502)" fill="#f7ce47"/>
        <path id="Path_15181" data-name="Path 15181" d="M1045.755,80.178a3.586,3.586,0,1,0,3.439,3.583,3.513,3.513,0,0,0-3.439-3.583" transform="translate(-1042.316 59.502)" fill="#f7ce47"/>
        <path id="Path_15182" data-name="Path 15182" d="M3.439,160.356a3.586,3.586,0,0,0,0,7.165,3.586,3.586,0,0,0,0-7.165" transform="translate(435.714 -55.596)" fill="#f7ce47"/>
        <path id="Path_15183" data-name="Path 15183" d="M83.617,160.356a3.586,3.586,0,1,0,3.439,3.583,3.513,3.513,0,0,0-3.439-3.583" transform="translate(322.02 -55.596)" fill="#f7ce47"/>
        <path id="Path_15184" data-name="Path 15184" d="M163.8,160.356a3.586,3.586,0,1,0,3.439,3.583,3.513,3.513,0,0,0-3.439-3.583" transform="translate(208.325 -55.596)" fill="#f7ce47"/>
        <path id="Path_15185" data-name="Path 15185" d="M243.974,160.356a3.586,3.586,0,1,0,3.439,3.583,3.513,3.513,0,0,0-3.439-3.583" transform="translate(94.629 -55.596)" fill="#f7ce47"/>
        <path id="Path_15186" data-name="Path 15186" d="M324.152,160.356a3.586,3.586,0,1,0,3.439,3.583,3.513,3.513,0,0,0-3.439-3.583" transform="translate(-19.065 -55.596)" fill="#f7ce47"/>
        <path id="Path_15187" data-name="Path 15187" d="M404.33,160.356a3.586,3.586,0,1,0,3.439,3.583,3.513,3.513,0,0,0-3.439-3.583" transform="translate(-132.76 -55.596)" fill="#f7ce47"/>
        <path id="Path_15188" data-name="Path 15188" d="M484.508,160.356a3.586,3.586,0,1,0,3.439,3.583,3.513,3.513,0,0,0-3.439-3.583" transform="translate(-246.454 -55.596)" fill="#f7ce47"/>
        <path id="Path_15189" data-name="Path 15189" d="M564.686,160.356a3.586,3.586,0,1,0,3.439,3.583,3.513,3.513,0,0,0-3.439-3.583" transform="translate(-360.148 -55.596)" fill="#f7ce47"/>
        <path id="Path_15190" data-name="Path 15190" d="M644.864,160.356a3.586,3.586,0,1,0,3.439,3.583,3.513,3.513,0,0,0-3.439-3.583" transform="translate(-473.843 -55.596)" fill="#f7ce47"/>
        <path id="Path_15191" data-name="Path 15191" d="M725.043,160.356a3.586,3.586,0,1,0,3.439,3.583,3.513,3.513,0,0,0-3.439-3.583" transform="translate(-587.539 -55.596)" fill="#f7ce47"/>
        <path id="Path_15192" data-name="Path 15192" d="M805.221,160.356a3.586,3.586,0,1,0,3.439,3.583,3.513,3.513,0,0,0-3.439-3.583" transform="translate(-701.233 -55.596)" fill="#f7ce47"/>
        <path id="Path_15193" data-name="Path 15193" d="M885.4,160.356a3.586,3.586,0,1,0,3.439,3.583,3.513,3.513,0,0,0-3.439-3.583" transform="translate(-814.927 -55.596)" fill="#f7ce47"/>
        <path id="Path_15194" data-name="Path 15194" d="M965.577,160.356a3.586,3.586,0,1,0,3.439,3.583,3.513,3.513,0,0,0-3.439-3.583" transform="translate(-928.622 -55.596)" fill="#f7ce47"/>
        <path id="Path_15195" data-name="Path 15195" d="M1045.755,160.356a3.586,3.586,0,1,0,3.439,3.583,3.513,3.513,0,0,0-3.439-3.583" transform="translate(-1042.316 -55.596)" fill="#f7ce47"/>
        <path id="Path_15196" data-name="Path 15196" d="M3.439,240.535a3.586,3.586,0,0,0,0,7.165,3.586,3.586,0,0,0,0-7.165" transform="translate(435.714 -170.695)" fill="#f7ce47"/>
        <path id="Path_15197" data-name="Path 15197" d="M83.617,240.535a3.586,3.586,0,1,0,3.439,3.583,3.513,3.513,0,0,0-3.439-3.583" transform="translate(322.02 -170.695)" fill="#f7ce47"/>
        <path id="Path_15198" data-name="Path 15198" d="M163.8,240.535a3.586,3.586,0,1,0,3.439,3.583,3.513,3.513,0,0,0-3.439-3.583" transform="translate(208.325 -170.695)" fill="#f7ce47"/>
        <path id="Path_15199" data-name="Path 15199" d="M243.974,240.535a3.586,3.586,0,1,0,3.439,3.583,3.513,3.513,0,0,0-3.439-3.583" transform="translate(94.629 -170.695)" fill="#f7ce47"/>
        <path id="Path_15200" data-name="Path 15200" d="M324.152,240.535a3.586,3.586,0,1,0,3.439,3.583,3.513,3.513,0,0,0-3.439-3.583" transform="translate(-19.065 -170.695)" fill="#f7ce47"/>
        <path id="Path_15201" data-name="Path 15201" d="M404.33,240.535a3.586,3.586,0,1,0,3.439,3.583,3.513,3.513,0,0,0-3.439-3.583" transform="translate(-132.76 -170.695)" fill="#f7ce47"/>
        <path id="Path_15202" data-name="Path 15202" d="M484.508,240.535a3.586,3.586,0,1,0,3.439,3.583,3.513,3.513,0,0,0-3.439-3.583" transform="translate(-246.454 -170.695)" fill="#f7ce47"/>
        <path id="Path_15203" data-name="Path 15203" d="M564.686,240.535a3.586,3.586,0,1,0,3.439,3.583,3.513,3.513,0,0,0-3.439-3.583" transform="translate(-360.148 -170.695)" fill="#f7ce47"/>
        <path id="Path_15204" data-name="Path 15204" d="M644.864,240.535a3.586,3.586,0,1,0,3.439,3.583,3.513,3.513,0,0,0-3.439-3.583" transform="translate(-473.843 -170.695)" fill="#f7ce47"/>
        <path id="Path_15205" data-name="Path 15205" d="M725.043,240.535a3.586,3.586,0,1,0,3.439,3.583,3.513,3.513,0,0,0-3.439-3.583" transform="translate(-587.539 -170.695)" fill="#f7ce47"/>
        <path id="Path_15206" data-name="Path 15206" d="M805.221,240.535a3.586,3.586,0,1,0,3.439,3.583,3.513,3.513,0,0,0-3.439-3.583" transform="translate(-701.233 -170.695)" fill="#f7ce47"/>
        <path id="Path_15207" data-name="Path 15207" d="M885.4,240.535a3.586,3.586,0,1,0,3.439,3.583,3.513,3.513,0,0,0-3.439-3.583" transform="translate(-814.927 -170.695)" fill="#f7ce47"/>
        <path id="Path_15208" data-name="Path 15208" d="M965.577,240.535a3.586,3.586,0,1,0,3.439,3.583,3.513,3.513,0,0,0-3.439-3.583" transform="translate(-928.622 -170.695)" fill="#f7ce47"/>
        <path id="Path_15209" data-name="Path 15209" d="M1045.755,240.535a3.586,3.586,0,1,0,3.439,3.583,3.513,3.513,0,0,0-3.439-3.583" transform="translate(-1042.316 -170.695)" fill="#f7ce47"/>
        <path id="Path_15210" data-name="Path 15210" d="M3.439,320.713a3.586,3.586,0,0,0,0,7.165,3.586,3.586,0,0,0,0-7.165" transform="translate(435.714 -285.793)" fill="#f7ce47"/>
        <path id="Path_15211" data-name="Path 15211" d="M83.617,320.713a3.586,3.586,0,1,0,3.439,3.583,3.513,3.513,0,0,0-3.439-3.583" transform="translate(322.02 -285.793)" fill="#f7ce47"/>
        <path id="Path_15212" data-name="Path 15212" d="M163.8,320.713a3.586,3.586,0,1,0,3.439,3.583,3.513,3.513,0,0,0-3.439-3.583" transform="translate(208.325 -285.793)" fill="#f7ce47"/>
        <path id="Path_15213" data-name="Path 15213" d="M243.974,320.713a3.586,3.586,0,1,0,3.439,3.583,3.513,3.513,0,0,0-3.439-3.583" transform="translate(94.629 -285.793)" fill="#f7ce47"/>
        <path id="Path_15214" data-name="Path 15214" d="M324.152,320.713a3.586,3.586,0,1,0,3.439,3.583,3.513,3.513,0,0,0-3.439-3.583" transform="translate(-19.065 -285.793)" fill="#f7ce47"/>
        <path id="Path_15215" data-name="Path 15215" d="M404.33,320.713a3.586,3.586,0,1,0,3.439,3.583,3.513,3.513,0,0,0-3.439-3.583" transform="translate(-132.76 -285.793)" fill="#f7ce47"/>
        <path id="Path_15216" data-name="Path 15216" d="M484.508,320.713a3.586,3.586,0,1,0,3.439,3.583,3.513,3.513,0,0,0-3.439-3.583" transform="translate(-246.454 -285.793)" fill="#f7ce47"/>
        <path id="Path_15217" data-name="Path 15217" d="M564.686,320.713a3.586,3.586,0,1,0,3.439,3.583,3.513,3.513,0,0,0-3.439-3.583" transform="translate(-360.148 -285.793)" fill="#f7ce47"/>
        <path id="Path_15218" data-name="Path 15218" d="M644.864,320.713A3.586,3.586,0,1,0,648.3,324.3a3.513,3.513,0,0,0-3.439-3.583" transform="translate(-473.843 -285.793)" fill="#f7ce47"/>
        <path id="Path_15219" data-name="Path 15219" d="M725.043,320.713a3.586,3.586,0,1,0,3.439,3.583,3.513,3.513,0,0,0-3.439-3.583" transform="translate(-587.539 -285.793)" fill="#f7ce47"/>
        <path id="Path_15220" data-name="Path 15220" d="M805.221,320.713a3.586,3.586,0,1,0,3.439,3.583,3.513,3.513,0,0,0-3.439-3.583" transform="translate(-701.233 -285.793)" fill="#f7ce47"/>
        <path id="Path_15221" data-name="Path 15221" d="M885.4,320.713a3.586,3.586,0,1,0,3.439,3.583,3.513,3.513,0,0,0-3.439-3.583" transform="translate(-814.927 -285.793)" fill="#f7ce47"/>
        <path id="Path_15222" data-name="Path 15222" d="M965.577,320.713a3.586,3.586,0,1,0,3.439,3.583,3.513,3.513,0,0,0-3.439-3.583" transform="translate(-928.622 -285.793)" fill="#f7ce47"/>
        <path id="Path_15223" data-name="Path 15223" d="M1045.755,320.713a3.586,3.586,0,1,0,3.439,3.583,3.513,3.513,0,0,0-3.439-3.583" transform="translate(-1042.316 -285.793)" fill="#f7ce47"/>
        <path id="Path_15224" data-name="Path 15224" d="M3.439,400.891a3.586,3.586,0,0,0,0,7.165,3.586,3.586,0,0,0,0-7.165" transform="translate(435.714 -400.891)" fill="#f7ce47"/>
        <path id="Path_15225" data-name="Path 15225" d="M83.617,400.891a3.586,3.586,0,1,0,3.439,3.583,3.513,3.513,0,0,0-3.439-3.583" transform="translate(322.02 -400.891)" fill="#f7ce47"/>
        <path id="Path_15226" data-name="Path 15226" d="M163.8,400.891a3.586,3.586,0,1,0,3.439,3.583,3.513,3.513,0,0,0-3.439-3.583" transform="translate(208.325 -400.891)" fill="#f7ce47"/>
        <path id="Path_15227" data-name="Path 15227" d="M243.974,400.891a3.586,3.586,0,1,0,3.439,3.583,3.513,3.513,0,0,0-3.439-3.583" transform="translate(94.629 -400.891)" fill="#f7ce47"/>
        <path id="Path_15228" data-name="Path 15228" d="M324.152,400.891a3.586,3.586,0,1,0,3.439,3.583,3.513,3.513,0,0,0-3.439-3.583" transform="translate(-19.065 -400.891)" fill="#f7ce47"/>
        <path id="Path_15229" data-name="Path 15229" d="M404.33,400.891a3.586,3.586,0,1,0,3.439,3.583,3.513,3.513,0,0,0-3.439-3.583" transform="translate(-132.76 -400.891)" fill="#f7ce47"/>
        <path id="Path_15230" data-name="Path 15230" d="M484.508,400.891a3.586,3.586,0,1,0,3.439,3.583,3.513,3.513,0,0,0-3.439-3.583" transform="translate(-246.454 -400.891)" fill="#f7ce47"/>
        <path id="Path_15231" data-name="Path 15231" d="M564.686,400.891a3.586,3.586,0,1,0,3.439,3.583,3.513,3.513,0,0,0-3.439-3.583" transform="translate(-360.148 -400.891)" fill="#f7ce47"/>
        <path id="Path_15232" data-name="Path 15232" d="M644.864,400.891a3.586,3.586,0,1,0,3.439,3.583,3.513,3.513,0,0,0-3.439-3.583" transform="translate(-473.843 -400.891)" fill="#f7ce47"/>
        <path id="Path_15233" data-name="Path 15233" d="M725.043,400.891a3.586,3.586,0,1,0,3.439,3.583,3.513,3.513,0,0,0-3.439-3.583" transform="translate(-587.539 -400.891)" fill="#f7ce47"/>
        <path id="Path_15234" data-name="Path 15234" d="M805.221,400.891a3.586,3.586,0,1,0,3.439,3.583,3.513,3.513,0,0,0-3.439-3.583" transform="translate(-701.233 -400.891)" fill="#f7ce47"/>
        <path id="Path_15235" data-name="Path 15235" d="M885.4,400.891a3.586,3.586,0,1,0,3.439,3.583,3.513,3.513,0,0,0-3.439-3.583" transform="translate(-814.927 -400.891)" fill="#f7ce47"/>
        <path id="Path_15236" data-name="Path 15236" d="M965.577,400.891a3.586,3.586,0,1,0,3.439,3.583,3.513,3.513,0,0,0-3.439-3.583" transform="translate(-928.622 -400.891)" fill="#f7ce47"/>
        <path id="Path_15237" data-name="Path 15237" d="M1045.755,400.891a3.586,3.586,0,1,0,3.439,3.583,3.513,3.513,0,0,0-3.439-3.583" transform="translate(-1042.316 -400.891)" fill="#f7ce47"/>
      </g>
    </g>
    <g id="white_dots-2" data-name="white dots" transform="translate(0 205.78)">
      <g id="Group_452-2" data-name="Group 452" clip-path="url(#clip-path)">
        <path id="Path_15154-2" data-name="Path 15154" d="M3.439,0A3.513,3.513,0,0,0,0,3.583,3.513,3.513,0,0,0,3.439,7.165,3.513,3.513,0,0,0,6.878,3.583,3.513,3.513,0,0,0,3.439,0" transform="translate(435.714 174.6)" fill="#f7ce47"/>
        <path id="Path_15155-2" data-name="Path 15155" d="M83.617,0a3.513,3.513,0,0,0-3.439,3.583,3.442,3.442,0,1,0,6.878,0A3.513,3.513,0,0,0,83.617,0" transform="translate(322.02 174.6)" fill="#f7ce47"/>
        <path id="Path_15156-2" data-name="Path 15156" d="M163.8,0a3.513,3.513,0,0,0-3.439,3.583,3.442,3.442,0,1,0,6.878,0A3.513,3.513,0,0,0,163.8,0" transform="translate(208.325 174.6)" fill="#f7ce47"/>
        <path id="Path_15157-2" data-name="Path 15157" d="M243.974,0a3.513,3.513,0,0,0-3.439,3.583,3.442,3.442,0,1,0,6.878,0A3.513,3.513,0,0,0,243.974,0" transform="translate(94.629 174.6)" fill="#f7ce47"/>
        <path id="Path_15158-2" data-name="Path 15158" d="M324.152,0a3.513,3.513,0,0,0-3.439,3.583,3.442,3.442,0,1,0,6.878,0A3.513,3.513,0,0,0,324.152,0" transform="translate(-19.065 174.6)" fill="#f7ce47"/>
        <path id="Path_15159-2" data-name="Path 15159" d="M404.33,0a3.513,3.513,0,0,0-3.439,3.583,3.442,3.442,0,1,0,6.878,0A3.513,3.513,0,0,0,404.33,0" transform="translate(-132.76 174.6)" fill="#f7ce47"/>
        <path id="Path_15160-2" data-name="Path 15160" d="M484.508,0a3.513,3.513,0,0,0-3.439,3.583,3.442,3.442,0,1,0,6.878,0A3.513,3.513,0,0,0,484.508,0" transform="translate(-246.454 174.6)" fill="#f7ce47"/>
        <path id="Path_15161-2" data-name="Path 15161" d="M564.686,0a3.513,3.513,0,0,0-3.439,3.583,3.442,3.442,0,1,0,6.878,0A3.513,3.513,0,0,0,564.686,0" transform="translate(-360.148 174.6)" fill="#f7ce47"/>
        <path id="Path_15162-2" data-name="Path 15162" d="M644.864,0a3.513,3.513,0,0,0-3.439,3.583,3.442,3.442,0,1,0,6.878,0A3.513,3.513,0,0,0,644.864,0" transform="translate(-473.843 174.6)" fill="#f7ce47"/>
        <path id="Path_15163-2" data-name="Path 15163" d="M725.043,0A3.513,3.513,0,0,0,721.6,3.583a3.442,3.442,0,1,0,6.878,0A3.513,3.513,0,0,0,725.043,0" transform="translate(-587.539 174.6)" fill="#f7ce47"/>
        <path id="Path_15164-2" data-name="Path 15164" d="M805.221,0a3.513,3.513,0,0,0-3.439,3.583,3.442,3.442,0,1,0,6.878,0A3.513,3.513,0,0,0,805.221,0" transform="translate(-701.233 174.6)" fill="#f7ce47"/>
        <path id="Path_15168-2" data-name="Path 15168" d="M3.439,80.178a3.586,3.586,0,0,0,0,7.165,3.586,3.586,0,0,0,0-7.165" transform="translate(435.714 59.502)" fill="#f7ce47"/>
        <path id="Path_15169-2" data-name="Path 15169" d="M83.617,80.178a3.586,3.586,0,1,0,3.439,3.583,3.513,3.513,0,0,0-3.439-3.583" transform="translate(322.02 59.502)" fill="#f7ce47"/>
        <path id="Path_15170-2" data-name="Path 15170" d="M163.8,80.178a3.586,3.586,0,1,0,3.439,3.583,3.513,3.513,0,0,0-3.439-3.583" transform="translate(208.325 59.502)" fill="#f7ce47"/>
        <path id="Path_15171-2" data-name="Path 15171" d="M243.974,80.178a3.586,3.586,0,1,0,3.439,3.583,3.513,3.513,0,0,0-3.439-3.583" transform="translate(94.629 59.502)" fill="#f7ce47"/>
        <path id="Path_15172-2" data-name="Path 15172" d="M324.152,80.178a3.586,3.586,0,1,0,3.439,3.583,3.513,3.513,0,0,0-3.439-3.583" transform="translate(-19.065 59.502)" fill="#f7ce47"/>
        <path id="Path_15173-2" data-name="Path 15173" d="M404.33,80.178a3.586,3.586,0,1,0,3.439,3.583,3.513,3.513,0,0,0-3.439-3.583" transform="translate(-132.76 59.502)" fill="#f7ce47"/>
        <path id="Path_15174-2" data-name="Path 15174" d="M484.508,80.178a3.586,3.586,0,1,0,3.439,3.583,3.513,3.513,0,0,0-3.439-3.583" transform="translate(-246.454 59.502)" fill="#f7ce47"/>
        <path id="Path_15175-2" data-name="Path 15175" d="M564.686,80.178a3.586,3.586,0,1,0,3.439,3.583,3.513,3.513,0,0,0-3.439-3.583" transform="translate(-360.148 59.502)" fill="#f7ce47"/>
        <path id="Path_15176-2" data-name="Path 15176" d="M644.864,80.178a3.586,3.586,0,1,0,3.439,3.583,3.513,3.513,0,0,0-3.439-3.583" transform="translate(-473.843 59.502)" fill="#f7ce47"/>
        <path id="Path_15177-2" data-name="Path 15177" d="M725.043,80.178a3.586,3.586,0,1,0,3.439,3.583,3.513,3.513,0,0,0-3.439-3.583" transform="translate(-587.539 59.502)" fill="#f7ce47"/>
        <path id="Path_15178-2" data-name="Path 15178" d="M805.221,80.178a3.586,3.586,0,1,0,3.439,3.583,3.513,3.513,0,0,0-3.439-3.583" transform="translate(-701.233 59.502)" fill="#f7ce47"/>
        <path id="Path_15179-2" data-name="Path 15179" d="M885.4,80.178a3.586,3.586,0,1,0,3.439,3.583,3.513,3.513,0,0,0-3.439-3.583" transform="translate(-814.927 59.502)" fill="#f7ce47"/>
        <path id="Path_15180-2" data-name="Path 15180" d="M965.577,80.178a3.586,3.586,0,1,0,3.439,3.583,3.513,3.513,0,0,0-3.439-3.583" transform="translate(-928.622 59.502)" fill="#f7ce47"/>
        <path id="Path_15182-2" data-name="Path 15182" d="M3.439,160.356a3.586,3.586,0,0,0,0,7.165,3.586,3.586,0,0,0,0-7.165" transform="translate(435.714 -55.596)" fill="#f7ce47"/>
        <path id="Path_15183-2" data-name="Path 15183" d="M83.617,160.356a3.586,3.586,0,1,0,3.439,3.583,3.513,3.513,0,0,0-3.439-3.583" transform="translate(322.02 -55.596)" fill="#f7ce47"/>
        <path id="Path_15184-2" data-name="Path 15184" d="M163.8,160.356a3.586,3.586,0,1,0,3.439,3.583,3.513,3.513,0,0,0-3.439-3.583" transform="translate(208.325 -55.596)" fill="#f7ce47"/>
        <path id="Path_15185-2" data-name="Path 15185" d="M243.974,160.356a3.586,3.586,0,1,0,3.439,3.583,3.513,3.513,0,0,0-3.439-3.583" transform="translate(94.629 -55.596)" fill="#f7ce47"/>
        <path id="Path_15186-2" data-name="Path 15186" d="M324.152,160.356a3.586,3.586,0,1,0,3.439,3.583,3.513,3.513,0,0,0-3.439-3.583" transform="translate(-19.065 -55.596)" fill="#f7ce47"/>
        <path id="Path_15187-2" data-name="Path 15187" d="M404.33,160.356a3.586,3.586,0,1,0,3.439,3.583,3.513,3.513,0,0,0-3.439-3.583" transform="translate(-132.76 -55.596)" fill="#f7ce47"/>
        <path id="Path_15188-2" data-name="Path 15188" d="M484.508,160.356a3.586,3.586,0,1,0,3.439,3.583,3.513,3.513,0,0,0-3.439-3.583" transform="translate(-246.454 -55.596)" fill="#f7ce47"/>
        <path id="Path_15189-2" data-name="Path 15189" d="M564.686,160.356a3.586,3.586,0,1,0,3.439,3.583,3.513,3.513,0,0,0-3.439-3.583" transform="translate(-360.148 -55.596)" fill="#f7ce47"/>
        <path id="Path_15190-2" data-name="Path 15190" d="M644.864,160.356a3.586,3.586,0,1,0,3.439,3.583,3.513,3.513,0,0,0-3.439-3.583" transform="translate(-473.843 -55.596)" fill="#f7ce47"/>
        <path id="Path_15191-2" data-name="Path 15191" d="M725.043,160.356a3.586,3.586,0,1,0,3.439,3.583,3.513,3.513,0,0,0-3.439-3.583" transform="translate(-587.539 -55.596)" fill="#f7ce47"/>
        <path id="Path_15192-2" data-name="Path 15192" d="M805.221,160.356a3.586,3.586,0,1,0,3.439,3.583,3.513,3.513,0,0,0-3.439-3.583" transform="translate(-701.233 -55.596)" fill="#f7ce47"/>
        <path id="Path_15193-2" data-name="Path 15193" d="M885.4,160.356a3.586,3.586,0,1,0,3.439,3.583,3.513,3.513,0,0,0-3.439-3.583" transform="translate(-814.927 -55.596)" fill="#f7ce47"/>
        <path id="Path_15194-2" data-name="Path 15194" d="M965.577,160.356a3.586,3.586,0,1,0,3.439,3.583,3.513,3.513,0,0,0-3.439-3.583" transform="translate(-928.622 -55.596)" fill="#f7ce47"/>
        <path id="Path_15196-2" data-name="Path 15196" d="M3.439,240.535a3.586,3.586,0,0,0,0,7.165,3.586,3.586,0,0,0,0-7.165" transform="translate(435.714 -170.695)" fill="#f7ce47"/>
        <path id="Path_15197-2" data-name="Path 15197" d="M83.617,240.535a3.586,3.586,0,1,0,3.439,3.583,3.513,3.513,0,0,0-3.439-3.583" transform="translate(322.02 -170.695)" fill="#f7ce47"/>
        <path id="Path_15198-2" data-name="Path 15198" d="M163.8,240.535a3.586,3.586,0,1,0,3.439,3.583,3.513,3.513,0,0,0-3.439-3.583" transform="translate(208.325 -170.695)" fill="#f7ce47"/>
        <path id="Path_15199-2" data-name="Path 15199" d="M243.974,240.535a3.586,3.586,0,1,0,3.439,3.583,3.513,3.513,0,0,0-3.439-3.583" transform="translate(94.629 -170.695)" fill="#f7ce47"/>
        <path id="Path_15200-2" data-name="Path 15200" d="M324.152,240.535a3.586,3.586,0,1,0,3.439,3.583,3.513,3.513,0,0,0-3.439-3.583" transform="translate(-19.065 -170.695)" fill="#f7ce47"/>
        <path id="Path_15201-2" data-name="Path 15201" d="M404.33,240.535a3.586,3.586,0,1,0,3.439,3.583,3.513,3.513,0,0,0-3.439-3.583" transform="translate(-132.76 -170.695)" fill="#f7ce47"/>
        <path id="Path_15202-2" data-name="Path 15202" d="M484.508,240.535a3.586,3.586,0,1,0,3.439,3.583,3.513,3.513,0,0,0-3.439-3.583" transform="translate(-246.454 -170.695)" fill="#f7ce47"/>
        <path id="Path_15203-2" data-name="Path 15203" d="M564.686,240.535a3.586,3.586,0,1,0,3.439,3.583,3.513,3.513,0,0,0-3.439-3.583" transform="translate(-360.148 -170.695)" fill="#f7ce47"/>
        <path id="Path_15204-2" data-name="Path 15204" d="M644.864,240.535a3.586,3.586,0,1,0,3.439,3.583,3.513,3.513,0,0,0-3.439-3.583" transform="translate(-473.843 -170.695)" fill="#f7ce47"/>
        <path id="Path_15205-2" data-name="Path 15205" d="M725.043,240.535a3.586,3.586,0,1,0,3.439,3.583,3.513,3.513,0,0,0-3.439-3.583" transform="translate(-587.539 -170.695)" fill="#f7ce47"/>
        <path id="Path_15206-2" data-name="Path 15206" d="M805.221,240.535a3.586,3.586,0,1,0,3.439,3.583,3.513,3.513,0,0,0-3.439-3.583" transform="translate(-701.233 -170.695)" fill="#f7ce47"/>
        <path id="Path_15207-2" data-name="Path 15207" d="M885.4,240.535a3.586,3.586,0,1,0,3.439,3.583,3.513,3.513,0,0,0-3.439-3.583" transform="translate(-814.927 -170.695)" fill="#f7ce47"/>
        <path id="Path_15208-2" data-name="Path 15208" d="M965.577,240.535a3.586,3.586,0,1,0,3.439,3.583,3.513,3.513,0,0,0-3.439-3.583" transform="translate(-928.622 -170.695)" fill="#f7ce47"/>
        <path id="Path_15209-2" data-name="Path 15209" d="M1045.755,240.535a3.586,3.586,0,1,0,3.439,3.583,3.513,3.513,0,0,0-3.439-3.583" transform="translate(-1042.316 -170.695)" fill="#f7ce47"/>
        <path id="Path_15210-2" data-name="Path 15210" d="M3.439,320.713a3.586,3.586,0,0,0,0,7.165,3.586,3.586,0,0,0,0-7.165" transform="translate(435.714 -285.793)" fill="#f7ce47"/>
        <path id="Path_15211-2" data-name="Path 15211" d="M83.617,320.713a3.586,3.586,0,1,0,3.439,3.583,3.513,3.513,0,0,0-3.439-3.583" transform="translate(322.02 -285.793)" fill="#f7ce47"/>
        <path id="Path_15212-2" data-name="Path 15212" d="M163.8,320.713a3.586,3.586,0,1,0,3.439,3.583,3.513,3.513,0,0,0-3.439-3.583" transform="translate(208.325 -285.793)" fill="#f7ce47"/>
        <path id="Path_15213-2" data-name="Path 15213" d="M243.974,320.713a3.586,3.586,0,1,0,3.439,3.583,3.513,3.513,0,0,0-3.439-3.583" transform="translate(94.629 -285.793)" fill="#f7ce47"/>
        <path id="Path_15214-2" data-name="Path 15214" d="M324.152,320.713a3.586,3.586,0,1,0,3.439,3.583,3.513,3.513,0,0,0-3.439-3.583" transform="translate(-19.065 -285.793)" fill="#f7ce47"/>
        <path id="Path_15215-2" data-name="Path 15215" d="M404.33,320.713a3.586,3.586,0,1,0,3.439,3.583,3.513,3.513,0,0,0-3.439-3.583" transform="translate(-132.76 -285.793)" fill="#f7ce47"/>
        <path id="Path_15216-2" data-name="Path 15216" d="M484.508,320.713a3.586,3.586,0,1,0,3.439,3.583,3.513,3.513,0,0,0-3.439-3.583" transform="translate(-246.454 -285.793)" fill="#f7ce47"/>
        <path id="Path_15217-2" data-name="Path 15217" d="M564.686,320.713a3.586,3.586,0,1,0,3.439,3.583,3.513,3.513,0,0,0-3.439-3.583" transform="translate(-360.148 -285.793)" fill="#f7ce47"/>
        <path id="Path_15218-2" data-name="Path 15218" d="M644.864,320.713A3.586,3.586,0,1,0,648.3,324.3a3.513,3.513,0,0,0-3.439-3.583" transform="translate(-473.843 -285.793)" fill="#f7ce47"/>
        <path id="Path_15219-2" data-name="Path 15219" d="M725.043,320.713a3.586,3.586,0,1,0,3.439,3.583,3.513,3.513,0,0,0-3.439-3.583" transform="translate(-587.539 -285.793)" fill="#f7ce47"/>
        <path id="Path_15220-2" data-name="Path 15220" d="M805.221,320.713a3.586,3.586,0,1,0,3.439,3.583,3.513,3.513,0,0,0-3.439-3.583" transform="translate(-701.233 -285.793)" fill="#f7ce47"/>
        <path id="Path_15221-2" data-name="Path 15221" d="M885.4,320.713a3.586,3.586,0,1,0,3.439,3.583,3.513,3.513,0,0,0-3.439-3.583" transform="translate(-814.927 -285.793)" fill="#f7ce47"/>
        <path id="Path_15222-2" data-name="Path 15222" d="M965.577,320.713a3.586,3.586,0,1,0,3.439,3.583,3.513,3.513,0,0,0-3.439-3.583" transform="translate(-928.622 -285.793)" fill="#f7ce47"/>
        <path id="Path_15223-2" data-name="Path 15223" d="M1045.755,320.713a3.586,3.586,0,1,0,3.439,3.583,3.513,3.513,0,0,0-3.439-3.583" transform="translate(-1042.316 -285.793)" fill="#f7ce47"/>
        <path id="Path_15224-2" data-name="Path 15224" d="M3.439,400.891a3.586,3.586,0,0,0,0,7.165,3.586,3.586,0,0,0,0-7.165" transform="translate(435.714 -400.891)" fill="#f7ce47"/>
        <path id="Path_15225-2" data-name="Path 15225" d="M83.617,400.891a3.586,3.586,0,1,0,3.439,3.583,3.513,3.513,0,0,0-3.439-3.583" transform="translate(322.02 -400.891)" fill="#f7ce47"/>
        <path id="Path_15226-2" data-name="Path 15226" d="M163.8,400.891a3.586,3.586,0,1,0,3.439,3.583,3.513,3.513,0,0,0-3.439-3.583" transform="translate(208.325 -400.891)" fill="#f7ce47"/>
        <path id="Path_15227-2" data-name="Path 15227" d="M243.974,400.891a3.586,3.586,0,1,0,3.439,3.583,3.513,3.513,0,0,0-3.439-3.583" transform="translate(94.629 -400.891)" fill="#f7ce47"/>
        <path id="Path_15228-2" data-name="Path 15228" d="M324.152,400.891a3.586,3.586,0,1,0,3.439,3.583,3.513,3.513,0,0,0-3.439-3.583" transform="translate(-19.065 -400.891)" fill="#f7ce47"/>
        <path id="Path_15229-2" data-name="Path 15229" d="M404.33,400.891a3.586,3.586,0,1,0,3.439,3.583,3.513,3.513,0,0,0-3.439-3.583" transform="translate(-132.76 -400.891)" fill="#f7ce47"/>
        <path id="Path_15230-2" data-name="Path 15230" d="M484.508,400.891a3.586,3.586,0,1,0,3.439,3.583,3.513,3.513,0,0,0-3.439-3.583" transform="translate(-246.454 -400.891)" fill="#f7ce47"/>
        <path id="Path_15231-2" data-name="Path 15231" d="M564.686,400.891a3.586,3.586,0,1,0,3.439,3.583,3.513,3.513,0,0,0-3.439-3.583" transform="translate(-360.148 -400.891)" fill="#f7ce47"/>
        <path id="Path_15232-2" data-name="Path 15232" d="M644.864,400.891a3.586,3.586,0,1,0,3.439,3.583,3.513,3.513,0,0,0-3.439-3.583" transform="translate(-473.843 -400.891)" fill="#f7ce47"/>
        <path id="Path_15233-2" data-name="Path 15233" d="M725.043,400.891a3.586,3.586,0,1,0,3.439,3.583,3.513,3.513,0,0,0-3.439-3.583" transform="translate(-587.539 -400.891)" fill="#f7ce47"/>
        <path id="Path_15234-2" data-name="Path 15234" d="M805.221,400.891a3.586,3.586,0,1,0,3.439,3.583,3.513,3.513,0,0,0-3.439-3.583" transform="translate(-701.233 -400.891)" fill="#f7ce47"/>
        <path id="Path_15235-2" data-name="Path 15235" d="M885.4,400.891a3.586,3.586,0,1,0,3.439,3.583,3.513,3.513,0,0,0-3.439-3.583" transform="translate(-814.927 -400.891)" fill="#f7ce47"/>
        <path id="Path_15236-2" data-name="Path 15236" d="M965.577,400.891a3.586,3.586,0,1,0,3.439,3.583,3.513,3.513,0,0,0-3.439-3.583" transform="translate(-928.622 -400.891)" fill="#f7ce47"/>
        <path id="Path_15237-2" data-name="Path 15237" d="M1045.755,400.891a3.586,3.586,0,1,0,3.439,3.583,3.513,3.513,0,0,0-3.439-3.583" transform="translate(-1042.316 -400.891)" fill="#f7ce47"/>
      </g>
    </g>
  </g>
</svg>
