<svg xmlns="http://www.w3.org/2000/svg" width="76.839" height="71.719" viewBox="0 0 76.839 71.719">
  <g id="school-01" transform="translate(1 -25.7)">
    <g id="Group_942" data-name="Group 942" transform="translate(9.25 26.978)">
      <path id="Path_29648" data-name="Path 29648" d="M399,46.685h10.25V39H399Z" transform="translate(-370.825 -39)" fill="#f3b92d"/>
      <path id="Path_29649" data-name="Path 29649" d="M125.93,198.5v-5.12l7.944-7.685,7.944,7.685v5.12h20.24v37.147h-20.24v5.12H125.93v-5.12H105.7V198.5Z" transform="translate(-105.7 -171.608)" fill="#f3b92d"/>
    </g>
    <path id="Path_29650" data-name="Path 29650" d="M65.7,356.147h3.842V319H65.7Z" transform="translate(-60.293 -265.125)" fill="#fff"/>
    <path id="Path_29651" data-name="Path 29651" d="M692.3,356.147h3.842V319H692.3Z" transform="translate(-626.701 -265.125)" fill="#f3b92d"/>
    <path id="Path_29652" data-name="Path 29652" d="M545.7,270.82h11.527V265.7H545.7Z" transform="translate(-494.184 -216.945)" fill="#f3b92d"/>
    <path id="Path_29653" data-name="Path 29653" d="M665.7,270.82h3.842V265.7H665.7Z" transform="translate(-602.656 -216.945)" fill="#f3b92d"/>
    <path id="Path_29654" data-name="Path 29654" d="M132.3,270.82h11.527V265.7H132.3v5.12Z" transform="translate(-120.495 -216.945)" fill="#f3b92d"/>
    <path id="Path_29655" data-name="Path 29655" d="M92.3,270.82h3.842V265.7H92.3Z" transform="translate(-84.338 -216.945)" fill="#fff"/>
    <g id="Group_943" data-name="Group 943" transform="translate(4.12 41.07)">
      <path id="Path_29656" data-name="Path 29656" d="M323.625,198.5v-5.12l-8.962-7.685-8.962,7.685v5.12Z" transform="translate(-281.358 -185.7)" fill="#fcc309"/>
      <path id="Path_29657" data-name="Path 29657" d="M52.3,710.82H76.632V705.7H52.3Z" transform="translate(-52.3 -655.748)" fill="#fcc309"/>
    </g>
    <path id="Path_29658" data-name="Path 29658" d="M12.3,710.82h3.842V705.7H12.3Z" transform="translate(-12.022 -614.679)" fill="#fff"/>
    <path id="Path_29659" data-name="Path 29659" d="M492.3,710.82h24.332V705.7H492.3Z" transform="translate(-445.913 -614.679)" fill="#f3b92d"/>
    <path id="Path_29660" data-name="Path 29660" d="M745.7,710.82h3.842V705.7H745.7Z" transform="translate(-674.971 -614.679)" fill="#f3b92d"/>
    <g id="Group_944" data-name="Group 944" transform="translate(14.37 60.282)">
      <path id="Path_29661" data-name="Path 29661" d="M159,394.662h5.12V385.7H159Z" transform="translate(-159 -385.7)" fill="#fff"/>
      <path id="Path_29662" data-name="Path 29662" d="M159,554.662h5.12V545.7H159Z" transform="translate(-159 -530.33)" fill="#fff"/>
      <path id="Path_29663" data-name="Path 29663" d="M372.3,394.662h5.12V385.7H372.3v8.962Z" transform="translate(-351.81 -385.7)" fill="#fff"/>
      <path id="Path_29664" data-name="Path 29664" d="M585.7,394.662h5.12V385.7H585.7Z" transform="translate(-544.711 -385.7)" fill="#fff"/>
      <path id="Path_29665" data-name="Path 29665" d="M585.7,554.662h5.12V545.7H585.7Z" transform="translate(-544.711 -530.33)" fill="#fff"/>
      <path id="Path_29666" data-name="Path 29666" d="M366.685,578.212H359v-15.37a3.842,3.842,0,0,1,7.685,0Z" transform="translate(-339.788 -542.353)" fill="#fff"/>
    </g>
    <path id="Path_29667" data-name="Path 29667" d="M94.657,229.665H76.732a1.205,1.205,0,0,1-1.278-1.278v-3.842H53.678a1.205,1.205,0,0,1-1.278-1.278V186.121a1.205,1.205,0,0,1,1.278-1.278H75.455V181a1.453,1.453,0,0,1,.384-1.028l8.962-7.685a1.342,1.342,0,0,1,1.662,0l8.962,7.685A1.453,1.453,0,0,1,95.81,181v3.842h21.777a1.205,1.205,0,0,1,1.278,1.278v37.147a1.205,1.205,0,0,1-1.278,1.278H95.944v3.842A1.213,1.213,0,0,1,94.657,229.665ZM78.01,227.11H93.38v-3.842a1.205,1.205,0,0,1,1.278-1.278h21.777V187.408H94.657a1.205,1.205,0,0,1-1.278-1.278v-4.486l-7.685-6.532-7.685,6.532v4.476a1.205,1.205,0,0,1-1.278,1.278H54.955V221.98H76.732a1.205,1.205,0,0,1,1.278,1.278Z" transform="translate(-48.27 -132.246)" fill="#1f2021"/>
    <path id="Path_29668" data-name="Path 29668" d="M386.978,42.347A1.205,1.205,0,0,1,385.7,41.07V26.978a1.278,1.278,0,1,1,2.555,0V41.07A1.205,1.205,0,0,1,386.978,42.347Z" transform="translate(-349.553)" fill="#1f2021"/>
    <path id="Path_29669" data-name="Path 29669" d="M397.227,35.94h-10.25a1.205,1.205,0,0,1-1.278-1.278V26.978a1.205,1.205,0,0,1,1.278-1.278h10.25a1.205,1.205,0,0,1,1.278,1.278v7.685A1.205,1.205,0,0,1,397.227,35.94Zm-8.972-2.555h7.685v-5.13h-7.685Z" transform="translate(-349.553)" fill="#1f2021"/>
    <path id="Path_29670" data-name="Path 29670" d="M152.1,383.918h-5.12a1.205,1.205,0,0,1-1.278-1.278v-8.962a1.205,1.205,0,0,1,1.278-1.278h5.12a1.205,1.205,0,0,1,1.278,1.278v8.962A1.2,1.2,0,0,1,152.1,383.918Zm-3.842-2.555h2.565v-6.407h-2.565Z" transform="translate(-132.608 -313.396)" fill="#1f2021"/>
    <path id="Path_29671" data-name="Path 29671" d="M152.1,543.918h-5.12a1.205,1.205,0,0,1-1.278-1.278v-8.963a1.205,1.205,0,0,1,1.278-1.278h5.12a1.205,1.205,0,0,1,1.278,1.278v8.963A1.2,1.2,0,0,1,152.1,543.918Zm-3.842-2.555h2.565v-6.407h-2.565Z" transform="translate(-132.608 -458.026)" fill="#1f2021"/>
    <path id="Path_29672" data-name="Path 29672" d="M365.5,383.918h-5.12a1.205,1.205,0,0,1-1.278-1.278v-8.962a1.205,1.205,0,0,1,1.278-1.278h5.12a1.205,1.205,0,0,1,1.278,1.278v8.962A1.205,1.205,0,0,1,365.5,383.918Zm-3.842-2.555h2.565v-6.407h-2.565Z" transform="translate(-325.509 -313.396)" fill="#1f2021"/>
    <path id="Path_29673" data-name="Path 29673" d="M578.8,383.918h-5.12a1.205,1.205,0,0,1-1.278-1.278v-8.962a1.205,1.205,0,0,1,1.278-1.278h5.12a1.205,1.205,0,0,1,1.278,1.278v8.962A1.205,1.205,0,0,1,578.8,383.918Zm-3.842-2.555h2.565v-6.407h-2.565Z" transform="translate(-518.319 -313.396)" fill="#1f2021"/>
    <path id="Path_29674" data-name="Path 29674" d="M578.8,543.918h-5.12a1.205,1.205,0,0,1-1.278-1.278v-8.963a1.205,1.205,0,0,1,1.278-1.278h5.12a1.205,1.205,0,0,1,1.278,1.278v8.963A1.205,1.205,0,0,1,578.8,543.918Zm-3.842-2.555h2.565v-6.407h-2.565Z" transform="translate(-518.319 -458.026)" fill="#1f2021"/>
    <path id="Path_29675" data-name="Path 29675" d="M354.662,567.467h-7.685a1.205,1.205,0,0,1-1.278-1.278V550.82a5.12,5.12,0,0,1,10.24,0v15.37A1.205,1.205,0,0,1,354.662,567.467Zm-6.407-2.555h5.12V550.82a2.565,2.565,0,0,0-5.13,0l.01,14.092Z" transform="translate(-313.396 -470.048)" fill="#1f2021"/>
    <path id="Path_29676" data-name="Path 29676" d="M95.647,260.075H80.278A1.205,1.205,0,0,1,79,258.8v-5.12a1.205,1.205,0,0,1,1.278-1.278h15.37a1.205,1.205,0,0,1,1.278,1.278v5.12A1.2,1.2,0,0,1,95.647,260.075ZM81.565,257.52h12.8v-2.565h-12.8Z" transform="translate(-72.315 -204.923)" fill="#1f2021"/>
    <path id="Path_29677" data-name="Path 29677" d="M549.047,260.075h-15.37A1.205,1.205,0,0,1,532.4,258.8v-5.12a1.205,1.205,0,0,1,1.278-1.278h15.37a1.205,1.205,0,0,1,1.278,1.278v5.12A1.205,1.205,0,0,1,549.047,260.075Zm-14.092-2.555h12.8v-2.565h-12.8Z" transform="translate(-482.161 -204.923)" fill="#1f2021"/>
    <path id="Path_29678" data-name="Path 29678" d="M28.462,700.075H.278A1.205,1.205,0,0,1-1,698.8v-5.12A1.205,1.205,0,0,1,.278,692.4H28.452a1.205,1.205,0,0,1,1.278,1.278v5.12A1.193,1.193,0,0,1,28.462,700.075Zm-26.9-2.555H27.184v-2.565H1.565Z" transform="translate(0 -602.656)" fill="#1f2021"/>
    <path id="Path_29679" data-name="Path 29679" d="M508.462,700.075H480.278A1.205,1.205,0,0,1,479,698.8v-5.12a1.205,1.205,0,0,1,1.278-1.278h28.175a1.205,1.205,0,0,1,1.278,1.278v5.12A1.193,1.193,0,0,1,508.462,700.075Zm-26.9-2.555h25.619v-2.565H481.565Z" transform="translate(-433.891 -602.656)" fill="#1f2021"/>
    <path id="Path_29680" data-name="Path 29680" d="M130.527,468.255h-10.25a1.278,1.278,0,1,1,0-2.555h10.25a1.278,1.278,0,1,1,0,2.555Z" transform="translate(-108.473 -397.733)" fill="#1f2021"/>
    <path id="Path_29681" data-name="Path 29681" d="M130.527,628.255h-10.25a1.278,1.278,0,1,1,0-2.555h10.25a1.278,1.278,0,1,1,0,2.555Z" transform="translate(-108.473 -542.364)" fill="#1f2021"/>
    <path id="Path_29682" data-name="Path 29682" d="M557.227,628.255h-10.25a1.278,1.278,0,0,1,0-2.555h10.25a1.278,1.278,0,0,1,0,2.555Z" transform="translate(-494.184 -542.364)" fill="#1f2021"/>
    <path id="Path_29683" data-name="Path 29683" d="M557.227,468.255h-10.25a1.278,1.278,0,0,1,0-2.555h10.25a1.278,1.278,0,0,1,0,2.555Z" transform="translate(-494.184 -397.733)" fill="#1f2021"/>
    <path id="Path_29684" data-name="Path 29684" d="M343.918,468.255h-10.24a1.278,1.278,0,1,1,0-2.555h10.25a1.278,1.278,0,1,1-.01,2.555Z" transform="translate(-301.373 -397.733)" fill="#1f2021"/>
    <path id="Path_29685" data-name="Path 29685" d="M311.6,187.4H293.678a1.205,1.205,0,0,1-1.278-1.278V181a1.453,1.453,0,0,1,.384-1.028l8.962-7.685a1.342,1.342,0,0,1,1.662,0l8.962,7.685a1.454,1.454,0,0,1,.384,1.028v5.12A1.055,1.055,0,0,1,311.6,187.4Zm-16.647-2.555h15.37v-3.2l-7.685-6.532-7.685,6.532v3.2Z" transform="translate(-265.216 -132.246)" fill="#1f2021"/>
  </g>
</svg>
