<svg xmlns="http://www.w3.org/2000/svg" xmlns:xlink="http://www.w3.org/1999/xlink" width="442.592" height="387.545" viewBox="0 0 442.592 387.545">
  <defs>
    <style>
      .cls-1 {
        fill: #fff;
      }

      .cls-2 {
        opacity: 0.27;
      }

      .cls-3 {
        clip-path: url(#clip-path);
      }
    </style>
    <clipPath id="clip-path">
      <rect id="Rectangle_318" data-name="Rectangle 318" class="cls-1" width="442.592" height="181.765"/>
    </clipPath>
  </defs>
  <g id="Group_466" data-name="Group 466" class="cls-2">
    <g id="white_dots" data-name="white dots" transform="translate(0 205.78)">
      <g id="Group_452" data-name="Group 452" class="cls-3">
        <path id="Path_15154" data-name="Path 15154" class="cls-1" d="M3.439,7.165A3.513,3.513,0,0,1,0,3.583,3.513,3.513,0,0,1,3.439,0,3.513,3.513,0,0,1,6.878,3.583,3.513,3.513,0,0,1,3.439,7.165" transform="translate(435.714 0)"/>
        <path id="Path_15155" data-name="Path 15155" class="cls-1" d="M83.617,7.165a3.513,3.513,0,0,1-3.439-3.583,3.442,3.442,0,1,1,6.878,0,3.513,3.513,0,0,1-3.439,3.583" transform="translate(322.02 0)"/>
        <path id="Path_15156" data-name="Path 15156" class="cls-1" d="M163.8,7.165a3.513,3.513,0,0,1-3.439-3.583,3.442,3.442,0,1,1,6.878,0A3.513,3.513,0,0,1,163.8,7.165" transform="translate(208.325 0)"/>
        <path id="Path_15157" data-name="Path 15157" class="cls-1" d="M243.974,7.165a3.513,3.513,0,0,1-3.439-3.583,3.442,3.442,0,1,1,6.878,0,3.513,3.513,0,0,1-3.439,3.583" transform="translate(94.629 0)"/>
        <path id="Path_15158" data-name="Path 15158" class="cls-1" d="M324.152,7.165a3.513,3.513,0,0,1-3.439-3.583,3.442,3.442,0,1,1,6.878,0,3.513,3.513,0,0,1-3.439,3.583" transform="translate(-19.065 0)"/>
        <path id="Path_15159" data-name="Path 15159" class="cls-1" d="M404.33,7.165a3.513,3.513,0,0,1-3.439-3.583,3.442,3.442,0,1,1,6.878,0,3.513,3.513,0,0,1-3.439,3.583" transform="translate(-132.759 0)"/>
        <path id="Path_15160" data-name="Path 15160" class="cls-1" d="M484.508,7.165a3.513,3.513,0,0,1-3.439-3.583,3.442,3.442,0,1,1,6.878,0,3.513,3.513,0,0,1-3.439,3.583" transform="translate(-246.454 0)"/>
        <path id="Path_15161" data-name="Path 15161" class="cls-1" d="M564.686,7.165a3.513,3.513,0,0,1-3.439-3.583,3.442,3.442,0,1,1,6.878,0,3.513,3.513,0,0,1-3.439,3.583" transform="translate(-360.148 0)"/>
        <path id="Path_15162" data-name="Path 15162" class="cls-1" d="M644.864,7.165a3.513,3.513,0,0,1-3.439-3.583,3.442,3.442,0,1,1,6.878,0,3.513,3.513,0,0,1-3.439,3.583" transform="translate(-473.843 0)"/>
        <path id="Path_15163" data-name="Path 15163" class="cls-1" d="M725.043,7.165A3.513,3.513,0,0,1,721.6,3.583a3.442,3.442,0,1,1,6.878,0,3.513,3.513,0,0,1-3.439,3.583" transform="translate(-587.539 0)"/>
        <path id="Path_15164" data-name="Path 15164" class="cls-1" d="M805.221,7.165a3.513,3.513,0,0,1-3.439-3.583,3.442,3.442,0,1,1,6.878,0,3.513,3.513,0,0,1-3.439,3.583" transform="translate(-701.233 0)"/>
        <path id="Path_15165" data-name="Path 15165" class="cls-1" d="M885.4,7.165a3.513,3.513,0,0,1-3.439-3.583,3.442,3.442,0,1,1,6.878,0A3.513,3.513,0,0,1,885.4,7.165" transform="translate(-814.927 0)"/>
        <path id="Path_15166" data-name="Path 15166" class="cls-1" d="M965.577,7.165a3.513,3.513,0,0,1-3.439-3.583,3.442,3.442,0,1,1,6.878,0,3.513,3.513,0,0,1-3.439,3.583" transform="translate(-928.622 0)"/>
        <path id="Path_15167" data-name="Path 15167" class="cls-1" d="M1045.755,7.165a3.513,3.513,0,0,1-3.439-3.583,3.442,3.442,0,1,1,6.878,0,3.513,3.513,0,0,1-3.439,3.583" transform="translate(-1042.316 0)"/>
        <path id="Path_15168" data-name="Path 15168" class="cls-1" d="M3.439,87.343a3.586,3.586,0,0,1,0-7.165,3.586,3.586,0,0,1,0,7.165" transform="translate(435.714 -45.258)"/>
        <path id="Path_15169" data-name="Path 15169" class="cls-1" d="M83.617,87.343a3.586,3.586,0,1,1,3.439-3.583,3.513,3.513,0,0,1-3.439,3.583" transform="translate(322.02 -45.258)"/>
        <path id="Path_15170" data-name="Path 15170" class="cls-1" d="M163.8,87.343a3.586,3.586,0,1,1,3.439-3.583,3.513,3.513,0,0,1-3.439,3.583" transform="translate(208.325 -45.258)"/>
        <path id="Path_15171" data-name="Path 15171" class="cls-1" d="M243.974,87.343a3.586,3.586,0,1,1,3.439-3.583,3.513,3.513,0,0,1-3.439,3.583" transform="translate(94.629 -45.258)"/>
        <path id="Path_15172" data-name="Path 15172" class="cls-1" d="M324.152,87.343a3.586,3.586,0,1,1,3.439-3.583,3.513,3.513,0,0,1-3.439,3.583" transform="translate(-19.065 -45.258)"/>
        <path id="Path_15173" data-name="Path 15173" class="cls-1" d="M404.33,87.343a3.586,3.586,0,1,1,3.439-3.583,3.513,3.513,0,0,1-3.439,3.583" transform="translate(-132.759 -45.258)"/>
        <path id="Path_15174" data-name="Path 15174" class="cls-1" d="M484.508,87.343a3.586,3.586,0,1,1,3.439-3.583,3.513,3.513,0,0,1-3.439,3.583" transform="translate(-246.454 -45.258)"/>
        <path id="Path_15175" data-name="Path 15175" class="cls-1" d="M564.686,87.343a3.586,3.586,0,1,1,3.439-3.583,3.513,3.513,0,0,1-3.439,3.583" transform="translate(-360.148 -45.258)"/>
        <path id="Path_15176" data-name="Path 15176" class="cls-1" d="M644.864,87.343a3.586,3.586,0,1,1,3.439-3.583,3.513,3.513,0,0,1-3.439,3.583" transform="translate(-473.843 -45.258)"/>
        <path id="Path_15177" data-name="Path 15177" class="cls-1" d="M725.043,87.343a3.586,3.586,0,1,1,3.439-3.583,3.513,3.513,0,0,1-3.439,3.583" transform="translate(-587.539 -45.258)"/>
        <path id="Path_15178" data-name="Path 15178" class="cls-1" d="M805.221,87.343a3.586,3.586,0,1,1,3.439-3.583,3.513,3.513,0,0,1-3.439,3.583" transform="translate(-701.233 -45.258)"/>
        <path id="Path_15179" data-name="Path 15179" class="cls-1" d="M885.4,87.343a3.586,3.586,0,1,1,3.439-3.583,3.513,3.513,0,0,1-3.439,3.583" transform="translate(-814.927 -45.258)"/>
        <path id="Path_15180" data-name="Path 15180" class="cls-1" d="M965.577,87.343a3.586,3.586,0,1,1,3.439-3.583,3.513,3.513,0,0,1-3.439,3.583" transform="translate(-928.622 -45.258)"/>
        <path id="Path_15181" data-name="Path 15181" class="cls-1" d="M1045.755,87.343a3.586,3.586,0,1,1,3.439-3.583,3.513,3.513,0,0,1-3.439,3.583" transform="translate(-1042.316 -45.258)"/>
        <path id="Path_15182" data-name="Path 15182" class="cls-1" d="M3.439,167.521a3.586,3.586,0,0,1,0-7.165,3.586,3.586,0,0,1,0,7.165" transform="translate(435.714 -90.516)"/>
        <path id="Path_15183" data-name="Path 15183" class="cls-1" d="M83.617,167.521a3.586,3.586,0,1,1,3.439-3.583,3.513,3.513,0,0,1-3.439,3.583" transform="translate(322.02 -90.516)"/>
        <path id="Path_15184" data-name="Path 15184" class="cls-1" d="M163.8,167.521a3.586,3.586,0,1,1,3.439-3.583,3.513,3.513,0,0,1-3.439,3.583" transform="translate(208.325 -90.516)"/>
        <path id="Path_15185" data-name="Path 15185" class="cls-1" d="M243.974,167.521a3.586,3.586,0,1,1,3.439-3.583,3.513,3.513,0,0,1-3.439,3.583" transform="translate(94.629 -90.516)"/>
        <path id="Path_15186" data-name="Path 15186" class="cls-1" d="M324.152,167.521a3.586,3.586,0,1,1,3.439-3.583,3.513,3.513,0,0,1-3.439,3.583" transform="translate(-19.065 -90.516)"/>
        <path id="Path_15187" data-name="Path 15187" class="cls-1" d="M404.33,167.521a3.586,3.586,0,1,1,3.439-3.583,3.513,3.513,0,0,1-3.439,3.583" transform="translate(-132.759 -90.516)"/>
        <path id="Path_15188" data-name="Path 15188" class="cls-1" d="M484.508,167.521a3.586,3.586,0,1,1,3.439-3.583,3.513,3.513,0,0,1-3.439,3.583" transform="translate(-246.454 -90.516)"/>
        <path id="Path_15189" data-name="Path 15189" class="cls-1" d="M564.686,167.521a3.586,3.586,0,1,1,3.439-3.583,3.513,3.513,0,0,1-3.439,3.583" transform="translate(-360.148 -90.516)"/>
        <path id="Path_15190" data-name="Path 15190" class="cls-1" d="M644.864,167.521a3.586,3.586,0,1,1,3.439-3.583,3.513,3.513,0,0,1-3.439,3.583" transform="translate(-473.843 -90.516)"/>
        <path id="Path_15191" data-name="Path 15191" class="cls-1" d="M725.043,167.521a3.586,3.586,0,1,1,3.439-3.583,3.513,3.513,0,0,1-3.439,3.583" transform="translate(-587.539 -90.516)"/>
        <path id="Path_15192" data-name="Path 15192" class="cls-1" d="M805.221,167.521a3.586,3.586,0,1,1,3.439-3.583,3.513,3.513,0,0,1-3.439,3.583" transform="translate(-701.233 -90.516)"/>
        <path id="Path_15193" data-name="Path 15193" class="cls-1" d="M885.4,167.521a3.586,3.586,0,1,1,3.439-3.583,3.513,3.513,0,0,1-3.439,3.583" transform="translate(-814.927 -90.516)"/>
        <path id="Path_15194" data-name="Path 15194" class="cls-1" d="M965.577,167.521a3.586,3.586,0,1,1,3.439-3.583,3.513,3.513,0,0,1-3.439,3.583" transform="translate(-928.622 -90.516)"/>
        <path id="Path_15195" data-name="Path 15195" class="cls-1" d="M1045.755,167.521a3.586,3.586,0,1,1,3.439-3.583,3.513,3.513,0,0,1-3.439,3.583" transform="translate(-1042.316 -90.516)"/>
        <path id="Path_15196" data-name="Path 15196" class="cls-1" d="M3.439,247.7a3.586,3.586,0,0,1,0-7.165,3.586,3.586,0,0,1,0,7.165" transform="translate(435.714 -135.775)"/>
        <path id="Path_15197" data-name="Path 15197" class="cls-1" d="M83.617,247.7a3.586,3.586,0,1,1,3.439-3.583,3.513,3.513,0,0,1-3.439,3.583" transform="translate(322.02 -135.775)"/>
        <path id="Path_15198" data-name="Path 15198" class="cls-1" d="M163.8,247.7a3.586,3.586,0,1,1,3.439-3.583A3.513,3.513,0,0,1,163.8,247.7" transform="translate(208.325 -135.775)"/>
        <path id="Path_15199" data-name="Path 15199" class="cls-1" d="M243.974,247.7a3.586,3.586,0,1,1,3.439-3.583,3.513,3.513,0,0,1-3.439,3.583" transform="translate(94.629 -135.775)"/>
        <path id="Path_15200" data-name="Path 15200" class="cls-1" d="M324.152,247.7a3.586,3.586,0,1,1,3.439-3.583,3.513,3.513,0,0,1-3.439,3.583" transform="translate(-19.065 -135.775)"/>
        <path id="Path_15201" data-name="Path 15201" class="cls-1" d="M404.33,247.7a3.586,3.586,0,1,1,3.439-3.583,3.513,3.513,0,0,1-3.439,3.583" transform="translate(-132.759 -135.775)"/>
        <path id="Path_15202" data-name="Path 15202" class="cls-1" d="M484.508,247.7a3.586,3.586,0,1,1,3.439-3.583,3.513,3.513,0,0,1-3.439,3.583" transform="translate(-246.454 -135.775)"/>
        <path id="Path_15203" data-name="Path 15203" class="cls-1" d="M564.686,247.7a3.586,3.586,0,1,1,3.439-3.583,3.513,3.513,0,0,1-3.439,3.583" transform="translate(-360.148 -135.775)"/>
        <path id="Path_15204" data-name="Path 15204" class="cls-1" d="M644.864,247.7a3.586,3.586,0,1,1,3.439-3.583,3.513,3.513,0,0,1-3.439,3.583" transform="translate(-473.843 -135.775)"/>
        <path id="Path_15205" data-name="Path 15205" class="cls-1" d="M725.043,247.7a3.586,3.586,0,1,1,3.439-3.583,3.513,3.513,0,0,1-3.439,3.583" transform="translate(-587.539 -135.775)"/>
        <path id="Path_15206" data-name="Path 15206" class="cls-1" d="M805.221,247.7a3.586,3.586,0,1,1,3.439-3.583,3.513,3.513,0,0,1-3.439,3.583" transform="translate(-701.233 -135.775)"/>
        <path id="Path_15207" data-name="Path 15207" class="cls-1" d="M885.4,247.7a3.586,3.586,0,1,1,3.439-3.583A3.513,3.513,0,0,1,885.4,247.7" transform="translate(-814.927 -135.775)"/>
        <path id="Path_15208" data-name="Path 15208" class="cls-1" d="M965.577,247.7a3.586,3.586,0,1,1,3.439-3.583,3.513,3.513,0,0,1-3.439,3.583" transform="translate(-928.622 -135.775)"/>
        <path id="Path_15209" data-name="Path 15209" class="cls-1" d="M1045.755,247.7a3.586,3.586,0,1,1,3.439-3.583,3.513,3.513,0,0,1-3.439,3.583" transform="translate(-1042.316 -135.775)"/>
        <path id="Path_15210" data-name="Path 15210" class="cls-1" d="M3.439,327.878a3.586,3.586,0,0,1,0-7.165,3.586,3.586,0,0,1,0,7.165" transform="translate(435.714 -181.033)"/>
        <path id="Path_15211" data-name="Path 15211" class="cls-1" d="M83.617,327.878a3.586,3.586,0,1,1,3.439-3.583,3.513,3.513,0,0,1-3.439,3.583" transform="translate(322.02 -181.033)"/>
        <path id="Path_15212" data-name="Path 15212" class="cls-1" d="M163.8,327.878a3.586,3.586,0,1,1,3.439-3.583,3.513,3.513,0,0,1-3.439,3.583" transform="translate(208.325 -181.033)"/>
        <path id="Path_15213" data-name="Path 15213" class="cls-1" d="M243.974,327.878a3.586,3.586,0,1,1,3.439-3.583,3.513,3.513,0,0,1-3.439,3.583" transform="translate(94.629 -181.033)"/>
        <path id="Path_15214" data-name="Path 15214" class="cls-1" d="M324.152,327.878a3.586,3.586,0,1,1,3.439-3.583,3.513,3.513,0,0,1-3.439,3.583" transform="translate(-19.065 -181.033)"/>
        <path id="Path_15215" data-name="Path 15215" class="cls-1" d="M404.33,327.878a3.586,3.586,0,1,1,3.439-3.583,3.513,3.513,0,0,1-3.439,3.583" transform="translate(-132.759 -181.033)"/>
        <path id="Path_15216" data-name="Path 15216" class="cls-1" d="M484.508,327.878a3.586,3.586,0,1,1,3.439-3.583,3.513,3.513,0,0,1-3.439,3.583" transform="translate(-246.454 -181.033)"/>
        <path id="Path_15217" data-name="Path 15217" class="cls-1" d="M564.686,327.878a3.586,3.586,0,1,1,3.439-3.583,3.513,3.513,0,0,1-3.439,3.583" transform="translate(-360.148 -181.033)"/>
        <path id="Path_15218" data-name="Path 15218" class="cls-1" d="M644.864,327.878A3.586,3.586,0,1,1,648.3,324.3a3.513,3.513,0,0,1-3.439,3.583" transform="translate(-473.843 -181.033)"/>
        <path id="Path_15219" data-name="Path 15219" class="cls-1" d="M725.043,327.878a3.586,3.586,0,1,1,3.439-3.583,3.513,3.513,0,0,1-3.439,3.583" transform="translate(-587.539 -181.033)"/>
        <path id="Path_15220" data-name="Path 15220" class="cls-1" d="M805.221,327.878a3.586,3.586,0,1,1,3.439-3.583,3.513,3.513,0,0,1-3.439,3.583" transform="translate(-701.233 -181.033)"/>
        <path id="Path_15221" data-name="Path 15221" class="cls-1" d="M885.4,327.878a3.586,3.586,0,1,1,3.439-3.583,3.513,3.513,0,0,1-3.439,3.583" transform="translate(-814.927 -181.033)"/>
        <path id="Path_15222" data-name="Path 15222" class="cls-1" d="M965.577,327.878a3.586,3.586,0,1,1,3.439-3.583,3.513,3.513,0,0,1-3.439,3.583" transform="translate(-928.622 -181.033)"/>
        <path id="Path_15223" data-name="Path 15223" class="cls-1" d="M1045.755,327.878a3.586,3.586,0,1,1,3.439-3.583,3.513,3.513,0,0,1-3.439,3.583" transform="translate(-1042.316 -181.033)"/>
        <path id="Path_15224" data-name="Path 15224" class="cls-1" d="M3.439,408.056a3.586,3.586,0,0,1,0-7.165,3.586,3.586,0,0,1,0,7.165" transform="translate(435.714 -226.291)"/>
        <path id="Path_15225" data-name="Path 15225" class="cls-1" d="M83.617,408.056a3.586,3.586,0,1,1,3.439-3.583,3.513,3.513,0,0,1-3.439,3.583" transform="translate(322.02 -226.291)"/>
        <path id="Path_15226" data-name="Path 15226" class="cls-1" d="M163.8,408.056a3.586,3.586,0,1,1,3.439-3.583,3.513,3.513,0,0,1-3.439,3.583" transform="translate(208.325 -226.291)"/>
        <path id="Path_15227" data-name="Path 15227" class="cls-1" d="M243.974,408.056a3.586,3.586,0,1,1,3.439-3.583,3.513,3.513,0,0,1-3.439,3.583" transform="translate(94.629 -226.291)"/>
        <path id="Path_15228" data-name="Path 15228" class="cls-1" d="M324.152,408.056a3.586,3.586,0,1,1,3.439-3.583,3.513,3.513,0,0,1-3.439,3.583" transform="translate(-19.065 -226.291)"/>
        <path id="Path_15229" data-name="Path 15229" class="cls-1" d="M404.33,408.056a3.586,3.586,0,1,1,3.439-3.583,3.513,3.513,0,0,1-3.439,3.583" transform="translate(-132.759 -226.291)"/>
        <path id="Path_15230" data-name="Path 15230" class="cls-1" d="M484.508,408.056a3.586,3.586,0,1,1,3.439-3.583,3.513,3.513,0,0,1-3.439,3.583" transform="translate(-246.454 -226.291)"/>
        <path id="Path_15231" data-name="Path 15231" class="cls-1" d="M564.686,408.056a3.586,3.586,0,1,1,3.439-3.583,3.513,3.513,0,0,1-3.439,3.583" transform="translate(-360.148 -226.291)"/>
        <path id="Path_15232" data-name="Path 15232" class="cls-1" d="M644.864,408.056a3.586,3.586,0,1,1,3.439-3.583,3.513,3.513,0,0,1-3.439,3.583" transform="translate(-473.843 -226.291)"/>
        <path id="Path_15233" data-name="Path 15233" class="cls-1" d="M725.043,408.056a3.586,3.586,0,1,1,3.439-3.583,3.513,3.513,0,0,1-3.439,3.583" transform="translate(-587.539 -226.291)"/>
        <path id="Path_15234" data-name="Path 15234" class="cls-1" d="M805.221,408.056a3.586,3.586,0,1,1,3.439-3.583,3.513,3.513,0,0,1-3.439,3.583" transform="translate(-701.233 -226.291)"/>
        <path id="Path_15235" data-name="Path 15235" class="cls-1" d="M885.4,408.056a3.586,3.586,0,1,1,3.439-3.583,3.513,3.513,0,0,1-3.439,3.583" transform="translate(-814.927 -226.291)"/>
        <path id="Path_15236" data-name="Path 15236" class="cls-1" d="M965.577,408.056a3.586,3.586,0,1,1,3.439-3.583,3.513,3.513,0,0,1-3.439,3.583" transform="translate(-928.622 -226.291)"/>
        <path id="Path_15237" data-name="Path 15237" class="cls-1" d="M1045.755,408.056a3.586,3.586,0,1,1,3.439-3.583,3.513,3.513,0,0,1-3.439,3.583" transform="translate(-1042.316 -226.291)"/>
      </g>
    </g>
    <g id="white_dots-2" data-name="white dots" transform="translate(0 0)">
      <g id="Group_452-2" data-name="Group 452" class="cls-3">
        <path id="Path_15154-2" data-name="Path 15154" class="cls-1" d="M3.439,7.165A3.513,3.513,0,0,1,0,3.583,3.513,3.513,0,0,1,3.439,0,3.513,3.513,0,0,1,6.878,3.583,3.513,3.513,0,0,1,3.439,7.165" transform="translate(435.714 0)"/>
        <path id="Path_15155-2" data-name="Path 15155" class="cls-1" d="M83.617,7.165a3.513,3.513,0,0,1-3.439-3.583,3.442,3.442,0,1,1,6.878,0,3.513,3.513,0,0,1-3.439,3.583" transform="translate(322.02 0)"/>
        <path id="Path_15156-2" data-name="Path 15156" class="cls-1" d="M163.8,7.165a3.513,3.513,0,0,1-3.439-3.583,3.442,3.442,0,1,1,6.878,0A3.513,3.513,0,0,1,163.8,7.165" transform="translate(208.325 0)"/>
        <path id="Path_15157-2" data-name="Path 15157" class="cls-1" d="M243.974,7.165a3.513,3.513,0,0,1-3.439-3.583,3.442,3.442,0,1,1,6.878,0,3.513,3.513,0,0,1-3.439,3.583" transform="translate(94.629 0)"/>
        <path id="Path_15158-2" data-name="Path 15158" class="cls-1" d="M324.152,7.165a3.513,3.513,0,0,1-3.439-3.583,3.442,3.442,0,1,1,6.878,0,3.513,3.513,0,0,1-3.439,3.583" transform="translate(-19.065 0)"/>
        <path id="Path_15159-2" data-name="Path 15159" class="cls-1" d="M404.33,7.165a3.513,3.513,0,0,1-3.439-3.583,3.442,3.442,0,1,1,6.878,0,3.513,3.513,0,0,1-3.439,3.583" transform="translate(-132.759 0)"/>
        <path id="Path_15160-2" data-name="Path 15160" class="cls-1" d="M484.508,7.165a3.513,3.513,0,0,1-3.439-3.583,3.442,3.442,0,1,1,6.878,0,3.513,3.513,0,0,1-3.439,3.583" transform="translate(-246.454 0)"/>
        <path id="Path_15161-2" data-name="Path 15161" class="cls-1" d="M564.686,7.165a3.513,3.513,0,0,1-3.439-3.583,3.442,3.442,0,1,1,6.878,0,3.513,3.513,0,0,1-3.439,3.583" transform="translate(-360.148 0)"/>
        <path id="Path_15162-2" data-name="Path 15162" class="cls-1" d="M644.864,7.165a3.513,3.513,0,0,1-3.439-3.583,3.442,3.442,0,1,1,6.878,0,3.513,3.513,0,0,1-3.439,3.583" transform="translate(-473.843 0)"/>
        <path id="Path_15163-2" data-name="Path 15163" class="cls-1" d="M725.043,7.165A3.513,3.513,0,0,1,721.6,3.583a3.442,3.442,0,1,1,6.878,0,3.513,3.513,0,0,1-3.439,3.583" transform="translate(-587.539 0)"/>
        <path id="Path_15164-2" data-name="Path 15164" class="cls-1" d="M805.221,7.165a3.513,3.513,0,0,1-3.439-3.583,3.442,3.442,0,1,1,6.878,0,3.513,3.513,0,0,1-3.439,3.583" transform="translate(-701.233 0)"/>
        <path id="Path_15168-2" data-name="Path 15168" class="cls-1" d="M3.439,87.343a3.586,3.586,0,0,1,0-7.165,3.586,3.586,0,0,1,0,7.165" transform="translate(435.714 -45.258)"/>
        <path id="Path_15169-2" data-name="Path 15169" class="cls-1" d="M83.617,87.343a3.586,3.586,0,1,1,3.439-3.583,3.513,3.513,0,0,1-3.439,3.583" transform="translate(322.02 -45.258)"/>
        <path id="Path_15170-2" data-name="Path 15170" class="cls-1" d="M163.8,87.343a3.586,3.586,0,1,1,3.439-3.583,3.513,3.513,0,0,1-3.439,3.583" transform="translate(208.325 -45.258)"/>
        <path id="Path_15171-2" data-name="Path 15171" class="cls-1" d="M243.974,87.343a3.586,3.586,0,1,1,3.439-3.583,3.513,3.513,0,0,1-3.439,3.583" transform="translate(94.629 -45.258)"/>
        <path id="Path_15172-2" data-name="Path 15172" class="cls-1" d="M324.152,87.343a3.586,3.586,0,1,1,3.439-3.583,3.513,3.513,0,0,1-3.439,3.583" transform="translate(-19.065 -45.258)"/>
        <path id="Path_15173-2" data-name="Path 15173" class="cls-1" d="M404.33,87.343a3.586,3.586,0,1,1,3.439-3.583,3.513,3.513,0,0,1-3.439,3.583" transform="translate(-132.759 -45.258)"/>
        <path id="Path_15174-2" data-name="Path 15174" class="cls-1" d="M484.508,87.343a3.586,3.586,0,1,1,3.439-3.583,3.513,3.513,0,0,1-3.439,3.583" transform="translate(-246.454 -45.258)"/>
        <path id="Path_15175-2" data-name="Path 15175" class="cls-1" d="M564.686,87.343a3.586,3.586,0,1,1,3.439-3.583,3.513,3.513,0,0,1-3.439,3.583" transform="translate(-360.148 -45.258)"/>
        <path id="Path_15176-2" data-name="Path 15176" class="cls-1" d="M644.864,87.343a3.586,3.586,0,1,1,3.439-3.583,3.513,3.513,0,0,1-3.439,3.583" transform="translate(-473.843 -45.258)"/>
        <path id="Path_15177-2" data-name="Path 15177" class="cls-1" d="M725.043,87.343a3.586,3.586,0,1,1,3.439-3.583,3.513,3.513,0,0,1-3.439,3.583" transform="translate(-587.539 -45.258)"/>
        <path id="Path_15178-2" data-name="Path 15178" class="cls-1" d="M805.221,87.343a3.586,3.586,0,1,1,3.439-3.583,3.513,3.513,0,0,1-3.439,3.583" transform="translate(-701.233 -45.258)"/>
        <path id="Path_15179-2" data-name="Path 15179" class="cls-1" d="M885.4,87.343a3.586,3.586,0,1,1,3.439-3.583,3.513,3.513,0,0,1-3.439,3.583" transform="translate(-814.927 -45.258)"/>
        <path id="Path_15180-2" data-name="Path 15180" class="cls-1" d="M965.577,87.343a3.586,3.586,0,1,1,3.439-3.583,3.513,3.513,0,0,1-3.439,3.583" transform="translate(-928.622 -45.258)"/>
        <path id="Path_15182-2" data-name="Path 15182" class="cls-1" d="M3.439,167.521a3.586,3.586,0,0,1,0-7.165,3.586,3.586,0,0,1,0,7.165" transform="translate(435.714 -90.516)"/>
        <path id="Path_15183-2" data-name="Path 15183" class="cls-1" d="M83.617,167.521a3.586,3.586,0,1,1,3.439-3.583,3.513,3.513,0,0,1-3.439,3.583" transform="translate(322.02 -90.516)"/>
        <path id="Path_15184-2" data-name="Path 15184" class="cls-1" d="M163.8,167.521a3.586,3.586,0,1,1,3.439-3.583,3.513,3.513,0,0,1-3.439,3.583" transform="translate(208.325 -90.516)"/>
        <path id="Path_15185-2" data-name="Path 15185" class="cls-1" d="M243.974,167.521a3.586,3.586,0,1,1,3.439-3.583,3.513,3.513,0,0,1-3.439,3.583" transform="translate(94.629 -90.516)"/>
        <path id="Path_15186-2" data-name="Path 15186" class="cls-1" d="M324.152,167.521a3.586,3.586,0,1,1,3.439-3.583,3.513,3.513,0,0,1-3.439,3.583" transform="translate(-19.065 -90.516)"/>
        <path id="Path_15187-2" data-name="Path 15187" class="cls-1" d="M404.33,167.521a3.586,3.586,0,1,1,3.439-3.583,3.513,3.513,0,0,1-3.439,3.583" transform="translate(-132.759 -90.516)"/>
        <path id="Path_15188-2" data-name="Path 15188" class="cls-1" d="M484.508,167.521a3.586,3.586,0,1,1,3.439-3.583,3.513,3.513,0,0,1-3.439,3.583" transform="translate(-246.454 -90.516)"/>
        <path id="Path_15189-2" data-name="Path 15189" class="cls-1" d="M564.686,167.521a3.586,3.586,0,1,1,3.439-3.583,3.513,3.513,0,0,1-3.439,3.583" transform="translate(-360.148 -90.516)"/>
        <path id="Path_15190-2" data-name="Path 15190" class="cls-1" d="M644.864,167.521a3.586,3.586,0,1,1,3.439-3.583,3.513,3.513,0,0,1-3.439,3.583" transform="translate(-473.843 -90.516)"/>
        <path id="Path_15191-2" data-name="Path 15191" class="cls-1" d="M725.043,167.521a3.586,3.586,0,1,1,3.439-3.583,3.513,3.513,0,0,1-3.439,3.583" transform="translate(-587.539 -90.516)"/>
        <path id="Path_15192-2" data-name="Path 15192" class="cls-1" d="M805.221,167.521a3.586,3.586,0,1,1,3.439-3.583,3.513,3.513,0,0,1-3.439,3.583" transform="translate(-701.233 -90.516)"/>
        <path id="Path_15193-2" data-name="Path 15193" class="cls-1" d="M885.4,167.521a3.586,3.586,0,1,1,3.439-3.583,3.513,3.513,0,0,1-3.439,3.583" transform="translate(-814.927 -90.516)"/>
        <path id="Path_15194-2" data-name="Path 15194" class="cls-1" d="M965.577,167.521a3.586,3.586,0,1,1,3.439-3.583,3.513,3.513,0,0,1-3.439,3.583" transform="translate(-928.622 -90.516)"/>
        <path id="Path_15196-2" data-name="Path 15196" class="cls-1" d="M3.439,247.7a3.586,3.586,0,0,1,0-7.165,3.586,3.586,0,0,1,0,7.165" transform="translate(435.714 -135.775)"/>
        <path id="Path_15197-2" data-name="Path 15197" class="cls-1" d="M83.617,247.7a3.586,3.586,0,1,1,3.439-3.583,3.513,3.513,0,0,1-3.439,3.583" transform="translate(322.02 -135.775)"/>
        <path id="Path_15198-2" data-name="Path 15198" class="cls-1" d="M163.8,247.7a3.586,3.586,0,1,1,3.439-3.583A3.513,3.513,0,0,1,163.8,247.7" transform="translate(208.325 -135.775)"/>
        <path id="Path_15199-2" data-name="Path 15199" class="cls-1" d="M243.974,247.7a3.586,3.586,0,1,1,3.439-3.583,3.513,3.513,0,0,1-3.439,3.583" transform="translate(94.629 -135.775)"/>
        <path id="Path_15200-2" data-name="Path 15200" class="cls-1" d="M324.152,247.7a3.586,3.586,0,1,1,3.439-3.583,3.513,3.513,0,0,1-3.439,3.583" transform="translate(-19.065 -135.775)"/>
        <path id="Path_15201-2" data-name="Path 15201" class="cls-1" d="M404.33,247.7a3.586,3.586,0,1,1,3.439-3.583,3.513,3.513,0,0,1-3.439,3.583" transform="translate(-132.759 -135.775)"/>
        <path id="Path_15202-2" data-name="Path 15202" class="cls-1" d="M484.508,247.7a3.586,3.586,0,1,1,3.439-3.583,3.513,3.513,0,0,1-3.439,3.583" transform="translate(-246.454 -135.775)"/>
        <path id="Path_15203-2" data-name="Path 15203" class="cls-1" d="M564.686,247.7a3.586,3.586,0,1,1,3.439-3.583,3.513,3.513,0,0,1-3.439,3.583" transform="translate(-360.148 -135.775)"/>
        <path id="Path_15204-2" data-name="Path 15204" class="cls-1" d="M644.864,247.7a3.586,3.586,0,1,1,3.439-3.583,3.513,3.513,0,0,1-3.439,3.583" transform="translate(-473.843 -135.775)"/>
        <path id="Path_15205-2" data-name="Path 15205" class="cls-1" d="M725.043,247.7a3.586,3.586,0,1,1,3.439-3.583,3.513,3.513,0,0,1-3.439,3.583" transform="translate(-587.539 -135.775)"/>
        <path id="Path_15206-2" data-name="Path 15206" class="cls-1" d="M805.221,247.7a3.586,3.586,0,1,1,3.439-3.583,3.513,3.513,0,0,1-3.439,3.583" transform="translate(-701.233 -135.775)"/>
        <path id="Path_15207-2" data-name="Path 15207" class="cls-1" d="M885.4,247.7a3.586,3.586,0,1,1,3.439-3.583A3.513,3.513,0,0,1,885.4,247.7" transform="translate(-814.927 -135.775)"/>
        <path id="Path_15208-2" data-name="Path 15208" class="cls-1" d="M965.577,247.7a3.586,3.586,0,1,1,3.439-3.583,3.513,3.513,0,0,1-3.439,3.583" transform="translate(-928.622 -135.775)"/>
        <path id="Path_15209-2" data-name="Path 15209" class="cls-1" d="M1045.755,247.7a3.586,3.586,0,1,1,3.439-3.583,3.513,3.513,0,0,1-3.439,3.583" transform="translate(-1042.316 -135.775)"/>
        <path id="Path_15210-2" data-name="Path 15210" class="cls-1" d="M3.439,327.878a3.586,3.586,0,0,1,0-7.165,3.586,3.586,0,0,1,0,7.165" transform="translate(435.714 -181.033)"/>
        <path id="Path_15211-2" data-name="Path 15211" class="cls-1" d="M83.617,327.878a3.586,3.586,0,1,1,3.439-3.583,3.513,3.513,0,0,1-3.439,3.583" transform="translate(322.02 -181.033)"/>
        <path id="Path_15212-2" data-name="Path 15212" class="cls-1" d="M163.8,327.878a3.586,3.586,0,1,1,3.439-3.583,3.513,3.513,0,0,1-3.439,3.583" transform="translate(208.325 -181.033)"/>
        <path id="Path_15213-2" data-name="Path 15213" class="cls-1" d="M243.974,327.878a3.586,3.586,0,1,1,3.439-3.583,3.513,3.513,0,0,1-3.439,3.583" transform="translate(94.629 -181.033)"/>
        <path id="Path_15214-2" data-name="Path 15214" class="cls-1" d="M324.152,327.878a3.586,3.586,0,1,1,3.439-3.583,3.513,3.513,0,0,1-3.439,3.583" transform="translate(-19.065 -181.033)"/>
        <path id="Path_15215-2" data-name="Path 15215" class="cls-1" d="M404.33,327.878a3.586,3.586,0,1,1,3.439-3.583,3.513,3.513,0,0,1-3.439,3.583" transform="translate(-132.759 -181.033)"/>
        <path id="Path_15216-2" data-name="Path 15216" class="cls-1" d="M484.508,327.878a3.586,3.586,0,1,1,3.439-3.583,3.513,3.513,0,0,1-3.439,3.583" transform="translate(-246.454 -181.033)"/>
        <path id="Path_15217-2" data-name="Path 15217" class="cls-1" d="M564.686,327.878a3.586,3.586,0,1,1,3.439-3.583,3.513,3.513,0,0,1-3.439,3.583" transform="translate(-360.148 -181.033)"/>
        <path id="Path_15218-2" data-name="Path 15218" class="cls-1" d="M644.864,327.878A3.586,3.586,0,1,1,648.3,324.3a3.513,3.513,0,0,1-3.439,3.583" transform="translate(-473.843 -181.033)"/>
        <path id="Path_15219-2" data-name="Path 15219" class="cls-1" d="M725.043,327.878a3.586,3.586,0,1,1,3.439-3.583,3.513,3.513,0,0,1-3.439,3.583" transform="translate(-587.539 -181.033)"/>
        <path id="Path_15220-2" data-name="Path 15220" class="cls-1" d="M805.221,327.878a3.586,3.586,0,1,1,3.439-3.583,3.513,3.513,0,0,1-3.439,3.583" transform="translate(-701.233 -181.033)"/>
        <path id="Path_15221-2" data-name="Path 15221" class="cls-1" d="M885.4,327.878a3.586,3.586,0,1,1,3.439-3.583,3.513,3.513,0,0,1-3.439,3.583" transform="translate(-814.927 -181.033)"/>
        <path id="Path_15222-2" data-name="Path 15222" class="cls-1" d="M965.577,327.878a3.586,3.586,0,1,1,3.439-3.583,3.513,3.513,0,0,1-3.439,3.583" transform="translate(-928.622 -181.033)"/>
        <path id="Path_15223-2" data-name="Path 15223" class="cls-1" d="M1045.755,327.878a3.586,3.586,0,1,1,3.439-3.583,3.513,3.513,0,0,1-3.439,3.583" transform="translate(-1042.316 -181.033)"/>
        <path id="Path_15224-2" data-name="Path 15224" class="cls-1" d="M3.439,408.056a3.586,3.586,0,0,1,0-7.165,3.586,3.586,0,0,1,0,7.165" transform="translate(435.714 -226.291)"/>
        <path id="Path_15225-2" data-name="Path 15225" class="cls-1" d="M83.617,408.056a3.586,3.586,0,1,1,3.439-3.583,3.513,3.513,0,0,1-3.439,3.583" transform="translate(322.02 -226.291)"/>
        <path id="Path_15226-2" data-name="Path 15226" class="cls-1" d="M163.8,408.056a3.586,3.586,0,1,1,3.439-3.583,3.513,3.513,0,0,1-3.439,3.583" transform="translate(208.325 -226.291)"/>
        <path id="Path_15227-2" data-name="Path 15227" class="cls-1" d="M243.974,408.056a3.586,3.586,0,1,1,3.439-3.583,3.513,3.513,0,0,1-3.439,3.583" transform="translate(94.629 -226.291)"/>
        <path id="Path_15228-2" data-name="Path 15228" class="cls-1" d="M324.152,408.056a3.586,3.586,0,1,1,3.439-3.583,3.513,3.513,0,0,1-3.439,3.583" transform="translate(-19.065 -226.291)"/>
        <path id="Path_15229-2" data-name="Path 15229" class="cls-1" d="M404.33,408.056a3.586,3.586,0,1,1,3.439-3.583,3.513,3.513,0,0,1-3.439,3.583" transform="translate(-132.759 -226.291)"/>
        <path id="Path_15230-2" data-name="Path 15230" class="cls-1" d="M484.508,408.056a3.586,3.586,0,1,1,3.439-3.583,3.513,3.513,0,0,1-3.439,3.583" transform="translate(-246.454 -226.291)"/>
        <path id="Path_15231-2" data-name="Path 15231" class="cls-1" d="M564.686,408.056a3.586,3.586,0,1,1,3.439-3.583,3.513,3.513,0,0,1-3.439,3.583" transform="translate(-360.148 -226.291)"/>
        <path id="Path_15232-2" data-name="Path 15232" class="cls-1" d="M644.864,408.056a3.586,3.586,0,1,1,3.439-3.583,3.513,3.513,0,0,1-3.439,3.583" transform="translate(-473.843 -226.291)"/>
        <path id="Path_15233-2" data-name="Path 15233" class="cls-1" d="M725.043,408.056a3.586,3.586,0,1,1,3.439-3.583,3.513,3.513,0,0,1-3.439,3.583" transform="translate(-587.539 -226.291)"/>
        <path id="Path_15234-2" data-name="Path 15234" class="cls-1" d="M805.221,408.056a3.586,3.586,0,1,1,3.439-3.583,3.513,3.513,0,0,1-3.439,3.583" transform="translate(-701.233 -226.291)"/>
        <path id="Path_15235-2" data-name="Path 15235" class="cls-1" d="M885.4,408.056a3.586,3.586,0,1,1,3.439-3.583,3.513,3.513,0,0,1-3.439,3.583" transform="translate(-814.927 -226.291)"/>
        <path id="Path_15236-2" data-name="Path 15236" class="cls-1" d="M965.577,408.056a3.586,3.586,0,1,1,3.439-3.583,3.513,3.513,0,0,1-3.439,3.583" transform="translate(-928.622 -226.291)"/>
        <path id="Path_15237-2" data-name="Path 15237" class="cls-1" d="M1045.755,408.056a3.586,3.586,0,1,1,3.439-3.583,3.513,3.513,0,0,1-3.439,3.583" transform="translate(-1042.316 -226.291)"/>
      </g>
    </g>
  </g>
</svg>
