<svg xmlns="http://www.w3.org/2000/svg" xmlns:xlink="http://www.w3.org/1999/xlink" width="436.969" height="172.243" viewBox="0 0 436.969 172.243">
  <defs>
    <clipPath id="clip-path">
      <rect id="Rectangle_318" data-name="Rectangle 318" width="436.969" height="172.243" fill="#f7ce47"/>
    </clipPath>
  </defs>
  <g id="Group_454" data-name="Group 454" opacity="0.42">
    <g id="white_dots" data-name="white dots" transform="translate(0 0)">
      <g id="Group_452" data-name="Group 452" clip-path="url(#clip-path)">
        <path id="Path_15154" data-name="Path 15154" d="M3.4,6.79A3.395,3.395,0,1,1,6.79,3.395,3.4,3.4,0,0,1,3.4,6.79" transform="translate(430.178 0)" fill="#f7ce47"/>
        <path id="Path_15155" data-name="Path 15155" d="M83.573,6.79a3.395,3.395,0,1,1,3.395-3.395A3.4,3.4,0,0,1,83.573,6.79" transform="translate(316.91 0)" fill="#f7ce47"/>
        <path id="Path_15156" data-name="Path 15156" d="M163.751,6.79a3.395,3.395,0,1,1,3.395-3.395,3.4,3.4,0,0,1-3.395,3.395" transform="translate(203.641 0)" fill="#f7ce47"/>
        <path id="Path_15157" data-name="Path 15157" d="M243.93,6.79a3.395,3.395,0,1,1,3.395-3.395A3.4,3.4,0,0,1,243.93,6.79" transform="translate(90.371 0)" fill="#f7ce47"/>
        <path id="Path_15158" data-name="Path 15158" d="M324.108,6.79A3.395,3.395,0,1,1,327.5,3.395a3.4,3.4,0,0,1-3.395,3.395" transform="translate(-22.897 0)" fill="#f7ce47"/>
        <path id="Path_15159" data-name="Path 15159" d="M404.286,6.79a3.395,3.395,0,1,1,3.395-3.395,3.4,3.4,0,0,1-3.395,3.395" transform="translate(-136.166 0)" fill="#f7ce47"/>
        <path id="Path_15160" data-name="Path 15160" d="M484.464,6.79a3.395,3.395,0,1,1,3.395-3.395,3.4,3.4,0,0,1-3.395,3.395" transform="translate(-249.435 0)" fill="#f7ce47"/>
        <path id="Path_15161" data-name="Path 15161" d="M564.642,6.79a3.395,3.395,0,1,1,3.4-3.395,3.4,3.4,0,0,1-3.4,3.395" transform="translate(-362.703 0)" fill="#f7ce47"/>
        <path id="Path_15162" data-name="Path 15162" d="M644.82,6.79a3.395,3.395,0,1,1,3.4-3.395,3.4,3.4,0,0,1-3.4,3.395" transform="translate(-475.972 0)" fill="#f7ce47"/>
        <path id="Path_15163" data-name="Path 15163" d="M725,6.79a3.395,3.395,0,1,1,3.4-3.395A3.4,3.4,0,0,1,725,6.79" transform="translate(-589.242 0)" fill="#f7ce47"/>
        <path id="Path_15164" data-name="Path 15164" d="M805.177,6.79a3.395,3.395,0,1,1,3.4-3.395,3.4,3.4,0,0,1-3.4,3.395" transform="translate(-702.51 0)" fill="#f7ce47"/>
        <path id="Path_15168" data-name="Path 15168" d="M3.4,86.968A3.395,3.395,0,1,1,6.79,83.573,3.4,3.4,0,0,1,3.4,86.968" transform="translate(430.178 -47.087)" fill="#f7ce47"/>
        <path id="Path_15169" data-name="Path 15169" d="M83.573,86.968a3.395,3.395,0,1,1,3.395-3.395,3.4,3.4,0,0,1-3.395,3.395" transform="translate(316.91 -47.087)" fill="#f7ce47"/>
        <path id="Path_15170" data-name="Path 15170" d="M163.751,86.968a3.395,3.395,0,1,1,3.395-3.395,3.4,3.4,0,0,1-3.395,3.395" transform="translate(203.641 -47.087)" fill="#f7ce47"/>
        <path id="Path_15171" data-name="Path 15171" d="M243.93,86.968a3.395,3.395,0,1,1,3.395-3.395,3.4,3.4,0,0,1-3.395,3.395" transform="translate(90.371 -47.087)" fill="#f7ce47"/>
        <path id="Path_15172" data-name="Path 15172" d="M324.108,86.968a3.395,3.395,0,1,1,3.395-3.395,3.4,3.4,0,0,1-3.395,3.395" transform="translate(-22.897 -47.087)" fill="#f7ce47"/>
        <path id="Path_15173" data-name="Path 15173" d="M404.286,86.968a3.395,3.395,0,1,1,3.395-3.395,3.4,3.4,0,0,1-3.395,3.395" transform="translate(-136.166 -47.087)" fill="#f7ce47"/>
        <path id="Path_15174" data-name="Path 15174" d="M484.464,86.968a3.395,3.395,0,1,1,3.395-3.395,3.4,3.4,0,0,1-3.395,3.395" transform="translate(-249.435 -47.087)" fill="#f7ce47"/>
        <path id="Path_15175" data-name="Path 15175" d="M564.642,86.968a3.395,3.395,0,1,1,3.4-3.395,3.4,3.4,0,0,1-3.4,3.395" transform="translate(-362.703 -47.087)" fill="#f7ce47"/>
        <path id="Path_15176" data-name="Path 15176" d="M644.82,86.968a3.395,3.395,0,1,1,3.4-3.395,3.4,3.4,0,0,1-3.4,3.395" transform="translate(-475.972 -47.087)" fill="#f7ce47"/>
        <path id="Path_15177" data-name="Path 15177" d="M725,86.968a3.395,3.395,0,1,1,3.4-3.395,3.4,3.4,0,0,1-3.4,3.395" transform="translate(-589.242 -47.087)" fill="#f7ce47"/>
        <path id="Path_15178" data-name="Path 15178" d="M805.177,86.968a3.395,3.395,0,1,1,3.4-3.395,3.4,3.4,0,0,1-3.4,3.395" transform="translate(-702.51 -47.087)" fill="#f7ce47"/>
        <path id="Path_15179" data-name="Path 15179" d="M885.355,86.968a3.395,3.395,0,1,1,3.4-3.395,3.4,3.4,0,0,1-3.4,3.395" transform="translate(-815.779 -47.087)" fill="#f7ce47"/>
        <path id="Path_15180" data-name="Path 15180" d="M965.534,86.968a3.395,3.395,0,1,1,3.395-3.395,3.4,3.4,0,0,1-3.395,3.395" transform="translate(-929.047 -47.087)" fill="#f7ce47"/>
        <path id="Path_15182" data-name="Path 15182" d="M3.4,167.146a3.395,3.395,0,1,1,3.395-3.395A3.4,3.4,0,0,1,3.4,167.146" transform="translate(430.178 -94.175)" fill="#f7ce47"/>
        <path id="Path_15183" data-name="Path 15183" d="M83.573,167.146a3.395,3.395,0,1,1,3.395-3.395,3.4,3.4,0,0,1-3.395,3.395" transform="translate(316.91 -94.175)" fill="#f7ce47"/>
        <path id="Path_15184" data-name="Path 15184" d="M163.751,167.146a3.395,3.395,0,1,1,3.395-3.395,3.4,3.4,0,0,1-3.395,3.395" transform="translate(203.641 -94.175)" fill="#f7ce47"/>
        <path id="Path_15185" data-name="Path 15185" d="M243.93,167.146a3.395,3.395,0,1,1,3.395-3.395,3.4,3.4,0,0,1-3.395,3.395" transform="translate(90.371 -94.175)" fill="#f7ce47"/>
        <path id="Path_15186" data-name="Path 15186" d="M324.108,167.146a3.395,3.395,0,1,1,3.395-3.395,3.4,3.4,0,0,1-3.395,3.395" transform="translate(-22.897 -94.175)" fill="#f7ce47"/>
        <path id="Path_15187" data-name="Path 15187" d="M404.286,167.146a3.395,3.395,0,1,1,3.395-3.395,3.4,3.4,0,0,1-3.395,3.395" transform="translate(-136.166 -94.175)" fill="#f7ce47"/>
        <path id="Path_15188" data-name="Path 15188" d="M484.464,167.146a3.395,3.395,0,1,1,3.395-3.395,3.4,3.4,0,0,1-3.395,3.395" transform="translate(-249.435 -94.175)" fill="#f7ce47"/>
        <path id="Path_15189" data-name="Path 15189" d="M564.642,167.146a3.395,3.395,0,1,1,3.4-3.395,3.4,3.4,0,0,1-3.4,3.395" transform="translate(-362.703 -94.175)" fill="#f7ce47"/>
        <path id="Path_15190" data-name="Path 15190" d="M644.82,167.146a3.395,3.395,0,1,1,3.4-3.395,3.4,3.4,0,0,1-3.4,3.395" transform="translate(-475.972 -94.175)" fill="#f7ce47"/>
        <path id="Path_15191" data-name="Path 15191" d="M725,167.146a3.395,3.395,0,1,1,3.4-3.395,3.4,3.4,0,0,1-3.4,3.395" transform="translate(-589.242 -94.175)" fill="#f7ce47"/>
        <path id="Path_15192" data-name="Path 15192" d="M805.177,167.146a3.395,3.395,0,1,1,3.4-3.395,3.4,3.4,0,0,1-3.4,3.395" transform="translate(-702.51 -94.175)" fill="#f7ce47"/>
        <path id="Path_15193" data-name="Path 15193" d="M885.355,167.146a3.395,3.395,0,1,1,3.4-3.395,3.4,3.4,0,0,1-3.4,3.395" transform="translate(-815.779 -94.175)" fill="#f7ce47"/>
        <path id="Path_15194" data-name="Path 15194" d="M965.534,167.146a3.395,3.395,0,1,1,3.395-3.395,3.4,3.4,0,0,1-3.395,3.395" transform="translate(-929.047 -94.175)" fill="#f7ce47"/>
        <path id="Path_15196" data-name="Path 15196" d="M3.4,247.325A3.395,3.395,0,1,1,6.79,243.93,3.4,3.4,0,0,1,3.4,247.325" transform="translate(430.178 -141.263)" fill="#f7ce47"/>
        <path id="Path_15197" data-name="Path 15197" d="M83.573,247.325a3.395,3.395,0,1,1,3.395-3.395,3.4,3.4,0,0,1-3.395,3.395" transform="translate(316.91 -141.263)" fill="#f7ce47"/>
        <path id="Path_15198" data-name="Path 15198" d="M163.751,247.325a3.395,3.395,0,1,1,3.395-3.395,3.4,3.4,0,0,1-3.395,3.395" transform="translate(203.641 -141.263)" fill="#f7ce47"/>
        <path id="Path_15199" data-name="Path 15199" d="M243.93,247.325a3.395,3.395,0,1,1,3.395-3.395,3.4,3.4,0,0,1-3.395,3.395" transform="translate(90.371 -141.263)" fill="#f7ce47"/>
        <path id="Path_15200" data-name="Path 15200" d="M324.108,247.325a3.395,3.395,0,1,1,3.395-3.395,3.4,3.4,0,0,1-3.395,3.395" transform="translate(-22.897 -141.263)" fill="#f7ce47"/>
        <path id="Path_15201" data-name="Path 15201" d="M404.286,247.325a3.395,3.395,0,1,1,3.395-3.395,3.4,3.4,0,0,1-3.395,3.395" transform="translate(-136.166 -141.263)" fill="#f7ce47"/>
        <path id="Path_15202" data-name="Path 15202" d="M484.464,247.325a3.395,3.395,0,1,1,3.395-3.395,3.4,3.4,0,0,1-3.395,3.395" transform="translate(-249.435 -141.263)" fill="#f7ce47"/>
        <path id="Path_15203" data-name="Path 15203" d="M564.642,247.325a3.395,3.395,0,1,1,3.4-3.395,3.4,3.4,0,0,1-3.4,3.395" transform="translate(-362.703 -141.263)" fill="#f7ce47"/>
        <path id="Path_15204" data-name="Path 15204" d="M644.82,247.325a3.395,3.395,0,1,1,3.4-3.395,3.4,3.4,0,0,1-3.4,3.395" transform="translate(-475.972 -141.263)" fill="#f7ce47"/>
        <path id="Path_15205" data-name="Path 15205" d="M725,247.325a3.395,3.395,0,1,1,3.4-3.395,3.4,3.4,0,0,1-3.4,3.395" transform="translate(-589.242 -141.263)" fill="#f7ce47"/>
        <path id="Path_15206" data-name="Path 15206" d="M805.177,247.325a3.395,3.395,0,1,1,3.4-3.395,3.4,3.4,0,0,1-3.4,3.395" transform="translate(-702.51 -141.263)" fill="#f7ce47"/>
        <path id="Path_15207" data-name="Path 15207" d="M885.355,247.325a3.395,3.395,0,1,1,3.4-3.395,3.4,3.4,0,0,1-3.4,3.395" transform="translate(-815.779 -141.263)" fill="#f7ce47"/>
        <path id="Path_15208" data-name="Path 15208" d="M965.534,247.325a3.395,3.395,0,1,1,3.395-3.395,3.4,3.4,0,0,1-3.395,3.395" transform="translate(-929.047 -141.263)" fill="#f7ce47"/>
        <path id="Path_15209" data-name="Path 15209" d="M1045.712,247.325a3.395,3.395,0,1,1,3.395-3.395,3.4,3.4,0,0,1-3.395,3.395" transform="translate(-1042.316 -141.263)" fill="#f7ce47"/>
        <path id="Path_15210" data-name="Path 15210" d="M3.4,327.5a3.395,3.395,0,1,1,3.395-3.395A3.4,3.4,0,0,1,3.4,327.5" transform="translate(430.178 -188.35)" fill="#f7ce47"/>
        <path id="Path_15211" data-name="Path 15211" d="M83.573,327.5a3.395,3.395,0,1,1,3.395-3.395,3.4,3.4,0,0,1-3.395,3.395" transform="translate(316.91 -188.35)" fill="#f7ce47"/>
        <path id="Path_15212" data-name="Path 15212" d="M163.751,327.5a3.395,3.395,0,1,1,3.395-3.395,3.4,3.4,0,0,1-3.395,3.395" transform="translate(203.641 -188.35)" fill="#f7ce47"/>
        <path id="Path_15213" data-name="Path 15213" d="M243.93,327.5a3.395,3.395,0,1,1,3.395-3.395,3.4,3.4,0,0,1-3.395,3.395" transform="translate(90.371 -188.35)" fill="#f7ce47"/>
        <path id="Path_15214" data-name="Path 15214" d="M324.108,327.5a3.395,3.395,0,1,1,3.395-3.395,3.4,3.4,0,0,1-3.395,3.395" transform="translate(-22.897 -188.35)" fill="#f7ce47"/>
        <path id="Path_15215" data-name="Path 15215" d="M404.286,327.5a3.395,3.395,0,1,1,3.395-3.395,3.4,3.4,0,0,1-3.395,3.395" transform="translate(-136.166 -188.35)" fill="#f7ce47"/>
        <path id="Path_15216" data-name="Path 15216" d="M484.464,327.5a3.395,3.395,0,1,1,3.395-3.395,3.4,3.4,0,0,1-3.395,3.395" transform="translate(-249.435 -188.35)" fill="#f7ce47"/>
        <path id="Path_15217" data-name="Path 15217" d="M564.642,327.5a3.395,3.395,0,1,1,3.4-3.395,3.4,3.4,0,0,1-3.4,3.395" transform="translate(-362.703 -188.35)" fill="#f7ce47"/>
        <path id="Path_15218" data-name="Path 15218" d="M644.82,327.5a3.395,3.395,0,1,1,3.4-3.395,3.4,3.4,0,0,1-3.4,3.395" transform="translate(-475.972 -188.35)" fill="#f7ce47"/>
        <path id="Path_15219" data-name="Path 15219" d="M725,327.5a3.395,3.395,0,1,1,3.4-3.395A3.4,3.4,0,0,1,725,327.5" transform="translate(-589.242 -188.35)" fill="#f7ce47"/>
        <path id="Path_15220" data-name="Path 15220" d="M805.177,327.5a3.395,3.395,0,1,1,3.4-3.395,3.4,3.4,0,0,1-3.4,3.395" transform="translate(-702.51 -188.35)" fill="#f7ce47"/>
        <path id="Path_15221" data-name="Path 15221" d="M885.355,327.5a3.395,3.395,0,1,1,3.4-3.395,3.4,3.4,0,0,1-3.4,3.395" transform="translate(-815.779 -188.35)" fill="#f7ce47"/>
        <path id="Path_15222" data-name="Path 15222" d="M965.534,327.5a3.395,3.395,0,1,1,3.395-3.395,3.4,3.4,0,0,1-3.395,3.395" transform="translate(-929.047 -188.35)" fill="#f7ce47"/>
        <path id="Path_15223" data-name="Path 15223" d="M1045.712,327.5a3.395,3.395,0,1,1,3.395-3.395,3.4,3.4,0,0,1-3.395,3.395" transform="translate(-1042.316 -188.35)" fill="#f7ce47"/>
        <path id="Path_15224" data-name="Path 15224" d="M3.4,407.681a3.395,3.395,0,1,1,3.395-3.395A3.4,3.4,0,0,1,3.4,407.681" transform="translate(430.178 -235.438)" fill="#f7ce47"/>
        <path id="Path_15225" data-name="Path 15225" d="M83.573,407.681a3.395,3.395,0,1,1,3.395-3.395,3.4,3.4,0,0,1-3.395,3.395" transform="translate(316.91 -235.438)" fill="#f7ce47"/>
        <path id="Path_15226" data-name="Path 15226" d="M163.751,407.681a3.395,3.395,0,1,1,3.395-3.395,3.4,3.4,0,0,1-3.395,3.395" transform="translate(203.641 -235.438)" fill="#f7ce47"/>
        <path id="Path_15227" data-name="Path 15227" d="M243.93,407.681a3.395,3.395,0,1,1,3.395-3.395,3.4,3.4,0,0,1-3.395,3.395" transform="translate(90.371 -235.438)" fill="#f7ce47"/>
        <path id="Path_15228" data-name="Path 15228" d="M324.108,407.681a3.395,3.395,0,1,1,3.395-3.395,3.4,3.4,0,0,1-3.395,3.395" transform="translate(-22.897 -235.438)" fill="#f7ce47"/>
        <path id="Path_15229" data-name="Path 15229" d="M404.286,407.681a3.395,3.395,0,1,1,3.395-3.395,3.4,3.4,0,0,1-3.395,3.395" transform="translate(-136.166 -235.438)" fill="#f7ce47"/>
        <path id="Path_15230" data-name="Path 15230" d="M484.464,407.681a3.395,3.395,0,1,1,3.395-3.395,3.4,3.4,0,0,1-3.395,3.395" transform="translate(-249.435 -235.438)" fill="#f7ce47"/>
        <path id="Path_15231" data-name="Path 15231" d="M564.642,407.681a3.395,3.395,0,1,1,3.4-3.395,3.4,3.4,0,0,1-3.4,3.395" transform="translate(-362.703 -235.438)" fill="#f7ce47"/>
        <path id="Path_15232" data-name="Path 15232" d="M644.82,407.681a3.395,3.395,0,1,1,3.4-3.395,3.4,3.4,0,0,1-3.4,3.395" transform="translate(-475.972 -235.438)" fill="#f7ce47"/>
        <path id="Path_15233" data-name="Path 15233" d="M725,407.681a3.395,3.395,0,1,1,3.4-3.395,3.4,3.4,0,0,1-3.4,3.395" transform="translate(-589.242 -235.438)" fill="#f7ce47"/>
        <path id="Path_15234" data-name="Path 15234" d="M805.177,407.681a3.395,3.395,0,1,1,3.4-3.395,3.4,3.4,0,0,1-3.4,3.395" transform="translate(-702.51 -235.438)" fill="#f7ce47"/>
        <path id="Path_15235" data-name="Path 15235" d="M885.355,407.681a3.395,3.395,0,1,1,3.4-3.395,3.4,3.4,0,0,1-3.4,3.395" transform="translate(-815.779 -235.438)" fill="#f7ce47"/>
        <path id="Path_15236" data-name="Path 15236" d="M965.534,407.681a3.395,3.395,0,1,1,3.395-3.395,3.4,3.4,0,0,1-3.395,3.395" transform="translate(-929.047 -235.438)" fill="#f7ce47"/>
        <path id="Path_15237" data-name="Path 15237" d="M1045.712,407.681a3.395,3.395,0,1,1,3.395-3.395,3.4,3.4,0,0,1-3.395,3.395" transform="translate(-1042.316 -235.438)" fill="#f7ce47"/>
      </g>
    </g>
  </g>
</svg>
