<svg xmlns="http://www.w3.org/2000/svg" xmlns:xlink="http://www.w3.org/1999/xlink" viewBox="0 0 1540 825"><defs><style>.cls-1{fill:none;}.cls-2{opacity:0.12;}.cls-3{fill:url(#linear-gradient);}.cls-4{fill:url(#linear-gradient-2);}.cls-5{fill:url(#linear-gradient-3);}.cls-6{opacity:0.4;fill:url(#linear-gradient-4);}.cls-7{fill:url(#linear-gradient-5);}.cls-8{opacity:0.7;fill:url(#linear-gradient-6);}.cls-9{fill:url(#linear-gradient-7);}.cls-10{clip-path:url(#clip-path);}.cls-11{opacity:0.5;}.cls-12{fill:#dceffa;}.cls-13{opacity:0.3;}.cls-14{fill:url(#linear-gradient-8);}.cls-15{fill:url(#linear-gradient-9);}.cls-16{fill:url(#linear-gradient-10);}.cls-17{fill:url(#linear-gradient-11);}.cls-18{fill:#fff;}.cls-19{opacity:0.3;}</style><linearGradient id="linear-gradient" y1="476.45" x2="1540" y2="476.45" gradientUnits="userSpaceOnUse"><stop offset="0" stop-color="#021e2a"/><stop offset="1" stop-color="#0c3798"/></linearGradient><linearGradient id="linear-gradient-2" x1="443.71" y1="547.71" x2="1540" y2="547.71" gradientUnits="userSpaceOnUse"><stop offset="0" stop-color="#033268"/><stop offset="1" stop-color="#1447bf"/></linearGradient><linearGradient id="linear-gradient-3" x1="0" y1="409.91" x2="1090.49" y2="409.91" xlink:href="#linear-gradient-2"/><linearGradient id="linear-gradient-4" x1="550.97" y1="293.6" x2="129.03" y2="-128.34" gradientUnits="userSpaceOnUse"><stop offset="0" stop-color="#006eb6"/><stop offset="1" stop-color="#034a9f"/></linearGradient><linearGradient id="linear-gradient-5" x1="446.18" y1="238.46" x2="104.2" y2="-103.51" xlink:href="#linear-gradient-4"/><linearGradient id="linear-gradient-6" x1="1559.41" y1="932.79" x2="1205.8" y2="579.18" xlink:href="#linear-gradient-4"/><linearGradient id="linear-gradient-7" x1="1087.63" y1="708.7" x2="1540" y2="708.7" xlink:href="#linear-gradient-4"/><clipPath id="clip-path"><rect class="cls-1" y="0.69" width="1540" height="951.51"/></clipPath><linearGradient id="linear-gradient-8" x1="1434.91" y1="364.01" x2="1434.91" y2="131.54" xlink:href="#linear-gradient-4"/><linearGradient id="linear-gradient-9" x1="1215.42" y1="952.2" x2="1215.42" y2="852.43" xlink:href="#linear-gradient"/><linearGradient id="linear-gradient-10" x1="88.29" y1="944.19" x2="88.29" y2="742.85" xlink:href="#linear-gradient-2"/><linearGradient id="linear-gradient-11" x1="355.83" y1="156.73" x2="355.83" y2="0" xlink:href="#linear-gradient"/></defs><title>Asset 6</title><g id="Layer_2" data-name="Layer 2"><g id="Layer_1-2" data-name="Layer 1"><g class="cls-2"><rect class="cls-3" y="0.69" width="1540" height="951.51"/><path class="cls-4" d="M443.72,952.2S437.56,722.1,684,710.68s378.82,22.84,449.66-119.88,21.56-264.73,203.27-305.06S1527.53,192.3,1540,143.22v809Z"/><path class="cls-5" d="M0,819.12S83.16,535.4,342,514s443.6,18.66,492.88-92.21S816.38,81.58,1090.49.69H0Z"/><path class="cls-6" d="M0,327.16S128.79,489.5,344.94,428.79C545.25,372.54,557.45,28.41,843.88.69H0Z"/><rect class="cls-1" y="0.69" width="1540" height="951.51"/><path class="cls-7" d="M0,267.83s104.94,77,299,18.47S496.08,47.71,684,.69H0Z"/><path class="cls-8" d="M1041.06,952.2S1019.51,761,1121.14,663.91,1500,549.74,1540,375.62V952.2Z"/><path class="cls-9" d="M1090.49,952.2s-32.7-167.82,123.19-255.79c116.47-65.72,301.53-14.27,326.32-231.21v487Z"/><g class="cls-10"><g class="cls-11"><path class="cls-12" d="M31.06,843.39a2.46,2.46,0,1,0,2.45-2.27A2.36,2.36,0,0,0,31.06,843.39Z"/><path class="cls-12" d="M31.06,820.78a2.46,2.46,0,1,0,2.45-2.27A2.37,2.37,0,0,0,31.06,820.78Z"/><path class="cls-12" d="M31.06,798.16a2.46,2.46,0,1,0,2.45-2.27A2.37,2.37,0,0,0,31.06,798.16Z"/><path class="cls-12" d="M31.06,775.55a2.46,2.46,0,1,0,2.45-2.27A2.36,2.36,0,0,0,31.06,775.55Z"/><path class="cls-12" d="M31.06,752.94a2.46,2.46,0,1,0,2.45-2.27A2.37,2.37,0,0,0,31.06,752.94Z"/><path class="cls-12" d="M31.06,730.32a2.46,2.46,0,1,0,2.45-2.27A2.37,2.37,0,0,0,31.06,730.32Z"/><path class="cls-12" d="M31.06,707.71a2.46,2.46,0,1,0,2.45-2.27A2.37,2.37,0,0,0,31.06,707.71Z"/><path class="cls-12" d="M36,685.1a2.46,2.46,0,1,0-2.45,2.27A2.36,2.36,0,0,0,36,685.1Z"/><path class="cls-12" d="M46.92,843.39a2.46,2.46,0,1,0,2.45-2.27A2.36,2.36,0,0,0,46.92,843.39Z"/><path class="cls-12" d="M46.92,820.78a2.46,2.46,0,1,0,2.45-2.27A2.37,2.37,0,0,0,46.92,820.78Z"/><path class="cls-12" d="M46.92,798.16a2.46,2.46,0,1,0,2.45-2.27A2.37,2.37,0,0,0,46.92,798.16Z"/><path class="cls-12" d="M46.92,775.55a2.46,2.46,0,1,0,2.45-2.27A2.36,2.36,0,0,0,46.92,775.55Z"/><path class="cls-12" d="M46.92,752.94a2.46,2.46,0,1,0,2.45-2.27A2.37,2.37,0,0,0,46.92,752.94Z"/><path class="cls-12" d="M46.92,730.32a2.46,2.46,0,1,0,2.45-2.27A2.37,2.37,0,0,0,46.92,730.32Z"/><path class="cls-12" d="M46.92,707.71a2.46,2.46,0,1,0,2.45-2.27A2.37,2.37,0,0,0,46.92,707.71Z"/><path class="cls-12" d="M46.92,685.1a2.46,2.46,0,1,0,2.45-2.28A2.37,2.37,0,0,0,46.92,685.1Z"/><path class="cls-12" d="M62.78,843.39a2.46,2.46,0,1,0,2.45-2.27A2.36,2.36,0,0,0,62.78,843.39Z"/><path class="cls-12" d="M62.78,820.78a2.46,2.46,0,1,0,2.45-2.27A2.37,2.37,0,0,0,62.78,820.78Z"/><path class="cls-12" d="M62.78,798.16a2.46,2.46,0,1,0,2.45-2.27A2.37,2.37,0,0,0,62.78,798.16Z"/><path class="cls-12" d="M62.78,775.55a2.46,2.46,0,1,0,2.45-2.27A2.36,2.36,0,0,0,62.78,775.55Z"/><path class="cls-12" d="M62.78,752.94a2.46,2.46,0,1,0,2.45-2.27A2.37,2.37,0,0,0,62.78,752.94Z"/><path class="cls-12" d="M62.78,730.32a2.46,2.46,0,1,0,2.45-2.27A2.37,2.37,0,0,0,62.78,730.32Z"/><path class="cls-12" d="M62.78,707.71a2.46,2.46,0,1,0,2.45-2.27A2.37,2.37,0,0,0,62.78,707.71Z"/><path class="cls-12" d="M62.78,685.1a2.46,2.46,0,1,0,2.45-2.28A2.37,2.37,0,0,0,62.78,685.1Z"/><path class="cls-12" d="M78.64,843.39a2.46,2.46,0,1,0,2.45-2.27A2.36,2.36,0,0,0,78.64,843.39Z"/><path class="cls-12" d="M78.64,820.78a2.46,2.46,0,1,0,2.45-2.27A2.37,2.37,0,0,0,78.64,820.78Z"/><path class="cls-12" d="M78.64,798.16a2.46,2.46,0,1,0,2.45-2.27A2.37,2.37,0,0,0,78.64,798.16Z"/><path class="cls-12" d="M78.64,775.55a2.46,2.46,0,1,0,2.45-2.27A2.36,2.36,0,0,0,78.64,775.55Z"/><path class="cls-12" d="M78.64,752.94a2.46,2.46,0,1,0,2.45-2.27A2.37,2.37,0,0,0,78.64,752.94Z"/><path class="cls-12" d="M78.64,730.32a2.46,2.46,0,1,0,2.45-2.27A2.37,2.37,0,0,0,78.64,730.32Z"/><path class="cls-12" d="M78.64,707.71a2.46,2.46,0,1,0,2.45-2.27A2.37,2.37,0,0,0,78.64,707.71Z"/><path class="cls-12" d="M78.64,685.1a2.46,2.46,0,1,0,2.45-2.28A2.37,2.37,0,0,0,78.64,685.1Z"/><path class="cls-12" d="M94.5,843.39A2.46,2.46,0,1,0,97,841.12,2.36,2.36,0,0,0,94.5,843.39Z"/><path class="cls-12" d="M94.5,820.78A2.46,2.46,0,1,0,97,818.51,2.37,2.37,0,0,0,94.5,820.78Z"/><path class="cls-12" d="M94.5,798.16A2.46,2.46,0,1,0,97,795.89,2.37,2.37,0,0,0,94.5,798.16Z"/><path class="cls-12" d="M94.5,775.55A2.46,2.46,0,1,0,97,773.28,2.36,2.36,0,0,0,94.5,775.55Z"/><path class="cls-12" d="M94.5,752.94A2.46,2.46,0,1,0,97,750.67,2.37,2.37,0,0,0,94.5,752.94Z"/><path class="cls-12" d="M94.5,730.32A2.46,2.46,0,1,0,97,728.05,2.37,2.37,0,0,0,94.5,730.32Z"/><path class="cls-12" d="M94.5,707.71A2.46,2.46,0,1,0,97,705.44,2.37,2.37,0,0,0,94.5,707.71Z"/><path class="cls-12" d="M94.5,685.1A2.46,2.46,0,1,0,97,682.82,2.37,2.37,0,0,0,94.5,685.1Z"/><path class="cls-12" d="M110.36,843.39a2.46,2.46,0,1,0,2.45-2.27A2.36,2.36,0,0,0,110.36,843.39Z"/><path class="cls-12" d="M110.36,820.78a2.46,2.46,0,1,0,2.45-2.27A2.37,2.37,0,0,0,110.36,820.78Z"/><path class="cls-12" d="M110.36,798.16a2.46,2.46,0,1,0,2.45-2.27A2.37,2.37,0,0,0,110.36,798.16Z"/><path class="cls-12" d="M110.36,775.55a2.46,2.46,0,1,0,2.45-2.27A2.36,2.36,0,0,0,110.36,775.55Z"/><path class="cls-12" d="M110.36,752.94a2.46,2.46,0,1,0,2.45-2.27A2.37,2.37,0,0,0,110.36,752.94Z"/><path class="cls-12" d="M110.36,730.32a2.46,2.46,0,1,0,2.45-2.27A2.37,2.37,0,0,0,110.36,730.32Z"/><path class="cls-12" d="M110.36,707.71a2.46,2.46,0,1,0,2.45-2.27A2.37,2.37,0,0,0,110.36,707.71Z"/><path class="cls-12" d="M110.36,685.1a2.46,2.46,0,1,0,2.45-2.28A2.37,2.37,0,0,0,110.36,685.1Z"/><g class="cls-13"><path class="cls-12" d="M253.65,574.29a3.84,3.84,0,1,0,4.13,3.82A4,4,0,0,0,253.65,574.29Z"/><path class="cls-12" d="M294.72,574.29a3.84,3.84,0,1,0,4.12,3.82A4,4,0,0,0,294.72,574.29Z"/><path class="cls-12" d="M335.78,574.29a3.84,3.84,0,1,0,4.13,3.82A4,4,0,0,0,335.78,574.29Z"/><path class="cls-12" d="M376.85,574.29a3.84,3.84,0,1,0,4.13,3.82A4,4,0,0,0,376.85,574.29Z"/><path class="cls-12" d="M417.92,574.29a3.84,3.84,0,1,0,4.12,3.82A4,4,0,0,0,417.92,574.29Z"/><path class="cls-12" d="M459,574.29a3.84,3.84,0,1,0,4.12,3.82A4,4,0,0,0,459,574.29Z"/><path class="cls-12" d="M500.05,574.29a3.84,3.84,0,1,0,4.13,3.82A4,4,0,0,0,500.05,574.29Z"/><path class="cls-12" d="M541.12,581.94a3.84,3.84,0,1,0-4.13-3.83A4,4,0,0,0,541.12,581.94Z"/><path class="cls-12" d="M253.65,599a3.84,3.84,0,1,0,4.13,3.82A4,4,0,0,0,253.65,599Z"/><path class="cls-12" d="M294.72,599a3.84,3.84,0,1,0,4.12,3.82A4,4,0,0,0,294.72,599Z"/><path class="cls-12" d="M335.78,599a3.84,3.84,0,1,0,4.13,3.82A4,4,0,0,0,335.78,599Z"/><path class="cls-12" d="M376.85,599a3.84,3.84,0,1,0,4.13,3.82A4,4,0,0,0,376.85,599Z"/><path class="cls-12" d="M417.92,599a3.84,3.84,0,1,0,4.12,3.82A4,4,0,0,0,417.92,599Z"/><path class="cls-12" d="M459,599a3.84,3.84,0,1,0,4.12,3.82A4,4,0,0,0,459,599Z"/><path class="cls-12" d="M500.05,599a3.84,3.84,0,1,0,4.13,3.82A4,4,0,0,0,500.05,599Z"/><path class="cls-12" d="M541.12,599a3.84,3.84,0,1,0,4.12,3.82A4,4,0,0,0,541.12,599Z"/><path class="cls-12" d="M253.65,623.77a3.84,3.84,0,1,0,4.13,3.82A4,4,0,0,0,253.65,623.77Z"/><path class="cls-12" d="M294.72,623.77a3.84,3.84,0,1,0,4.12,3.82A4,4,0,0,0,294.72,623.77Z"/><path class="cls-12" d="M335.78,623.77a3.84,3.84,0,1,0,4.13,3.82A4,4,0,0,0,335.78,623.77Z"/><path class="cls-12" d="M376.85,623.77a3.84,3.84,0,1,0,4.13,3.82A4,4,0,0,0,376.85,623.77Z"/><path class="cls-12" d="M417.92,623.77a3.84,3.84,0,1,0,4.12,3.82A4,4,0,0,0,417.92,623.77Z"/><path class="cls-12" d="M459,623.77a3.84,3.84,0,1,0,4.12,3.82A4,4,0,0,0,459,623.77Z"/><path class="cls-12" d="M500.05,623.77a3.84,3.84,0,1,0,4.13,3.82A4,4,0,0,0,500.05,623.77Z"/><path class="cls-12" d="M541.12,623.77a3.84,3.84,0,1,0,4.13,3.82A4,4,0,0,0,541.12,623.77Z"/><path class="cls-12" d="M253.65,648.51a3.84,3.84,0,1,0,4.13,3.82A4,4,0,0,0,253.65,648.51Z"/><path class="cls-12" d="M294.72,648.51a3.84,3.84,0,1,0,4.12,3.82A4,4,0,0,0,294.72,648.51Z"/><path class="cls-12" d="M335.78,648.51a3.84,3.84,0,1,0,4.13,3.82A4,4,0,0,0,335.78,648.51Z"/><path class="cls-12" d="M376.85,648.51a3.84,3.84,0,1,0,4.13,3.82A4,4,0,0,0,376.85,648.51Z"/><path class="cls-12" d="M417.92,648.51a3.84,3.84,0,1,0,4.12,3.82A4,4,0,0,0,417.92,648.51Z"/><path class="cls-12" d="M459,648.51a3.84,3.84,0,1,0,4.12,3.82A4,4,0,0,0,459,648.51Z"/><path class="cls-12" d="M500.05,648.51a3.84,3.84,0,1,0,4.13,3.82A4,4,0,0,0,500.05,648.51Z"/><path class="cls-12" d="M541.12,648.51a3.84,3.84,0,1,0,4.13,3.82A4,4,0,0,0,541.12,648.51Z"/><path class="cls-12" d="M253.65,673.25a3.84,3.84,0,1,0,4.13,3.82A4,4,0,0,0,253.65,673.25Z"/><path class="cls-12" d="M294.72,673.25a3.84,3.84,0,1,0,4.12,3.82A4,4,0,0,0,294.72,673.25Z"/><path class="cls-12" d="M335.78,673.25a3.84,3.84,0,1,0,4.13,3.82A4,4,0,0,0,335.78,673.25Z"/><path class="cls-12" d="M376.85,673.25a3.84,3.84,0,1,0,4.13,3.82A4,4,0,0,0,376.85,673.25Z"/><path class="cls-12" d="M417.92,673.25a3.84,3.84,0,1,0,4.12,3.82A4,4,0,0,0,417.92,673.25Z"/><path class="cls-12" d="M459,673.25a3.84,3.84,0,1,0,4.12,3.82A4,4,0,0,0,459,673.25Z"/><path class="cls-12" d="M500.05,673.25a3.84,3.84,0,1,0,4.13,3.82A4,4,0,0,0,500.05,673.25Z"/><path class="cls-12" d="M541.12,673.25a3.84,3.84,0,1,0,4.13,3.82A4,4,0,0,0,541.12,673.25Z"/><path class="cls-12" d="M253.65,698a3.84,3.84,0,1,0,4.13,3.82A4,4,0,0,0,253.65,698Z"/><path class="cls-12" d="M294.72,698a3.84,3.84,0,1,0,4.13,3.82A4,4,0,0,0,294.72,698Z"/><path class="cls-12" d="M335.78,698a3.84,3.84,0,1,0,4.13,3.82A4,4,0,0,0,335.78,698Z"/><path class="cls-12" d="M376.85,698a3.84,3.84,0,1,0,4.13,3.82A4,4,0,0,0,376.85,698Z"/><path class="cls-12" d="M417.92,698a3.84,3.84,0,1,0,4.12,3.82A4,4,0,0,0,417.92,698Z"/><path class="cls-12" d="M459,698a3.84,3.84,0,1,0,4.12,3.82A4,4,0,0,0,459,698Z"/><path class="cls-12" d="M500.05,698a3.84,3.84,0,1,0,4.13,3.82A4,4,0,0,0,500.05,698Z"/><path class="cls-12" d="M541.12,698a3.84,3.84,0,1,0,4.13,3.82A4,4,0,0,0,541.12,698Z"/></g><g class="cls-13"><path class="cls-12" d="M7.44,77.55a3.83,3.83,0,1,0,0,7.64,3.83,3.83,0,1,0,0-7.64Z"/><path class="cls-12" d="M48.5,77.55a3.83,3.83,0,1,0,4.13,3.82A4,4,0,0,0,48.5,77.55Z"/><path class="cls-12" d="M89.57,77.55a3.83,3.83,0,1,0,4.13,3.82A4,4,0,0,0,89.57,77.55Z"/><path class="cls-12" d="M130.64,85.19a3.83,3.83,0,1,0-4.13-3.82A4,4,0,0,0,130.64,85.19Z"/><path class="cls-12" d="M7.44,102.28a3.84,3.84,0,1,0,0,7.65,3.84,3.84,0,1,0,0-7.65Z"/><path class="cls-12" d="M48.5,102.28a3.84,3.84,0,1,0,4.13,3.83A4,4,0,0,0,48.5,102.28Z"/><path class="cls-12" d="M89.57,102.28a3.84,3.84,0,1,0,4.13,3.83A4,4,0,0,0,89.57,102.28Z"/><path class="cls-12" d="M130.64,102.28a3.84,3.84,0,1,0,4.12,3.83A4,4,0,0,0,130.64,102.28Z"/><path class="cls-12" d="M7.44,127a3.84,3.84,0,1,0,0,7.65,3.84,3.84,0,1,0,0-7.65Z"/><path class="cls-12" d="M48.5,127a3.84,3.84,0,1,0,4.13,3.82A4,4,0,0,0,48.5,127Z"/><path class="cls-12" d="M89.57,127a3.84,3.84,0,1,0,4.13,3.82A4,4,0,0,0,89.57,127Z"/><path class="cls-12" d="M130.64,127a3.84,3.84,0,1,0,4.12,3.82A4,4,0,0,0,130.64,127Z"/><path class="cls-12" d="M7.44,151.76a3.84,3.84,0,1,0,0,7.65,3.84,3.84,0,1,0,0-7.65Z"/><path class="cls-12" d="M48.5,151.76a3.84,3.84,0,1,0,4.13,3.82A4,4,0,0,0,48.5,151.76Z"/><path class="cls-12" d="M89.57,151.76a3.84,3.84,0,1,0,4.13,3.82A4,4,0,0,0,89.57,151.76Z"/><path class="cls-12" d="M130.64,151.76a3.84,3.84,0,1,0,4.12,3.82A4,4,0,0,0,130.64,151.76Z"/><path class="cls-12" d="M7.44,176.5a3.84,3.84,0,1,0,0,7.65,3.84,3.84,0,1,0,0-7.65Z"/><path class="cls-12" d="M48.5,176.5a3.84,3.84,0,1,0,4.13,3.82A4,4,0,0,0,48.5,176.5Z"/><path class="cls-12" d="M89.57,176.5a3.84,3.84,0,1,0,4.13,3.82A4,4,0,0,0,89.57,176.5Z"/><path class="cls-12" d="M130.64,176.5a3.84,3.84,0,1,0,4.12,3.82A4,4,0,0,0,130.64,176.5Z"/><path class="cls-12" d="M7.44,201.24a3.84,3.84,0,1,0,0,7.65,3.84,3.84,0,1,0,0-7.65Z"/><path class="cls-12" d="M48.5,201.24a3.84,3.84,0,1,0,4.13,3.82A4,4,0,0,0,48.5,201.24Z"/><path class="cls-12" d="M89.57,201.24a3.84,3.84,0,1,0,4.13,3.82A4,4,0,0,0,89.57,201.24Z"/><path class="cls-12" d="M130.64,201.24a3.84,3.84,0,1,0,4.12,3.82A4,4,0,0,0,130.64,201.24Z"/></g></g></g><g class="cls-11"><g class="cls-10"><path class="cls-14" d="M1540,131.54l-203,188.1a21.68,21.68,0,0,0,0,32.3l5.81,5.38a26,26,0,0,0,34.85,0L1540,206.89Z"/><path class="cls-15" d="M1222.58,952.2l59.78-55.41a21.67,21.67,0,0,0,0-32.29l-5.81-5.38a26,26,0,0,0-34.84,0L1141.27,952.2Z"/><path class="cls-16" d="M169.37,754.92l-5.81-5.38a26,26,0,0,0-34.84,0L0,868.83v75.36l169.37-157A21.67,21.67,0,0,0,169.37,754.92Z"/><path class="cls-17" d="M379.41,0,258.16,112.37a21.67,21.67,0,0,0,0,32.29l5.81,5.39a26,26,0,0,0,34.85,0L460.72,0Z"/></g></g><path class="cls-18" d="M1401.8,239.72a2.21,2.21,0,1,1-2.21,2.21A2.21,2.21,0,0,1,1401.8,239.72Z"/><path class="cls-18" d="M1401.8,218.92a2.22,2.22,0,1,1-2.21,2.22A2.21,2.21,0,0,1,1401.8,218.92Z"/><path class="cls-18" d="M1401.8,198.13a2.21,2.21,0,1,1-2.21,2.21A2.21,2.21,0,0,1,1401.8,198.13Z"/><path class="cls-18" d="M1401.8,177.33a2.22,2.22,0,1,1-2.21,2.22A2.21,2.21,0,0,1,1401.8,177.33Z"/><path class="cls-18" d="M1401.8,156.54a2.21,2.21,0,1,1-2.21,2.21A2.21,2.21,0,0,1,1401.8,156.54Z"/><path class="cls-18" d="M1401.8,135.74a2.22,2.22,0,1,1-2.21,2.22A2.21,2.21,0,0,1,1401.8,135.74Z"/><path class="cls-18" d="M1401.8,115a2.21,2.21,0,1,1-2.21,2.21A2.21,2.21,0,0,1,1401.8,115Z"/><path class="cls-18" d="M1401.8,94.15a2.22,2.22,0,1,1-2.21,2.22A2.21,2.21,0,0,1,1401.8,94.15Z"/><path class="cls-18" d="M1401.8,73.36a2.21,2.21,0,1,1-2.21,2.21A2.21,2.21,0,0,1,1401.8,73.36Z"/><path class="cls-18" d="M1401.8,52.57a2.21,2.21,0,1,1-2.21,2.21A2.21,2.21,0,0,1,1401.8,52.57Z"/><path class="cls-18" d="M1401.8,31.77a2.21,2.21,0,1,1-2.21,2.21A2.21,2.21,0,0,1,1401.8,31.77Z"/><path class="cls-18" d="M1420.47,239.72a2.21,2.21,0,1,1-2.21,2.21A2.21,2.21,0,0,1,1420.47,239.72Z"/><path class="cls-18" d="M1420.47,218.92a2.22,2.22,0,1,1-2.21,2.22A2.21,2.21,0,0,1,1420.47,218.92Z"/><path class="cls-18" d="M1420.47,198.13a2.21,2.21,0,1,1-2.21,2.21A2.21,2.21,0,0,1,1420.47,198.13Z"/><path class="cls-18" d="M1420.47,177.33a2.22,2.22,0,1,1-2.21,2.22A2.21,2.21,0,0,1,1420.47,177.33Z"/><path class="cls-18" d="M1420.47,156.54a2.21,2.21,0,1,1-2.21,2.21A2.21,2.21,0,0,1,1420.47,156.54Z"/><path class="cls-18" d="M1420.47,135.74a2.22,2.22,0,1,1-2.21,2.22A2.21,2.21,0,0,1,1420.47,135.74Z"/><path class="cls-18" d="M1420.47,115a2.21,2.21,0,1,1-2.21,2.21A2.21,2.21,0,0,1,1420.47,115Z"/><path class="cls-18" d="M1420.47,94.15a2.22,2.22,0,1,1-2.21,2.22A2.21,2.21,0,0,1,1420.47,94.15Z"/><path class="cls-18" d="M1420.47,73.36a2.21,2.21,0,1,1-2.21,2.21A2.21,2.21,0,0,1,1420.47,73.36Z"/><path class="cls-18" d="M1420.47,52.57a2.21,2.21,0,1,1-2.21,2.21A2.21,2.21,0,0,1,1420.47,52.57Z"/><path class="cls-18" d="M1420.47,31.77a2.21,2.21,0,1,1-2.21,2.21A2.21,2.21,0,0,1,1420.47,31.77Z"/><path class="cls-18" d="M1439.15,239.72a2.21,2.21,0,1,1-2.22,2.21A2.21,2.21,0,0,1,1439.15,239.72Z"/><path class="cls-18" d="M1439.15,218.92a2.22,2.22,0,1,1-2.22,2.22A2.21,2.21,0,0,1,1439.15,218.92Z"/><path class="cls-18" d="M1439.15,198.13a2.21,2.21,0,1,1-2.22,2.21A2.21,2.21,0,0,1,1439.15,198.13Z"/><path class="cls-18" d="M1439.15,177.33a2.22,2.22,0,1,1-2.22,2.22A2.21,2.21,0,0,1,1439.15,177.33Z"/><path class="cls-18" d="M1439.15,156.54a2.21,2.21,0,1,1-2.22,2.21A2.21,2.21,0,0,1,1439.15,156.54Z"/><path class="cls-18" d="M1439.15,135.74a2.22,2.22,0,1,1-2.22,2.22A2.21,2.21,0,0,1,1439.15,135.74Z"/><path class="cls-18" d="M1439.15,115a2.21,2.21,0,1,1-2.22,2.21A2.21,2.21,0,0,1,1439.15,115Z"/><path class="cls-18" d="M1439.15,94.15a2.22,2.22,0,1,1-2.22,2.22A2.21,2.21,0,0,1,1439.15,94.15Z"/><path class="cls-18" d="M1439.15,73.36a2.21,2.21,0,1,1-2.22,2.21A2.21,2.21,0,0,1,1439.15,73.36Z"/><path class="cls-18" d="M1439.15,52.57a2.21,2.21,0,1,1-2.22,2.21A2.21,2.21,0,0,1,1439.15,52.57Z"/><path class="cls-18" d="M1439.15,31.77a2.21,2.21,0,1,1-2.22,2.21A2.21,2.21,0,0,1,1439.15,31.77Z"/><circle class="cls-18" cx="1457.82" cy="241.93" r="2.21"/><circle class="cls-18" cx="1457.82" cy="221.14" r="2.21"/><path class="cls-18" d="M1457.82,198.13a2.21,2.21,0,1,1-2.21,2.21A2.21,2.21,0,0,1,1457.82,198.13Z"/><circle class="cls-18" cx="1457.82" cy="179.55" r="2.21"/><circle class="cls-18" cx="1457.82" cy="158.75" r="2.21"/><circle class="cls-18" cx="1457.82" cy="137.96" r="2.21"/><circle class="cls-18" cx="1457.82" cy="117.16" r="2.21"/><circle class="cls-18" cx="1457.82" cy="96.37" r="2.21"/><circle class="cls-18" cx="1457.82" cy="75.57" r="2.21"/><path class="cls-18" d="M1457.82,52.57a2.21,2.21,0,1,1-2.21,2.21A2.21,2.21,0,0,1,1457.82,52.57Z"/><path class="cls-18" d="M1457.82,31.77a2.21,2.21,0,1,1-2.21,2.21A2.21,2.21,0,0,1,1457.82,31.77Z"/><circle class="cls-18" cx="1476.49" cy="241.93" r="2.21"/><circle class="cls-18" cx="1476.49" cy="221.14" r="2.21"/><path class="cls-18" d="M1476.49,198.13a2.21,2.21,0,1,1-2.21,2.21A2.21,2.21,0,0,1,1476.49,198.13Z"/><circle class="cls-18" cx="1476.49" cy="179.55" r="2.21"/><circle class="cls-18" cx="1476.49" cy="158.75" r="2.21"/><circle class="cls-18" cx="1476.49" cy="137.96" r="2.21"/><circle class="cls-18" cx="1476.49" cy="117.16" r="2.21"/><circle class="cls-18" cx="1476.49" cy="96.37" r="2.21"/><circle class="cls-18" cx="1476.49" cy="75.57" r="2.21"/><path class="cls-18" d="M1476.49,52.57a2.21,2.21,0,1,1-2.21,2.21A2.21,2.21,0,0,1,1476.49,52.57Z"/><path class="cls-18" d="M1476.49,31.77a2.21,2.21,0,1,1-2.21,2.21A2.21,2.21,0,0,1,1476.49,31.77Z"/><circle class="cls-18" cx="1495.17" cy="241.93" r="2.21"/><circle class="cls-18" cx="1495.17" cy="221.14" r="2.21"/><path class="cls-18" d="M1495.17,198.13a2.21,2.21,0,1,1-2.21,2.21A2.21,2.21,0,0,1,1495.17,198.13Z"/><circle class="cls-18" cx="1495.17" cy="179.55" r="2.21"/><circle class="cls-18" cx="1495.17" cy="158.75" r="2.21"/><circle class="cls-18" cx="1495.17" cy="137.96" r="2.21"/><circle class="cls-18" cx="1495.17" cy="117.16" r="2.21"/><circle class="cls-18" cx="1495.17" cy="96.37" r="2.21"/><circle class="cls-18" cx="1495.17" cy="75.57" r="2.21"/><path class="cls-18" d="M1495.17,52.57a2.21,2.21,0,1,1-2.21,2.21A2.21,2.21,0,0,1,1495.17,52.57Z"/><path class="cls-18" d="M1495.17,31.77A2.21,2.21,0,1,1,1493,34,2.21,2.21,0,0,1,1495.17,31.77Z"/><rect class="cls-1" y="0.69" width="1540" height="951.51"/><g class="cls-19"><path class="cls-1" d="M1520.63,301.6l-74.77,74.77a58.2,58.2,0,0,0,2.75,7.23l79.25-79.25A58.2,58.2,0,0,0,1520.63,301.6Z"/><path class="cls-1" d="M1530.46,305.61l-80.59,80.58a58.71,58.71,0,0,0,3.73,6.26l83.11-83.11A59.58,59.58,0,0,0,1530.46,305.61Z"/><path class="cls-1" d="M1503,299a60.12,60.12,0,0,0-8,.54l-51.29,51.29a60.12,60.12,0,0,0-.54,8c0,.83,0,1.65.06,2.47L1505.51,299C1504.69,299,1503.87,299,1503,299Z"/><path class="cls-1" d="M1474.52,306.18l-24.08,24.08a59.78,59.78,0,0,0-5.87,15.86l45.81-45.81A59.78,59.78,0,0,0,1474.52,306.18Z"/><path class="cls-1" d="M1509.12,299.27l-65.59,65.59a59.55,59.55,0,0,0,1.49,8.49l72.59-72.59A57.94,57.94,0,0,0,1509.12,299.27Z"/><path class="cls-18" d="M1450.44,330.26l24.08-24.08A60.26,60.26,0,0,0,1450.44,330.26Z"/><path class="cls-18" d="M1490.38,300.31l-45.81,45.81c-.33,1.54-.6,3.09-.81,4.67l51.29-51.29C1493.48,299.71,1491.92,300,1490.38,300.31Z"/><path class="cls-18" d="M1505.51,299l-62.23,62.23c0,1.21.13,2.41.25,3.61l65.59-65.59C1507.93,299.15,1506.72,299.07,1505.51,299Z"/><path class="cls-18" d="M1517.61,300.76,1445,373.35c.25,1,.53,2,.84,3l74.77-74.77C1519.64,301.29,1518.63,301,1517.61,300.76Z"/><path class="cls-18" d="M1527.86,304.35l-79.25,79.25c.4.88.82,1.74,1.26,2.59l80.59-80.58C1529.6,305.17,1528.74,304.75,1527.86,304.35Z"/><path class="cls-18" d="M1536.71,309.34l-83.11,83.11c.52.76,1.05,1.51,1.61,2.24L1539,311C1538.22,310.39,1537.47,309.86,1536.71,309.34Z"/><path class="cls-1" d="M1540,311.78c-.35-.27-.69-.56-1-.83l-83.74,83.74a59.1,59.1,0,0,0,4.58,5.4l80.21-80.2Z"/><path class="cls-1" d="M1540,323.74,1461.72,402a62.3,62.3,0,0,0,5.4,4.59L1540,333.72Z"/><path class="cls-1" d="M1540,392.93l-24.31,24.31a59.3,59.3,0,0,0,15.86-5.87l8.45-8.45Z"/><path class="cls-1" d="M1540,337.58l-70.64,70.63a59.8,59.8,0,0,0,6.26,3.74L1540,347.56Z"/><path class="cls-1" d="M1540,379.09l-39.44,39.44c.82,0,1.65.06,2.48.06a61.82,61.82,0,0,0,8-.53l29-29Z"/><path class="cls-1" d="M1540,351.42l-61.79,61.79a62.23,62.23,0,0,0,7.23,2.75L1540,361.4Z"/><path class="cls-1" d="M1540,365.26l-51.54,51.54a59.43,59.43,0,0,0,8.5,1.48l43-43Z"/><path class="cls-18" d="M1540,319.89l-80.21,80.2c.63.66,1.27,1.3,1.93,1.93L1540,323.74Z"/><path class="cls-18" d="M1540,333.72l-72.88,72.89c.73.55,1.48,1.08,2.24,1.6L1540,337.58Z"/><path class="cls-18" d="M1540,347.56,1475.62,412c.85.44,1.71.86,2.59,1.26L1540,351.42Z"/><path class="cls-18" d="M1540,361.4,1485.44,416c1,.3,2,.58,3,.84L1540,365.26Z"/><path class="cls-18" d="M1540,375.24l-43,43c1.19.12,2.39.2,3.6.25L1540,379.09Z"/><path class="cls-18" d="M1540,389.08l-29,29c1.58-.21,3.13-.49,4.67-.82L1540,392.93Z"/><path class="cls-18" d="M1531.55,411.37a59.65,59.65,0,0,0,8.45-5.58v-2.87Z"/></g></g></g></g></svg>