<svg xmlns="http://www.w3.org/2000/svg" viewBox="0 0 249.8 249.8"><defs><style>.cls-1{opacity:0.09;}.cls-2{fill:#00bdff;}.cls-3{opacity:0.25;}</style></defs><g id="Layer_2" data-name="Layer 2"><g id="Layer_3" data-name="Layer 3"><g class="cls-1"><path class="cls-2" d="M124.9,249.8A124.9,124.9,0,1,1,249.8,124.9,125,125,0,0,1,124.9,249.8Zm0-229.8A104.9,104.9,0,1,0,229.8,124.9,105.1,105.1,0,0,0,124.9,20Z"/></g><g class="cls-3"><path class="cls-2" d="M124.9,222.5a97.6,97.6,0,1,1,97.6-97.6A97.7,97.7,0,0,1,124.9,222.5Zm0-193.2a95.6,95.6,0,1,0,95.6,95.6A95.7,95.7,0,0,0,124.9,29.3Z"/></g></g></g></svg>