<svg xmlns="http://www.w3.org/2000/svg" viewBox="0 0 28.07 37.43"><defs><style>.cls-1{fill:#fff;}</style></defs><g id="Layer_2" data-name="Layer 2"><g id="Layer_1-2" data-name="Layer 1"><path class="cls-1" d="M27.85,26.74,12.25,11.15a.78.78,0,0,0-1.33.55V33.29a.77.77,0,0,0,.44.7.77.77,0,0,0,.82-.08l4-3.1L19.59,37a.78.78,0,0,0,.68.4.72.72,0,0,0,.35-.08L25.3,35a.76.76,0,0,0,.4-.46.8.8,0,0,0-.06-.61l-3.26-5.86h4.91a.79.79,0,0,0,.56-1.34Zm-6.79-.22a.78.78,0,0,0-.68.38.8.8,0,0,0,0,.78L23.88,34l-3.29,1.64-3.53-6.36a.81.81,0,0,0-.53-.39h-.15a.73.73,0,0,0-.48.16l-3.42,2.67V13.58L25.41,26.52Z"/><path class="cls-1" d="M11.7,0a.78.78,0,0,0-.78.78V5.46a.78.78,0,0,0,1.56,0V.78A.78.78,0,0,0,11.7,0Z"/><path class="cls-1" d="M5.46,10.92H.78a.78.78,0,0,0,0,1.56H5.46a.78.78,0,1,0,0-1.56Z"/><path class="cls-1" d="M22.61,10.92H17.94a.78.78,0,0,0,0,1.56h4.67a.78.78,0,1,0,0-1.56Z"/><path class="cls-1" d="M7.84,6.73,4.53,3.43a.78.78,0,0,0-1.11,1.1L6.73,7.84a.81.81,0,0,0,.56.22.77.77,0,0,0,.55-.22A.8.8,0,0,0,7.84,6.73Z"/><path class="cls-1" d="M7.84,15.56a.78.78,0,0,0-1.11,0L3.42,18.87a.78.78,0,0,0,0,1.1A.82.82,0,0,0,4,20.2.78.78,0,0,0,4.53,20l3.31-3.31A.78.78,0,0,0,7.84,15.56Z"/><path class="cls-1" d="M20,3.43a.78.78,0,0,0-1.11,0l-3.3,3.3a.78.78,0,0,0,0,1.11.8.8,0,0,0,1.1,0L20,4.53A.78.78,0,0,0,20,3.43Z"/></g></g></svg>