<svg xmlns="http://www.w3.org/2000/svg" viewBox="0 0 113.4 104.8"><defs><style>.cls-1{fill:#00bdff;}</style></defs><g id="Layer_2" data-name="Layer 2"><g id="Layer_3" data-name="Layer 3"><path class="cls-1" d="M3.3,1.7A1.6,1.6,0,0,0,1.7,0,1.6,1.6,0,0,0,0,1.7,1.6,1.6,0,0,0,1.7,3.3,1.6,1.6,0,0,0,3.3,1.7Z"/><path class="cls-1" d="M30.9,1.7a1.7,1.7,0,1,0-3.4,0,1.7,1.7,0,0,0,3.4,0Z"/><path class="cls-1" d="M58.4,1.7a1.7,1.7,0,1,0-3.4,0,1.7,1.7,0,0,0,3.4,0Z"/><path class="cls-1" d="M85.9,1.7a1.7,1.7,0,0,0-3.4,0,1.7,1.7,0,0,0,3.4,0Z"/><path class="cls-1" d="M113.4,1.7a1.7,1.7,0,0,0-3.4,0,1.7,1.7,0,0,0,3.4,0Z"/><path class="cls-1" d="M3.3,27a1.6,1.6,0,0,0-1.6-1.6A1.6,1.6,0,0,0,0,27a1.6,1.6,0,0,0,1.7,1.7A1.6,1.6,0,0,0,3.3,27Z"/><path class="cls-1" d="M30.9,27a1.7,1.7,0,0,0-3.4,0,1.7,1.7,0,1,0,3.4,0Z"/><path class="cls-1" d="M58.4,27A1.7,1.7,0,0,0,55,27a1.7,1.7,0,1,0,3.4,0Z"/><path class="cls-1" d="M85.9,27a1.7,1.7,0,0,0-3.4,0,1.7,1.7,0,0,0,3.4,0Z"/><path class="cls-1" d="M113.4,27a1.7,1.7,0,0,0-3.4,0,1.7,1.7,0,0,0,3.4,0Z"/><path class="cls-1" d="M3.3,52.4a1.7,1.7,0,0,0-1.6-1.7,1.7,1.7,0,0,0,0,3.4A1.7,1.7,0,0,0,3.3,52.4Z"/><path class="cls-1" d="M30.9,52.4a1.7,1.7,0,1,0-1.7,1.7A1.8,1.8,0,0,0,30.9,52.4Z"/><path class="cls-1" d="M58.4,52.4a1.7,1.7,0,1,0-1.7,1.7A1.8,1.8,0,0,0,58.4,52.4Z"/><path class="cls-1" d="M85.9,52.4a1.7,1.7,0,1,0-1.7,1.7A1.8,1.8,0,0,0,85.9,52.4Z"/><path class="cls-1" d="M113.4,52.4a1.7,1.7,0,1,0-1.7,1.7A1.8,1.8,0,0,0,113.4,52.4Z"/><path class="cls-1" d="M3.3,77.8a1.7,1.7,0,0,0-1.6-1.7,1.7,1.7,0,0,0,0,3.4A1.7,1.7,0,0,0,3.3,77.8Z"/><path class="cls-1" d="M30.9,77.8a1.7,1.7,0,1,0-1.7,1.7A1.8,1.8,0,0,0,30.9,77.8Z"/><path class="cls-1" d="M58.4,77.8a1.7,1.7,0,1,0-1.7,1.7A1.8,1.8,0,0,0,58.4,77.8Z"/><path class="cls-1" d="M85.9,77.8a1.7,1.7,0,1,0-1.7,1.7A1.8,1.8,0,0,0,85.9,77.8Z"/><path class="cls-1" d="M113.4,77.8a1.7,1.7,0,1,0-1.7,1.7A1.8,1.8,0,0,0,113.4,77.8Z"/><path class="cls-1" d="M3.3,103.2a1.6,1.6,0,0,0-1.6-1.7A1.6,1.6,0,0,0,0,103.2a1.6,1.6,0,0,0,1.7,1.6A1.6,1.6,0,0,0,3.3,103.2Z"/><path class="cls-1" d="M30.9,103.2a1.7,1.7,0,1,0-3.4,0,1.7,1.7,0,0,0,3.4,0Z"/><path class="cls-1" d="M58.4,103.2a1.7,1.7,0,1,0-3.4,0,1.7,1.7,0,0,0,3.4,0Z"/><path class="cls-1" d="M85.9,103.2a1.7,1.7,0,0,0-3.4,0,1.7,1.7,0,0,0,3.4,0Z"/><path class="cls-1" d="M113.4,103.2a1.7,1.7,0,0,0-3.4,0,1.7,1.7,0,0,0,3.4,0Z"/></g></g></svg>