<?xml version="1.0" encoding="UTF-8"?><svg id="Layer_2" xmlns="http://www.w3.org/2000/svg" viewBox="0 0 141.16 32.54"><defs><style>.cls-1{fill:#fff;}.cls-2{fill:red;}</style></defs><g id="Layer_1-2"><g><rect class="cls-2" x="0" width="141.16" height="32.54" rx="11.81" ry="11.81"/><path class="cls-1" d="M36.33,9.45c-.33-1.21-1.28-2.17-2.5-2.5-2.22-.61-11.08-.61-11.08-.61,0,0-8.87,0-11.08,.58-1.19,.33-2.17,1.31-2.5,2.52-.58,2.22-.58,6.81-.58,6.81,0,0,0,4.62,.58,6.81,.33,1.21,1.28,2.17,2.5,2.5,2.24,.61,11.08,.61,11.08,.61,0,0,8.87,0,11.08-.58,1.21-.33,2.17-1.28,2.5-2.5,.58-2.22,.58-6.81,.58-6.81,0,0,.02-4.62-.58-6.84Z"/><path class="cls-2" d="M19.92,20.52l7.37-4.25-7.37-4.25v8.49Z"/><g><path class="cls-1" d="M59.16,12.17l-3,9.04h-1.78l-2.23-6.69-2.27,6.69h-1.79l-3-9.04h1.74l2.25,6.87,2.34-6.87h1.55l2.29,6.91,2.31-6.91h1.6Z"/><path class="cls-1" d="M65.63,17.17v4.04h-1.52v-.84c-.39,.59-1.14,.93-2.17,.93-1.57,0-2.57-.86-2.57-2.07s.77-2.05,2.87-2.05h1.78v-.1c0-.94-.57-1.5-1.72-1.5-.77,0-1.58,.26-2.09,.68l-.63-1.17c.74-.57,1.81-.85,2.92-.85,1.99,0,3.14,.94,3.14,2.93Zm-1.61,1.89v-.8h-1.67c-1.1,0-1.39,.41-1.39,.92,0,.58,.49,.96,1.32,.96s1.47-.36,1.74-1.07Z"/><path class="cls-1" d="M71.84,20.83c-.39,.31-.97,.46-1.55,.46-1.51,0-2.38-.8-2.38-2.32v-3.32h-1.14v-1.29h1.14v-1.58h1.61v1.58h1.85v1.29h-1.85v3.28c0,.67,.34,1.03,.96,1.03,.34,0,.66-.09,.9-.28l.45,1.15Z"/><path class="cls-1" d="M72.37,17.76c0-2.07,1.55-3.52,3.73-3.52,1.34,0,2.41,.56,2.94,1.6l-1.24,.72c-.41-.66-1.03-.96-1.72-.96-1.19,0-2.09,.83-2.09,2.16s.9,2.16,2.09,2.16c.68,0,1.3-.3,1.72-.96l1.24,.72c-.53,1.03-1.6,1.61-2.94,1.61-2.18,0-3.73-1.47-3.73-3.54Z"/><path class="cls-1" d="M87.17,17.26v3.95h-1.61v-3.74c0-1.23-.61-1.82-1.64-1.82-1.15,0-1.92,.7-1.92,2.08v3.49h-1.61V11.63h1.61v3.49c.53-.57,1.34-.88,2.3-.88,1.65,0,2.88,.94,2.88,3.02Z"/><path class="cls-1" d="M101.2,12.17l-3.94,9.04h-1.65l-3.95-9.04h1.82l3.01,6.97,3.03-6.97h1.68Z"/><path class="cls-1" d="M101.84,12.21c0-.54,.44-.97,1.03-.97s1.03,.4,1.03,.93c0,.57-.43,1.01-1.03,1.01s-1.03-.43-1.03-.97Zm.22,2.1h1.61v6.89h-1.61v-6.89Z"/><path class="cls-1" d="M112.55,11.63v9.58h-1.55v-.89c-.54,.66-1.34,.98-2.29,.98-2,0-3.49-1.39-3.49-3.54s1.48-3.52,3.49-3.52c.89,0,1.68,.3,2.22,.93v-3.54h1.61Zm-1.59,6.13c0-1.32-.89-2.16-2.05-2.16s-2.05,.84-2.05,2.16,.89,2.16,2.05,2.16,2.05-.84,2.05-2.16Z"/><path class="cls-1" d="M121.12,18.28h-5.41c.19,1.01,1.03,1.65,2.23,1.65,.77,0,1.38-.25,1.87-.75l.87,.99c-.62,.74-1.59,1.12-2.78,1.12-2.31,0-3.81-1.48-3.81-3.54s1.51-3.52,3.56-3.52,3.49,1.41,3.49,3.56c0,.13-.01,.32-.03,.48Zm-5.42-1.07h3.91c-.13-.99-.89-1.68-1.95-1.68s-1.81,.67-1.96,1.68Z"/><path class="cls-1" d="M122.13,17.76c0-2.07,1.55-3.52,3.67-3.52s3.68,1.46,3.68,3.52-1.54,3.54-3.68,3.54-3.67-1.47-3.67-3.54Zm5.72,0c0-1.32-.88-2.16-2.05-2.16s-2.04,.84-2.04,2.16,.88,2.16,2.04,2.16,2.05-.84,2.05-2.16Z"/></g></g></g></svg>