<svg xmlns="http://www.w3.org/2000/svg" viewBox="0 0 37.41 35.58"><defs><style>.cls-1{fill:#fff;}</style></defs><g id="Layer_2" data-name="Layer 2"><g id="Layer_1-2" data-name="Layer 1"><path class="cls-1" d="M37.28,20,32.36,9.48a.77.77,0,0,0-.78-.43H27.4a.87.87,0,0,0,0,1.74H31l4.05,8.7h-5a5.7,5.7,0,0,0-5.22,3.35,4,4,0,0,1-3.65,2.3H16.18a4,4,0,0,1-3.65-2.3,5.7,5.7,0,0,0-5.22-3.35H2.44l4.78-8.7H10a.87.87,0,0,0,0-1.74H6.7a.81.81,0,0,0-.78.39L.17,20a.51.51,0,0,0-.17.34V31.15a4.56,4.56,0,0,0,4.48,4.43H32.93a4.56,4.56,0,0,0,4.48-4.43V20.31A.67.67,0,0,0,37.28,20ZM35.67,31.15a2.82,2.82,0,0,1-2.74,2.69H4.48a2.82,2.82,0,0,1-2.74-2.69V21.23H7.31A4,4,0,0,1,11,23.53a5.7,5.7,0,0,0,5.22,3.35h5.05a5.7,5.7,0,0,0,5.22-3.35,4,4,0,0,1,3.65-2.3h5.57v9.92Z"/><path class="cls-1" d="M18.1,20.14a.81.81,0,0,0,1.16.05s0,0,0-.05l5.92-6A.87.87,0,0,0,25.06,13a.89.89,0,0,0-1,0L19.57,17.4V.87a.87.87,0,1,0-1.74,0V17.4L13.4,13a.87.87,0,0,0-1.22,1.22Z"/></g></g></svg>