<svg xmlns="http://www.w3.org/2000/svg" viewBox="0 0 69.23 116.69"><defs><style>.cls-1{fill:#ffb000;}</style></defs><title>Left</title><g id="Layer_2" data-name="Layer 2"><g id="Layer_1-2" data-name="Layer 1"><path class="cls-1" d="M67.36,116.69S61,108.89,46,106.36C31.46,103,13.85,88.76,9.33,68.82,4.1,49.06,12.91,28.41,24.16,18.76,35.34,8.62,45.82,7,45.61,6.9c.25.3-10.14,2.11-21,12.29-11,9.71-19.35,30.1-14,49.32,4.61,19.42,21.85,33,35.93,36.18a48.92,48.92,0,0,1,9,2.27C65.4,110.48,69.23,115,69.23,115Z"/><path class="cls-1" d="M41.7,94s4.07,1.4,5.43,4.65a13.7,13.7,0,0,1,1,7.46S44,104,42.63,101.81C40.71,98.72,41.7,94,41.7,94Z"/><path class="cls-1" d="M34.55,111.86s4.12,1.26,7.13-.57a13.69,13.69,0,0,0,5.16-5.47s-4.55-.69-7,.29C36.51,107.49,34.55,111.86,34.55,111.86Z"/><path class="cls-1" d="M35.35,90.52s3.7,2,4.45,5.41a13.43,13.43,0,0,1-.35,7.37s-3.58-2.74-4.52-5.1C33.6,94.88,35.35,90.52,35.35,90.52Z"/><path class="cls-1" d="M25.41,106.52s3.76,1.92,7,.66a13.43,13.43,0,0,0,5.91-4.4s-4.28-1.44-6.76-.9C28.06,102.63,25.41,106.52,25.41,106.52Z"/><path class="cls-1" d="M29.66,86s3.22,2.6,3.37,6A13.16,13.16,0,0,1,31.44,99s-3-3.26-3.5-5.69C27.22,89.89,29.66,86,29.66,86Z"/><path class="cls-1" d="M17.34,99.73s3.3,2.5,6.62,1.83a13.17,13.17,0,0,0,6.46-3.24s-3.88-2.11-6.37-2C20.56,96.43,17.34,99.73,17.34,99.73Z"/><path class="cls-1" d="M24.82,80.47s2.66,3.06,2.23,6.34a12.89,12.89,0,0,1-2.73,6.53S22,89.69,21.92,87.25C21.81,83.83,24.82,80.47,24.82,80.47Z"/><path class="cls-1" d="M10.6,91.64s2.76,3,6.08,2.89a12.88,12.88,0,0,0,6.78-2s-3.39-2.7-5.8-3C14.26,89,10.6,91.64,10.6,91.64Z"/><path class="cls-1" d="M21,74.22s2.05,3.41,1.08,6.5a12.63,12.63,0,0,1-3.75,5.84S16.69,82.64,17,80.27C17.5,77,21,74.22,21,74.22Z"/><path class="cls-1" d="M5.35,82.58s2.16,3.34,5.37,3.82a12.64,12.64,0,0,0,6.89-.8s-2.81-3.18-5.08-3.92C9.34,80.66,5.35,82.58,5.35,82.58Z"/><path class="cls-1" d="M18.34,67.42s1.4,3.64-.07,6.46a12.37,12.37,0,0,1-4.61,5s-.9-4.06-.17-6.29C14.52,69.47,18.34,67.42,18.34,67.42Z"/><path class="cls-1" d="M1.83,72.84s1.52,3.59,4.53,4.6a12.39,12.39,0,0,0,6.79.4S11,74.29,8.92,73.2C6,71.66,1.83,72.84,1.83,72.84Z"/><path class="cls-1" d="M16.88,60.31s.73,3.75-1.16,6.22a12.14,12.14,0,0,1-5.3,4s-.18-4.07.9-6.1C12.84,61.63,16.88,60.31,16.88,60.31Z"/><path class="cls-1" d="M0,62.72s.85,3.72,3.59,5.22a12.14,12.14,0,0,0,6.49,1.54s-1.49-3.8-3.3-5.2C4.26,62.29,0,62.72,0,62.72Z"/><path class="cls-1" d="M16.68,53s.07,3.74-2.19,5.81a11.89,11.89,0,0,1-5.8,3s.52-4,1.91-5.73C12.56,53.59,16.68,53,16.68,53Z"/><path class="cls-1" d="M0,52.46s.19,3.74,2.58,5.65a11.89,11.89,0,0,0,6,2.59s-.79-3.92-2.3-5.59C4.15,52.77,0,52.46,0,52.46Z"/><path class="cls-1" d="M17.72,45.53s-.57,3.62-3.1,5.23a11.64,11.64,0,0,1-6.11,1.91s1.17-3.73,2.82-5.2C13.64,45.4,17.72,45.53,17.72,45.53Z"/><path class="cls-1" d="M1.72,42.18s-.45,3.64,1.53,5.89a11.67,11.67,0,0,0,5.35,3.52s-.1-3.92-1.27-5.78C5.68,43.18,1.72,42.18,1.72,42.18Z"/><path class="cls-1" d="M20.07,38.25s-1.17,3.4-3.88,4.52a11.4,11.4,0,0,1-6.22.8s1.77-3.4,3.61-4.54C16.15,37.43,20.07,38.25,20.07,38.25Z"/><path class="cls-1" d="M5.19,32.29s-1.05,3.44.48,5.94a11.43,11.43,0,0,0,4.56,4.31s.57-3.79-.24-5.8C8.84,33.93,5.19,32.29,5.19,32.29Z"/><path class="cls-1" d="M23.68,31.5s-1.7,3.08-4.51,3.71A11.17,11.17,0,0,1,13,34.92s2.29-3,4.25-3.77C20,30,23.68,31.5,23.68,31.5Z"/><path class="cls-1" d="M10.33,23.21S8.73,26.35,9.78,29A11.19,11.19,0,0,0,13.45,34s1.2-3.56.75-5.64C13.58,25.42,10.33,23.21,10.33,23.21Z"/><path class="cls-1" d="M28.44,25.49s-2.17,2.68-5,2.81A11,11,0,0,1,17.58,27s2.72-2.49,4.75-2.92C25.18,23.46,28.44,25.49,28.44,25.49Z"/><path class="cls-1" d="M17,15.22S14.89,18,15.45,20.74a11,11,0,0,0,2.7,5.39s1.76-3.24,1.69-5.31C19.73,17.9,17,15.22,17,15.22Z"/><path class="cls-1" d="M34.14,20.45s-2.55,2.22-5.3,1.86A10.75,10.75,0,0,1,23.39,20s3-1.94,5.08-2C31.33,17.94,34.14,20.45,34.14,20.45Z"/><path class="cls-1" d="M24.81,8.59s-2.48,2.3-2.41,5.07a10.75,10.75,0,0,0,1.69,5.66s2.25-2.82,2.53-4.84C27,11.64,24.81,8.59,24.81,8.59Z"/><path class="cls-1" d="M40.58,16.5s-2.84,1.71-5.42.9a10.53,10.53,0,0,1-4.87-3.12s3.27-1.35,5.24-1.07C38.3,13.6,40.58,16.5,40.58,16.5Z"/><path class="cls-1" d="M33.6,3.47s-2.78,1.8-3.19,4.48a10.54,10.54,0,0,0,.67,5.75s2.66-2.34,3.27-4.24C35.21,6.79,33.6,3.47,33.6,3.47Z"/><path class="cls-1" d="M47.5,13.77s-3,1.17-5.39-.06a10.3,10.3,0,0,1-4.17-3.84s3.38-.75,5.24-.14C45.79,10.58,47.5,13.77,47.5,13.77Z"/><path class="cls-1" d="M43,0s-3,1.27-3.84,3.78a10.34,10.34,0,0,0-.34,5.66s3-1.81,3.87-3.53C44,3.48,43,0,43,0Z"/><path class="cls-1" d="M43.11,7.75a5.93,5.93,0,0,0,4.23.58,8.14,8.14,0,0,0,3.71-2.53A10.39,10.39,0,0,0,47,5.09C44.82,5.45,43.11,7.75,43.11,7.75Z"/></g></g></svg>