<svg xmlns="http://www.w3.org/2000/svg" viewBox="0 0 182.82 77.89"><defs><style>.cls-1{fill:#fff;}</style></defs><title>Asset 3</title><g id="Layer_2" data-name="Layer 2"><g id="Layer_1-2" data-name="Layer 1"><path class="cls-1" d="M20,72.89A37.33,37.33,0,0,1,5.33,59,38.22,38.22,0,0,1,0,38.95,38.23,38.23,0,0,1,5.33,18.88,37.33,37.33,0,0,1,20,5,43.48,43.48,0,0,1,40.88,0a43.89,43.89,0,0,1,17.7,3.44,35.65,35.65,0,0,1,11.49,7.9A2.61,2.61,0,0,1,70,15.08l-7.43,6.86A2.58,2.58,0,0,1,59,21.87a23.76,23.76,0,0,0-17.25-7,25.14,25.14,0,0,0-12.48,3.07,21.78,21.78,0,0,0-8.55,8.55,25.13,25.13,0,0,0-3.07,12.48,25.12,25.12,0,0,0,3.07,12.48A21.78,21.78,0,0,0,29.26,60,25.14,25.14,0,0,0,41.74,63,23.61,23.61,0,0,0,59,55.94a2.58,2.58,0,0,1,3.57-.08L70,62.72a2.61,2.61,0,0,1,.1,3.72,35,35,0,0,1-11.57,8,44.26,44.26,0,0,1-17.75,3.44A43.26,43.26,0,0,1,20,72.89Z"/><circle class="cls-1" cx="41.78" cy="38.95" r="12.85"/><path class="cls-1" d="M76.18,34.33A5.12,5.12,0,0,0,72.1,36a6.77,6.77,0,0,0-1.42,4.6,6.39,6.39,0,0,0,1.57,4.63,5.62,5.62,0,0,0,4.24,1.63,6.7,6.7,0,0,0,2.4-.38,16.58,16.58,0,0,0,1.89-.86,3.46,3.46,0,0,1,.92,1.16A3.57,3.57,0,0,1,82,48.3a2.83,2.83,0,0,1-1.57,2.4,9.18,9.18,0,0,1-4.79,1A14.14,14.14,0,0,1,71.3,51a9.71,9.71,0,0,1-3.56-2,9.55,9.55,0,0,1-2.4-3.46,12.81,12.81,0,0,1-.88-5,12.38,12.38,0,0,1,.85-4.75,10.08,10.08,0,0,1,2.32-3.47,9.74,9.74,0,0,1,3.44-2.14,12.1,12.1,0,0,1,4.22-.73,9.7,9.7,0,0,1,4.93,1A3.06,3.06,0,0,1,82,33.16a2.69,2.69,0,0,1-.45,1.56,3.72,3.72,0,0,1-1,1,11.39,11.39,0,0,0-1.92-1A6.24,6.24,0,0,0,76.18,34.33Z"/><path class="cls-1" d="M90.77,51l-1.12.19a9.35,9.35,0,0,1-1.5.12,8.1,8.1,0,0,1-1.37-.1,2.33,2.33,0,0,1-1-.42,2,2,0,0,1-.64-.85,3.68,3.68,0,0,1-.22-1.4V28.52L86,28.33a9.39,9.39,0,0,1,1.5-.12,8.12,8.12,0,0,1,1.37.1,2.34,2.34,0,0,1,1,.41,2,2,0,0,1,.64.85,3.65,3.65,0,0,1,.22,1.4Z"/><path class="cls-1" d="M101.39,33.74a14.22,14.22,0,0,1,3.41.38,7.64,7.64,0,0,1,2.63,1.16,5.23,5.23,0,0,1,1.68,2,6.33,6.33,0,0,1,.59,2.82v7.74a2.15,2.15,0,0,1-.5,1.47,5,5,0,0,1-1.19,1,12.36,12.36,0,0,1-6.33,1.35,14.49,14.49,0,0,1-3.3-.35,7.79,7.79,0,0,1-2.52-1,4.72,4.72,0,0,1-1.62-1.76A5.21,5.21,0,0,1,93.64,46a4.67,4.67,0,0,1,1.42-3.66,7.63,7.63,0,0,1,4.39-1.59l4.53-.48V40a1.48,1.48,0,0,0-.88-1.44,6,6,0,0,0-2.54-.43,11.79,11.79,0,0,0-2.56.28,13.73,13.73,0,0,0-2.25.69,2.4,2.4,0,0,1-.76-1,3,3,0,0,1-.31-1.33,2.23,2.23,0,0,1,.43-1.43,3.37,3.37,0,0,1,1.33-.92,10.39,10.39,0,0,1,2.37-.55A20.61,20.61,0,0,1,101.39,33.74Zm.28,13.59a7.65,7.65,0,0,0,1.3-.12,3.18,3.18,0,0,0,1.05-.33V44.12l-2.49.21a3.82,3.82,0,0,0-1.59.41,1.12,1.12,0,0,0-.62,1,1.38,1.38,0,0,0,.54,1.12A2.94,2.94,0,0,0,101.66,47.33Z"/><path class="cls-1" d="M119.16,51a8,8,0,0,1-1.09.21,11.15,11.15,0,0,1-1.54.1,8.12,8.12,0,0,1-1.37-.1,2.33,2.33,0,0,1-1-.42,2,2,0,0,1-.64-.85,3.64,3.64,0,0,1-.23-1.4V38.2a3,3,0,0,1,.3-1.37,3.21,3.21,0,0,1,.85-1,6.11,6.11,0,0,1,1.37-.81,13.94,13.94,0,0,1,1.75-.64,14.7,14.7,0,0,1,1.94-.43,13.1,13.1,0,0,1,2-.16,4.72,4.72,0,0,1,2.63.64,2.32,2.32,0,0,1,1,2.09,3.25,3.25,0,0,1-.14,1,4.26,4.26,0,0,1-.34.85c-.48,0-1,0-1.49.07s-1,.12-1.49.21-.94.19-1.37.29a6,6,0,0,0-1.09.36Z"/><path class="cls-1" d="M127.35,29.59a3,3,0,0,1,.88-2.21,3.48,3.48,0,0,1,4.67,0,3.22,3.22,0,0,1,0,4.43,3.48,3.48,0,0,1-4.67,0A3,3,0,0,1,127.35,29.59ZM133.51,51l-1.12.19a9.42,9.42,0,0,1-1.5.12,8.12,8.12,0,0,1-1.37-.1,2.33,2.33,0,0,1-1-.42,2,2,0,0,1-.64-.85,3.64,3.64,0,0,1-.23-1.4V34.5l1.12-.19a9.33,9.33,0,0,1,1.5-.12,8.12,8.12,0,0,1,1.37.1,2.33,2.33,0,0,1,1,.41,2,2,0,0,1,.64.85,3.64,3.64,0,0,1,.23,1.4Z"/><path class="cls-1" d="M146.71,38.38a4.85,4.85,0,0,0-1.64.28,3.82,3.82,0,0,0-1.35.81,4,4,0,0,0-.92,1.33,4.66,4.66,0,0,0-.35,1.87,4,4,0,0,0,1.23,3.22,4.38,4.38,0,0,0,3,1.07,6,6,0,0,0,1.8-.24,11.05,11.05,0,0,0,1.35-.52,3.65,3.65,0,0,1,1,1.05,2.59,2.59,0,0,1,.34,1.37,2.42,2.42,0,0,1-1.35,2.2,7.5,7.5,0,0,1-3.73.78,11.51,11.51,0,0,1-3.94-.64,8.9,8.9,0,0,1-3-1.8,8,8,0,0,1-2-2.78,9.12,9.12,0,0,1-.69-3.6,9.92,9.92,0,0,1,.74-4,7.71,7.71,0,0,1,2-2.82,8.56,8.56,0,0,1,3-1.66,11.25,11.25,0,0,1,3.54-.55,6.9,6.9,0,0,1,3.84.9A2.69,2.69,0,0,1,151,37a2.52,2.52,0,0,1-.31,1.23,4.28,4.28,0,0,1-.73,1,11.54,11.54,0,0,0-1.42-.54A6,6,0,0,0,146.71,38.38Z"/><path class="cls-1" d="M171,42.66a10.42,10.42,0,0,1-.66,3.82,7.76,7.76,0,0,1-1.85,2.82A7.88,7.88,0,0,1,165.66,51a11,11,0,0,1-3.7.59,10.47,10.47,0,0,1-3.7-.62,8.18,8.18,0,0,1-2.85-1.78,8,8,0,0,1-1.85-2.82,10,10,0,0,1-.66-3.73,9.92,9.92,0,0,1,.66-3.7,8,8,0,0,1,1.85-2.82,8.15,8.15,0,0,1,2.85-1.78,10.47,10.47,0,0,1,3.7-.62,10.2,10.2,0,0,1,3.7.64,8.35,8.35,0,0,1,2.85,1.8A8,8,0,0,1,170.37,39,9.88,9.88,0,0,1,171,42.66Zm-12.1,0a5.46,5.46,0,0,0,.81,3.23A2.63,2.63,0,0,0,162,47a2.53,2.53,0,0,0,2.23-1.14,5.66,5.66,0,0,0,.78-3.22,5.49,5.49,0,0,0-.8-3.2,2.81,2.81,0,0,0-4.49,0A5.47,5.47,0,0,0,158.92,42.66Z"/><circle class="cls-1" cx="176.02" cy="48.26" r="3.06"/><path class="cls-1" d="M166.16,64.3h-.1l-.53,1.56q-.29.86-.53,1.75h2.08q-.23-.9-.48-1.77T166.16,64.3Z"/><path class="cls-1" d="M173.1,56.91H128a6,6,0,0,0-6,6v8a6,6,0,0,0,6,6H173.1a6,6,0,0,0,6-6v-8A6,6,0,0,0,173.1,56.91ZM139.89,64q-.18.7-.45,1.58t-.62,1.83q-.34,1-.69,1.8t-.64,1.49a5.91,5.91,0,0,1-.49.9,2,2,0,0,1-.73.35,3.68,3.68,0,0,1-1.08.15,3.13,3.13,0,0,1-1.21-.21,1.27,1.27,0,0,1-.69-.58q-.18-.38-.45-1T132.29,69q-.29-.75-.6-1.6t-.59-1.72q-.28-.87-.54-1.71t-.44-1.57a2.18,2.18,0,0,1,.68-.43,2.35,2.35,0,0,1,.95-.19,1.81,1.81,0,0,1,1,.26,1.58,1.58,0,0,1,.58,1q.45,1.64.91,3.14l1,3.12h.1q.45-1.57.93-3.43t.91-3.7a3.9,3.9,0,0,1,.64-.25,2.77,2.77,0,0,1,.78-.1,1.93,1.93,0,0,1,1.05.28,1,1,0,0,1,.43.91A4.82,4.82,0,0,1,139.89,64Zm8.82,7.71A1,1,0,0,1,148,72H143.1a1.45,1.45,0,0,1-1.56-1.56V63.4a1.44,1.44,0,0,1,1.56-1.56h5.52a2,2,0,0,1,.21.49,2.17,2.17,0,0,1,.09.64,1.22,1.22,0,0,1-.28.9,1,1,0,0,1-.73.27h-3.53v1.56h3.77a2.05,2.05,0,0,1,.21.48,2.1,2.1,0,0,1,.09.63,1.25,1.25,0,0,1-.27.9,1,1,0,0,1-.72.27h-3.08v1.76h4.3a2,2,0,0,1,.21.49,2.16,2.16,0,0,1,.09.64A1.26,1.26,0,0,1,148.71,71.76Zm11.09-1.43a1.3,1.3,0,0,1-.18.77,1.91,1.91,0,0,1-.59.49,3.68,3.68,0,0,1-.59.26,6.27,6.27,0,0,1-.77.22,8.54,8.54,0,0,1-1.79.19,7.6,7.6,0,0,1-2.26-.33,5.14,5.14,0,0,1-1.83-1,4.69,4.69,0,0,1-1.23-1.65,6,6,0,0,1,0-4.69,5,5,0,0,1,1.31-1.7,5.47,5.47,0,0,1,1.86-1,7,7,0,0,1,2.15-.33,5.25,5.25,0,0,1,2.52.51,1.51,1.51,0,0,1,.93,1.33,1.3,1.3,0,0,1-.22.75,1.79,1.79,0,0,1-.5.5,6.88,6.88,0,0,0-1-.49,3.9,3.9,0,0,0-1.41-.24,3.07,3.07,0,0,0-2.23.8,3,3,0,0,0-.83,2.23,3.56,3.56,0,0,0,.23,1.33,2.54,2.54,0,0,0,.61.92,2.49,2.49,0,0,0,.89.54,3.22,3.22,0,0,0,1.07.18,2.85,2.85,0,0,0,.65-.07,1.75,1.75,0,0,0,.44-.15V68.12h-1.79a2.65,2.65,0,0,1-.19-.49,2.15,2.15,0,0,1-.09-.64,1.17,1.17,0,0,1,.28-.87,1,1,0,0,1,.71-.27h2.83a1,1,0,0,1,1.05,1.05ZM170.41,72a2.86,2.86,0,0,1-1,.14,3,3,0,0,1-.68-.07,1.21,1.21,0,0,1-.45-.2,1,1,0,0,1-.28-.35,3,3,0,0,1-.19-.5l-.3-1.15h-3q-.13.5-.27,1t-.27,1a4.25,4.25,0,0,1-.49.14,2.9,2.9,0,0,1-.63.06,2.19,2.19,0,0,1-1.26-.29.94.94,0,0,1-.41-.81,1.7,1.7,0,0,1,.07-.47l.15-.55q.12-.45.33-1.12l.46-1.45q.25-.78.54-1.6l.54-1.55q.25-.73.46-1.3l.33-.87a3.59,3.59,0,0,1,.86-.32,4.59,4.59,0,0,1,1.16-.15,4.2,4.2,0,0,1,1.48.24,1.29,1.29,0,0,1,.83.76q.3.87.65,2t.7,2.38l.69,2.43.59,2.12A1.37,1.37,0,0,1,170.41,72Z"/><path class="cls-1" d="M175.16,27.28h-1.89v5.15H172V27.28h-1.87v-1h5Z"/><path class="cls-1" d="M178,26.25l1.59,4.48,1.58-4.48h1.67v6.18h-1.28V30.74l.13-2.91L180,32.43h-.87l-1.66-4.6.13,2.91v1.69h-1.27V26.25Z"/></g></g></svg>