<svg xmlns="http://www.w3.org/2000/svg" viewBox="0 0 34.05 34.05"><defs><style>.cls-1{fill:#fff;}</style></defs><g id="Layer_2" data-name="Layer 2"><g id="Layer_1-2" data-name="Layer 1"><path class="cls-1" d="M1,12.9a1,1,0,0,0,1-1V4.08A2.4,2.4,0,0,1,4.55,1.92h7.87a1,1,0,1,0,0-1.91H4.55A4.31,4.31,0,0,0,0,4.08v7.86A1,1,0,0,0,1,12.9Z"/><path class="cls-1" d="M30.36,0H22.1a1,1,0,1,0,0,1.91H30a2,2,0,0,1,2.15,1.86,1.5,1.5,0,0,1,0,.3v7.86a1,1,0,0,0,1.92,0V4.08A3.87,3.87,0,0,0,30.36,0Z"/><path class="cls-1" d="M33.08,20.67a1,1,0,0,0-1,1v7.86A2.4,2.4,0,0,1,30,32.13H22.1a1,1,0,0,0,0,1.92H30A4.32,4.32,0,0,0,34,29.49V21.63A1,1,0,0,0,33.08,20.67Z"/><path class="cls-1" d="M12.42,32.13H4.55a2.77,2.77,0,0,1-2.63-2.64V21.63a1,1,0,0,0-1.92,0v7.86a4.7,4.7,0,0,0,4.55,4.56h7.87a1,1,0,1,0,0-1.92Z"/><path class="cls-1" d="M25.77,10.59a.91.91,0,0,0-1.29,0L13.54,21.5,9.59,17.21a.91.91,0,0,0-1.34,1.24l4.59,5a.9.9,0,0,0,.65.3h0a.91.91,0,0,0,.64-.27L25.77,11.88A.91.91,0,0,0,25.77,10.59Z"/></g></g></svg>