<svg xmlns="http://www.w3.org/2000/svg" viewBox="0 0 43.83 39.02"><defs><style>.cls-1{fill:#fff;}</style></defs><g id="Layer_2" data-name="Layer 2"><g id="Layer_1-2" data-name="Layer 1"><path class="cls-1" d="M38.42,0h-33A5.38,5.38,0,0,0,0,5.4V26.76a5.41,5.41,0,0,0,5.41,5.43h1.9l2.34,6.23a.77.77,0,0,0,.56.57.75.75,0,0,0,.77-.23l9.47-6.57h18a5.39,5.39,0,0,0,5.4-5.43V5.4A5.38,5.38,0,0,0,38.42,0Zm3.85,26.76a3.86,3.86,0,0,1-3.86,3.88H20.1a.75.75,0,0,0-.57.26l-8.7,5.72L8.68,31.24a.77.77,0,0,0-.76-.6H5.41A3.87,3.87,0,0,1,2.67,29.5a3.91,3.91,0,0,1-1.12-2.74V5.4A3.84,3.84,0,0,1,5.41,1.55h33A3.82,3.82,0,0,1,42.27,5.4Z"/><path class="cls-1" d="M13.19,17.38H7.93L6.75,20.67H5L9.84,8.11h1.45l4.8,12.56h-1.7ZM8.43,16H12.7l-2.14-5.87Z"/><path class="cls-1" d="M24.2,9.46H40v1.32H24.2Z"/><path class="cls-1" d="M31.46,8.14h1.32v2H31.46Z"/><path class="cls-1" d="M25.08,21.29l-.44-1.24,2-.7a15.7,15.7,0,0,0,9.52-9.46l1.24.45A17,17,0,0,1,27.05,20.59Z"/><path class="cls-1" d="M35.85,20.63a17.42,17.42,0,0,1-8.6-7l-.31-.49,1.12-.7.31.49a16,16,0,0,0,7.94,6.49Z"/><rect class="cls-1" x="19.51" y="6.02" width="1.29" height="18.4"/></g></g></svg>