<svg xmlns="http://www.w3.org/2000/svg" viewBox="0 0 40.98 32.75"><defs><style>.cls-1{fill:#fff;}</style></defs><g id="Layer_2" data-name="Layer 2"><g id="Layer_1-2" data-name="Layer 1"><path class="cls-1" d="M41,10.06a2.84,2.84,0,0,0-2.86-2.82H36.86V3.82A3.79,3.79,0,0,0,33,0H5.55A3.79,3.79,0,0,0,1.73,3.82V23.37H.66a.61.61,0,0,0-.46.18A.61.61,0,0,0,0,24v2.46a3.78,3.78,0,0,0,1.14,2.71,3.79,3.79,0,0,0,2.72,1.11h21a2.85,2.85,0,0,0,2.82,2.47H38.69A2.25,2.25,0,0,0,41,30.47ZM3,3.82A2.51,2.51,0,0,1,3.77,2a2.46,2.46,0,0,1,1.78-.72H33a2.48,2.48,0,0,1,2.5,2.5V7.24H33.73V4a.64.64,0,0,0-.19-.45.65.65,0,0,0-.46-.18H5.51a.65.65,0,0,0-.46.18.61.61,0,0,0-.2.45V23.37H3ZM1.32,26.46V24.68h13l.46.49a3.84,3.84,0,0,0,2.83,1.24h7.17V29H3.86A2.51,2.51,0,0,1,1.32,26.46ZM24.77,10.07v15H17.6a2.6,2.6,0,0,1-1.87-.83l-.65-.7a.62.62,0,0,0-.48-.2H6.17V4.69H32.42V7.24H27.63A2.85,2.85,0,0,0,24.77,10.07ZM39.39,31.15a.93.93,0,0,1-.7.28H27.63a1.52,1.52,0,0,1-1.55-1.5V10.07a1.52,1.52,0,0,1,1.55-1.51H38.12a1.52,1.52,0,0,1,1.54,1.51V30.48h0A.9.9,0,0,1,39.39,31.15Z"/><circle class="cls-1" cx="32.87" cy="29.25" r="0.89"/></g></g></svg>