<svg xmlns="http://www.w3.org/2000/svg" viewBox="0 0 69.23 116.69"><defs><style>.cls-1{fill:#ffb000;}</style></defs><title>Right</title><g id="Layer_2" data-name="Layer 2"><g id="Layer_1-2" data-name="Layer 1"><path class="cls-1" d="M1.86,116.69s6.41-7.8,21.35-10.33C37.77,103,55.38,88.76,59.89,68.82c5.23-19.75-3.57-40.41-14.83-50.06C33.88,8.62,23.4,7,23.61,6.9c-.25.3,10.14,2.11,21,12.29,11,9.71,19.35,30.1,14,49.32-4.61,19.42-21.85,33-35.93,36.18a48.92,48.92,0,0,0-9,2.27C3.82,110.48,0,115,0,115Z"/><path class="cls-1" d="M27.53,94s-4.07,1.4-5.43,4.65a13.7,13.7,0,0,0-1,7.46s4.08-2.12,5.45-4.33C28.51,98.72,27.53,94,27.53,94Z"/><path class="cls-1" d="M34.68,111.86s-4.12,1.26-7.13-.57a13.69,13.69,0,0,1-5.16-5.47s4.55-.69,7,.29C32.71,107.49,34.68,111.86,34.68,111.86Z"/><path class="cls-1" d="M33.87,90.52s-3.7,2-4.45,5.41a13.43,13.43,0,0,0,.35,7.37s3.58-2.74,4.52-5.1C35.62,94.88,33.87,90.52,33.87,90.52Z"/><path class="cls-1" d="M43.81,106.52s-3.76,1.92-7,.66a13.43,13.43,0,0,1-5.91-4.4s4.28-1.44,6.76-.9C41.17,102.63,43.81,106.52,43.81,106.52Z"/><path class="cls-1" d="M39.57,86s-3.22,2.6-3.37,6A13.16,13.16,0,0,0,37.79,99s3-3.26,3.5-5.69C42,89.89,39.57,86,39.57,86Z"/><path class="cls-1" d="M51.88,99.73s-3.3,2.5-6.62,1.83a13.17,13.17,0,0,1-6.46-3.24s3.88-2.11,6.37-2C48.67,96.43,51.88,99.73,51.88,99.73Z"/><path class="cls-1" d="M44.4,80.47s-2.66,3.06-2.23,6.34a12.89,12.89,0,0,0,2.73,6.53s2.33-3.65,2.41-6.09C47.42,83.83,44.4,80.47,44.4,80.47Z"/><path class="cls-1" d="M58.63,91.64s-2.76,3-6.08,2.89a12.88,12.88,0,0,1-6.78-2s3.39-2.7,5.8-3C55,89,58.63,91.64,58.63,91.64Z"/><path class="cls-1" d="M48.24,74.22s-2.05,3.41-1.08,6.5a12.63,12.63,0,0,0,3.75,5.84s1.63-3.92,1.29-6.29C51.72,77,48.24,74.22,48.24,74.22Z"/><path class="cls-1" d="M63.87,82.58s-2.16,3.34-5.37,3.82a12.64,12.64,0,0,1-6.89-.8s2.81-3.18,5.08-3.92C59.89,80.66,63.87,82.58,63.87,82.58Z"/><path class="cls-1" d="M50.88,67.42s-1.4,3.64.07,6.46a12.37,12.37,0,0,0,4.61,5s.9-4.06.17-6.29C54.71,69.47,50.88,67.42,50.88,67.42Z"/><path class="cls-1" d="M67.39,72.84s-1.52,3.59-4.53,4.6a12.39,12.39,0,0,1-6.79.4s2.17-3.55,4.24-4.65C63.22,71.66,67.39,72.84,67.39,72.84Z"/><path class="cls-1" d="M52.34,60.31s-.73,3.75,1.16,6.22a12.14,12.14,0,0,0,5.3,4s.18-4.07-.9-6.1C56.38,61.63,52.34,60.31,52.34,60.31Z"/><path class="cls-1" d="M69.2,62.72s-.85,3.72-3.59,5.22a12.14,12.14,0,0,1-6.49,1.54s1.49-3.8,3.3-5.2C65,62.29,69.2,62.72,69.2,62.72Z"/><path class="cls-1" d="M52.55,53s-.07,3.74,2.19,5.81a11.89,11.89,0,0,0,5.8,3s-.52-4-1.91-5.73C56.67,53.59,52.55,53,52.55,53Z"/><path class="cls-1" d="M69.23,52.46S69,56.2,66.65,58.11a11.89,11.89,0,0,1-6,2.59s.79-3.92,2.3-5.59C65.07,52.77,69.23,52.46,69.23,52.46Z"/><path class="cls-1" d="M51.5,45.53s.57,3.62,3.1,5.23a11.64,11.64,0,0,0,6.11,1.91s-1.17-3.73-2.82-5.2C55.58,45.4,51.5,45.53,51.5,45.53Z"/><path class="cls-1" d="M67.51,42.18S68,45.82,66,48.06a11.67,11.67,0,0,1-5.35,3.52s.1-3.92,1.27-5.78C63.55,43.18,67.51,42.18,67.51,42.18Z"/><path class="cls-1" d="M49.16,38.25s1.17,3.4,3.88,4.52a11.4,11.4,0,0,0,6.22.8s-1.77-3.4-3.61-4.54C53.08,37.43,49.16,38.25,49.16,38.25Z"/><path class="cls-1" d="M64,32.29s1.05,3.44-.48,5.94A11.43,11.43,0,0,1,59,42.54s-.57-3.79.24-5.8C60.39,33.93,64,32.29,64,32.29Z"/><path class="cls-1" d="M45.55,31.5s1.7,3.08,4.51,3.71a11.17,11.17,0,0,0,6.14-.29s-2.29-3-4.25-3.77C49.19,30,45.55,31.5,45.55,31.5Z"/><path class="cls-1" d="M58.89,23.21s1.6,3.14.55,5.82A11.19,11.19,0,0,1,55.78,34s-1.2-3.56-.75-5.64C55.65,25.42,58.89,23.21,58.89,23.21Z"/><path class="cls-1" d="M40.78,25.49s2.17,2.68,5,2.81A11,11,0,0,0,51.65,27s-2.72-2.49-4.75-2.92C44,23.46,40.78,25.49,40.78,25.49Z"/><path class="cls-1" d="M52.25,15.22s2.08,2.75,1.52,5.52a11,11,0,0,1-2.7,5.39s-1.76-3.24-1.69-5.31C49.49,17.9,52.25,15.22,52.25,15.22Z"/><path class="cls-1" d="M35.09,20.45s2.55,2.22,5.3,1.86A10.75,10.75,0,0,0,45.83,20s-3-1.94-5.08-2C37.9,17.94,35.09,20.45,35.09,20.45Z"/><path class="cls-1" d="M44.41,8.59s2.48,2.3,2.41,5.07a10.75,10.75,0,0,1-1.69,5.66s-2.25-2.82-2.53-4.84C42.21,11.64,44.41,8.59,44.41,8.59Z"/><path class="cls-1" d="M28.65,16.5s2.84,1.71,5.42.9a10.53,10.53,0,0,0,4.87-3.12s-3.27-1.35-5.24-1.07C30.93,13.6,28.65,16.5,28.65,16.5Z"/><path class="cls-1" d="M35.62,3.47s2.78,1.8,3.19,4.48a10.54,10.54,0,0,1-.67,5.75s-2.66-2.34-3.27-4.24C34,6.79,35.62,3.47,35.62,3.47Z"/><path class="cls-1" d="M21.73,13.77s3,1.17,5.39-.06a10.3,10.3,0,0,0,4.17-3.84S27.9,9.12,26,9.72C23.44,10.58,21.73,13.77,21.73,13.77Z"/><path class="cls-1" d="M26.24,0s3,1.27,3.84,3.78a10.34,10.34,0,0,1,.34,5.66s-3-1.81-3.87-3.53C25.26,3.48,26.24,0,26.24,0Z"/><path class="cls-1" d="M26.11,7.75a5.93,5.93,0,0,1-4.23.58,8.14,8.14,0,0,1-3.71-2.53,10.39,10.39,0,0,1,4.09-.72C24.4,5.45,26.11,7.75,26.11,7.75Z"/></g></g></svg>