<svg xmlns="http://www.w3.org/2000/svg" viewBox="0 0 51.28 21.48"><defs><style>.cls-1{fill:#fff;}</style></defs><title>Asset 7</title><g id="Layer_2" data-name="Layer 2"><g id="Layer_1-2" data-name="Layer 1"><path id="Shape" class="cls-1" d="M0,15.46V13.37a4.58,4.58,0,0,0,.86.57,8,8,0,0,0,1,.43A10.74,10.74,0,0,0,3,14.64a5.89,5.89,0,0,0,1,.09,4,4,0,0,0,2.44-.61A2.28,2.28,0,0,0,7,11.3a2.84,2.84,0,0,0-.74-.84,7.74,7.74,0,0,0-1.13-.72L3.78,9c-.5-.25-1-.53-1.48-.82a6.16,6.16,0,0,1-1.19-.91,3.93,3.93,0,0,1-.8-1.13A3.42,3.42,0,0,1,0,4.67,3.5,3.5,0,0,1,.48,2.86,3.77,3.77,0,0,1,1.67,1.6,5.19,5.19,0,0,1,3.35.85,7.83,7.83,0,0,1,5.27.61a7.32,7.32,0,0,1,3.26.54v2a5.88,5.88,0,0,0-3.44-.93,5.64,5.64,0,0,0-1.16.12,3.24,3.24,0,0,0-1,.4,2.18,2.18,0,0,0-.74.71,1.78,1.78,0,0,0-.28,1.06,2.14,2.14,0,0,0,.21,1,2.41,2.41,0,0,0,.64.78,5.87,5.87,0,0,0,1,.67c.4.22.87.46,1.4.73s1,.55,1.54.86A7.2,7.2,0,0,1,8,9.53a4.63,4.63,0,0,1,.86,1.2,3.42,3.42,0,0,1,.32,1.51,3.79,3.79,0,0,1-.43,1.9,3.51,3.51,0,0,1-1.18,1.27,5.18,5.18,0,0,1-1.72.71,9.4,9.4,0,0,1-2,.22c-.3,0-.59,0-.89-.06s-.71-.1-1.07-.17a7.61,7.61,0,0,1-1-.28A3,3,0,0,1,0,15.47"/><polygon class="cls-1" points="19.67 16.08 17.24 16.08 12.47 10.86 12.43 10.86 12.43 16.08 10.7 16.08 10.7 0 12.43 0 12.43 10.2 12.47 10.2 17.01 5.22 19.28 5.22 14.27 10.46 19.67 16.08"/><path class="cls-1" d="M29.86,5.22l-5,12.6c-.88,2.25-2.13,3.37-3.73,3.37A3.93,3.93,0,0,1,20,21.06V19.5a3.28,3.28,0,0,0,1,.18,2.14,2.14,0,0,0,2-1.57l.86-2.05L19.66,5.22h1.92l2.92,8.36c0,.1.11.38.22.82h.06c0-.17.11-.44.21-.8l3.07-8.38Z"/><path class="cls-1" d="M33,10.35v1.54a3.26,3.26,0,0,0,.87,2.32,3.15,3.15,0,0,0,4.75-.27,5.7,5.7,0,0,0,.91-3.42,4.46,4.46,0,0,0-.85-2.89,2.84,2.84,0,0,0-2.3-1,3.11,3.11,0,0,0-2.46,1.07,4,4,0,0,0-.94,2.69M33,14.8h-.05v6.68H31.19V5.35h1.75v2H33a4.15,4.15,0,0,1,3.79-2.19,4,4,0,0,1,3.31,1.48,6.15,6.15,0,0,1,1.19,4A6.89,6.89,0,0,1,40,15a4.48,4.48,0,0,1-3.67,1.66A3.65,3.65,0,0,1,33,14.82"/><path class="cls-1" d="M49.49,9.61a3.53,3.53,0,0,0-.73-2.34,2.43,2.43,0,0,0-2-.84,2.76,2.76,0,0,0-2.08.86,4.05,4.05,0,0,0-1.06,2.3Zm1.77,1.48H43.63a4.09,4.09,0,0,0,1,2.8,3.39,3.39,0,0,0,2.56,1,5.26,5.26,0,0,0,3.35-1.21V15.3a6.27,6.27,0,0,1-3.76,1,4.58,4.58,0,0,1-3.6-1.48,6.16,6.16,0,0,1-1.29-4.17,6,6,0,0,1,1.43-4.13A4.59,4.59,0,0,1,46.84,5a4.05,4.05,0,0,1,3.28,1.38,5.8,5.8,0,0,1,1.16,3.83Z"/></g></g></svg>