<svg xmlns="http://www.w3.org/2000/svg" viewBox="0 0 22.5 21.36"><defs><style>.cls-1{fill:#0f1e40;}</style></defs><g id="Layer_2" data-name="Layer 2"><g id="Layer_1-2" data-name="Layer 1"><path class="cls-1" d="M22.49,19.58a.61.61,0,0,0,0-.14V4.3a.83.83,0,0,0-.09-.44.65.65,0,0,0-.36-.22l-1.52-.5c0-.82,0-1.65,0-2.47a.76.76,0,0,0-.16-.56A.55.55,0,0,0,19.9,0a11.28,11.28,0,0,0-8.57,5.12,3.38,3.38,0,0,0-.25-.36l-.27-.37c-.19-.24-.38-.47-.58-.69A13.43,13.43,0,0,0,8.94,2.48a11.59,11.59,0,0,0-1.44-1A11.24,11.24,0,0,0,5.94.72,11.74,11.74,0,0,0,4.31.23,10.71,10.71,0,0,0,2.62,0C2.43,0,2.2,0,2.1.2A1.29,1.29,0,0,0,2,.64a5.73,5.73,0,0,0-.07.58,8.8,8.8,0,0,0,0,1.85L.45,3.55a.63.63,0,0,0-.36.22A.81.81,0,0,0,0,4.21V19.42a.66.66,0,0,0,.09.42c.14.17.39.11.59,0A11.19,11.19,0,0,1,10.26,21a2.19,2.19,0,0,0,.82.38,2.2,2.2,0,0,0,1.31-.46,11.15,11.15,0,0,1,9.25-1c.27.1.64.17.79-.11A.48.48,0,0,0,22.49,19.58ZM.9,18.74V4.57c.35-.13.68-.25,1-.35V15.49a.53.53,0,0,0,.5.56h.06a9.28,9.28,0,0,1,6.87,3.18A12.25,12.25,0,0,0,.9,18.74Zm10,.64A10.63,10.63,0,0,0,3,14.94V1.13a10.26,10.26,0,0,1,7.9,5.12Zm1,0V6.24a10.34,10.34,0,0,1,7.88-5.12h0V15A10.71,10.71,0,0,0,11.86,19.4Zm9.91-.66a12.3,12.3,0,0,0-8.43.5,9.31,9.31,0,0,1,6.9-3.19.54.54,0,0,0,.5-.56V4.22l1,.36Z"/></g></g></svg>