<svg xmlns="http://www.w3.org/2000/svg" viewBox="0 0 29.75 29.75"><defs><style>.cls-1{fill:#fff;}</style></defs><g id="Layer_2" data-name="Layer 2"><g id="Layer_1-2" data-name="Layer 1"><path class="cls-1" d="M10.07,0H3.75A3.75,3.75,0,0,0,0,3.74v6.33a3.75,3.75,0,0,0,3.75,3.74h6.32a3.75,3.75,0,0,0,3.75-3.74V3.74A3.75,3.75,0,0,0,10.07,0Zm2.12,10.07a2.12,2.12,0,0,1-2.12,2.12H3.75a2.12,2.12,0,0,1-2.12-2.12V3.74A2.12,2.12,0,0,1,3.75,1.63h6.32a2.12,2.12,0,0,1,2.12,2.11Z"/><path class="cls-1" d="M26,0H19.68a3.75,3.75,0,0,0-3.74,3.74v6.33a3.75,3.75,0,0,0,3.74,3.74H26a3.75,3.75,0,0,0,3.74-3.74V3.74A3.75,3.75,0,0,0,26,0Zm2.12,10.07A2.12,2.12,0,0,1,26,12.19H19.68a2.12,2.12,0,0,1-2.11-2.12V3.74a2.12,2.12,0,0,1,2.11-2.11H26a2.12,2.12,0,0,1,2.12,2.11Z"/><path class="cls-1" d="M22.85,15.94a6.91,6.91,0,1,0,6.9,6.9A6.92,6.92,0,0,0,22.85,15.94Zm0,12.19a5.29,5.29,0,1,1,5.28-5.29A5.28,5.28,0,0,1,22.85,28.13Z"/><path class="cls-1" d="M10.07,15.94H3.75A3.75,3.75,0,0,0,0,19.68V26a3.75,3.75,0,0,0,3.75,3.74h6.32A3.75,3.75,0,0,0,13.82,26V19.68A3.75,3.75,0,0,0,10.07,15.94ZM12.19,26a2.12,2.12,0,0,1-2.12,2.12H3.75A2.12,2.12,0,0,1,1.63,26V19.68a2.12,2.12,0,0,1,2.12-2.12h6.32a2.12,2.12,0,0,1,2.12,2.12Z"/></g></g></svg>