<svg xmlns="http://www.w3.org/2000/svg" viewBox="0 0 40 40"><defs><style>.a,.b{fill:#fff;}.b{opacity:0.6;}</style></defs><title>11</title><path class="a" d="M22.46,19.87a6.3,6.3,0,1,0-6.3-6.3A6.31,6.31,0,0,0,22.46,19.87Zm-.75-10V9.68a.75.75,0,1,1,1.49,0v.17a2,2,0,0,1,1.56,1.93.75.75,0,0,1-1.49,0,.48.48,0,0,0-.48-.48h-.67a.48.48,0,0,0-.28.86l.62.46L24,13.74a2,2,0,0,1,.8,1.57h0a2,2,0,0,1-1.56,1.94v.17a.75.75,0,1,1-1.49,0v-.17a2,2,0,0,1-1.56-1.91.75.75,0,0,1,.74-.75h0a.75.75,0,0,1,.75.74.48.48,0,0,0,.48.47h.67a.48.48,0,0,0,.47-.48h0a.48.48,0,0,0-.19-.38l-.62-.46-1.51-1.12a2,2,0,0,1,.76-3.51Z"/><path class="b" d="M12.24,23.45a.7.7,0,0,0-1-.25l-3.51,2a.7.7,0,0,0-.25,1l3.59,6.22a.7.7,0,0,0,1,.25l3.51-2a.7.7,0,0,0,.25-1Z"/><path class="b" d="M32.37,22.21A1,1,0,0,0,30.91,22l-4.37,3.15a2.64,2.64,0,0,1-.31.23,2.71,2.71,0,0,1-1.45.41H21.2a.75.75,0,1,1,0-1.49H25a1,1,0,0,0,1-1,1,1,0,0,0-1-.95H22.09a4.84,4.84,0,0,0-.64-.57,4.78,4.78,0,0,0-2.84-.93A5.27,5.27,0,0,0,14,23.58l3.05,5.29h5.73A6.43,6.43,0,0,0,26,28a12.84,12.84,0,0,0,1.09-.71c1.64-1.18,5-3.63,5-3.64a1,1,0,0,0,.24-1.46Z"/></svg>