<svg xmlns="http://www.w3.org/2000/svg" viewBox="0 0 40 40"><defs><style>.a,.b{fill:#fff;}.a{opacity:0.6;}</style></defs><title>12</title><path class="a" d="M30,31.6l-11.28-6a.9.9,0,0,0-.93.05l-8.62,6a.9.9,0,0,0,.51,1.63h19.9A.9.9,0,0,0,30,31.6Z"/><path class="a" d="M27.53,16a.9.9,0,0,0-.86-.63H10.11a.9.9,0,0,0-.87.7l-3,13.55a.9.9,0,0,0,.87,1.09.89.89,0,0,0,.51-.16L27.18,17A.9.9,0,0,0,27.53,16Z"/><path class="a" d="M31.12,18a.9.9,0,0,0-1.39-.54l-8.62,6a.9.9,0,0,0,.09,1.53l11.27,6a.9.9,0,0,0,.42.11.88.88,0,0,0,.54-.18.9.9,0,0,0,.33-.91Z"/><path class="b" d="M19.71,6.72A6.28,6.28,0,0,0,13.44,13c0,3.22,5,8.92,5.61,9.56a.91.91,0,0,0,.67.3.88.88,0,0,0,.67-.3C21,21.91,26,16.21,26,13A6.28,6.28,0,0,0,19.71,6.72Zm0,9A2.69,2.69,0,1,1,22.4,13,2.69,2.69,0,0,1,19.71,15.68Z"/></svg>