<svg xmlns="http://www.w3.org/2000/svg" viewBox="0 0 40 40"><defs><style>.a{fill:#fff;}</style></defs><title>14</title><polygon class="a" points="24.15 20.13 32.73 25.56 32.73 14.47 24.15 20.13"/><polygon class="a" points="7.26 14.47 7.26 25.56 15.85 20.13 7.26 14.47"/><path class="a" d="M31.14,11.24H8.86A1.57,1.57,0,0,0,7.31,12.6L20,21,32.69,12.6A1.57,1.57,0,0,0,31.14,11.24Z"/><path class="a" d="M22.69,21.09l-2.25,1.48a.8.8,0,0,1-.88,0l-2.25-1.49-10,6.32a1.57,1.57,0,0,0,1.54,1.34H31.14a1.57,1.57,0,0,0,1.54-1.34Z"/></svg>