<svg xmlns="http://www.w3.org/2000/svg" viewBox="0 0 40 40"><defs><style>.a{fill:#fff;}</style></defs><title>15</title><path class="a" d="M26.78,23.47l.83-2.1H30l-1.14-3.19,1.42-3.6,4.08,10.82h-3l-.7-1.94Z"/><path class="a" d="M24.22,25.41l4.36-10.82H25.69l-3,7-2.12-7H18.36l-2.28,7L14.47,18.4,13,22.88l1.48,2.54h2.85l2.06-6.27,2,6.27Z"/><path class="a" d="M8.37,21.7h1.78a5.25,5.25,0,0,0,1.44-.18l.46-1.42,1.29-4a3.17,3.17,0,0,0-.34-.44,3.71,3.71,0,0,0-2.9-1.1H5.62V25.41H8.37Zm2.36-4.62a1.42,1.42,0,0,1,.39,1,1.52,1.52,0,0,1-.34,1,1.77,1.77,0,0,1-1.38.43h-1V16.69h1A1.82,1.82,0,0,1,10.73,17.08Z"/></svg>