<svg xmlns="http://www.w3.org/2000/svg" viewBox="0 0 40 40"><defs><style>.a,.b{fill:#fff;}.a{opacity:0.4;}</style></defs><title>16</title><path class="a" d="M32.5,10.54V27.86a.76.76,0,0,1-.76.76H25.36v-10A1.61,1.61,0,0,0,23.75,17h-7.5a1.61,1.61,0,0,0-1.61,1.61v10H8.26a.76.76,0,0,1-.76-.76V10.54Z"/><path class="b" d="M8.26,7.47H31.74a.76.76,0,0,1,.76.76v2.31H7.5V8.23A.76.76,0,0,1,8.26,7.47Z"/><path class="b" d="M23.33,21.16v0a.22.22,0,0,0,0-.07l0,0a.38.38,0,0,0-.11-.11h0l0,0H21.15a.38.38,0,1,0,0,.76H22l-4.61,4.61v-.88a.38.38,0,0,0-.76,0v1.8a.38.38,0,0,0,0,.07v0a.22.22,0,0,0,0,.08l0,0a.38.38,0,0,0,.11.11l0,0,0,0h1.95a.38.38,0,1,0,0-.76H18l4.61-4.61V23a.38.38,0,1,0,.76,0v-1.8A.38.38,0,0,0,23.33,21.16Z"/><path class="b" d="M25.36,18.6v.09H14.64V18.6A1.62,1.62,0,0,1,16.26,17h7.49A1.62,1.62,0,0,1,25.36,18.6Z"/><path class="b" d="M14.64,29.68v1.17a1.61,1.61,0,0,0,1.62,1.61h7.48a1.61,1.61,0,0,0,1.62-1.61V29.68Zm5.78,1.91a.67.67,0,1,1-.84-1.06.67.67,0,0,1,.84,1.06Z"/></svg>