<svg xmlns="http://www.w3.org/2000/svg" viewBox="0 0 40 40"><defs><style>.a{fill:#fff;}</style></defs><title>17</title><path class="a" d="M30.19,12.8c-.19-.27-.39-.53-.6-.78A12.46,12.46,0,0,0,20,7.51h-.07A12.47,12.47,0,0,0,10.41,12q-.32.38-.6.78a12.44,12.44,0,0,0,0,14.4c.19.27.39.53.6.78a12.47,12.47,0,0,0,9.52,4.5H20A12.46,12.46,0,0,0,29.59,28c.21-.25.41-.51.6-.78a12.44,12.44,0,0,0,0-14.4ZM16.35,9.14a11.68,11.68,0,0,0-2.76,4.67,11.91,11.91,0,0,1-2.36-1.17A11.49,11.49,0,0,1,16.35,9.14Zm-5.72,4.28a13.15,13.15,0,0,0,2.67,1.35,19.9,19.9,0,0,0-.68,5.13H8.54A11.39,11.39,0,0,1,10.63,13.42Zm-2.05,7.5h4.06a19.68,19.68,0,0,0,.66,4.32,13.08,13.08,0,0,0-2.67,1.35A11.38,11.38,0,0,1,8.58,20.92Zm2.66,6.45a12,12,0,0,1,2.35-1.17,11.67,11.67,0,0,0,2.76,4.67A11.49,11.49,0,0,1,11.24,27.37Zm8.25,4.06c-2.1-.29-3.92-2.44-4.95-5.55a18.94,18.94,0,0,1,4.95-.76Zm0-7.33a19.51,19.51,0,0,0-5.23.82,19,19,0,0,1-.59-4h5.82Zm0-4.2H13.64a19.34,19.34,0,0,1,.62-4.81,19.51,19.51,0,0,0,5.23.82v4Zm0-5a18.91,18.91,0,0,1-4.94-.76c1-3.1,2.84-5.26,4.94-5.55Zm12,5H27.32a19.89,19.89,0,0,0-.68-5.11,13.14,13.14,0,0,0,2.72-1.37A11.4,11.4,0,0,1,31.46,19.89Zm-2.69-7.26a12,12,0,0,1-2.41,1.19,11.65,11.65,0,0,0-2.8-4.72A11.49,11.49,0,0,1,28.76,12.63ZM20.51,8.58c2.08.32,3.87,2.48,4.89,5.56a18.94,18.94,0,0,1-4.89.74Zm0,7.32a19.55,19.55,0,0,0,5.17-.8,19.29,19.29,0,0,1,.61,4.79H20.51Zm0,5h5.76a19.07,19.07,0,0,1-.59,4,19.55,19.55,0,0,0-5.18-.8V20.92Zm0,10.5v-6.3a19,19,0,0,1,4.89.74C24.38,28.94,22.59,31.1,20.51,31.42Zm3-.52a11.64,11.64,0,0,0,2.8-4.72,12,12,0,0,1,2.41,1.19A11.5,11.5,0,0,1,23.56,30.89Zm5.81-4.31a13.11,13.11,0,0,0-2.72-1.37,19.67,19.67,0,0,0,.66-4.3h4.12A11.37,11.37,0,0,1,29.37,26.58Z"/></svg>