<svg xmlns="http://www.w3.org/2000/svg" viewBox="0 0 40 40"><defs><style>.a{fill:#fff;}</style></defs><title>19</title><polygon class="a" points="14.41 14.38 14.11 14.38 13.54 17.22 14.97 17.22 14.41 14.38"/><path class="a" d="M25.86,20A7.4,7.4,0,0,0,27,22.1,7.47,7.47,0,0,0,28.23,20Z"/><path class="a" d="M29.9,12.21H21.11l1.83,14.71a2.2,2.2,0,0,1-.52,1.61l-3.1,3.55H29.9A2.13,2.13,0,0,0,32,30V14.38A2.17,2.17,0,0,0,29.9,12.21Zm0,7.83h-.19A9,9,0,0,1,28,23.15c.52.48,1.08.87,1.63,1.3a.71.71,0,1,1-.88,1.1c-.6-.47-1.16-.87-1.73-1.39-.56.52-1.08.91-1.68,1.39a.71.71,0,0,1-.88-1.1c.55-.44,1.06-.83,1.58-1.3A8.93,8.93,0,0,1,24.38,20h-.19a.71.71,0,1,1,0-1.42h2.12v-.71a.71.71,0,1,1,1.42,0v.71H29.9a.71.71,0,0,1,0,1.42Z"/><path class="a" d="M19.39,9.78a2.13,2.13,0,0,0-2.11-1.86H10A2.13,2.13,0,0,0,7.86,10V25.71A2.13,2.13,0,0,0,10,27.83H21.15c.21-.24.38-.38.39-.69C21.54,27.06,19.4,9.86,19.39,9.78ZM16.54,21.45a.71.71,0,0,1-.83-.56l-.45-2.26h-2l-.45,2.26a.71.71,0,1,1-1.39-.28l1.42-7.08a.71.71,0,0,1,.69-.57H15a.71.71,0,0,1,.69.57l1.42,7.08A.71.71,0,0,1,16.54,21.45Z"/><path class="a" d="M16.13,29.25l.12,1a2.14,2.14,0,0,0,1.22,1.64l2.38-2.62H16.13Z"/></svg>