<svg xmlns="http://www.w3.org/2000/svg" viewBox="0 0 40 40"><defs><style>.a,.b{fill:#fff;}.b{opacity:0.6;}</style></defs><title>2</title><path class="a" d="M30.83,9.12H20.33a.79.79,0,0,0-.79.79V19.7a.79.79,0,0,0,1.28.62l2.25-1.76.06-.06h7.7a.79.79,0,0,0,.79-.79V9.91A.79.79,0,0,0,30.83,9.12Zm-2.26,5a.79.79,0,0,1-.79.79H23.38a.79.79,0,0,1-.79-.79v-.21a.79.79,0,0,1,.79-.79h4.41a.79.79,0,0,1,.79.79Z"/><rect class="b" x="7.45" y="22.5" width="24.17" height="9.39" rx="0.79" ry="0.79"/><rect class="a" x="12.47" y="26.4" width="14.14" height="1.58" rx="0.79" ry="0.79"/></svg>