<svg xmlns="http://www.w3.org/2000/svg" viewBox="0 0 40 40"><defs><style>.a,.b{fill:#fff;}.a{opacity:0.6;}</style></defs><title>20</title><rect class="a" x="22.05" y="18.16" width="9.7" height="15.03" rx="1" ry="1"/><path class="b" d="M9.51,6.74h8.27a.76.76,0,0,1,.76.76V18.34a1,1,0,0,1-1,1H9.76a1,1,0,0,1-1-1V7.5A.76.76,0,0,1,9.51,6.74Z"/><path class="b" d="M22.73,6.74H31a.76.76,0,0,1,.76.76v5.28a1,1,0,0,1-1,1H23a1,1,0,0,1-1-1V7.5A.76.76,0,0,1,22.73,6.74Z"/><path class="b" d="M9.76,23.41h7.78a1,1,0,0,1,1,1v8a.76.76,0,0,1-.76.76H9.51a.76.76,0,0,1-.76-.76v-8A1,1,0,0,1,9.76,23.41Z"/></svg>