<svg xmlns="http://www.w3.org/2000/svg" viewBox="0 0 40 40"><defs><style>.a{fill:#fff;}.b{opacity:0.6;}</style></defs><title>21</title><path class="a" d="M25.44,21.13l-1.63,1.63h0L12.55,11.51l.87-.87L9.82,7.75l-2,2,2.89,3.59.87-.87L22.79,23.78l-1.63,1.63,2.32,2.32,4.27-4.27Z"/><path class="a" d="M28.77,24.47,24.5,28.74l2.56,2.56A3,3,0,1,0,31.34,27Z"/><g class="b"><path class="a" d="M20.15,23.16l-3.34-3.34-2.44,2.44a5.08,5.08,0,1,0,3.34,3.34ZM14,28.28A1.64,1.64,0,1,1,14,26,1.64,1.64,0,0,1,14,28.28Z"/><path class="a" d="M31.89,10.81l-.4-1-2.56,2.56-1-.28-.28-1,2.56-2.56-1-.4a4.83,4.83,0,0,0-6.41,5.8l-2.9,2.9,3.34,3.34,2.9-2.9a4.83,4.83,0,0,0,5.8-6.41Z"/></g></svg>