<svg xmlns="http://www.w3.org/2000/svg" viewBox="0 0 40 40"><defs><style>.a,.b{fill:#fff;}.a{opacity:0.6;}</style></defs><title>22</title><path class="a" d="M26.87,20.47a3.48,3.48,0,1,0,3.48,3.48A3.48,3.48,0,0,0,26.87,20.47Zm1.75,4.59a.48.48,0,0,1,0,.66.41.41,0,0,1-.32.14.45.45,0,0,1-.32-.14l-1.11-1.14-1.14,1.14,0,0a.43.43,0,0,1-.61,0,.48.48,0,0,1,0-.66l1.11-1.11L25.1,22.84a.48.48,0,0,1,0-.66l0,0a.43.43,0,0,1,.61,0l1.14,1.14L28,22.18l0,0a.43.43,0,0,1,.61,0,.48.48,0,0,1,0,.66l-1.11,1.11Z"/><path class="b" d="M16.31,20.22a.22.22,0,0,1,.06.15V30a1.12,1.12,0,0,0,1.83.86l2.13-1.76a1.11,1.11,0,0,0,.4-.86V20.37a.22.22,0,0,1,.06-.15l6.29-7H10Z"/><path class="b" d="M26.78,8.86H10.32a.67.67,0,0,0-.67.67v2.39h17.8V9.53a.67.67,0,0,0-.67-.67Z"/></svg>