<svg xmlns="http://www.w3.org/2000/svg" viewBox="0 0 40 40"><defs><style>.a,.b{fill:#fff;}.a{opacity:0.6;}</style></defs><title>23</title><path class="a" d="M29.36,12.92H10.64a1.34,1.34,0,0,1-1.34-1.34v-.33a1.34,1.34,0,0,1,1.34-1.34H29.36a1.34,1.34,0,0,1,1.34,1.34v.33A1.34,1.34,0,0,1,29.36,12.92Z"/><path class="a" d="M10.64,18.51H29.36a1.34,1.34,0,0,1,1.34,1.34v.33a1.34,1.34,0,0,1-1.34,1.34H10.64a1.34,1.34,0,0,1-1.34-1.34v-.33A1.34,1.34,0,0,1,10.64,18.51Z"/><circle class="b" cx="15.33" cy="11.42" r="3.28"/><circle class="b" cx="24.67" cy="20.01" r="3.28"/><path class="a" d="M10.64,27.1H29.36a1.34,1.34,0,0,1,1.34,1.34v.33a1.34,1.34,0,0,1-1.34,1.34H10.64a1.34,1.34,0,0,1-1.34-1.34v-.33A1.34,1.34,0,0,1,10.64,27.1Z"/><circle class="b" cx="18.11" cy="28.6" r="3.28"/></svg>