<svg xmlns="http://www.w3.org/2000/svg" viewBox="0 0 40 40"><defs><style>.a,.b{fill:#fff;}.a{opacity:0.6;}</style></defs><title>24</title><rect class="a" x="12.72" y="8.59" width="19" height="22.83" rx="0.75" ry="0.75"/><path class="b" d="M29.1,21.78l-1.83-1.83a.73.73,0,0,0-1.25.52v1.1h-3.3a.73.73,0,1,0,0,1.47H26v1.1a.73.73,0,0,0,1.25.52l1.83-1.83A.73.73,0,0,0,29.1,21.78Z"/><path class="b" d="M14.86,18.22l1.83,1.83a.73.73,0,0,0,1.25-.52v-1.1h3.3a.73.73,0,1,0,0-1.47h-3.3v-1.1a.73.73,0,0,0-1.25-.52l-1.83,1.83A.73.73,0,0,0,14.86,18.22Z"/><path class="b" d="M12.21,8.59H8.79a.51.51,0,0,0-.51.51V30.91a.51.51,0,0,0,.51.51h3.42a.51.51,0,0,0,.51-.51V9.09A.51.51,0,0,0,12.21,8.59ZM10.5,29.35a.92.92,0,1,1,.92-.92A.92.92,0,0,1,10.5,29.35Zm0-4.08a.92.92,0,1,1,.92-.92A.92.92,0,0,1,10.5,25.27Zm0-4.08a.92.92,0,1,1,.92-.92A.92.92,0,0,1,10.5,21.19Zm0-4.08a.92.92,0,1,1,.92-.92A.92.92,0,0,1,10.5,17.11Zm0-4.08a.92.92,0,1,1,.92-.92A.92.92,0,0,1,10.5,13Z"/></svg>