<svg xmlns="http://www.w3.org/2000/svg" viewBox="0 0 40 40"><defs><style>.a{fill:none;stroke:#fff;stroke-linecap:round;stroke-linejoin:round;stroke-width:0.5px;}.b{fill:#fff;}</style></defs><title>25</title><rect class="a" x="4.71" y="14.22" width="30.58" height="11.56" rx="1.17" ry="1.17"/><rect class="b" x="19.75" y="19.57" width="12.56" height="0.99" rx="0.5" ry="0.5"/><path class="b" d="M14.75,14.22H5.4a.69.69,0,0,0-.69.69V25.09a.69.69,0,0,0,.69.69h9.35a.69.69,0,0,0,.69-.69V14.91A.69.69,0,0,0,14.75,14.22Zm-2,7.35a.77.77,0,1,1-1.09,1.09l-1.57-1.57L8.51,22.66a.77.77,0,1,1-1.09-1.09L9,20,7.42,18.43a.77.77,0,0,1,1.09-1.09l1.57,1.57,1.57-1.57a.77.77,0,0,1,1.09,1.09L11.17,20Z"/></svg>