<svg xmlns="http://www.w3.org/2000/svg" viewBox="0 0 40 40"><defs><style>.a,.b{fill:#fff;}.b{opacity:0.6;}</style></defs><title>27</title><path class="a" d="M17.44,27a.26.26,0,0,1,.07.17v4.66a1.28,1.28,0,0,0,2.1,1l2.43-2a1.28,1.28,0,0,0,.46-1V27.17a.26.26,0,0,1,.07-.17l7.2-8H10.24Z"/><path class="a" d="M29.42,14H10.58a.77.77,0,0,0-.77.77V17.5H30.19V14.77a.77.77,0,0,0-.77-.77Z"/><circle class="b" cx="12.19" cy="10.06" r="2.38"/><path class="b" d="M19.85,11.53a3.89,3.89,0,0,0,3.88-3.88A.77.77,0,0,0,23,6.88H16.74a.77.77,0,0,0-.77.77,3.89,3.89,0,0,0,3.88,3.88Z"/><path class="b" d="M22.82,12.47h6.65a4,4,0,0,0-6.65,0Z"/></svg>