<svg xmlns="http://www.w3.org/2000/svg" viewBox="0 0 40 40"><defs><style>.a,.b{fill:#fff;}.a{opacity:0.6;}</style></defs><title>28</title><path class="a" d="M4.67,6V33a1,1,0,0,0,1,1H33.9a1.42,1.42,0,0,0,1.42-1.42V6"/><path class="b" d="M33.91,25.28H5.69a1,1,0,0,0-1,1V33a1,1,0,0,0,1,1H33.91a1.42,1.42,0,0,0,1.42-1.42V26.7A1.42,1.42,0,0,0,33.91,25.28ZM13.41,30.63H8.59a1,1,0,1,1,0-2h4.81a1,1,0,0,1,0,2Zm6.65,1.81a2.81,2.81,0,1,1,2.81-2.81A2.81,2.81,0,0,1,20.05,32.43Zm11.59-1.81H26.83a1,1,0,0,1,0-2h4.81a1,1,0,0,1,0,2Z"/></svg>