<svg xmlns="http://www.w3.org/2000/svg" viewBox="0 0 40 40"><defs><style>.a,.b{fill:#fff;}.a{opacity:0.6;}</style></defs><title>29</title><rect class="a" x="9.78" y="9.63" width="20.43" height="3.11" rx="0.8" ry="0.8"/><path class="b" d="M28.89,14.28H10.78a.8.8,0,0,0-.8.8V29.57a.8.8,0,0,0,.8.8H29.22a.8.8,0,0,0,.8-.8V15.41A1.13,1.13,0,0,0,28.89,14.28Zm-.46,1.59V27.39l-3.25-3.14a.28.28,0,0,0-.38,0l-3,2.19-5.16-5a.29.29,0,0,0-.22-.08.28.28,0,0,0-.21.12L11.57,27.1V15.87ZM21,20.1a1.83,1.83,0,1,1,1.83,1.83A1.84,1.84,0,0,1,21,20.1Z"/></svg>