<svg xmlns="http://www.w3.org/2000/svg" viewBox="0 0 40 40"><defs><style>.a,.b{fill:#fff;}.b{opacity:0.6;}</style></defs><title>30</title><path class="a" d="M13.8,12.17H8.27a.82.82,0,0,0-.82.82V31.37a.82.82,0,0,0,.82.82H13.8a.82.82,0,0,0,.82-.82V13A.82.82,0,0,0,13.8,12.17Z"/><path class="b" d="M31.73,12.17h-15a.82.82,0,0,0-.82.82V31.54a.66.66,0,0,0,.66.66H31.9a.66.66,0,0,0,.66-.66V13A.82.82,0,0,0,31.73,12.17ZM26,15.56a.82.82,0,0,1,.82-.82h1.3a.82.82,0,0,1,.82.82v1.3a.82.82,0,0,1-.82.82h-1.3a.82.82,0,0,1-.82-.82Zm-6.53,0a.82.82,0,0,1,.82-.82h1.3a.82.82,0,0,1,.82.82v1.3a.82.82,0,0,1-.82.82h-1.3a.82.82,0,0,1-.82-.82Zm3.68,14.07H18.75a.5.5,0,1,1,0-1h4.41a.5.5,0,1,1,0,1Zm-3.68-3.46v-1.3a.82.82,0,0,1,.82-.82h1.3a.82.82,0,0,1,.82.82v1.3a.82.82,0,0,1-.82.82h-1.3A.82.82,0,0,1,19.48,26.17Zm3.68-5.85H18.75a.5.5,0,1,1,0-1h4.41a.5.5,0,0,1,0,1Zm6.53,9.31H25.28a.5.5,0,1,1,0-1H29.7a.5.5,0,1,1,0,1ZM26,26.17v-1.3a.82.82,0,0,1,.82-.82h1.3a.82.82,0,0,1,.82.82v1.3a.82.82,0,0,1-.82.82h-1.3A.82.82,0,0,1,26,26.17Zm3.68-5.85H25.28a.5.5,0,1,1,0-1H29.7a.5.5,0,1,1,0,1Z"/><rect class="b" x="7.45" y="7.81" width="25.11" height="3.19" rx="0.82" ry="0.82"/></svg>