<svg xmlns="http://www.w3.org/2000/svg" viewBox="0 0 40 40"><defs><style>.a{fill:#fff;}</style></defs><title>31</title><circle class="a" cx="17.71" cy="29.16" r="2.29"/><circle class="a" cx="26.87" cy="29.16" r="2.29"/><path class="a" d="M32,11.88a.76.76,0,0,0-.59-.27H13.51l-.66-2.49a.76.76,0,0,0-.74-.57H8.55a.76.76,0,1,0,0,1.53h3l3.92,14.7a.76.76,0,0,0,.74.57H28.39a.76.76,0,1,0,0-1.53H16.77l-.43-1.61L30,21.52a.77.77,0,0,0,.71-.62l1.53-8.39A.76.76,0,0,0,32,11.88Zm-6.69,5.83H20.76a.76.76,0,0,1,0-1.53h4.58a.76.76,0,1,1,0,1.53Z"/></svg>