<svg xmlns="http://www.w3.org/2000/svg" viewBox="0 0 40 40"><defs><style>.a{fill:#fff;}</style></defs><title>32</title><path class="a" d="M19.71,8.55a11.81,11.81,0,0,0-9.65,18.64L8.84,28.4a.7.7,0,0,0,.49,1.2l4.4,0a.94.94,0,0,0,.94-.93l0-4.4a.7.7,0,0,0-1.2-.51L12.28,25a8.68,8.68,0,0,1-1.34-4.63A8.77,8.77,0,1,1,23,28.5,1.54,1.54,0,0,0,22,30.23a1.52,1.52,0,0,0,2.05,1.11A11.81,11.81,0,0,0,19.71,8.55Z"/><circle class="a" cx="16.39" cy="20.62" r="1"/><circle class="a" cx="19.91" cy="20.62" r="1"/><circle class="a" cx="23.44" cy="20.62" r="1"/></svg>