<svg xmlns="http://www.w3.org/2000/svg" viewBox="0 0 40 40"><defs><style>.a,.b{fill:#fff;}.b{opacity:0.6;}</style></defs><title>33</title><path class="a" d="M19.28,24.77V9.51a1,1,0,0,0-1-1H9.51a1,1,0,0,0-1,1v21a1,1,0,0,0,1,1h8.82a1,1,0,0,0,1-1Z"/><path class="a" d="M31.45,22.39V17.62a1,1,0,0,0-1-1H21.67a1,1,0,0,0-1,1v4.77a1,1,0,0,0,1,1h8.82A1,1,0,0,0,31.45,22.39Z"/><path class="a" d="M21.67,15.23h8.82a1,1,0,0,0,1-1V9.51a1,1,0,0,0-1-1H21.67a1,1,0,0,0-1,1v4.77A1,1,0,0,0,21.67,15.23Z"/><path class="b" d="M20.72,25.72v4.77a1,1,0,0,0,1,1h8.82a1,1,0,0,0,1-1V25.72a1,1,0,0,0-1-1H21.67A1,1,0,0,0,20.72,25.72Z"/></svg>