<svg xmlns="http://www.w3.org/2000/svg" viewBox="0 0 40 40"><defs><style>.a,.b{fill:#fff;}.b{opacity:0.6;}</style></defs><title>34</title><path class="a" d="M29.55,20.63,23.19,27a1.35,1.35,0,0,1-1.9,0l-9.77-9.78A1.35,1.35,0,0,1,11.14,16l1-5.39a1.35,1.35,0,0,1,1.09-1.09l5.39-1a1.35,1.35,0,0,1,1.19.37l9.78,9.78A1.34,1.34,0,0,1,29.55,20.63ZM16.21,11.71a1.37,1.37,0,1,0,0,1.94A1.37,1.37,0,0,0,16.21,11.71Z"/><path class="b" d="M10.52,18.77l0,0-.3.51a1.13,1.13,0,0,0,0,1L15.08,30.8a1.13,1.13,0,0,0,1.5.54L21,29.26Z"/></svg>