<svg xmlns="http://www.w3.org/2000/svg" viewBox="0 0 40 40"><defs><style>.a,.b{fill:#fff;}.a{opacity:0.6;}</style></defs><title>35</title><path class="a" d="M27.8,8a4.19,4.19,0,0,0-4.18,4h.8a3.41,3.41,0,1,1,2.26,3.39,1.58,1.58,0,0,0,.12-.6,1.6,1.6,0,1,0-1.6,1.6,1.58,1.58,0,0,0,1-.33A4.19,4.19,0,1,0,27.8,8ZM26,14.79A.79.79,0,0,1,26,15a3.38,3.38,0,0,1-1-1,.79.79,0,0,1,.25,0A.8.8,0,0,1,26,14.79Zm-.8.8a.8.8,0,0,1-.8-.8.77.77,0,0,1,0-.12,4.16,4.16,0,0,0,.91.91Z"/><path class="b" d="M28.31,18.33l-1-5a.85.85,0,0,0-.66-.66l-5-1a.85.85,0,0,0-.77.23L8.26,24.56a.85.85,0,0,0,0,1.2l6,6a.85.85,0,0,0,1.2,0L28.08,19.1A.85.85,0,0,0,28.31,18.33Zm-5.11.47-7,7a1.41,1.41,0,0,1-2-2l7-7a1.41,1.41,0,1,1,2,2Z"/></svg>