<svg xmlns="http://www.w3.org/2000/svg" viewBox="0 0 40 40"><defs><style>.a{fill:#fff;}</style></defs><title>36</title><path class="a" d="M23.88,11.09A9,9,0,1,0,22.64,24.9a1.9,1.9,0,0,0,.52,1L28.29,31a1.91,1.91,0,0,0,2.7-2.7l-5.13-5.14a1.91,1.91,0,0,0-1-.52A9.05,9.05,0,0,0,23.88,11.09ZM22.26,22.26a6.75,6.75,0,1,1,0-9.55A6.76,6.76,0,0,1,22.26,22.26Z"/><rect class="a" x="17.17" y="14.49" width="1.07" height="5.75" rx="0.54" ry="0.54"/><rect class="a" x="17.17" y="14.49" width="1.07" height="5.75" rx="0.54" ry="0.54" transform="translate(35.07 -0.34) rotate(90)"/></svg>