<svg xmlns="http://www.w3.org/2000/svg" viewBox="0 0 40 40"><defs><style>.a,.b{fill:#fff;}.a{opacity:0.6;}</style></defs><title>37</title><path class="a" d="M30.43,21.93H24.79a1.52,1.52,0,0,0-1.52,1.52v7.37a1.52,1.52,0,0,0,1.52,1.52h5.64a1.52,1.52,0,0,0,1.52-1.52V23.45A1.52,1.52,0,0,0,30.43,21.93ZM28.69,29.3H26.53a.65.65,0,1,1,0-1.3h2.17a.65.65,0,0,1,0,1.3Zm0-2.6H26.53a.65.65,0,1,1,0-1.3h2.17a.65.65,0,0,1,0,1.3Z"/><path class="b" d="M14.18,20.25a.25.25,0,0,1,.06.17v10a1.24,1.24,0,0,0,2,1l2.36-2a1.24,1.24,0,0,0,.45-1V20.42a.25.25,0,0,1,.06-.17l7-7.71H7.21Z"/><path class="b" d="M25.79,7.66H7.54a.74.74,0,0,0-.74.74V11H26.54V8.4a.74.74,0,0,0-.74-.74Z"/></svg>