<svg xmlns="http://www.w3.org/2000/svg" viewBox="0 0 40 40"><defs><style>.a{fill:#fff;}</style></defs><title>38</title><path class="a" d="M20,7.68A12.71,12.71,0,0,0,9.62,27.74L8.3,29a.76.76,0,0,0,.53,1.29l4.74,0a1,1,0,0,0,1-1l0-4.74a.76.76,0,0,0-1.29-.55L12,25.39a9.34,9.34,0,0,1-1.44-5A9.44,9.44,0,1,1,23.5,29.15a1.66,1.66,0,0,0-1,1.86,1.63,1.63,0,0,0,2.21,1.2A12.71,12.71,0,0,0,20,7.68Z"/><path class="a" d="M24.68,21.75H20a.75.75,0,0,1-.75-.75V15.55a.75.75,0,0,1,1.5,0v4.7h3.93a.75.75,0,0,1,0,1.5Z"/></svg>