<svg xmlns="http://www.w3.org/2000/svg" viewBox="0 0 40 40"><defs><style>.a{fill:#fff;}</style></defs><title>39</title><path class="a" d="M19.14,17a.72.72,0,1,0,.72.72A.72.72,0,0,0,19.14,17Zm0,0a.72.72,0,1,0,.72.72A.72.72,0,0,0,19.14,17ZM32,11.61,28.37,8a.69.69,0,0,0-.5-.21H22.29a.72.72,0,0,0-.51.21L8.42,21.38a2.14,2.14,0,0,0,0,3l7.15,7.15a2.14,2.14,0,0,0,3,0L32,18.15a.69.69,0,0,0,.21-.5V12.11A.69.69,0,0,0,32,11.61Zm-12.86,4A2.15,2.15,0,1,1,17,17.74,2.15,2.15,0,0,1,19.14,15.6ZM18,27.23a2.15,2.15,0,1,1,2.15-2.15A2.15,2.15,0,0,1,18,27.23Zm5-5.83L14.4,22.83h-.12a.72.72,0,0,1-.12-1.42L22.74,20A.71.71,0,1,1,23,21.4Zm3.46-5.71a2.15,2.15,0,1,1,2.15-2.15A2.15,2.15,0,0,1,26.44,15.69Zm-7.3,2.77a.72.72,0,1,0-.72-.72A.72.72,0,0,0,19.14,18.46ZM18,24.37a.72.72,0,1,0,.72.72A.72.72,0,0,0,18,24.37Z"/></svg>