<svg xmlns="http://www.w3.org/2000/svg" viewBox="0 0 40 40"><defs><style>.a,.b{fill:#fff;}.a{opacity:0.6;}</style></defs><title>4</title><rect class="a" x="6.73" y="26.83" width="26.55" height="6.1" rx="0.79" ry="0.79"/><rect class="b" x="6.73" y="18.11" width="26.55" height="6.1" rx="0.79" ry="0.79"/><path class="b" d="M20.49,16.09a3.76,3.76,0,0,1,7.52,0h5.26v-.84a1.12,1.12,0,0,0-1-1.12l-1.41-.18a7.11,7.11,0,0,0-.43-1l.87-1.12a1.12,1.12,0,0,0-.09-1.49L30,9.12A1.12,1.12,0,0,0,28.55,9l-1.12.87a7.08,7.08,0,0,0-1-.43l-.18-1.41a1.13,1.13,0,0,0-1.12-1H23.41a1.13,1.13,0,0,0-1.12,1l-.18,1.41a7,7,0,0,0-1,.43L20,9a1.12,1.12,0,0,0-1.49.09L17.28,10.3a1.12,1.12,0,0,0-.1,1.49l.87,1.12a7,7,0,0,0-.43,1l-1.41.18a1.13,1.13,0,0,0-1,1.12v.84Z"/></svg>