<svg xmlns="http://www.w3.org/2000/svg" viewBox="0 0 40 40"><defs><style>.a{opacity:0.6;}.b{fill:#fff;}</style></defs><title>40</title><g class="a"><path class="b" d="M18.76,14.21,17.5,13A5.21,5.21,0,0,0,16,8.62h0a5.22,5.22,0,0,0-5-1.36.68.68,0,0,0-.31,1.14l2.77,2.77-1.14,1.14-1.14,1.14L8.4,10.68A.68.68,0,0,0,7.26,11,5.22,5.22,0,0,0,13,17.5l1.26,1.26a1.06,1.06,0,0,0,1.5,0l3-3A1.06,1.06,0,0,0,18.76,14.21Z"/><path class="b" d="M28.82,26.55l2.77,2.77A.68.68,0,0,0,32.74,29,5.22,5.22,0,0,0,27,22.5l-1.18-1.18a1.06,1.06,0,0,0-1.5,0l-3,3a1.06,1.06,0,0,0,0,1.5L22.5,27A5.21,5.21,0,0,0,24,31.38h0a5.22,5.22,0,0,0,5,1.36.68.68,0,0,0,.31-1.14l-2.77-2.77,1.14-1.14Z"/></g><path class="b" d="M8.91,26.55,8,30.33l-.3,1.18a.68.68,0,0,0,.82.82L9.67,32l3.78-.94h0L28.55,16h0l2.27-2.27,1.38-1.38a2.42,2.42,0,0,0,0-3.41l-.57-.57h0l-.57-.57a2.42,2.42,0,0,0-3.41,0L26.28,9.17h0L24,11.44h0L8.91,26.55"/></svg>