<svg xmlns="http://www.w3.org/2000/svg" viewBox="0 0 40 40"><defs><style>.a,.b,.c{fill:#fff;}.a{opacity:0.8;}.b{opacity:0.6;}</style></defs><title>41</title><path class="a" d="M31.63,19.37l-3.08-1.53-6.77,3.37a4,4,0,0,1-3.56,0l-6.77-3.37L8.37,19.37a.7.7,0,0,0,0,1.26l10.48,5.22a2.6,2.6,0,0,0,2.3,0l10.48-5.22a.7.7,0,0,0,0-1.26Z"/><path class="b" d="M31.63,25.27l-3.08-1.53-6.77,3.37a4,4,0,0,1-3.56,0l-6.77-3.37L8.37,25.27a.7.7,0,0,0,0,1.26l10.48,5.22a2.6,2.6,0,0,0,2.3,0l10.48-5.22a.7.7,0,0,0,0-1.26Z"/><path class="c" d="M8.37,14.73l10.48,5.22a2.6,2.6,0,0,0,2.3,0l10.48-5.22a.7.7,0,0,0,0-1.26L21.15,8.25a2.6,2.6,0,0,0-2.3,0L8.37,13.47a.7.7,0,0,0,0,1.26Z"/></svg>