<svg xmlns="http://www.w3.org/2000/svg" viewBox="0 0 40 40"><defs><style>.a,.b{fill:#fff;}.b{opacity:0.6;}</style></defs><title>43</title><rect class="a" x="8.83" y="24.52" width="6.1" height="7.5" rx="0.56" ry="0.56"/><rect class="b" x="16.76" y="24.52" width="6.1" height="7.5" rx="0.56" ry="0.56"/><rect class="a" x="24.69" y="24.52" width="6.1" height="7.5" rx="0.56" ry="0.56"/><rect class="b" x="8.83" y="15.28" width="6.1" height="7.5" rx="0.56" ry="0.56"/><rect class="a" x="16.76" y="15.28" width="6.1" height="7.5" rx="0.56" ry="0.56"/><rect class="a" x="24.69" y="15.28" width="6.1" height="7.5" rx="0.56" ry="0.56"/><path class="a" d="M30,7.93H9.56a.73.73,0,0,0-.73.73V12.8a.73.73,0,0,0,.73.73H30a.73.73,0,0,0,.73-.73V8.66A.73.73,0,0,0,30,7.93Z"/></svg>