<svg xmlns="http://www.w3.org/2000/svg" viewBox="0 0 40 40"><defs><style>.a,.b{fill:#fff;}.b{opacity:0.6;}</style></defs><title>44</title><path class="a" d="M21.87,13v-1.2h.24a1.1,1.1,0,0,0,1.1-1.1V9.2a1.1,1.1,0,0,0-1.1-1.1H17.29a1.1,1.1,0,0,0-1.1,1.1v1.52a1.1,1.1,0,0,0,1.1,1.1h.24V13a9.56,9.56,0,1,0,4.33,0ZM19.7,29.15a6.84,6.84,0,1,1,6.85-6.84A6.85,6.85,0,0,1,19.7,29.15Z"/><path class="b" d="M19.7,16.86a5.45,5.45,0,1,0,5.46,5.45A5.46,5.46,0,0,0,19.7,16.86Z"/><path class="a" d="M19.7,20A2.32,2.32,0,1,0,22,22.31,2.32,2.32,0,0,0,19.7,20Z"/><path class="a" d="M29.42,13.55l-1-1a1.49,1.49,0,0,0-2.11,0l-.74.74a10.86,10.86,0,0,1,3.08,3.06l.73-.73a1.49,1.49,0,0,0,0-2.11Z"/></svg>