<svg xmlns="http://www.w3.org/2000/svg" viewBox="0 0 40 40"><defs><style>.a{opacity:0.6;}.b{fill:#fff;}</style></defs><title>45</title><g class="a"><path class="b" d="M27.21,7.15a5.62,5.62,0,0,0-5.61,5.61c0,2.88,4.5,8,5,8.55a.8.8,0,0,0,1.19,0c.51-.57,5-5.67,5-8.55A5.62,5.62,0,0,0,27.21,7.15Zm0,8a2.4,2.4,0,1,1,2.4-2.4A2.4,2.4,0,0,1,27.21,15.17Z"/></g><path class="b" d="M7.68,16.57a.8.8,0,0,0-.5.75V32a.8.8,0,0,0,1.1.74L15.19,30V13.56Z"/><path class="b" d="M29,22.38a2.4,2.4,0,0,1-3.58,0l-.62-.7V32.8l7.51-3a.8.8,0,0,0,.5-.74V17.27A34.82,34.82,0,0,1,29,22.38Z"/><path class="b" d="M20.5,15l-3.71-1.48V30l6.41,2.56V19.67A20.87,20.87,0,0,1,20.5,15Z"/></svg>