<svg xmlns="http://www.w3.org/2000/svg" viewBox="0 0 40 40"><defs><style>.a{opacity:0.6;}.b{fill:#fff;}</style></defs><title>47</title><g class="a"><path class="b" d="M20,10.1c-6.35,0-12.1,3.47-16.35,9.11a1.32,1.32,0,0,0,0,1.57C7.9,26.43,13.65,29.9,20,29.9s12.1-3.47,16.35-9.11a1.32,1.32,0,0,0,0-1.57C32.1,13.57,26.35,10.1,20,10.1ZM20.46,27A7,7,0,1,1,27,20.46,7,7,0,0,1,20.46,27Zm-.21-3.22a3.76,3.76,0,1,1,3.51-3.51A3.76,3.76,0,0,1,20.24,23.75Z"/></g><path class="b" d="M20,10.1c-6.35,0-12.1,3.47-16.35,9.11a1.32,1.32,0,0,0,0,1.57C7.9,26.43,13.65,29.9,20,29.9s12.1-3.47,16.35-9.11a1.32,1.32,0,0,0,0-1.57C32.1,13.57,26.35,10.1,20,10.1ZM20.46,27A7,7,0,1,1,27,20.46,7,7,0,0,1,20.46,27Z"/><circle class="b" cx="22.26" cy="17.36" r="2.03" transform="translate(-5.76 20.82) rotate(-45)"/></svg>