<svg xmlns="http://www.w3.org/2000/svg" viewBox="0 0 40 40"><defs><style>.a,.b{fill:#fff;}.b{opacity:0.6;}</style></defs><title>5</title><path class="a" d="M27.15,7.28H12.85a1.59,1.59,0,0,0-1.59,1.59V31.13a1.59,1.59,0,0,0,1.59,1.59H27.15a1.59,1.59,0,0,0,1.59-1.59V8.87A1.59,1.59,0,0,0,27.15,7.28Zm0,20.67H12.85V10.46H27.15Z"/><path class="a" d="M18.41,18.41H15.23a.8.8,0,0,1-.79-.79V14.44a.8.8,0,0,1,.79-.79h3.18a.8.8,0,0,1,.79.79v3.18A.8.8,0,0,1,18.41,18.41Z"/><path class="b" d="M24.77,18.41H21.59a.8.8,0,0,1-.79-.79V14.44a.8.8,0,0,1,.79-.79h3.18a.8.8,0,0,1,.79.79v3.18A.8.8,0,0,1,24.77,18.41Z"/></svg>