<svg xmlns="http://www.w3.org/2000/svg" viewBox="0 0 40 40"><defs><style>.a{fill:#fff;}</style></defs><title>51</title><polygon class="a" points="23.36 6.56 23.36 13.28 30.07 13.28 23.36 6.56"/><path class="a" d="M23.36,15a1.68,1.68,0,0,1-1.68-1.68V6.56H11.61A1.68,1.68,0,0,0,9.93,8.24V31.73a1.68,1.68,0,0,0,1.68,1.68H28.39a1.68,1.68,0,0,0,1.68-1.68V15ZM14.13,11.6h5a.84.84,0,1,1,0,1.68h-5a.84.84,0,1,1,0-1.68Zm-.84,4.2a.84.84,0,0,1,.84-.84h5a.84.84,0,0,1,0,1.68h-5A.84.84,0,0,1,13.29,15.79ZM24.8,24.62,23,26.46l.43,2.62a.84.84,0,0,1-1.23.87L20,28.74,17.81,30a.84.84,0,0,1-.89,0,.84.84,0,0,1-.35-.82L17,26.47l-1.8-1.85a.84.84,0,0,1,.47-1.42l2.46-.38,1.11-2.36a.87.87,0,0,1,1.52,0l1.11,2.36,2.46.38a.84.84,0,0,1,.47,1.42Z"/></svg>