<svg xmlns="http://www.w3.org/2000/svg" viewBox="0 0 40 40"><defs><style>.a{fill:#fff;}</style></defs><title>52</title><rect class="a" x="6.22" y="21.16" width="27.57" height="12.09" rx="1.68" ry="1.68" transform="translate(40 54.42) rotate(180)"/><polygon class="a" points="11.85 12.78 12.82 12.78 12.34 11.18 11.85 12.78"/><path class="a" d="M17.39,6.72H7.29A1.07,1.07,0,0,0,6.22,7.79v8.88a1.07,1.07,0,0,0,1.07,1.07h10.1a1.07,1.07,0,0,0,1.07-1.07V7.79A1.07,1.07,0,0,0,17.39,6.72Zm-1.86,8.46a.18.18,0,0,1-.13.06H13.81a.32.32,0,0,1-.24-.07.43.43,0,0,1-.09-.14l-.21-.57H11.41l-.21.57a.43.43,0,0,1-.09.14.32.32,0,0,1-.24.07H9.28a.19.19,0,0,1-.19-.19.2.2,0,0,1,0-.06L11,9.51a.43.43,0,0,1,.12-.19.36.36,0,0,1,.27-.09h1.87a.36.36,0,0,1,.27.09.43.43,0,0,1,.12.19L15.58,15a.2.2,0,0,1,0,.06A.18.18,0,0,1,15.53,15.19Z"/><path class="a" d="M28,11.36a.47.47,0,0,0,.08-.26.49.49,0,0,0-.08-.27.3.3,0,0,0-.27-.13H27v.78h.72A.3.3,0,0,0,28,11.36Z"/><path class="a" d="M27.81,12.92H27v.84h.8a.34.34,0,0,0,.31-.14.51.51,0,0,0,.09-.28.47.47,0,0,0-.1-.29A.34.34,0,0,0,27.81,12.92Z"/><path class="a" d="M32.71,6.72H22.61a1.07,1.07,0,0,0-1.07,1.07v8.88a1.07,1.07,0,0,0,1.07,1.07h10.1a1.07,1.07,0,0,0,1.07-1.07V7.79A1.07,1.07,0,0,0,32.71,6.72Zm-2.88,8.06a3,3,0,0,1-1.8.46H25.09a.23.23,0,0,1-.23-.23V9.45a.23.23,0,0,1,.23-.23h2.86a2.94,2.94,0,0,1,1.81.45A1.62,1.62,0,0,1,30.33,11a1,1,0,0,1-.07.38,1.25,1.25,0,0,1-.17.31,1.46,1.46,0,0,1-.22.23,1.23,1.23,0,0,1-.22.15,1.26,1.26,0,0,1,.31.19,1.4,1.4,0,0,1,.26.29,1.44,1.44,0,0,1,.18.36,1.3,1.3,0,0,1,.06.41A1.66,1.66,0,0,1,29.84,14.78Z"/></svg>