<svg xmlns="http://www.w3.org/2000/svg" viewBox="0 0 40 40"><defs><style>.a{fill:none;stroke:#fff;stroke-linecap:round;stroke-linejoin:round;stroke-width:0.5px;}.b{fill:#fff;}</style></defs><title>53</title><rect class="a" x="10.61" y="21.17" width="8.17" height="10.05" rx="0.75" ry="0.75"/><rect class="a" x="10.61" y="8.79" width="8.17" height="10.05" rx="0.75" ry="0.75"/><rect class="a" x="21.23" y="8.79" width="8.17" height="10.05" rx="0.75" ry="0.75"/><path class="b" d="M28.64,21.17H22a.75.75,0,0,0-.75.75v8.55a.75.75,0,0,0,.75.75h6.67a.75.75,0,0,0,.75-.75V21.92A.75.75,0,0,0,28.64,21.17Zm-2.48,8.06a.85.85,0,0,1-1.7,0v-3a.85.85,0,0,1,1.7,0Zm-.85-4.32a.89.89,0,1,1,.89-.89A.89.89,0,0,1,25.31,24.9Z"/></svg>