<svg xmlns="http://www.w3.org/2000/svg" viewBox="0 0 40 40"><defs><style>.a,.b{fill:#fff;}.a{opacity:0.6;}</style></defs><title>54</title><rect class="a" x="8.76" y="6.87" width="22.49" height="3.86" rx="0.75" ry="0.75"/><rect class="a" x="8.76" y="28.87" width="22.49" height="5.26" rx="0.57" ry="0.57"/><path class="b" d="M20.35,19.17a.68.68,0,0,0-.09-.29.34.34,0,0,0-.54,0,.68.68,0,0,0-.09.29c0,.09,0,.19,0,.31s0,.23,0,.35,0,.23,0,.35,0,.22,0,.31a.66.66,0,0,0,.09.3.35.35,0,0,0,.53,0,.66.66,0,0,0,.09-.3c0-.09,0-.19,0-.31s0-.23,0-.35,0-.23,0-.35S20.36,19.26,20.35,19.17Z"/><polygon class="b" points="15.21 20.13 15.21 19.19 14.53 20.13 15.21 20.13"/><path class="b" d="M30.49,13.21h-21a.75.75,0,0,0-.75.75V25.7a.75.75,0,0,0,.75.75h21a.75.75,0,0,0,.75-.75V14A.75.75,0,0,0,30.49,13.21Zm-13,8a.17.17,0,0,1-.05.12.17.17,0,0,1-.12.05h-.57v.55a.18.18,0,0,1-.18.18H15.34a.17.17,0,0,1-.12-.05.17.17,0,0,1-.05-.12v-.55h-2a.17.17,0,0,1-.12-.05.17.17,0,0,1-.05-.12v-.93a.26.26,0,0,1,0-.13l0-.07L15,17.66a.3.3,0,0,1,.24-.11h1.36a.18.18,0,0,1,.18.18v2.34h.57a.17.17,0,0,1,.18.18Zm4.58-1c0,.12,0,.23,0,.31a1.92,1.92,0,0,1-.17.67,1.52,1.52,0,0,1-.39.53,1.85,1.85,0,0,1-.63.35,3,3,0,0,1-1.72,0,1.85,1.85,0,0,1-.63-.35,1.52,1.52,0,0,1-.39-.53,1.92,1.92,0,0,1-.17-.67c0-.09,0-.19,0-.31s0-.25,0-.37,0-.25,0-.38,0-.23,0-.32a1.78,1.78,0,0,1,.17-.66,1.58,1.58,0,0,1,.41-.52,1.93,1.93,0,0,1,.63-.34,2.9,2.9,0,0,1,1.68,0,1.93,1.93,0,0,1,.63.34,1.59,1.59,0,0,1,.41.52,1.78,1.78,0,0,1,.17.66q0,.14,0,.32c0,.12,0,.25,0,.38S22.07,20.07,22.06,20.2Zm4.9,1a.17.17,0,0,1-.05.12.17.17,0,0,1-.12.05h-.57v.55a.17.17,0,0,1-.05.12.17.17,0,0,1-.12.05H24.82a.17.17,0,0,1-.12-.05.17.17,0,0,1-.05-.12v-.55H22.7a.17.17,0,0,1-.12-.05.17.17,0,0,1-.05-.12v-.93a.26.26,0,0,1,0-.13l0-.07,1.85-2.41a.3.3,0,0,1,.24-.11H26a.17.17,0,0,1,.12.05.17.17,0,0,1,.05.12v2.34h.57a.18.18,0,0,1,.13.05.18.18,0,0,1,0,.12Z"/><polygon class="b" points="24.69 20.13 24.69 19.19 24.01 20.13 24.69 20.13"/></svg>