<svg xmlns="http://www.w3.org/2000/svg" viewBox="0 0 40 40"><defs><style>.a{fill:#fff;}</style></defs><title>55</title><path class="a" d="M12,20.36H8.52a.74.74,0,0,1-.74-.74V8.53a.74.74,0,0,1,.74-.74H19.61a.74.74,0,0,1,.74.74V12a.74.74,0,0,1-.74.74h-2.1a4.8,4.8,0,0,0-4.79,4.79v2.1A.74.74,0,0,1,12,20.36Zm6.22,5.93v-.76a7.38,7.38,0,0,1,7.35-7.32h.76a3.39,3.39,0,0,1,.42.06v-.78a3.39,3.39,0,0,0-3.38-3.41H17.51a3.44,3.44,0,0,0-3.44,3.41v5.84a3.44,3.44,0,0,0,3.44,3.41h.78C18.28,26.59,18.2,26.44,18.2,26.29Zm14-1.16c0-.06,0-.13,0-.19v-.12l0-.17,0-.13,0-.16,0-.13,0-.15,0-.13,0-.14,0-.13,0-.13-.05-.14-.05-.13-.06-.14L31.68,23l-.07-.14-.06-.11-.08-.14-.06-.1-.09-.14-.06-.09-.1-.14-.06-.08L31,21.92,31,21.85l-.12-.15,0-.06-.14-.15,0,0-.16-.16,0,0a5.93,5.93,0,0,0-3.68-1.68c-.15,0-.3,0-.45,0h-.76a6,6,0,0,0-6,6v.76c0,.15,0,.3.06.45a5.93,5.93,0,0,0,1.68,3.68l0,0,.17.16,0,0,.15.14.06,0,.15.12.07.05.15.11.08.06.14.1.09.06.14.09.1.06.14.08.11.06.14.07.12.05.14.06.13.05.14.05.13,0,.13,0L24,32l.13,0,.15,0,.13,0,.16,0,.13,0,.17,0h1.48a5.83,5.83,0,0,0,5.88-5.32,6,6,0,0,0,0-.61v-.76c0-.1,0-.2,0-.3S32.22,25.16,32.22,25.12Z"/></svg>