<svg xmlns="http://www.w3.org/2000/svg" viewBox="0 0 40 40"><defs><style>.a,.b,.c{fill:#fff;}.b{opacity:0.6;}.c{opacity:0.8;}</style></defs><title>56</title><path class="a" d="M7.79,29,18.11,18.7l3.19,3.19L11,32.21Z"/><path class="a" d="M23.21,13.6l-4.08,4.08,3.19,3.19,4.08-4.08Z"/><path class="b" d="M15,17.71l1.75-3.21,3.21-1.75L16.71,11,15,7.79,13.2,11,10,12.75,13.2,14.5Z"/><path class="c" d="M28,16.17l1.48-2.71L32.21,12,29.5,10.5,28,7.79,26.54,10.5,23.83,12l2.71,1.48Z"/><path class="a" d="M28,18.93l-1.48,2.71-2.71,1.48,2.71,1.48L28,27.32l1.48-2.71,2.71-1.48L29.5,21.64Z"/></svg>