<svg xmlns="http://www.w3.org/2000/svg" viewBox="0 0 40 40"><defs><style>.a{fill:#fff;}</style></defs><title>7</title><rect class="a" x="7.72" y="7.73" width="26.16" height="5.14" rx="0.61" ry="0.61" transform="translate(41.6 20.6) rotate(180)"/><path class="a" d="M14.36,31.62A8,8,0,1,0,20.07,18h-.13a3.66,3.66,0,0,0-3.62,3.82s0,.07,0,.11a2.44,2.44,0,0,1-2.44,2.44h-.15a1.64,1.64,0,0,0-1.22.44A1.58,1.58,0,0,0,12,26v0A7.93,7.93,0,0,0,14.36,31.62Zm8.21-.21a1.56,1.56,0,1,1,1.56-1.56A1.56,1.56,0,0,1,22.57,31.41ZM26.25,26a1.56,1.56,0,1,1-1.56-1.56A1.56,1.56,0,0,1,26.25,26ZM22.5,20.55a1.56,1.56,0,1,1-1.56,1.56A1.56,1.56,0,0,1,22.5,20.55Zm-3.14,9.31A1.56,1.56,0,1,1,17.8,28.3,1.56,1.56,0,0,1,19.36,29.86Zm-1.58-6.37a.31.31,0,1,1,0,.62h0a.31.31,0,0,1,0-.62ZM13.88,26a.31.31,0,0,1,.38-.22c1.5.42,2.86-1.07,2.87-1.08a.31.31,0,0,1,.47.41,4.88,4.88,0,0,1-1,.83,3.11,3.11,0,0,1-2.48.44A.31.31,0,0,1,13.88,26Z"/></svg>