<svg xmlns="http://www.w3.org/2000/svg" viewBox="0 0 40 40"><defs><style>.a,.b{fill:#fff;}.b{opacity:0.6;}</style></defs><title>9</title><circle class="a" cx="10.78" cy="20" r="4.05"/><rect class="b" x="6.73" y="25.38" width="26.55" height="6.1" rx="0.79" ry="0.79"/><rect class="b" x="6.73" y="8.52" width="26.55" height="6.1" rx="0.79" ry="0.79"/><path class="a" d="M32.73,16H16.26a.54.54,0,0,0-.44.86,5.3,5.3,0,0,1,0,6.37.54.54,0,0,0,.44.86H32.73a.55.55,0,0,0,.55-.55v-7A.55.55,0,0,0,32.73,16Zm-5.88,6.34H20a.81.81,0,0,1,0-1.62h6.8a.81.81,0,1,1,0,1.62Zm3.27-3H20a.81.81,0,0,1,0-1.62H30.11a.81.81,0,1,1,0,1.62Z"/></svg>