<svg width="38" height="32" viewBox="0 0 38 32" fill="none"
    xmlns="http://www.w3.org/2000/svg">
    <path d="M34.9307 9.34978H29.6827L24.4924 0.319517C24.3196 0.0123214 23.9228 -0.090077 23.6156 0.0827203C23.3084 0.255518 23.206 0.652311 23.3788 0.959507L28.2044 9.34978H8.91506L13.7406 0.959507C13.9198 0.652311 13.811 0.261918 13.5038 0.0827203C13.1966 -0.090077 12.8062 0.0123214 12.627 0.319517L7.43668 9.34978H2.18877C0.979185 9.34978 0 10.329 0 11.5385V13.7849C0 14.9881 0.979185 15.9737 2.18877 15.9737H2.76476L4.47993 29.1063C4.51193 30.7062 6.1695 31.999 8.19827 31.999H28.9211C30.9563 31.999 32.6075 30.7062 32.6395 29.1063L34.3547 15.9673H34.9307C36.1338 15.9673 37.1194 14.9881 37.1194 13.7785V11.5321C37.1194 10.329 36.1402 9.34978 34.9307 9.34978ZM31.3659 28.9783C31.3595 29.0103 31.3595 29.0359 31.3595 29.0615C31.3595 29.9575 30.2395 30.719 28.9211 30.719H8.19827C6.87989 30.719 5.75991 29.9639 5.75991 29.0615C5.75991 29.0359 5.75991 29.0039 5.75351 28.9783L4.05754 15.9737H33.0619L31.3659 28.9783ZM35.8394 13.7849C35.8394 14.2841 35.4298 14.6937 34.9307 14.6937H2.18877C1.68957 14.6937 1.27998 14.2841 1.27998 13.7849V11.5385C1.27998 11.0393 1.68957 10.6298 2.18877 10.6298H34.9371C35.4362 10.6298 35.8458 11.0393 35.8458 11.5385V13.7849H35.8394Z" fill="black"/>
</svg>
