<svg xmlns="http://www.w3.org/2000/svg" width="102.903" height="84.364" viewBox="0 0 102.903 84.364">
  <g id="bagel" transform="translate(-84 -48.94)">
    <g id="NewGroupe0" transform="translate(84 48.94)">
      <g id="NewGroup32-1" transform="translate(0 0)">
        <g id="Group_1320" data-name="Group 1320">
          <path id="Path_33389" data-name="Path 33389" d="M1363.029,394.11c-9.213,0-16.708,6.334-16.708,14.116a12.415,12.415,0,0,0,2.207,7.007,1.66,1.66,0,0,0,.22.315,18.4,18.4,0,0,0,28.561,0,1.576,1.576,0,0,0,.22-.315,12.4,12.4,0,0,0,2.207-7.007C1379.735,400.444,1372.239,394.11,1363.029,394.11Zm0,24.929a14.553,14.553,0,0,1-10.95-4.586,15.361,15.361,0,0,1,21.9,0A14.559,14.559,0,0,1,1363.029,419.039Zm12.752-7.488a18.786,18.786,0,0,0-25.506,0,8.913,8.913,0,0,1-.648-3.325c0-5.96,6.011-10.811,13.4-10.811s13.4,4.851,13.4,10.811a8.873,8.873,0,0,1-.65,3.325Z" transform="translate(-1325.877 -363.205)"/>
          <path id="Path_33390" data-name="Path 33390" d="M1290.305,489.579l-2.012,3.162a1.653,1.653,0,1,1-2.788-1.776l2.012-3.162a1.653,1.653,0,1,1,2.788,1.776Z" transform="translate(-1277.126 -437.383)"/>
          <path id="Path_33391" data-name="Path 33391" d="M1313.639,535.451a1.694,1.694,0,0,1-.523.085,1.653,1.653,0,0,1-1.568-1.13l-1.3-3.882a1.653,1.653,0,0,1,3.137-1.045l1.293,3.88A1.654,1.654,0,0,1,1313.639,535.451Z" transform="translate(-1297.019 -470.357)"/>
          <path id="Path_33392" data-name="Path 33392" d="M1361.206,550.361l-1.868,2.012a1.653,1.653,0,0,1-2.423-2.25l1.869-2.012a1.653,1.653,0,1,1,2.423,2.25Z" transform="translate(-1333.981 -485.712)"/>
          <path id="Path_33393" data-name="Path 33393" d="M1391.1,593.608a1.656,1.656,0,0,1-2.232-.7l-1.58-3.018a1.652,1.652,0,0,1,2.928-1.533l1.58,3.018A1.652,1.652,0,0,1,1391.1,593.608Z" transform="translate(-1358.431 -517.553)"/>
          <path id="Path_33394" data-name="Path 33394" d="M1434.89,560.3l-2.157,2.443a1.652,1.652,0,0,1-2.478-2.187l2.155-2.443a1.653,1.653,0,0,1,2.48,2.187Z" transform="translate(-1392.546 -493.674)"/>
          <path id="Path_33395" data-name="Path 33395" d="M1478.471,592.86a1.653,1.653,0,0,1-2.25-.63l-1.293-2.3a1.652,1.652,0,1,1,2.879-1.62l1.293,2.3A1.654,1.654,0,0,1,1478.471,592.86Z" transform="translate(-1428.366 -517.547)"/>
          <path id="Path_33396" data-name="Path 33396" d="M1490.232,542.444a1.651,1.651,0,0,1-2.336,0l-2.012-2.012a1.653,1.653,0,0,1,2.336-2.339l2.012,2.012A1.654,1.654,0,0,1,1490.232,542.444Z" transform="translate(-1436.895 -477.751)"/>
          <path id="Path_33397" data-name="Path 33397" d="M1533.785,539.783l-1.007,3.018a1.652,1.652,0,0,1-1.568,1.13,1.63,1.63,0,0,1-.523-.085,1.653,1.653,0,0,1-1.045-2.09l1.007-3.018a1.653,1.653,0,0,1,3.135,1.045Z" transform="translate(-1472.142 -477.749)"/>
          <path id="Path_33398" data-name="Path 33398" d="M1526.661,489.9l-2.155,2.012a1.653,1.653,0,0,1-2.256-2.417l2.155-2.012a1.653,1.653,0,0,1,2.256,2.417Z" transform="translate(-1465.89 -437.384)"/>
          <path id="Path_33399" data-name="Path 33399" d="M1556.065,462.7a1.626,1.626,0,0,1-.759.186,1.654,1.654,0,0,1-1.469-.892l-2.012-3.88a1.652,1.652,0,1,1,2.934-1.521l2.014,3.88A1.652,1.652,0,0,1,1556.065,462.7Z" transform="translate(-1489.77 -412.364)"/>
          <path id="Path_33400" data-name="Path 33400" d="M1336.906,249.929a40.94,40.94,0,0,0-26.155-8.989,41.549,41.549,0,0,0-23.135,6.745A31.39,31.39,0,0,0,1274.9,263.8,39.63,39.63,0,0,0,1256,272.2c-7.092,5.871-11,13.7-11,22.055s3.9,16.186,11,22.055a42.548,42.548,0,0,0,52.311,0,30.207,30.207,0,0,0,9.7-13.882,39.272,39.272,0,0,0,20.913-10.2,28.233,28.233,0,0,0,8.979-20.246C1347.9,263.633,1344,255.8,1336.906,249.929ZM1282.152,322c-18.664,0-33.847-12.443-33.847-27.737s15.183-27.737,33.847-27.737S1316,278.966,1316,294.26,1300.814,322,1282.152,322Zm28.6-59.98a18.228,18.228,0,0,0-12.126,4.4c-.317-.129-.634-.256-.954-.379a8.837,8.837,0,0,1-.321-2.351c0-5.962,6.013-10.813,13.4-10.813s13.4,4.851,13.4,10.813a8.929,8.929,0,0,1-.65,3.321A18.2,18.2,0,0,0,1310.751,262.017Zm10.948,7.891a14.592,14.592,0,0,1-10.884,4.586q-1.18-1.186-2.508-2.29a37.135,37.135,0,0,0-6.348-4.223,15.262,15.262,0,0,1,8.791-2.659A14.615,14.615,0,0,1,1321.7,269.908Zm-2.807,29.006a26.473,26.473,0,0,0,.41-4.655,27.25,27.25,0,0,0-5.777-16.656,17.079,17.079,0,0,0,11.628-6.749,12.512,12.512,0,0,0,2.306-7.169c0-7.784-7.5-14.118-16.708-14.118s-16.707,6.334-16.707,14.118q0,.584.058,1.166a43.981,43.981,0,0,0-11.951-1.634q-1.8,0-3.579.141c4.5-11.368,17.334-19.112,32.178-19.112,18.664,0,33.847,12.443,33.847,27.737C1344.6,284.865,1333.926,295.888,1318.892,298.915Z" transform="translate(-1245 -240.94)"/>
          <path id="Path_33401" data-name="Path 33401" d="M1531.253,310.893a8.93,8.93,0,0,1-.65,3.321,18.849,18.849,0,0,0-24.878-.591c-.317-.129-.634-.256-.954-.379a8.827,8.827,0,0,1-.321-2.351c0-5.962,6.013-10.813,13.4-10.813S1531.253,304.931,1531.253,310.893Z" transform="translate(-1452.101 -288.147)" fill="#fff"/>
          <path id="Path_33402" data-name="Path 33402" d="M1443.568,257.33c-14.844,0-27.677,7.744-32.178,19.112q1.774-.139,3.579-.141a43.979,43.979,0,0,1,11.951,1.634c-.038-.387-.059-.777-.059-1.166,0-7.784,7.494-14.118,16.707-14.118s16.708,6.334,16.708,14.118a12.511,12.511,0,0,1-2.306,7.169,17.078,17.078,0,0,1-11.628,6.749,27.251,27.251,0,0,1,5.777,16.656,26.473,26.473,0,0,1-.41,4.655c15.034-3.027,25.706-14.049,25.706-26.93C1477.415,269.773,1462.232,257.33,1443.568,257.33Zm12.956,49.728a1.636,1.636,0,0,1-.809.214,1.657,1.657,0,0,1-1.443-.843l-1.293-2.3a1.653,1.653,0,0,1,2.881-1.62l1.293,2.3A1.651,1.651,0,0,1,1456.524,307.058Zm3.232-10.619a1.654,1.654,0,0,1-2.339,0l-2.012-2.012a1.653,1.653,0,0,1,2.339-2.336l2.012,2.012A1.651,1.651,0,0,1,1459.756,296.439Zm3.021-12.58,2.157-2.012a1.652,1.652,0,0,1,2.256,2.415l-2.157,2.014a1.653,1.653,0,0,1-2.256-2.417Zm5.282,9.923-1,3.018a1.654,1.654,0,0,1-1.568,1.13,1.686,1.686,0,0,1-.523-.085,1.653,1.653,0,0,1-1.045-2.09l1-3.018a1.653,1.653,0,0,1,3.135,1.045Zm4.655-11.7a1.652,1.652,0,0,1-2.228-.706l-2.012-3.882a1.652,1.652,0,0,1,2.934-1.521l2.012,3.882A1.652,1.652,0,0,1,1472.714,282.079Z" transform="translate(-1377.818 -254.023)" fill="#c72"/>
          <path id="Path_33403" data-name="Path 33403" d="M1295.227,367.73c-18.664,0-33.847,12.443-33.847,27.737s15.183,27.737,33.847,27.737,33.845-12.443,33.845-27.737S1313.889,367.73,1295.227,367.73Zm-27.38,30.54a1.652,1.652,0,0,1-1.392-2.54l2.011-3.162a1.653,1.653,0,1,1,2.789,1.776l-2.012,3.162a1.652,1.652,0,0,1-1.4.765Zm6.848,8.971a1.7,1.7,0,0,1-.522.085,1.653,1.653,0,0,1-1.568-1.13l-1.3-3.882a1.653,1.653,0,0,1,3.137-1.045l1.293,3.88A1.654,1.654,0,0,1,1274.695,407.241Zm10.6-.444-1.868,2.012a1.653,1.653,0,0,1-2.423-2.25l1.869-2.012a1.653,1.653,0,0,1,2.423,2.25Zm5.448,11.406a1.656,1.656,0,0,1-2.231-.7l-1.58-3.018a1.653,1.653,0,0,1,2.928-1.533l1.58,3.019A1.652,1.652,0,0,1,1290.748,418.2Zm9.671-9.425-2.157,2.443a1.652,1.652,0,1,1-2.478-2.187l2.155-2.443a1.653,1.653,0,0,1,2.479,2.187Zm7.762,8.682a1.653,1.653,0,0,1-2.25-.63l-1.293-2.3a1.652,1.652,0,1,1,2.879-1.62l1.293,2.3A1.653,1.653,0,0,1,1308.181,417.46Zm3.232-10.619a1.652,1.652,0,0,1-2.337,0l-2.011-2.012a1.653,1.653,0,0,1,2.336-2.339l2.012,2.012A1.654,1.654,0,0,1,1311.413,406.841Zm-1.687-12.665a1.585,1.585,0,0,1-.22.315,18.4,18.4,0,0,1-28.561,0,1.659,1.659,0,0,1-.22-.315,12.415,12.415,0,0,1-2.207-7.007c0-7.782,7.5-14.116,16.708-14.116s16.707,6.334,16.707,14.116A12.4,12.4,0,0,1,1309.726,394.176Zm4.709.083,2.155-2.012a1.653,1.653,0,1,1,2.256,2.417l-2.155,2.012a1.653,1.653,0,0,1-2.256-2.417Zm5.282,9.923-1.007,3.018a1.653,1.653,0,0,1-1.568,1.13,1.629,1.629,0,0,1-.523-.085,1.653,1.653,0,0,1-1.045-2.09l1.007-3.018a1.653,1.653,0,1,1,3.135,1.045Zm4.653-11.7a1.627,1.627,0,0,1-.759.186,1.654,1.654,0,0,1-1.469-.892l-2.011-3.88a1.652,1.652,0,1,1,2.934-1.521l2.014,3.88A1.652,1.652,0,0,1,1324.371,392.479Z" transform="translate(-1258.075 -342.148)" fill="#c72"/>
          <path id="Path_33404" data-name="Path 33404" d="M1389.513,421.3a8.873,8.873,0,0,1-.65,3.325,18.786,18.786,0,0,0-25.506,0,8.912,8.912,0,0,1-.648-3.325c0-5.96,6.011-10.811,13.4-10.811S1389.513,415.341,1389.513,421.3Z" transform="translate(-1338.96 -376.28)" fill="#fff"/>
          <path id="Path_33405" data-name="Path 33405" d="M1620.213,482.458a1.635,1.635,0,0,1-.809.214,1.657,1.657,0,0,1-1.443-.843l-1.293-2.3a1.653,1.653,0,0,1,2.881-1.62l1.293,2.3A1.651,1.651,0,0,1,1620.213,482.458Z" transform="translate(-1541.507 -429.422)"/>
          <path id="Path_33406" data-name="Path 33406" d="M1631.974,432.042a1.654,1.654,0,0,1-2.339,0l-2.012-2.012a1.653,1.653,0,0,1,2.339-2.336l2.012,2.012a1.651,1.651,0,0,1,0,2.336Z" transform="translate(-1550.036 -389.626)"/>
          <path id="Path_33407" data-name="Path 33407" d="M1675.533,429.383l-1,3.018a1.654,1.654,0,0,1-1.568,1.13,1.685,1.685,0,0,1-.523-.085,1.653,1.653,0,0,1-1.045-2.09l1.005-3.018a1.653,1.653,0,0,1,3.135,1.045Z" transform="translate(-1585.292 -389.625)"/>
          <path id="Path_33408" data-name="Path 33408" d="M1668.409,379.5l-2.157,2.014a1.653,1.653,0,0,1-2.256-2.417l2.157-2.012a1.652,1.652,0,0,1,2.256,2.415Z" transform="translate(-1579.037 -349.256)"/>
          <path id="Path_33409" data-name="Path 33409" d="M1697.811,352.292a1.652,1.652,0,0,1-2.228-.706l-2.012-3.882a1.652,1.652,0,0,1,2.934-1.521l2.012,3.882A1.652,1.652,0,0,1,1697.811,352.292Z" transform="translate(-1602.914 -324.236)"/>
        </g>
      </g>
    </g>
  </g>
</svg>
