<svg xmlns="http://www.w3.org/2000/svg" xmlns:xlink="http://www.w3.org/1999/xlink" width="132.6" height="74.918" viewBox="0 0 132.6 74.918">
  <defs>
    <clipPath id="clip-path">
      <rect id="Rectangle_509" data-name="Rectangle 509" width="132.6" height="74.919" fill="none"/>
    </clipPath>
  </defs>
  <g id="Group_1486" data-name="Group 1486" transform="translate(-537.968 -3748.708)">
    <rect id="Rectangle_729" data-name="Rectangle 729" width="111" height="55" transform="translate(554.278 3763.5)" fill="#c72"/>
    <g id="Group_1328" data-name="Group 1328" transform="translate(537.968 3748.708)">
      <g id="Group_1317" data-name="Group 1317" clip-path="url(#clip-path)">
        <path id="Path_29794" data-name="Path 29794" d="M131.219,14.4H84.978V9.938a7.007,7.007,0,0,0,3.651-1.947,8.925,8.925,0,0,0,2.6-6.571A1.437,1.437,0,0,0,89.805,0H77.312a1.437,1.437,0,0,0-1.42,1.42,8.99,8.99,0,0,0,2.6,6.571,7.479,7.479,0,0,0,3.651,1.947V14.4H50.5V9.938a7.007,7.007,0,0,0,3.651-1.947,8.925,8.925,0,0,0,2.6-6.571A1.437,1.437,0,0,0,55.327,0H42.834a1.437,1.437,0,0,0-1.42,1.42,8.99,8.99,0,0,0,2.6,6.571,7.479,7.479,0,0,0,3.651,1.947V14.4H1.42A1.437,1.437,0,0,0,0,15.819v4.746a4.838,4.838,0,0,0,4.827,4.827h.69V73.458a1.437,1.437,0,0,0,1.42,1.42H23a1.42,1.42,0,1,0,0-2.839H8.4V25.392H124.243V72.079h-16.1a1.42,1.42,0,1,0,0,2.839h17.523a1.437,1.437,0,0,0,1.42-1.42V25.392h.69a4.838,4.838,0,0,0,4.827-4.827V15.819a1.353,1.353,0,0,0-1.379-1.42M78.853,2.839h9.41a5.963,5.963,0,0,1-1.622,3.123,4.358,4.358,0,0,1-6.165,0,5.815,5.815,0,0,1-1.622-3.123m-34.478,0h9.41a5.963,5.963,0,0,1-1.622,3.123,4.358,4.358,0,0,1-6.165,0,5.815,5.815,0,0,1-1.622-3.123M129.8,20.525a1.991,1.991,0,0,1-1.988,1.988H4.827a1.991,1.991,0,0,1-1.988-1.988V17.2H129.8Z"/>
        <path id="Path_29795" data-name="Path 29795" d="M93.99,94.585a1.437,1.437,0,0,0,1.42-1.42V87.689A4.986,4.986,0,0,0,90.42,82.7H67.989A4.986,4.986,0,0,0,63,87.689v5.476a1.437,1.437,0,0,0,1.42,1.42H74.56v17.888a.848.848,0,0,1-.487.73,10.325,10.325,0,0,0-6.125,9.451,1.437,1.437,0,0,0,1.42,1.42h5.679a1.437,1.437,0,0,0,1.42-1.42,2.631,2.631,0,0,1,2.637-2.637h.122a2.631,2.631,0,0,1,2.637,2.637,1.437,1.437,0,0,0,1.42,1.42H88.96a1.437,1.437,0,0,0,1.42-1.42,10.368,10.368,0,0,0-6.125-9.451.743.743,0,0,1-.487-.73V94.585Zm-28.15-6.9a2.164,2.164,0,0,1,2.15-2.15H90.38a2.164,2.164,0,0,1,2.15,2.15v4.056H65.839Zm17.32,28.11a7.429,7.429,0,0,1,4.3,5.435h-2.92a5.453,5.453,0,0,0-5.314-4.056H79.1a5.572,5.572,0,0,0-5.314,4.056h-2.92a7.5,7.5,0,0,1,4.3-5.435,3.673,3.673,0,0,0,2.19-3.326V94.585h3.569v17.888a3.782,3.782,0,0,0,2.231,3.326" transform="translate(-37.446 -49.155)"/>
        <path id="Path_29796" data-name="Path 29796" d="M215.149,94.585a1.437,1.437,0,0,0,1.42-1.42V87.689A4.986,4.986,0,0,0,211.58,82.7h-22.39a4.986,4.986,0,0,0-4.989,4.989v5.476a1.437,1.437,0,0,0,1.42,1.42H195.76v17.888a.848.848,0,0,1-.487.73,10.325,10.325,0,0,0-6.125,9.451,1.437,1.437,0,0,0,1.42,1.42h5.679a1.437,1.437,0,0,0,1.42-1.42,2.631,2.631,0,0,1,2.637-2.637h.122a2.631,2.631,0,0,1,2.637,2.637,1.437,1.437,0,0,0,1.42,1.42h5.679a1.437,1.437,0,0,0,1.42-1.42,10.368,10.368,0,0,0-6.125-9.451.743.743,0,0,1-.487-.73V94.585ZM187,87.689a2.164,2.164,0,0,1,2.15-2.15h22.39a2.164,2.164,0,0,1,2.15,2.15v4.056H187Zm17.32,28.11a7.428,7.428,0,0,1,4.3,5.435H205.7a5.453,5.453,0,0,0-5.314-4.056h-.122a5.572,5.572,0,0,0-5.314,4.056h-2.921a7.5,7.5,0,0,1,4.3-5.435,3.673,3.673,0,0,0,2.19-3.326V94.585h3.569v17.888a3.93,3.93,0,0,0,2.231,3.326" transform="translate(-109.484 -49.155)"/>
      </g>
    </g>
  </g>
</svg>
