<svg xmlns="http://www.w3.org/2000/svg" width="127.734" height="102.261" viewBox="0 0 127.734 102.261">
  <g id="Untitled-6" transform="translate(-0.013 -0.006)">
    <g id="Group_1321" data-name="Group 1321" transform="translate(0.013 3.791)">
      <path id="Path_33410" data-name="Path 33410" d="M195.573,103.8a59.415,59.415,0,0,0-16.443,8.763,61.689,61.689,0,0,0-5.374,4.574,36.682,36.682,0,0,0-23.667,7.794,35.29,35.29,0,0,0-3.5,3.139A60.345,60.345,0,0,0,122,134.179q4.325-4.521,8.33-9.335a182.519,182.519,0,0,0,14-19.25q2.952-4.675,5.613-9.524a168.941,168.941,0,0,0,19.148,4.815,170.674,170.674,0,0,0,23.066,2.776Q193.865,103.75,195.573,103.8Z" transform="translate(-114.095 -93.63)" fill="#c72"/>
      <path id="Path_33425" data-name="Path 33425" d="M-2626.26,1507.549l-1.74,31.009,7.752-6.012,10.917-3.481h5.854l-2.689-4.113-9.809-8.227-6.961-7.278-3.322-2.848Z" transform="translate(2661.896 -1503.722)" fill="#fff" stroke="#707070" stroke-width="1"/>
      <path id="Path_33411" data-name="Path 33411" d="M100.628,83.576a168.522,168.522,0,0,1-21.989-1.7A168.583,168.583,0,0,1,51.177,75.55,180.368,180.368,0,0,1,37.589,96.878a180.408,180.408,0,0,1-16.995,19.781q-1.794,1.807-3.531,3.459l-.1.1.117-.08c1.219-.822,2.617-1.7,4.19-2.586a58.644,58.644,0,0,1,27.567-7.574,35.239,35.239,0,0,1,27.118-10.9,58.446,58.446,0,0,1,24.813-14.39h0c1.645-.472,3.173-.835,4.548-1.118q-2.267.036-4.686.01ZM80.9,93.375a61.688,61.688,0,0,0-5.374,4.574,36.682,36.682,0,0,0-23.667,7.794,35.288,35.288,0,0,0-3.5,3.139,60.345,60.345,0,0,0-24.586,6.106q4.325-4.521,8.33-9.335a182.523,182.523,0,0,0,14-19.25q2.952-4.675,5.613-9.524A168.941,168.941,0,0,0,70.86,81.695a170.673,170.673,0,0,0,23.066,2.776q1.706.088,3.414.141A59.415,59.415,0,0,0,80.9,93.375Z" transform="translate(-15.862 -74.44)" fill="#f9f8f7"/>
      <path id="Path_33412" data-name="Path 33412" d="M90.533,67.256a1.087,1.087,0,0,0-.189-.38h0a.99.99,0,0,0-.878-.433,169.216,169.216,0,0,1-21.037-.977,166.527,166.527,0,0,1-22.311-4.007q-5.294-1.325-10.494-2.991a1.118,1.118,0,0,0-1.25.509A181,181,0,0,1,22.726,77.632,178.186,178.186,0,0,1,8.166,95.485Q4.371,99.572.329,103.417c-.894.851.284,2.454,1.341,1.739A58.926,58.926,0,0,1,17.684,97.5a56.959,56.959,0,0,1,10.831-2.16q1.222-.121,2.448-.19.58-.032,1.162-.054a2.644,2.644,0,0,0,1.531-.263,12.919,12.919,0,0,0,1.091-1.074q.589-.572,1.205-1.116a33.954,33.954,0,0,1,21.64-8.5q.87-.023,1.741,0c.229.005.461.027.69.023.6-.01.931-.389,1.335-.775a56.942,56.942,0,0,1,8.092-6.433A58.316,58.316,0,0,1,87.97,69.013c.556-.132,1.114-.255,1.673-.371l.11-.023h.008a1.119,1.119,0,0,0,.773-1.362ZM59.674,81.934a36.682,36.682,0,0,0-23.667,7.794,35.288,35.288,0,0,0-3.5,3.139A60.345,60.345,0,0,0,7.918,98.972q4.325-4.521,8.33-9.335a182.522,182.522,0,0,0,14-19.25q2.952-4.675,5.613-9.524a168.937,168.937,0,0,0,19.148,4.815,170.673,170.673,0,0,0,23.066,2.776q1.706.088,3.414.141a59.415,59.415,0,0,0-16.443,8.763A61.687,61.687,0,0,0,59.674,81.934Z" transform="translate(-0.013 -58.424)"/>
    </g>
    <g id="Group_1322" data-name="Group 1322" transform="translate(34.408 4.168)">
      <path id="Path_33413" data-name="Path 33413" d="M544.98,75.56A123.891,123.891,0,0,0,560.1,91.418c3.309,2.906,6.559,5.447,9.66,7.665Z" transform="translate(-544.06 -74.826)" fill="#f9f8f7"/>
      <path id="Path_33414" data-name="Path 33414" d="M555.792,89.453c-3.366-2.407-6.647-5.011-9.752-7.738A125.522,125.522,0,0,1,530.78,65.706l1.839-1.466a123.1,123.1,0,0,0,14.972,15.708c3.046,2.676,6.266,5.23,9.568,7.592l-1.369,1.913Z" transform="translate(-530.78 -64.24)"/>
    </g>
    <g id="Group_1323" data-name="Group 1323" transform="translate(31.812 4.815)">
      <path id="Path_33415" data-name="Path 33415" d="M511.163,75.56q-.673,9.177-1.294,18.359-.543,8.032-1.049,16.067l2.343-34.426Z" transform="translate(-507.646 -75.473)" fill="#f9f8f7"/>
      <path id="Path_33416" data-name="Path 33416" d="M493.058,108.806l-2.348-.148c.335-5.334.688-10.742,1.049-16.073.412-6.091.848-12.27,1.294-18.365l2.346.172c-.446,6.092-.881,12.266-1.293,18.352-.361,5.327-.714,10.731-1.049,16.062Z" transform="translate(-490.71 -74.22)"/>
    </g>
    <rect id="Rectangle_718" data-name="Rectangle 718" width="2.352" height="75.033" transform="translate(44.532 31.752) rotate(-21.9)"/>
    <g id="Group_1324" data-name="Group 1324" transform="translate(18.77 49.171)">
      <path id="Path_33417" data-name="Path 33417" d="M412.2,777.759a4.376,4.376,0,0,0-5.85,2.017l-14.294,29.338h-80.7a3.254,3.254,0,0,0-3.254,3.254v1.363a3.254,3.254,0,0,0,3.254,3.254h84.473a3.253,3.253,0,0,0,2.872-1.723,4.365,4.365,0,0,0,.459-.745l15.06-30.909A4.376,4.376,0,0,0,412.2,777.759Zm.931,5.322-15.06,30.909a3.164,3.164,0,0,1-.333.54l-.06.078-.046.087a2.046,2.046,0,0,1-1.807,1.084H311.354a2.049,2.049,0,0,1-2.046-2.046v-1.363a2.049,2.049,0,0,1,2.046-2.047h81.458l14.625-30.017a3.171,3.171,0,0,1,4.235-1.46h0A3.171,3.171,0,0,1,413.133,783.081Z" transform="translate(-306.892 -776.109)" fill="#fff"/>
      <path id="Path_33418" data-name="Path 33418" d="M395.3,759.256a5.59,5.59,0,0,0-7.466,2.575L373.87,790.49H293.922a4.468,4.468,0,0,0-4.462,4.463v1.363a4.468,4.468,0,0,0,4.462,4.463H378.4a4.457,4.457,0,0,0,3.89-2.275,5.657,5.657,0,0,0,.528-.873l15.059-30.909a5.585,5.585,0,0,0-2.574-7.466Zm.4,6.408-15.06,30.909a3.163,3.163,0,0,1-.333.54l-.06.078-.046.087a2.046,2.046,0,0,1-1.807,1.084H293.922a2.049,2.049,0,0,1-2.046-2.046v-1.363a2.049,2.049,0,0,1,2.046-2.047H375.38l14.625-30.017a3.171,3.171,0,0,1,4.235-1.46h0a3.171,3.171,0,0,1,1.461,4.235Z" transform="translate(-289.46 -758.693)"/>
      <path id="Path_33419" data-name="Path 33419" d="M430.574,800.538l-15.06,30.909a3.164,3.164,0,0,1-.333.54l-.06.078-.046.087a2.046,2.046,0,0,1-1.807,1.084H328.8a2.049,2.049,0,0,1-2.046-2.047v-1.363a2.049,2.049,0,0,1,2.046-2.046h81.458l14.625-30.017a3.171,3.171,0,0,1,4.235-1.46h0A3.171,3.171,0,0,1,430.574,800.538Z" transform="translate(-324.333 -793.567)" fill="#c72"/>
    </g>
    <path id="Path_33420" data-name="Path 33420" d="M1187.245,1121.98l-3.172.006-7.581.014-9.167.017-7.948.014c-1.279,0-2.56-.025-3.839.007h-.056a1.328,1.328,0,0,0,0,2.657l3.172-.006,7.581-.014,9.166-.017,7.948-.014c1.279,0,2.56.025,3.839-.007h.056a1.328,1.328,0,1,0,0-2.657Z" transform="translate(-1079.348 -1049.266)"/>
    <path id="Path_33421" data-name="Path 33421" d="M1180.9,1126.464l-5.93,7.085-.842,1.006a1.107,1.107,0,0,0,1.566,1.566l5.93-7.085.842-1.006a1.107,1.107,0,0,0-1.566-1.566Z" transform="translate(-1097.733 -1053.16)"/>
    <path id="Path_33422" data-name="Path 33422" d="M347.476,1382.115l-2.177,3.477-3.47,5.543-.8,1.274a1.117,1.117,0,0,0,.4,1.515,1.129,1.129,0,0,0,1.514-.4l2.177-3.477,3.47-5.543.8-1.274a1.117,1.117,0,0,0-.4-1.514,1.13,1.13,0,0,0-1.514.4Z" transform="translate(-318.78 -1292.04)"/>
    <path id="Path_33423" data-name="Path 33423" d="M1571.48,1383.074l2.177,3.477,3.47,5.543.8,1.274a1.107,1.107,0,0,0,1.912-1.117l-2.177-3.477-3.47-5.543-.8-1.274a1.107,1.107,0,1,0-1.912,1.117Z" transform="translate(-1469.488 -1291.881)"/>
    <path id="Path_33424" data-name="Path 33424" d="M174.273,1539.377h105.15c1.42,0,2.842.023,4.263,0,.062,0,.124,0,.187,0a1.329,1.329,0,0,0,0-2.657H178.723c-1.42,0-2.842-.023-4.263,0-.062,0-.124,0-.187,0a1.329,1.329,0,0,0,0,2.657Z" transform="translate(-161.768 -1437.121)"/>
    <rect id="Rectangle_719" data-name="Rectangle 719" width="2.352" height="5.017" transform="matrix(0.914, -0.406, 0.406, 0.914, 32.215, 0.961)"/>
  </g>
</svg>
