<svg xmlns="http://www.w3.org/2000/svg" width="107" height="106.999" viewBox="0 0 107 106.999">
  <g id="Group_1480" data-name="Group 1480" transform="translate(-349.278 -4287.5)">
    <circle id="Ellipse_52" data-name="Ellipse 52" cx="4" cy="4" r="4" transform="translate(383.278 4304.5)" fill="#fff"/>
    <circle id="Ellipse_53" data-name="Ellipse 53" cx="4" cy="4" r="4" transform="translate(412.278 4309.5)" fill="#fff"/>
    <circle id="Ellipse_55" data-name="Ellipse 55" cx="4" cy="4" r="4" transform="translate(421.278 4342.5)" fill="#fff"/>
    <circle id="Ellipse_57" data-name="Ellipse 57" cx="4" cy="4" r="4" transform="translate(376.278 4342.5)" fill="#fff"/>
    <circle id="Ellipse_58" data-name="Ellipse 58" cx="4" cy="4" r="4" transform="translate(382.278 4355.5)" fill="#fff"/>
    <g id="Group_1330" data-name="Group 1330">
      <path id="Path_33438" data-name="Path 33438" d="M594.8,2024.8,572.4,2064l16,40.8-2.64,7.28L578,2126.4h66.4l-8-6.4-12.8-15.2h12.8l23.2-40.8-23.2-39.2Z" transform="translate(-203.722 2265.5)" fill="#c72"/>
      <circle id="Ellipse_54" data-name="Ellipse 54" cx="4" cy="4" r="4" transform="translate(399.278 4326.5)" fill="#fff"/>
      <circle id="Ellipse_56" data-name="Ellipse 56" cx="4" cy="4" r="4" transform="translate(381.278 4326.5)" fill="#fff"/>
      <g id="Layer_32" data-name="Layer 32" transform="translate(348.279 4286.5)">
        <path id="Path_29764" data-name="Path 29764" d="M25.4,86.427a1.726,1.726,0,0,0,1.491.863H32.37L27.517,97.644H23.435a8.639,8.639,0,0,0-8.629,8.629A1.726,1.726,0,0,0,16.532,108H92.467a1.726,1.726,0,0,0,1.726-1.726,8.639,8.639,0,0,0-8.629-8.629H81.482L76.63,87.29h5.483a1.726,1.726,0,0,0,1.491-.863l24.161-41.419a1.726,1.726,0,0,0,0-1.74L83.6,1.849A1.726,1.726,0,0,0,82.112,1H26.887a1.726,1.726,0,0,0-1.491.863L1.235,43.282a1.726,1.726,0,0,0,0,1.74Zm33.48-37a6.9,6.9,0,1,0-8.767,0L41.779,67.2A6.877,6.877,0,0,0,33,76.935H31.359L13.326,44.145l18.033-32.79H77.641l18.033,32.79L77.641,76.935H71.773Zm-7.828-5.281A3.452,3.452,0,1,1,54.5,47.6,3.452,3.452,0,0,1,51.048,44.145ZM37.4,76.555a3.452,3.452,0,0,1,2.923-6.237ZM80.609,78.7,98.664,45.871h4.6L82.23,81.94Zm18.055-36.28L80.609,9.591,82.23,6.35l21.039,36.069ZM77.594,7.9H31.405L29.679,4.452H79.32ZM28.39,9.591,10.335,42.419h-4.6L26.77,6.35ZM10.335,45.871,28.39,78.7,26.77,81.94,5.731,45.871ZM29.679,83.838l1.726-3.452h4.2l-1.617,3.452Zm60.767,20.709H18.553a5.188,5.188,0,0,1,4.882-3.452H85.564A5.188,5.188,0,0,1,90.446,104.547Zm-59.119-6.9L53.23,50.92a6.385,6.385,0,0,0,2.54,0l21.9,46.724ZM73.394,80.386h4.2l1.726,3.452H75.006Z" transform="translate(0 0)"/>
        <path id="Path_29765" data-name="Path 29765" d="M24.9,22a6.9,6.9,0,1,0,6.9,6.9A6.9,6.9,0,0,0,24.9,22Zm0,10.355A3.452,3.452,0,1,1,28.355,28.9,3.452,3.452,0,0,1,24.9,32.355Z" transform="translate(12.339 15.242)"/>
        <path id="Path_29766" data-name="Path 29766" d="M21.9,31a6.9,6.9,0,1,0,6.9,6.9A6.9,6.9,0,0,0,21.9,31Zm0,10.355A3.452,3.452,0,1,1,25.355,37.9,3.452,3.452,0,0,1,21.9,41.355Z" transform="translate(10.161 21.774)"/>
        <path id="Path_29767" data-name="Path 29767" d="M49.806,18.9a6.9,6.9,0,1,0-6.9,6.9A6.9,6.9,0,0,0,49.806,18.9Zm-6.9,3.452A3.452,3.452,0,1,1,46.355,18.9,3.452,3.452,0,0,1,42.9,22.355Z" transform="translate(25.403 7.984)"/>
        <path id="Path_29768" data-name="Path 29768" d="M54.806,37.9a6.9,6.9,0,1,0-6.9,6.9A6.9,6.9,0,0,0,54.806,37.9Zm-6.9,3.452A3.452,3.452,0,1,1,51.355,37.9,3.452,3.452,0,0,1,47.9,41.355Z" transform="translate(29.032 21.774)"/>
        <path id="Path_29769" data-name="Path 29769" d="M25.9,9a6.9,6.9,0,1,0,6.9,6.9A6.9,6.9,0,0,0,25.9,9Zm0,10.355A3.452,3.452,0,1,1,29.355,15.9,3.452,3.452,0,0,1,25.9,19.355Z" transform="translate(13.064 5.806)"/>
      </g>
    </g>
  </g>
</svg>
