<svg xmlns="http://www.w3.org/2000/svg" xmlns:xlink="http://www.w3.org/1999/xlink" width="77.624" height="122.75" viewBox="0 0 77.624 122.75">
  <defs>
    <clipPath id="clip-path">
      <rect id="Rectangle_505" data-name="Rectangle 505" width="77.624" height="122.751" fill="none"/>
    </clipPath>
  </defs>
  <g id="Group_1481" data-name="Group 1481" transform="translate(-735.167 -3359)">
    <path id="Path_33442" data-name="Path 33442" d="M645.168,1632.8s-2.008,32.12,8.03,38.143,14.722-4.015,14.722-4.015l5.353-18.068-1.673-13.551Z" transform="translate(137.845 1785.5)" fill="#c72"/>
    <g id="Group_1333" data-name="Group 1333" transform="translate(735.167 3359)">
      <path id="Path_29804" data-name="Path 29804" d="M605.361,1568.8v30.113L598,1618.319v68.925h22.752v-68.925l-9.368-19.406V1568.8Z" transform="translate(-589.635 -1567.586)" fill="#c72"/>
      <g id="Group_1314" data-name="Group 1314">
        <g id="Group_1313" data-name="Group 1313" clip-path="url(#clip-path)">
          <path id="Path_29782" data-name="Path 29782" d="M1.422,122.751H32.828a1.421,1.421,0,0,0,1.421-1.422V53.7c0-15.022-10.563-15.621-10.563-29.481V12.713A3.291,3.291,0,0,0,25.4,9.828V7.708a3.29,3.29,0,0,0-1.713-2.885v-3.4A1.422,1.422,0,0,0,22.264,0H11.986a1.422,1.422,0,0,0-1.422,1.422v3.4A3.291,3.291,0,0,0,8.85,7.708V9.828a3.292,3.292,0,0,0,1.713,2.886V24.22C10.564,37.969,0,38.792,0,53.7v67.628a1.422,1.422,0,0,0,1.422,1.422M31.405,98.721H10.267V64.64H31.405Zm-18-95.878h7.435V4.42H13.407ZM11.694,7.708a.446.446,0,0,1,.445-.445H22.11a.446.446,0,0,1,.445.445V9.828a.446.446,0,0,1-.445.445H12.139a.446.446,0,0,1-.445-.445ZM2.844,53.7c0-13.75,10.564-14.573,10.564-29.481v-11.1h7.435v11.1c0,15.022,10.563,15.622,10.563,29.481V61.8H8.845a1.422,1.422,0,0,0-1.422,1.422v36.925a1.422,1.422,0,0,0,1.422,1.422h22.56v18.342H2.844Z" fill="#00194b"/>
          <path id="Path_29783" data-name="Path 29783" d="M92.14,144.249v22.367H82.345a1.422,1.422,0,0,0,0,2.844h22.434a1.422,1.422,0,0,0,0-2.844h-9.8V144.249c13.168-1.553,21.277-23.591,15.173-42.139a1.421,1.421,0,0,0-1.35-.977H78.317a1.422,1.422,0,0,0-1.351.977c-6.046,18.38,1.944,40.579,15.173,42.139M77.857,118.182h31.41c-2.012,30.934-29.4,30.9-31.41,0m1.506-14.206h28.4a40.557,40.557,0,0,1,1.6,11.362h-31.6a40.577,40.577,0,0,1,1.6-11.362" transform="translate(-34.6 -46.708)" fill="#00194b"/>
        </g>
      </g>
    </g>
  </g>
</svg>
