<svg xmlns="http://www.w3.org/2000/svg" width="104.1" height="80.728" viewBox="0 0 104.1 80.728">
  <g id="Butchers" transform="translate(5363 -271)">
    <g id="Group_1310" data-name="Group 1310" transform="translate(-5363 271)">
      <g id="Group_1304" data-name="Group 1304" transform="translate(0 0)">
        <path id="Path_33236" data-name="Path 33236" d="M294.718,349.452c0-4.523,2.076-7.675,3.939-7.675s3.939,3.152,3.939,7.675-2.076,7.675-3.939,7.675-3.939-3.151-3.939-7.675Zm10.936,0c0-6.017-3.074-10.732-7-10.732s-7,4.715-7,10.732,3.074,10.732,7,10.732,7-4.715,7-10.732Z" transform="translate(-282.134 -321.071)" fill="#a07041"/>
        <path id="Path_33237" data-name="Path 33237" d="M283.392,255.665c15.227,1.633,26.031,8.556,32.113,20.579l4.141,9.254a8.713,8.713,0,0,1-.38,7.865,8.825,8.825,0,0,1-1.314,1.753,8.72,8.72,0,0,1-1.8,1.423,52.565,52.565,0,0,1-6.493,3.219l-22.746-14.423a1.528,1.528,0,0,0-2.319,1.582,53.374,53.374,0,0,0,6.817,17.625,107.688,107.688,0,0,1-23.036.5,19.175,19.175,0,0,0,5.06-5.787c2.97-5,4.607-11.614,4.607-18.625s-1.635-13.627-4.607-18.625a18.673,18.673,0,0,0-5.585-6.15,68.972,68.972,0,0,1,15.545-.194Zm46.781,33.7a5.266,5.266,0,0,0,4.895-1.955,3.37,3.37,0,1,1,3.856,5.211,1.529,1.529,0,0,0-.367,2.66,3.352,3.352,0,0,1,1.308,3.372,3.4,3.4,0,0,1-3.594,2.7,3.363,3.363,0,0,1-2.839-2.1,5.275,5.275,0,0,0-4.182-3.209l-7.417-1.023c.029-.049.059-.1.088-.149a11.792,11.792,0,0,0,1.537-5.819c0-.206-.006-.41-.016-.614l6.728.929h0ZM327.5,315.107a1.193,1.193,0,0,1-.157.9l-2.092,3.3-6.936-4.4a50.544,50.544,0,0,1-15.982-16.182l24.641,15.625a1.188,1.188,0,0,1,.529.751h0Zm18.14,13.631a2.558,2.558,0,0,1-3.525.79l-.031-.018-14.245-8.571,2.084-3.288a4.264,4.264,0,0,0,.516-1.17l14.421,8.74a2.558,2.558,0,0,1,.778,3.517h0Zm-24.118-3.543a1.2,1.2,0,0,1-1.655.371l-9.683-6.14a50.887,50.887,0,0,1-21.756-29.511l8.589,5.446A53.605,53.605,0,0,0,316.679,317.5l6.936,4.4-2.092,3.3h0Zm-69.294-27.5c-2.694-4.533-4.176-10.593-4.176-17.064a33.934,33.934,0,0,1,4.176-17.064c2.545-4.284,5.844-6.644,9.287-6.644s6.742,2.359,9.287,6.644c2.694,4.533,4.176,10.594,4.176,17.064A33.934,33.934,0,0,1,270.8,297.7c-2.545,4.284-5.844,6.644-9.287,6.644s-6.742-2.36-9.287-6.644Zm9.087-43.825c-4.488.084-8.642,2.964-11.716,8.136-2.97,5-4.607,11.614-4.607,18.625s1.635,13.627,4.607,18.625c3.092,5.2,7.279,8.089,11.8,8.138a129.9,129.9,0,0,0,16.462,1.09,102.366,102.366,0,0,0,15.39-1.123,53.368,53.368,0,0,0,15.292,14.643l9.683,6.14a4.237,4.237,0,0,0,2.272.663,4.325,4.325,0,0,0,.939-.1,4.228,4.228,0,0,0,2.664-1.874l2.1-3.313,14.292,8.6a5.61,5.61,0,0,0,5.995-9.485c-.008-.006-.018-.01-.027-.016l-17.15-10.4a1.5,1.5,0,0,0-.265-.127,4.5,4.5,0,0,0-.437-.318l-15.839-10.044a53.154,53.154,0,0,0,4.933-2.562,11.6,11.6,0,0,0,1.872-1.374l9.263,1.278A2.212,2.212,0,0,1,330.6,300.4a6.406,6.406,0,0,0,5.4,4q.272.024.545.025a6.423,6.423,0,0,0,5.323-10.04,6.426,6.426,0,1,0-9.224-8.842,2.2,2.2,0,0,1-2.055.8l-7.756-1.07c-.116-.345-.249-.684-.4-1.021l-4.156-9.287-.031-.065a38.483,38.483,0,0,0-15.719-16.574,48.944,48.944,0,0,0-18.9-5.707,71.261,71.261,0,0,0-22.314,1.257h0Z" transform="translate(-244.99 -252.253)" fill="#a07041"/>
        <path id="Path_33238" data-name="Path 33238" d="M421.19,291.492a44.526,44.526,0,0,1,10.779,2.839c5.266,2.1,12.373,6.176,16.327,13.633a1.528,1.528,0,1,0,2.7-1.431c-3.486-6.574-9.7-11.785-17.978-15.074a46.915,46.915,0,0,0-11.528-3.009,1.528,1.528,0,0,0-.3,3.041Z" transform="translate(-384.129 -281.056)" fill="#a07041"/>
      </g>
      <path id="Path_33246" data-name="Path 33246" d="M416.894,56.348a1.529,1.529,0,0,1-2.066-.635c-3.956-7.456-11.063-11.528-16.329-13.633a44.756,44.756,0,0,0-10.779-2.839,1.528,1.528,0,1,1,.3-3.041,46.912,46.912,0,0,1,11.526,3.009c8.275,3.286,14.492,8.5,17.98,15.074A1.53,1.53,0,0,1,416.894,56.348Z" transform="translate(-350.661 -28.806)" fill="#fff"/>
    </g>
    <g id="Group_1309" data-name="Group 1309" transform="translate(-5363 271)">
      <g id="Ellipse_47" data-name="Ellipse 47" transform="translate(2.421 3.596)" fill="#c72" stroke="#707070" stroke-width="1">
        <ellipse cx="14.222" cy="24.813" rx="14.222" ry="24.813" stroke="none"/>
        <ellipse cx="14.222" cy="24.813" rx="13.722" ry="24.313" fill="none"/>
      </g>
      <path id="Path_33247" data-name="Path 33247" d="M-4993.169,431.995h10.669l2.83-2.395h3.7l2.4,2.395v4.79l-2.4,2.177,2.4,4.354-2.4,3.484h-3.7l-4.573-2.177-5.661-2.613h-6.1l1.525-5.225Z" transform="translate(5070.91 -397.228)" fill="#fff"/>
      <path id="Path_33248" data-name="Path 33248" d="M506.722,232.691,477.33,214.4l2.449,5.389,4.572,5.225,5.388,6.042,7.511,5.225,5.878,2.939Z" transform="translate(-423.076 -170.641)" fill="#fff"/>
      <path id="Path_33249" data-name="Path 33249" d="M-4959.681,580.6l14.533,8,2.45,2.613v2.776l-1.47,2.613h-3.1l-16.329-9.8Z" transform="translate(5045.123 -517.406)" fill="#fff" stroke="#707070" stroke-width="1"/>
      <g id="Ellipse_48" data-name="Ellipse 48" transform="translate(11.499 19.331)" fill="#fff" stroke="#707070" stroke-width="1">
        <ellipse cx="5.144" cy="9.381" rx="5.144" ry="9.381" stroke="none"/>
        <ellipse cx="5.144" cy="9.381" rx="4.644" ry="8.881" fill="none"/>
      </g>
      <g id="NewGroupe0" transform="translate(0 0)">
        <g id="NewGroup17-1" transform="translate(0 0)">
          <g id="Group_1306" data-name="Group 1306">
            <path id="Path_33242" data-name="Path 33242" d="M261.248,97.212c0-4.523,2.076-7.675,3.939-7.675s3.939,3.152,3.939,7.675-2.076,7.675-3.939,7.675-3.939-3.152-3.939-7.675Zm10.936,0c0-6.017-3.074-10.732-7-10.732s-7,4.715-7,10.732,3.074,10.732,7,10.732,7-4.715,7-10.732Z" transform="translate(-248.666 -68.829)"/>
            <path id="Path_33243" data-name="Path 33243" d="M313.023,70.385,313,70.368l-17.152-10.4a1.354,1.354,0,0,0-.263-.127,4.508,4.508,0,0,0-.437-.318L279.306,49.483a52.681,52.681,0,0,0,4.933-2.562,11.682,11.682,0,0,0,1.87-1.374l9.263,1.278a2.216,2.216,0,0,1,1.766,1.325,6.407,6.407,0,0,0,5.4,4q.273.024.545.024a6.421,6.421,0,0,0,5.321-10.04,6.422,6.422,0,0,0-2.935-11.232,6.412,6.412,0,0,0-6.287,2.392,2.2,2.2,0,0,1-2.057.8l-7.756-1.07q-.175-.517-.4-1.021l-4.154-9.289c-.01-.02-.02-.043-.033-.063A38.488,38.488,0,0,0,269.067,6.075a48.978,48.978,0,0,0-18.9-5.707,71.262,71.262,0,0,0-22.314,1.257c-4.488.084-8.642,2.964-11.716,8.136-2.97,5-4.6,11.614-4.6,18.625s1.635,13.627,4.6,18.625c3.092,5.2,7.281,8.089,11.8,8.138a130.227,130.227,0,0,0,16.46,1.088,102.419,102.419,0,0,0,15.392-1.123A53.377,53.377,0,0,0,275.081,69.76l9.683,6.14a4.236,4.236,0,0,0,2.272.663,4.325,4.325,0,0,0,.939-.1,4.228,4.228,0,0,0,2.664-1.876l2.1-3.311,14.292,8.6a5.611,5.611,0,0,0,5.993-9.487ZM278.4,25.48a1.528,1.528,0,0,1-2.7,1.431c-3.956-7.456-11.063-11.528-16.329-13.633a44.755,44.755,0,0,0-10.779-2.839,1.528,1.528,0,1,1,.3-3.041,46.913,46.913,0,0,1,11.526,3.009C268.692,13.692,274.909,18.905,278.4,25.48ZM288.46,42.627A11.808,11.808,0,0,0,290,36.806c0-.2-.006-.41-.016-.614l6.728.929a5.266,5.266,0,0,0,4.895-1.955,3.366,3.366,0,0,1,3.3-1.255,3.4,3.4,0,0,1,2.731,3.572,3.352,3.352,0,0,1-2.174,2.894,1.528,1.528,0,0,0-.365,2.66,3.352,3.352,0,0,1,1.306,3.374,3.4,3.4,0,0,1-3.594,2.7,3.364,3.364,0,0,1-2.837-2.1A5.274,5.274,0,0,0,295.79,43.8l-7.418-1.023c.029-.051.059-.1.088-.149Zm-60.409,9.467c-3.443,0-6.742-2.36-9.287-6.644-2.694-4.533-4.178-10.593-4.178-17.064s1.484-12.531,4.178-17.064c2.545-4.284,5.844-6.644,9.287-6.644s6.744,2.36,9.289,6.644a33.935,33.935,0,0,1,4.176,17.064A33.935,33.935,0,0,1,237.34,45.45c-2.545,4.284-5.844,6.644-9.289,6.644Zm60.005,20.854a1.2,1.2,0,0,1-1.655.369l-9.683-6.14a50.872,50.872,0,0,1-21.756-29.511l8.589,5.446a53.6,53.6,0,0,0,19.664,22.136l6.936,4.4-2.094,3.3Zm5.823-9.183-2.092,3.3-6.938-4.4a50.545,50.545,0,0,1-15.982-16.182L293.508,62.11a1.183,1.183,0,0,1,.529.751A1.2,1.2,0,0,1,293.88,63.765Zm18.3,12.724a2.558,2.558,0,0,1-3.525.79l-.031-.018L294.376,68.69l2.086-3.288a4.257,4.257,0,0,0,.514-1.17l14.421,8.74a2.556,2.556,0,0,1,.78,3.517Z" transform="translate(-211.53 -0.003)"/>
            <path id="Path_33244" data-name="Path 33244" d="M459.5,216.51l-2.094,3.3a1.2,1.2,0,0,1-1.655.369l-9.683-6.14A50.872,50.872,0,0,1,424.31,184.53l8.589,5.446a53.6,53.6,0,0,0,19.664,22.136l6.936,4.4Z" transform="translate(-380.879 -146.866)" fill="#c72"/>
            <path id="Path_33245" data-name="Path 33245" d="M375.29,45.194,371.15,35.94c-6.083-12.022-16.886-18.946-32.113-20.579a69.112,69.112,0,0,0-15.547.194,18.674,18.674,0,0,1,5.585,6.15c2.97,5,4.607,11.614,4.607,18.625s-1.637,13.627-4.607,18.625a19.176,19.176,0,0,1-5.06,5.787,107.819,107.819,0,0,0,23.036-.5,53.391,53.391,0,0,1-6.817-17.625,1.529,1.529,0,0,1,2.319-1.584L365.3,59.453a51.987,51.987,0,0,0,6.493-3.219,8.662,8.662,0,0,0,3.119-3.176,8.713,8.713,0,0,0,.38-7.864Zm-8.42-5.7a1.529,1.529,0,0,1-2.066-.635c-3.956-7.456-11.063-11.528-16.329-13.633A44.755,44.755,0,0,0,337.7,22.382a1.528,1.528,0,0,1,.3-3.041,46.912,46.912,0,0,1,11.526,3.009c8.275,3.286,14.492,8.5,17.98,15.074A1.53,1.53,0,0,1,366.87,39.489Z" transform="translate(-300.637 -11.947)" fill="#c72"/>
          </g>
        </g>
      </g>
    </g>
  </g>
</svg>
