<svg id="Caterers" xmlns="http://www.w3.org/2000/svg" width="93.034" height="95.8" viewBox="0 0 93.034 95.8">
  <g id="Layer_1" transform="translate(0.228)">
    <path id="Path_33230" data-name="Path 33230" d="M52.874,51.185A6.188,6.188,0,0,1,59.055,45c.141,0,.289,0,.437.016H59.5l.027,0h.032A9.569,9.569,0,0,1,62.8,45.8,6.593,6.593,0,0,1,66.8,50.78a1.15,1.15,0,0,0,1.126.924,1.119,1.119,0,0,0,.228-.023,1.148,1.148,0,0,0,.9-1.352A9.564,9.564,0,0,0,60.6,42.8c-.007-.123-.011-.246-.011-.369A6.181,6.181,0,0,1,72.3,39.679a1.151,1.151,0,0,0,2.06,0,6.181,6.181,0,0,1,11.715,2.751c0,.123,0,.246-.011.369a9.561,9.561,0,0,0-8.456,7.53,1.147,1.147,0,0,0,.9,1.352,1.135,1.135,0,0,0,.228.023,1.148,1.148,0,0,0,1.126-.924c1.1-5.5,6.877-5.748,7.234-5.757l.068,0c.15-.011.3-.016.444-.016a6.181,6.181,0,1,1,0,12.362c-.152,0-.309-.007-.467-.018a1.153,1.153,0,0,0-1.236,1.147V61.74H60.755V58.495a1.149,1.149,0,0,0-1.233-1.147c-.155.011-.312.018-.467.018A6.191,6.191,0,0,1,52.874,51.185ZM80.062,87.153c.071-.046.143-.093.212-.141,5.9-4.035,8.063-12.582,5.862-22.973H60.527c-2.2,10.391-.036,18.938,5.862,22.973l.216.143.046.03a12.212,12.212,0,0,0,13.361,0ZM133.95,127.41H87.51l-1.6,4.376c-.009.025-.016.048-.027.073l-.071.191h49.835Zm-43.12-2.3h39.8a19.932,19.932,0,0,0-39.8,0Zm22.02-20.982V99.387h-4.242v4.74q1.048-.1,2.121-.1C111.443,104.027,112.151,104.063,112.85,104.129ZM85.626,125.867l-1.613,4.413H68.246V108.915l4.219-4.551.034-.036,8.664-9.349h7.71a14.324,14.324,0,0,1,13.711,10.6,22.277,22.277,0,0,0-14.052,19.537H86.709A1.143,1.143,0,0,0,85.626,125.867Zm-7.25-1.955a3.774,3.774,0,1,0-3.773,3.775A3.777,3.777,0,0,0,78.375,123.912Zm0-10.338a3.774,3.774,0,1,0-3.773,3.775A3.777,3.777,0,0,0,78.375,113.573ZM65.34,94.976H57.792c-8.293,0-12.78,7.394-14.23,14.353l-.312,20.95h7.323V112.313a1.149,1.149,0,1,1,2.3,0v17.967H65.943V108.462a1.148,1.148,0,0,1,.332-.808l3.939-4.251Zm1.814-4.886V93.52l4.7,8.117,7.655-8.261V90.088a14.483,14.483,0,0,1-6.176,1.386h0A14.447,14.447,0,0,1,67.154,90.091ZM74.6,112.1a1.477,1.477,0,1,0,1.475,1.477A1.478,1.478,0,0,0,74.6,112.1Zm0,10.338a1.477,1.477,0,1,0,1.475,1.477A1.478,1.478,0,0,0,74.6,122.435Z" transform="translate(-43.25 -36.25)" fill="#c72" fill-rule="evenodd"/>
  </g>
  <circle id="Ellipse_43" data-name="Ellipse 43" cx="4.328" cy="4.328" r="4.328" transform="translate(27.679 72.842)" fill="#c72"/>
  <circle id="Ellipse_44" data-name="Ellipse 44" cx="4.328" cy="4.328" r="4.328" transform="translate(27.679 83.094)" fill="#c72"/>
  <circle id="Ellipse_45" data-name="Ellipse 45" cx="2.506" cy="2.506" r="2.506" transform="translate(29.501 83.891)" fill="#fff"/>
  <circle id="Ellipse_46" data-name="Ellipse 46" cx="2.506" cy="2.506" r="2.506" transform="translate(29.501 73.526)" fill="#fff"/>
  <rect id="Rectangle_735" data-name="Rectangle 735" width="3" height="18" rx="1.5" transform="translate(7 75.04)" fill="#fff"/>
  <path id="Path_33526" data-name="Path 33526" d="M-942.65,884.59l2.6-6,46.2,1.2,1.6,4.8Z" transform="translate(984 -790.5)" fill="#fff"/>
  <path id="Path_33527" data-name="Path 33527" d="M-3920.767,3508.566h24.8v4.3h-25.467Z" transform="translate(3939 -3485.594)" fill="#fff"/>
  <g id="Layer_x0020_1">
    <g id="_613363072">
      <path id="_613327456" d="M290.261,2269.773H249.49a1.1,1.1,0,0,1-.783-.328,1.09,1.09,0,0,1-.314-.785l.314-21.205a1.213,1.213,0,0,1,.022-.2c1.532-7.518,6.476-15.551,15.746-15.551h7.837a1.1,1.1,0,0,1,.948.548l4.635,8,7.6-8.2a1.1,1.1,0,0,1,.8-.353h7.834a15.883,15.883,0,0,1,15.449,12.778,1.1,1.1,0,0,1-2.152.435,13.68,13.68,0,0,0-13.3-11.02h-7.358l-8.267,8.92c-.014.014-.022.025-.033.036l-4.315,4.657a1.1,1.1,0,1,1-1.609-1.493l3.784-4.081-4.652-8.041h-7.2c-7.912,0-12.194,7.054-13.577,13.7l-.3,19.99h39.658a1.1,1.1,0,0,1,0,2.2Z" transform="translate(-248.393 -2175.665)" fill-rule="evenodd"/>
      <path id="_613327120" d="M832.37,1188.725a13.869,13.869,0,0,1-7.862-2.453,16.646,16.646,0,0,1-6.426-9.3c-1.309-4.5-1.271-9.816.124-15.782a1.1,1.1,0,0,1,2.136.5c-2.4,10.3-.383,18.808,5.4,22.771a11.66,11.66,0,0,0,13.25,0c5.787-3.957,7.81-12.47,5.4-22.771a1.1,1.1,0,0,1,2.136-.5c1.394,5.969,1.433,11.279.121,15.782a16.6,16.6,0,0,1-6.424,9.3,13.888,13.888,0,0,1-7.862,2.453Z" transform="translate(-801.456 -1133.837)" fill-rule="evenodd"/>
      <path id="_613327552" d="M1077.8,2042.225a1.094,1.094,0,0,1-1.1-1.1V2035.7a1.1,1.1,0,0,1,2.194,0v5.432A1.1,1.1,0,0,1,1077.8,2042.225Z" transform="translate(-1053.874 -1983.997)" fill-rule="evenodd"/>
      <path id="_613327312" d="M1585.1,2042.225a1.1,1.1,0,0,1-1.1-1.1V2035.7a1.1,1.1,0,1,1,2.194,0v5.432a1.1,1.1,0,0,1-1.1,1.1Z" transform="translate(-1547.194 -1983.997)" fill-rule="evenodd"/>
      <path id="_613363312" d="M1115.5,2762.607a1.1,1.1,0,0,1-1.1-1.1V2739.6a1.1,1.1,0,1,1,2.194,0v21.913a1.1,1.1,0,0,1-1.1,1.1Z" transform="translate(-1090.535 -2668.499)" fill-rule="evenodd"/>
      <path id="_613363624" d="M592.011,224.813h24v-3.1a1.1,1.1,0,0,1,1.18-1.1c.149.011.3.017.446.017a5.9,5.9,0,0,0,0-11.795c-.138,0-.281.006-.424.017a1.1,1.1,0,0,1-1.155-1.309A5.9,5.9,0,0,0,605,203.759a1.1,1.1,0,0,1-1.965,0,5.9,5.9,0,0,0-11.062,3.789,1.1,1.1,0,0,1-1.152,1.309c-.146-.011-.286-.017-.424-.017a5.9,5.9,0,0,0,0,11.795q.223,0,.446-.017a1.1,1.1,0,0,1,1.177,1.1l-.005,3.1Zm25.094,2.194h-26.19a1.094,1.094,0,0,1-1.094-1.1v-3.1a8.091,8.091,0,0,1-.154-16.129c-.005-.1-.005-.2-.005-.292a8.091,8.091,0,0,1,14.352-5.126,8.091,8.091,0,0,1,14.352,5.126c0,.1,0,.2-.006.292a8.093,8.093,0,0,1-.157,16.132v3.1a1.092,1.092,0,0,1-1.1,1.094Z" transform="translate(-573.099 -198.3)" fill-rule="evenodd"/>
      <path id="_613363528" d="M863.157,510.573a1.1,1.1,0,0,1-1.075-.882,6.294,6.294,0,0,0-3.822-4.748,9.18,9.18,0,0,0-3.086-.747,1.1,1.1,0,0,1,.016-2.2h.019c2.626.044,7.9,1.618,9.022,7.256a1.094,1.094,0,0,1-.86,1.29.821.821,0,0,1-.215.028Z" transform="translate(-837.402 -493.631)" fill-rule="evenodd"/>
      <path id="_613363240" d="M1518.423,510.768a1,1,0,0,1-.218-.022,1.1,1.1,0,0,1-.86-1.29c1.127-5.638,6.4-7.214,9.022-7.256h.019a1.1,1.1,0,0,1,.022,2.2c-.245.006-5.853.2-6.911,5.495a1.1,1.1,0,0,1-1.075.876Z" transform="translate(-1482.356 -493.825)" fill-rule="evenodd"/>
      <path id="_613363600" d="M1287.1,2826.693a1.408,1.408,0,1,0,1.408,1.408,1.409,1.409,0,0,0-1.408-1.408Zm0,5.01a3.6,3.6,0,1,1,3.6-3.6,3.6,3.6,0,0,1-3.6,3.6Z" transform="translate(-1254.975 -2752.129)" fill-rule="evenodd"/>
      <path id="_613363672" d="M1287.1,3184.694a1.408,1.408,0,1,0,1.408,1.408,1.409,1.409,0,0,0-1.408-1.408Zm0,5.01a3.6,3.6,0,1,1,3.6-3.6,3.6,3.6,0,0,1-3.6,3.6Z" transform="translate(-1254.975 -3100.264)" fill-rule="evenodd"/>
      <path id="_613363696" d="M583.3,2892.234a1.1,1.1,0,0,1-1.1-1.1V2872.9a1.1,1.1,0,1,1,2.194,0v18.24A1.1,1.1,0,0,1,583.3,2892.234Z" transform="translate(-573.001 -2798.126)" fill-rule="evenodd"/>
      <path id="_613363408" d="M1936.53,2647.01a1.1,1.1,0,0,1-1.1-1.1,19.02,19.02,0,0,0-38.04,0,1.1,1.1,0,0,1-2.194,0,21.214,21.214,0,0,1,42.427,0,1.1,1.1,0,0,1-1.1,1.1Z" transform="translate(-1849.819 -2557.835)" fill-rule="evenodd"/>
      <path id="_613362424" d="M1708.195,3361.419h47.552l-1.617-4.428h-44.315l-1.62,4.428Zm49.121,2.2h-50.689a1.1,1.1,0,0,1-.9-.468,1.109,1.109,0,0,1-.132-1.006l2.422-6.619a1.1,1.1,0,0,1,1.028-.722h45.847a1.094,1.094,0,0,1,1.028.722l2.422,6.619a1.1,1.1,0,0,1-1.028,1.475Z" transform="translate(-1665.376 -3267.816)" fill-rule="evenodd"/>
      <path id="_613363168" d="M2519.339,2393.458a1.1,1.1,0,0,1-1.1-1.1V2386.6h-4.049v5.765a1.1,1.1,0,0,1-2.193,0V2385.5a1.1,1.1,0,0,1,1.1-1.1h6.242a1.1,1.1,0,0,1,1.1,1.1v6.862a1.1,1.1,0,0,1-1.1,1.1Z" transform="translate(-2449.621 -2324.157)" fill-rule="evenodd"/>
    </g>
  </g>
</svg>
