<svg xmlns="http://www.w3.org/2000/svg" width="96.703" height="102.261" viewBox="0 0 96.703 102.261">
  <g id="Coffee_Shops" data-name="Coffee Shops" transform="translate(-7.446 -5)">
    <path id="Path_33519" data-name="Path 33519" d="M-1460.8,3409.406l-13.332-2.424v-52.115h60.3l1.515,42.723-1.515,9.393-5.454,2.424h-39.692" transform="translate(1495.124 -3312.522)" fill="#c72"/>
    <path id="Path_33520" data-name="Path 33520" d="M-1418.933,3354.333h10l5.757,3.333,3.03,6.363v30.906l-6.666,7.272-12.12,2.727v-11.816h5.151l4.848-5.454v-13.029l-1.515-10.605h-8.484Z" transform="translate(1502.644 -3312.595)" fill="#e4e4e4"/>
    <path id="Path_33518" data-name="Path 33518" d="M90.92,39.919H83.562a1.378,1.378,0,0,0-.206.01,1.4,1.4,0,0,1-.206-.01H17.12A4.329,4.329,0,0,0,12.8,44.243V88.8a9.8,9.8,0,0,0,9.789,9.789H75.469a9.788,9.788,0,0,0,8.281-4.579H87.9a16.264,16.264,0,0,0,16.248-16.248V53.146A13.242,13.242,0,0,0,90.92,39.919ZM85.258,54.026h4.78V77.761A2.141,2.141,0,0,1,87.9,79.9H85.258ZM75.469,94.373H22.584A5.582,5.582,0,0,1,17.009,88.8V44.243a.114.114,0,0,1,.114-.114H81.046V88.8a5.546,5.546,0,0,1-.46,2.216c-.015.03-.03.06-.042.091a5.583,5.583,0,0,1-5.074,3.269ZM99.933,77.761A12.044,12.044,0,0,1,87.9,89.8H85.208q.049-.492.05-1V84.113H87.9a6.363,6.363,0,0,0,6.35-6.352V53.146a3.335,3.335,0,0,0-3.331-3.331H85.258V44.133H90.92a9.024,9.024,0,0,1,9.014,9.014ZM66.414,63.3c-.016-.383-.04-.765-.077-1.143C65.83,57.027,63.466,53,59.68,50.811s-8.459-2.218-13.156-.091a25.507,25.507,0,0,0-11.229,10.6,26.012,26.012,0,0,0-3.651,13.635,1.848,1.848,0,0,0,.008.251c.016.384.039.766.076,1.144.507,5.132,2.871,9.163,6.658,11.349a12.537,12.537,0,0,0,6.332,1.663,16.589,16.589,0,0,0,6.819-1.577,25.525,25.525,0,0,0,11.229-10.6A26.025,26.025,0,0,0,66.417,63.55a2.092,2.092,0,0,0-.008-.248ZM48.261,54.554a12.385,12.385,0,0,1,5.078-1.189,8.385,8.385,0,0,1,4.235,1.091,9.374,9.374,0,0,1,4.263,6.238c-6.088-.991-11.1,1.553-14.615,7.481-2.825,4.762-6.46,6.457-11.362,5.263a22.363,22.363,0,0,1,3.079-10.014,21.3,21.3,0,0,1,9.317-8.867ZM49.8,83.945c-3.427,1.551-6.734,1.591-9.317.1A9.371,9.371,0,0,1,36.225,77.8a15.658,15.658,0,0,0,2.5.211c4.965,0,9.09-2.6,12.113-7.692C53.661,65.563,57.3,63.866,62.2,65.06a22.372,22.372,0,0,1-3.079,10.015A21.292,21.292,0,0,1,49.8,83.948Zm46.952,21.21a2.107,2.107,0,0,1-2.107,2.107H9.553a2.107,2.107,0,1,1,0-4.213h85.1a2.107,2.107,0,0,1,2.107,2.107Zm-67.4-85.582c-2.918-4.632-3.522-9.1-1.8-13.269a2.106,2.106,0,1,1,3.894,1.608c-1.189,2.878-.708,5.958,1.469,9.416C36.2,22.534,36.565,27.5,34,32.081a2.107,2.107,0,1,1-3.677-2.058C32.1,26.846,31.786,23.427,29.358,19.572Zm16.2,0c-2.917-4.631-3.522-9.1-1.8-13.269a2.106,2.106,0,1,1,3.894,1.608c-1.19,2.878-.709,5.958,1.469,9.416C52.4,22.534,52.765,27.5,50.2,32.081a2.107,2.107,0,1,1-3.677-2.058C48.3,26.846,47.986,23.427,45.558,19.572Zm16.2,0c-2.918-4.632-3.522-9.1-1.8-13.269a2.106,2.106,0,1,1,3.894,1.608c-1.189,2.878-.708,5.958,1.469,9.416C68.6,22.534,68.965,27.5,66.4,32.081a2.107,2.107,0,0,1-3.672-2.058C64.5,26.846,64.186,23.427,61.758,19.572Z"/>
  </g>
</svg>
