<svg id="Delicatessens" xmlns="http://www.w3.org/2000/svg" width="85.162" height="85.158" viewBox="0 0 85.162 85.158">
  <g id="Group_1311" data-name="Group 1311" transform="translate(0)">
    <path id="Path_33259" data-name="Path 33259" d="M-4289.052,76.049-4314.4,50.433V47.616l1.475-1.878,3.353-.939,25.482,25.482v2.682l-2.548,3.085Z" transform="translate(4356.864 -32.663)" fill="#fff"/>
    <path id="Path_33260" data-name="Path 33260" d="M-4293.566,72.059-4314.4,49.714V47.257l1.212-1.638,2.756-.819,20.944,22.228v2.34l-2.094,2.691Z" transform="translate(4333.562 -6.678)" fill="#fff"/>
    <path id="Path_33254" data-name="Path 33254" d="M1.34,85.158a1.342,1.342,0,0,1-.948-2.29L27.78,55.479l-9.225-9.225c-1.483-1.483-1.058-4.23.966-6.255a5.91,5.91,0,0,1,3.985-1.851,3.169,3.169,0,0,1,2.27.884L35,48.257l2.124-2.124-3.852-3.852A9.661,9.661,0,0,1,46.937,28.619l3.852,3.852,2.125-2.124L41.808,19.241c-1.63-1.63-1.337-4.577.654-6.567a5.592,5.592,0,0,1,3.878-1.715,3.759,3.759,0,0,1,2.69,1.062L60.135,23.126l2.79-2.79-3.852-3.852A9.662,9.662,0,0,1,72.738,2.82L76.59,6.671,82.261,1a1.341,1.341,0,0,1,1.9,1.9L78.485,8.567l3.852,3.852A9.662,9.662,0,0,1,68.674,26.084l-3.852-3.852-2.79,2.79L73.137,36.128c1.63,1.631,1.338,4.578-.654,6.568a5.593,5.593,0,0,1-3.878,1.716,3.76,3.76,0,0,1-2.691-1.062L54.81,32.245l-2.125,2.124,3.852,3.852A9.661,9.661,0,0,1,42.873,51.883l-3.852-3.852L36.9,50.156l9.225,9.225c1.482,1.483,1.058,4.23-.967,6.255a5.914,5.914,0,0,1-3.985,1.851A3.169,3.169,0,0,1,38.9,66.6l-9.225-9.225L2.289,84.765a1.333,1.333,0,0,1-.948.393Zm39.5-20.411.079.024a.853.853,0,0,0,.254.033,3.262,3.262,0,0,0,2.088-1.065,2.827,2.827,0,0,0,1.027-2.36l-.025-.067L35,52.052l-.614.614a1.341,1.341,0,0,1-1.9-1.9l.614-.614-9.267-9.267-.08-.024a.858.858,0,0,0-.251-.032A3.262,3.262,0,0,0,21.419,41.9a2.826,2.826,0,0,0-1.027,2.36l.025.067L30.634,54.54,40.841,64.747Zm5.5-51.107a2.991,2.991,0,0,0-1.981.93c-.981.982-1.154,2.274-.653,2.775L67.814,41.453a1.093,1.093,0,0,0,.794.277,2.988,2.988,0,0,0,1.981-.93c.981-.982,1.154-2.274.654-2.775L60.137,26.919l-.838.838a1.341,1.341,0,0,1-1.9-1.9l.838-.838L47.135,13.916a1.093,1.093,0,0,0-.794-.277Z" transform="translate(0)"/>
    <path id="Path_33255" data-name="Path 33255" d="M726.6,48.569A6.984,6.984,0,0,1,714.688,53.5l-9.6-9.6a6.986,6.986,0,0,1,0-9.87,6.892,6.892,0,0,1,.65-.572l.5-.388.041.631a9.663,9.663,0,0,0,2.78,6.194l.012.008.015.018,2.863,2.863.017.014.008.011,2.015,2.015a1.341,1.341,0,0,0,1.9-1.9l-4.912-4.911a6.959,6.959,0,0,1-1.992-5.684l.029-.27.27-.028a7.038,7.038,0,0,1,.744-.04,6.929,6.929,0,0,1,4.935,2.034l3.852,3.852-.971.97a1.341,1.341,0,0,0,.949,2.289,1.331,1.331,0,0,0,.948-.392l.97-.97,3.852,3.851a6.933,6.933,0,0,1,2.041,4.935Z" transform="translate(-644.116 -29.318)" fill="#c72"/>
    <path id="Path_33256" data-name="Path 33256" d="M418.867,356.368a6.979,6.979,0,0,1-11.9,4.935l-4.819-4.819-4.78-4.78a6.964,6.964,0,0,1,.65-10.442l.5-.389.041.631a9.656,9.656,0,0,0,2.8,6.213l4.912,4.911a1.341,1.341,0,1,0,1.9-1.9l-2-2-.01-.007-.024-.028-2.873-2.873a6.96,6.96,0,0,1-1.992-5.683l.029-.27.27-.029a7.241,7.241,0,0,1,.743-.039,6.932,6.932,0,0,1,4.935,2.034l3.852,3.852-1.008,1.008a1.341,1.341,0,1,0,1.9,1.9l1.007-1.007,3.852,3.852A6.926,6.926,0,0,1,418.867,356.368Z" transform="translate(-362.193 -311.317)" fill="#c72"/>
  </g>
  <path id="Path_33257" data-name="Path 33257" d="M871.387,201.608a1.329,1.329,0,0,1-.948-.393l-.056-.056a1.341,1.341,0,1,1,1.9-1.9l.055.056a1.342,1.342,0,0,1-.948,2.29Z" transform="translate(-797.065 -182.2)" fill="#fff"/>
  <path id="Path_33258" data-name="Path 33258" d="M563.6,509.409a1.329,1.329,0,0,1-.948-.393l-.056-.056a1.341,1.341,0,1,1,1.9-1.9l.055.056a1.342,1.342,0,0,1-.948,2.29Z" transform="translate(-515.075 -464.2)" fill="#fff"/>
</svg>
