<svg xmlns="http://www.w3.org/2000/svg" width="87.1" height="90.731" viewBox="0 0 87.1 90.731">
  <g id="Eco-Forward_Cafes" data-name="Eco-Forward Cafes" transform="translate(-657.38 -580.555)">
    <g id="Group_1313" data-name="Group 1313" transform="translate(657.38 580.555)">
      <path id="Path_33265" data-name="Path 33265" d="M723.415,2153.8a16.806,16.806,0,0,0,21.065-16.235,16.932,16.932,0,0,0-14.406-16.659v-4.074a2.086,2.086,0,0,0-2.088-2.088H659.468a2.086,2.086,0,0,0-2.088,2.088v16.011a36.413,36.413,0,0,0,19.436,32.2H661.729a2.088,2.088,0,1,0,0,4.176h63.957a2.088,2.088,0,0,0,0-4.176H710.615A36.629,36.629,0,0,0,723.415,2153.8Zm6.658-20.957v-1.464a6.716,6.716,0,0,1,4.22,6.186,6.617,6.617,0,0,1-6.012,6.564A36.241,36.241,0,0,0,730.074,2132.848Zm-2.418,15.491a10.8,10.8,0,0,0,2.418-21.325v-1.868a12.631,12.631,0,0,1-2.418,25.032,12.416,12.416,0,0,1-1.9-.147q.462-.858.879-1.743C726.957,2148.319,727.3,2148.339,727.656,2148.339Zm-33.95,16.706a32.21,32.21,0,0,1-32.15-32.2v-13.923H725.9v3.862c0,.027,0,.054,0,.081v5.9c0,.049,0,.1,0,.146v3.936a32.027,32.027,0,0,1-2.332,12.031,2.121,2.121,0,0,0-.232.559A32.242,32.242,0,0,1,693.706,2165.045Z" transform="translate(-657.38 -2078.489)"/>
      <path id="Path_33266" data-name="Path 33266" d="M3564.861,2567.073a12.644,12.644,0,0,1-12.649,12.608,12.38,12.38,0,0,1-1.9-.147q.462-.858.879-1.743c.324.031.667.051,1.023.051a10.8,10.8,0,0,0,2.418-21.325v-1.867A12.734,12.734,0,0,1,3564.861,2567.073Z" transform="translate(-3481.936 -2507.992)" fill="#c72"/>
      <path id="Path_33267" data-name="Path 33267" d="M898.383,2291.42v3.862c0,.027,0,.054,0,.081v5.9c0,.049,0,.1,0,.146v3.936a32.028,32.028,0,0,1-2.332,12.031,2.116,2.116,0,0,0-.232.559,32.166,32.166,0,0,1-61.779-12.59V2291.42Z" transform="translate(-829.865 -2250.984)" fill="#c72"/>
      <path id="Path_33268" data-name="Path 33268" d="M1063.782,2853.1a2.083,2.083,0,0,1-2.946.179,25.826,25.826,0,0,1-8.716-19.336,2.088,2.088,0,0,1,4.175,0,21.669,21.669,0,0,0,7.305,16.213A2.083,2.083,0,0,1,1063.782,2853.1Z" transform="translate(-1042.79 -2778.651)" fill="#fff"/>
      <path id="Path_33269" data-name="Path 33269" d="M1125.3,971c1.249,0,2.094-.075,2.3-.1a2.094,2.094,0,0,0,.368-.066l.029-.008.049-.015.044-.014.042-.015.051-.019.037-.015.056-.024.03-.014.067-.033.018-.009a2.088,2.088,0,0,0,.872-.872l.009-.018q.017-.033.033-.067l.014-.03c.008-.019.017-.037.024-.056l.015-.036.019-.051c.005-.014.01-.028.015-.042s.01-.029.014-.044.01-.033.015-.049.005-.019.008-.029a2.09,2.09,0,0,0,.066-.371c.086-.853,1.018-11.682-5.3-18-6.439-6.439-17.558-5.344-18.042-5.3a2.083,2.083,0,0,0-1.855,1.857c-.051.469-1.142,11.6,5.3,18.037,4.732,4.732,11.995,5.4,15.7,5.4Z" transform="translate(-1093.643 -936.987)"/>
      <path id="Path_33270" data-name="Path 33270" d="M1288.176,1132.46l6.82,6.821c-3.128-.354-7.028-1.287-9.691-3.95-3.7-3.7-4.177-9.839-4.169-12.861,2.928.022,9.167.471,12.863,4.167,2.671,2.671,3.662,6.619,4,9.744l-6.874-6.874a2.088,2.088,0,1,0-2.952,2.952Z" transform="translate(-1266.393 -1109.662)" fill="#fff"/>
      <path id="Path_33271" data-name="Path 33271" d="M2237.192,582.512a2.084,2.084,0,0,0-1.855-1.855c-.477-.057-11.6-1.138-18.042,5.3-6.318,6.319-5.387,17.148-5.3,18a2.066,2.066,0,0,0,.067.371c0,.01,0,.019.008.029s.01.033.015.049l.014.044c0,.014.01.028.015.042s.012.034.019.05l.015.037c.008.019.016.038.024.056l.014.03c.011.022.021.045.033.067l.009.018a2.089,2.089,0,0,0,.872.872l.018.009.067.033.03.014.056.024.037.015.05.019.042.015.044.014.05.015.029.008a2.1,2.1,0,0,0,.367.066c.21.021,1.055.1,2.3.1,3.709,0,10.973-.665,15.7-5.4C2238.337,594.113,2237.241,582.983,2237.192,582.512Zm-8.249,15.089c-2.67,2.67-6.62,3.661-9.746,4l6.875-6.874a2.088,2.088,0,0,0-2.952-2.952l-6.876,6.875c.341-3.125,1.332-7.074,4-9.745,3.672-3.668,9.748-4.169,12.793-4.169h.07C2233.118,587.76,2232.641,593.9,2228.943,597.6Z" transform="translate(-2175.157 -580.554)"/>
      <path id="Path_33272" data-name="Path 33272" d="M2408.489,770.433c-2.67,2.67-6.619,3.661-9.745,4l6.875-6.874a2.088,2.088,0,0,0-2.952-2.952l-6.876,6.875c.341-3.125,1.332-7.074,4-9.745,3.672-3.668,9.748-4.169,12.793-4.169h.069C2412.664,760.592,2412.187,766.737,2408.489,770.433Z" transform="translate(-2354.703 -753.386)" fill="#fff"/>
    </g>
  </g>
</svg>
