<svg xmlns="http://www.w3.org/2000/svg" width="58.729" height="80.729" viewBox="0 0 58.729 80.729">
  <g id="Fast_Casual_Cafes" data-name="Fast Casual Cafes" transform="translate(5475.998 -672)">
    <g id="AdobeStock_504916148" transform="translate(-5475.998 672)">
      <path id="Path_33252" data-name="Path 33252" d="M-5446.667,693.236l3.132-9.814,2.714-2.088h34.246l3.759,2.088,3.341,9.814V694.7h-47.192Z" transform="translate(5452.409 -679.506)" fill="#c72" stroke="#707070" stroke-width="1"/>
      <path id="Path_33253" data-name="Path 33253" d="M-5446.667,804h47.61l-5.638,51.995-2.505,1.462h-32.158l-2.087-1.462Z" transform="translate(5452.409 -778.159)" fill="#c72" stroke="#707070" stroke-width="1"/>
      <g id="Ellipse_49" data-name="Ellipse 49" transform="translate(29.806 35.199) rotate(40)" fill="#fff" stroke="#707070" stroke-width="1">
        <ellipse cx="10.571" cy="13.41" rx="10.571" ry="13.41" stroke="none"/>
        <ellipse cx="10.571" cy="13.41" rx="10.071" ry="12.91" fill="none"/>
      </g>
      <rect id="Rectangle_713" data-name="Rectangle 713" width="55.602" height="9.371" transform="translate(1.874 15.257)" fill="#fff"/>
      <path id="Union_1" data-name="Union 1" d="M9.027,76.364,4.36,26.575H2.884A2.888,2.888,0,0,1,0,23.691v-7.27a2.888,2.888,0,0,1,2.884-2.884H4.546l2.148-8.6A6.532,6.532,0,0,1,13.016,0h32.7a6.527,6.527,0,0,1,6.32,4.926l2.15,8.61h1.662a2.888,2.888,0,0,1,2.884,2.884v7.27a2.887,2.887,0,0,1-2.884,2.884H54.369L49.7,76.358a4.814,4.814,0,0,1-4.8,4.37H13.817A4.812,4.812,0,0,1,9.027,76.364Zm2.87-.274a1.963,1.963,0,0,0,1.932,1.756H44.9a1.966,1.966,0,0,0,1.932-1.762l4.639-49.509H7.256Zm-9.013-52.4H55.847l0-7.27H2.884ZM9.488,5.64l-1.97,7.9H51.211l-1.974-7.9a3.641,3.641,0,0,0-3.524-2.748h-32.7A3.649,3.649,0,0,0,9.488,5.64ZM26.1,65.187c-10.989-.148-12.664-13.245-4.678-20.915,7.488-8.112,22.309-6.494,20.783,6.51-.944,7.321-8.5,14.406-15.97,14.406Zm4.012-11.747a19.519,19.519,0,0,0-8.025,7.722A7.716,7.716,0,0,0,27.529,62.2c5.488-.662,11.162-6.334,11.825-11.823a8.02,8.02,0,0,0-.684-4.84A22.294,22.294,0,0,1,30.115,53.441Zm-6.651-7.13c-3.9,3.9-5.2,9.122-3.408,12.579,5.133-8.512,11.733-7.05,16.581-15.633a7.872,7.872,0,0,0-4.155-1.148C29.24,42.109,25.905,43.9,23.465,46.31Z" transform="translate(0)"/>
    </g>
  </g>
</svg>
