<svg xmlns="http://www.w3.org/2000/svg" xmlns:xlink="http://www.w3.org/1999/xlink" width="74" height="78.043" viewBox="0 0 74 78.043">
  <defs>
    <clipPath id="clip-path">
      <rect id="Rectangle_522" data-name="Rectangle 522" width="74" height="74" transform="translate(-0.053 -0.053)" fill="none"/>
    </clipPath>
  </defs>
  <g id="Group_1487" data-name="Group 1487" transform="translate(538 -3383)">
    <circle id="Ellipse_59" data-name="Ellipse 59" cx="12" cy="12" r="12" transform="translate(-523 3408)" fill="#c72"/>
    <circle id="Ellipse_60" data-name="Ellipse 60" cx="14" cy="14" r="14" transform="translate(-503 3406)" fill="#c72"/>
    <circle id="Ellipse_61" data-name="Ellipse 61" cx="13.5" cy="13.5" r="13.5" transform="translate(-513 3407)" fill="#c72"/>
    <path id="Path_33477" data-name="Path 33477" d="M-511,3541.05l6.8,30.4h33.8l6.6-25.2v-5.2Z" transform="translate(-12 -110.407)" fill="#c72"/>
    <g id="Group_1354" data-name="Group 1354" transform="translate(-537.947 3383.053)">
      <g id="Group_1322" data-name="Group 1322">
        <g id="Group_1321" data-name="Group 1321" clip-path="url(#clip-path)">
          <path id="Path_29810" data-name="Path 29810" d="M49.424,17.065a1.083,1.083,0,0,0-1.083,1.083v.994a1.083,1.083,0,1,0,2.167,0v-.994a1.083,1.083,0,0,0-1.083-1.083" transform="translate(-18.552 -6.549)" fill="#1b333f"/>
          <path id="Path_29811" data-name="Path 29811" d="M59.324,17.065a1.083,1.083,0,0,0-1.083,1.083v.994a1.083,1.083,0,1,0,2.167,0v-.994a1.083,1.083,0,0,0-1.083-1.083" transform="translate(-22.351 -6.549)" fill="#1b333f"/>
          <path id="Path_29812" data-name="Path 29812" d="M69.224,17.065a1.083,1.083,0,0,0-1.083,1.083v.994a1.083,1.083,0,1,0,2.167,0v-.994a1.083,1.083,0,0,0-1.083-1.083" transform="translate(-26.151 -6.549)" fill="#1b333f"/>
          <path id="Path_29813" data-name="Path 29813" d="M54.374,25.718A1.083,1.083,0,0,0,53.291,26.8V27.8a1.083,1.083,0,0,0,2.167,0V26.8a1.083,1.083,0,0,0-1.083-1.083" transform="translate(-20.452 -9.87)" fill="#1b333f"/>
        </g>
      </g>
      <g id="Group_1324" data-name="Group 1324">
        <g id="Group_1323" data-name="Group 1323" clip-path="url(#clip-path)">
          <path id="Path_29814" data-name="Path 29814" d="M64.274,25.718A1.083,1.083,0,0,0,63.191,26.8V27.8a1.083,1.083,0,0,0,2.167,0V26.8a1.083,1.083,0,0,0-1.083-1.083" transform="translate(-24.251 -9.87)" fill="#1b333f"/>
          <path id="Path_29815" data-name="Path 29815" d="M67.686,45.522H59.921V42.387h7.765a1.568,1.568,0,0,1,0,3.135m-4.254,8.132H59.921V47.689h4.743ZM61.526,62.88H24.373a1.083,1.083,0,1,0,0,2.167H61.079l-1.07,5.183a1.95,1.95,0,0,1-1.9,1.55H24.185a1.951,1.951,0,0,1-1.9-1.55L19.306,55.821H50.131a1.083,1.083,0,0,0,0-2.167H18.858l-1.232-5.966H44.973v2.463a3.214,3.214,0,0,0,6.427,0V48.736a1.047,1.047,0,0,1,2.094,0V54.63a3.213,3.213,0,0,0,6.2,1.192h3.293ZM16.3,45.522H14.6a1.568,1.568,0,1,1,0-3.135H44.973v3.136Zm38.356-24.7a15.891,15.891,0,0,0-1.83-.107,15.657,15.657,0,0,0-11.679,5.165,15.658,15.658,0,0,0-11.679-5.165c-.266,0-.544.007-.825.021-.333.017-.669.046-1.005.084a13.8,13.8,0,0,1-.11-1.735,13.618,13.618,0,0,1,27.237,0,13.808,13.808,0,0,1-.109,1.737m-29.2.407q-.2.053-.4.111L25,21.361q-.226.067-.45.141l-.132.044q-.164.055-.326.114l-.144.052c-.121.046-.242.092-.361.14l-.083.033-.022.009-.161-.28,2-3.467.061.106q-.022.416-.022.837a15.942,15.942,0,0,0,.144,2.13l-.046.012m-5.483-5.411,2-3.467,2.093,3.626-2,3.467Zm-3.344-5.792,2-3.467,2.093,3.625-2,3.467Zm-3.464-6,3-1.734,1.212,2.1-2,3.468Zm54.991,36.22A15.789,15.789,0,0,0,56.786,21.224a15.786,15.786,0,0,0-30.853-6.35L17.867.9A1.81,1.81,0,0,0,15.4.241L11.772,2.335A1.81,1.81,0,0,0,11.112,4.8L21.536,22.858a15.782,15.782,0,0,0-3.636,2.9,1.083,1.083,0,0,0,1.587,1.475,13.6,13.6,0,0,1,7.453-4.118c.454-.084.909-.145,1.36-.184q.226-.019.449-.03h0c.245-.012.486-.019.716-.019a13.515,13.515,0,0,1,10.316,4.728,15.623,15.623,0,0,0-2.743,8.89c0,.226,0,.453.014.676a1.083,1.083,0,0,0,2.165-.092c-.009-.193-.012-.389-.012-.584A13.618,13.618,0,0,1,52.824,22.887,13.628,13.628,0,0,1,65.929,40.22H59.921v-2.38a1.083,1.083,0,1,0-2.166,0V54.63a1.047,1.047,0,0,1-2.095,0V48.735a3.213,3.213,0,0,0-6.427,0v1.417a1.047,1.047,0,0,1-2.095,0V41.3a1.083,1.083,0,0,0-1.083-1.083H16.365a13.642,13.642,0,0,1,.837-9.641,1.083,1.083,0,1,0-1.95-.943,15.82,15.82,0,0,0-1.12,10.616,3.734,3.734,0,0,0,.472,7.438h.81l1.5,7.263v.008L20.16,70.668a4.126,4.126,0,0,0,4.026,3.28h33.92a4.126,4.126,0,0,0,4.025-3.279l1.338-6.481,0-.009,1.9-9.218,0-.007,1.5-7.264h.81a3.734,3.734,0,0,0,.471-7.437" transform="translate(-4.172 0)" fill="#1b333f"/>
        </g>
      </g>
    </g>
  </g>
</svg>
