<svg xmlns="http://www.w3.org/2000/svg" width="85.473" height="85.701" viewBox="0 0 85.473 85.701">
  <g id="Gourmet_Specialty_Food_Markets" data-name="Gourmet Specialty Food Markets" transform="translate(-14.555 -2)">
    <g id="Group_1353" data-name="Group 1353" transform="translate(14.555 2)">
      <g id="Group_1350" data-name="Group 1350" transform="translate(0)">
        <path id="Path_33476" data-name="Path 33476" d="M-102.531,166.279l12.919,5.767,9.787,35.039-9.787-3.523-9.4-10.766-3.523-10.375Z" transform="translate(104.153 -125.593)" fill="#fff"/>
        <path id="Path_33475" data-name="Path 33475" d="M-1595.531,679.121c1.053-2.188,1.512-.72,3.132,0,1.524.677,4.213.64,5.579,1.272a12.6,12.6,0,0,0,5.775,1.468s49.72.392,57.159-6.264c3.079-2.755,1.914-.247,1.468,3.523-.609,5.152-1.468,12.919-1.468,12.919l-7.439,15.268-16.443,9.787-25.839,2.349-11.353-5.089-7.439-7.047S-1600.621,689.692-1595.531,679.121Z" transform="translate(1606.843 -633.745)" fill="#c72"/>
        <g id="Group_1342" data-name="Group 1342" transform="translate(0 24.93)">
          <g id="Group_1339" data-name="Group 1339" transform="translate(0 0)">
            <g id="Group_1338" data-name="Group 1338">
              <path id="Path_33469" data-name="Path 33469" d="M44.736,41.619C23.5,41.619,2,37.22,2,28.81S23.5,16,44.736,16s42.736,4.4,42.736,12.81S65.974,41.619,44.736,41.619Zm0-22.058c-23.914,0-39.175,5.478-39.175,9.249s15.261,9.248,39.175,9.248,39.175-5.477,39.175-9.248S68.65,19.561,44.736,19.561Z" transform="translate(-2 -16)"/>
            </g>
          </g>
          <g id="Group_1341" data-name="Group 1341" transform="translate(0 11.029)">
            <g id="Group_1340" data-name="Group 1340">
              <path id="Path_33470" data-name="Path 33470" d="M53.148,71.708H36.325C17.4,71.708,2,55.839,2,36.333V23.975a1.781,1.781,0,0,1,3.561,0V36.333c0,17.542,13.8,31.813,30.764,31.813H53.148c16.963,0,30.764-14.271,30.764-31.813V23.975a1.781,1.781,0,0,1,3.561,0V36.333C87.473,55.839,72.074,71.708,53.148,71.708Z" transform="translate(-2 -22.194)"/>
            </g>
          </g>
        </g>
        <g id="Group_1344" data-name="Group 1344" transform="translate(38.284)">
          <g id="Group_1343" data-name="Group 1343">
            <path id="Path_33471" data-name="Path 33471" d="M25.279,25.149A1.781,1.781,0,0,1,23.857,22.3l3.074-4.1a2.59,2.59,0,0,0-.238-3.366,6.165,6.165,0,0,1-.57-8.02l3.076-4.1A1.781,1.781,0,0,1,32.047,4.85l-3.076,4.1a2.585,2.585,0,0,0,.24,3.364,6.169,6.169,0,0,1,.569,8.022l-3.074,4.1A1.777,1.777,0,0,1,25.279,25.149Z" transform="translate(-23.5 -2)"/>
          </g>
        </g>
        <g id="Group_1349" data-name="Group 1349" transform="translate(26.71 3.561)">
          <g id="Group_1346" data-name="Group 1346" transform="translate(23.149)">
            <g id="Group_1345" data-name="Group 1345">
              <path id="Path_33472" data-name="Path 33472" d="M31.779,25.368a1.781,1.781,0,0,1-1.372-2.914l3.074-3.728A1.912,1.912,0,0,0,33.254,16a5.468,5.468,0,0,1-.581-7.625l3.076-3.728A1.781,1.781,0,1,1,38.5,6.914L35.42,10.642a1.911,1.911,0,0,0,.228,2.724,5.471,5.471,0,0,1,.581,7.626l-3.074,3.728A1.775,1.775,0,0,1,31.779,25.368Z" transform="translate(-30 -4)"/>
            </g>
          </g>
          <g id="Group_1348" data-name="Group 1348">
            <g id="Group_1347" data-name="Group 1347">
              <path id="Path_33473" data-name="Path 33473" d="M18.779,25.368a1.781,1.781,0,0,1-1.372-2.914l3.074-3.728A1.912,1.912,0,0,0,20.254,16a5.468,5.468,0,0,1-.581-7.625l3.076-3.728A1.781,1.781,0,1,1,25.5,6.914L22.42,10.642a1.911,1.911,0,0,0,.228,2.724,5.471,5.471,0,0,1,.581,7.626l-3.074,3.728A1.775,1.775,0,0,1,18.779,25.368Z" transform="translate(-17 -4)"/>
            </g>
          </g>
        </g>
      </g>
      <g id="Group_1352" data-name="Group 1352" transform="translate(40.956 3.562)">
        <g id="Group_1351" data-name="Group 1351">
          <path id="Path_33474" data-name="Path 33474" d="M26.779,50.987a1.781,1.781,0,0,1-1.376-2.91L61.017,4.651A1.781,1.781,0,0,1,63.772,6.91L28.158,50.336A1.78,1.78,0,0,1,26.779,50.987Z" transform="translate(-25 -4.001)"/>
        </g>
      </g>
    </g>
  </g>
</svg>
