<svg xmlns="http://www.w3.org/2000/svg" width="81.34" height="85.388" viewBox="0 0 81.34 85.388">
  <g id="Health_Food_Stores" data-name="Health Food Stores" transform="translate(-2.143 -1.582)">
    <g id="Group_1399" data-name="Group 1399" transform="translate(2.143 1.582)">
      <path id="Path_33523" data-name="Path 33523" d="M-1206.15,3491.15v-7.6h32.4v7.6Z" transform="translate(1233 -3481.786)" fill="#c72"/>
      <path id="Path_33524" data-name="Path 33524" d="M-1214.35,3505.55l4-7.8,4-5.2h33.2l9.2,11.4-3.2,1.6Z" transform="translate(1233 -3481.786)" fill="#fff"/>
      <path id="Path_33522" data-name="Path 33522" d="M-1169.733,3531.067l9.067-3.467h4.533l2.4,5.867v9.066L-1158,3556.4l-4.8,3.2-6.933-3.2h-3.733l-5.067,3.2h-4.533l-4.267-5.333h-20.8l-9.867,8.8-8,2.133-4-3.733-1.867-7.2,4-11.733L-1218,3523.6l1.867-4,1.6-13.866h50.133V3527.6Z" transform="translate(1233 -3481.786)" fill="#c72"/>
      <path id="Path_33525" data-name="Path 33525" d="M2.7,78.964S13.719,42.758,15.519,42.558,11.3,46.264,11.3,46.264l-9.8,26.6Z" fill="#fff"/>
      <path id="Path_33521" data-name="Path 33521" d="M659.745-913.669a1.519,1.519,0,0,0-1.523,1.513L658.2-904.5l-9.877,13.311a1.517,1.517,0,0,0-.3.9v15.882a8.749,8.749,0,0,0-2.992,3.013A124.213,124.213,0,0,0,634.653-849a36.454,36.454,0,0,0-2.158,11.635c.08,3.466,1.285,6.626,4.191,8.165a7.346,7.346,0,0,0,4.6.851,12.688,12.688,0,0,0,4.749-1.733,39.2,39.2,0,0,0,9.014-7.993c.55-.626,1.088-1.278,1.627-1.929h19.966a19.976,19.976,0,0,0,6.5,5.574,3.813,3.813,0,0,0,3.11.133,9.325,9.325,0,0,0,2.258-1.38c1.344-1.015,2.537-1.883,3.529-1.935,1.54-.084,3.527.868,5.55,1.816a13.529,13.529,0,0,0,3.143,1.152,4.5,4.5,0,0,0,3.52-.665c5.435-3.978,8.234-10.681,9.2-16.983a30.176,30.176,0,0,0,.106-8.877,12.391,12.391,0,0,0-2.579-6.512,6.329,6.329,0,0,0-4.419-2.258,8.042,8.042,0,0,0-3.146.585l.068-21.319a1.517,1.517,0,0,0-.315-.932l-9.922-12.92v-7.631a1.52,1.52,0,0,0-1.523-1.514Zm1.517,3.036H690.2v5.108H661.244Zm-.778,8.145h28.033l-8.447,10.37a1.517,1.517,0,0,0-.113.318h-27.4Zm31.2.929,7.494,9.759H683.726Zm-40.62,12.8h28.665v20.476a11.027,11.027,0,0,0-1.843.977,6.328,6.328,0,0,0-.7.448,10.28,10.28,0,0,0-1.039.9c-.064.062-.128.126-.19.19-.02.02-.04.039-.058.06a14.294,14.294,0,0,0-3.425,7c0,.018-.018.026-.018.039-.108.513-.19,1.035-.258,1.567-.018.128-.029.255-.044.383-.053.482-.1.964-.123,1.457,0,.033,0,.064,0,.1-.018.227,0,.457,0,.685a23.7,23.7,0,0,0,.184,3.467,23.91,23.91,0,0,0,2.537,7.972H659.11c4.122-5.387,7.652-10.973,9.741-14.327l.018-.033a9.8,9.8,0,0,0,.3-8.806,13.581,13.581,0,0,0-.819-1.612,6.142,6.142,0,0,0,1.009-.077,4.76,4.76,0,0,0,3.4-2.268c1.507-2.568.19-5.817-2.467-7.378l.146.082,1.053-1.8c1.561-2.658,1.124-6.137-1.445-7.646s-5.818-.188-7.378,2.47l-1.086,1.846c-2.636-1.447-5.992-1.039-7.468,1.475a4.943,4.943,0,0,0,.166,5.093,13.174,13.174,0,0,0-1.683.071,12.078,12.078,0,0,0-1.514.282Zm31.7,0h17.668l-.062,20.749c-1.062.544-2.128,1.118-3.22,1.618-.1.046-.206.086-.309.13-.476.21-.956.411-1.445.578a.532.532,0,0,1-.1.033c-.345.115-.7.19-1.054.276a17.617,17.617,0,0,1,3.342-11.6,1.517,1.517,0,0,0,.225-1.142,1.519,1.519,0,0,0-.649-.966,1.524,1.524,0,0,0-1.143-.225,1.521,1.521,0,0,0-.967.65,21.174,21.174,0,0,0-3.882,12.762c-.46-.237-.948-.51-1.484-.813-.6-.338-1.241-.7-1.932-1.033a13.742,13.742,0,0,0-2.244-.87,9.26,9.26,0,0,0-2.564-.359c-.058,0-.119.018-.177.018Zm-15.021,4.28a1.677,1.677,0,0,1,.745.208c.868.51,1.237,1.993.359,3.488l-1.819,3.1a1.519,1.519,0,0,0,.538,2.078l1.163.682c1.493.878,1.9,2.357,1.386,3.226a1.868,1.868,0,0,1-1.374.837,3.259,3.259,0,0,1-2.11-.475l-8.53-5.007c-1.492-.877-1.9-2.358-1.389-3.226s2-1.234,3.49-.356l1.166.68a1.521,1.521,0,0,0,2.081-.537l1.816-3.1a2.9,2.9,0,0,1,2.478-1.594Zm-13.988,11.522a12.952,12.952,0,0,1,5.47,1.113c.11.047.218.092.326.143.433.2.862.418,1.288.668a13.828,13.828,0,0,1,4.63,4.354,10.646,10.646,0,0,1,.876,1.656,6.685,6.685,0,0,1-.106,6.076c-.325.522-.788,1.239-1.179,1.858l-9.86-5.794a1.521,1.521,0,0,0-2.081.537,1.518,1.518,0,0,0,.538,2.08l9.765,5.734-.3.46c-.653,1-1.341,2.034-2.081,3.12-.579.849-1.2,1.722-1.825,2.6l-6.77-3.98a1.521,1.521,0,0,0-2.08.543,1.518,1.518,0,0,0,.543,2.078l6.518,3.832c-.265.354-.523.71-.793,1.063-.234.306-.478.6-.715.908-.377.481-.75.965-1.134,1.437-.666.819-1.34,1.62-2.021,2.4-.288.328-.582.626-.872.944l-4.119-2.425a1.521,1.521,0,0,0-2.08.543,1.517,1.517,0,0,0-.161,1.153,1.518,1.518,0,0,0,.7.928l3.481,2.045a28.884,28.884,0,0,1-5.221,4.193,9.79,9.79,0,0,1-3.49,1.362,4.373,4.373,0,0,1-2.849-.508l-.038-.024c-1.744-.915-2.518-2.684-2.585-5.568a34.326,34.326,0,0,1,2.015-10.619,122.449,122.449,0,0,1,10.109-21.8,5.874,5.874,0,0,1,2.549-2.3,8.7,8.7,0,0,1,3.544-.81Zm52.674,6.061a2.963,2.963,0,0,1,2.277,1.247,10.224,10.224,0,0,1,1.834,4.936,27.365,27.365,0,0,1-.1,7.972c-.877,5.738-3.487,11.689-7.99,14.985-.288.211-.532.258-1.143.139a11.943,11.943,0,0,1-2.431-.923c-1.924-.9-4.271-2.243-7-2.1-2.326.122-3.945,1.593-5.2,2.544a7.743,7.743,0,0,1-1.523.967c-.346.133-.361.135-.576.02a17.09,17.09,0,0,1-6.3-5.871c-.122-.189-.247-.379-.362-.573-.248-.417-.477-.844-.691-1.276-.082-.166-.174-.327-.252-.5-.264-.571-.5-1.153-.7-1.742-.088-.247-.157-.5-.235-.748-.113-.361-.222-.724-.315-1.089q-.11-.434-.2-.87c-.079-.374-.145-.747-.2-1.122-.039-.241-.08-.483-.11-.724-.075-.625-.132-1.251-.148-1.864a16.331,16.331,0,0,1,2.01-8.708c.036-.06.075-.119.113-.178a8.827,8.827,0,0,1,.709-.961c.058-.07.115-.144.176-.211a6.676,6.676,0,0,1,.941-.878,9.685,9.685,0,0,1,.911-.594c.163-.093.326-.186.484-.261a6.773,6.773,0,0,1,1.232-.454l.019-.018a5.5,5.5,0,0,1,1.324-.187,7.991,7.991,0,0,1,3.464.932c1.167.563,2.333,1.306,3.559,1.917a8.368,8.368,0,0,0,2.656.882,1.544,1.544,0,0,0,.208.187,1.545,1.545,0,0,0,.35-.024c.03-.04.059-.081.086-.124a4.913,4.913,0,0,0,.828-.047c.461-.084.907-.187,1.345-.306.13-.035.255-.078.383-.115.284-.084.563-.172.837-.267.673-.233,1.315-.494,1.932-.772.124-.057.246-.11.368-.166.373-.173.713-.347,1.066-.525.891-.448,1.748-.892,2.523-1.279.292-.148.606-.317.881-.442a7.089,7.089,0,0,1,2.983-.816Z" transform="translate(-632.49 913.67)"/>
    </g>
  </g>
</svg>
