<svg xmlns="http://www.w3.org/2000/svg" width="85.523" height="75.547" viewBox="0 0 85.523 75.547">
  <g id="hospital-01" transform="translate(1 -46.7)">
    <path id="Path_29697" data-name="Path 29697" d="M465.7,79.961h28.5V60H465.7Z" transform="translate(-416.802 -11.878)" fill="#c72"/>
    <g id="Group_957" data-name="Group 957" transform="translate(3.277 55.253)">
      <path id="Path_29698" data-name="Path 29698" d="M39,192.272H78.912V126.7H39Z" transform="translate(-39 -126.7)" fill="#c72"/>
      <path id="Path_29699" data-name="Path 29699" d="M412.3,358.921h37.068V313.3H412.3Z" transform="translate(-372.388 -293.349)" fill="#c72"/>
    </g>
    <path id="Path_29700" data-name="Path 29700" d="M185.7,644.708h8.553V633.3H185.7Z" transform="translate(-166.739 -523.883)" fill="#fff"/>
    <g id="Group_958" data-name="Group 958" transform="translate(10.408 62.374)">
      <path id="Path_29701" data-name="Path 29701" d="M105.7,201.853h8.553V193.3H105.7Z" transform="translate(-105.7 -193.3)" fill="#fff"/>
      <path id="Path_29702" data-name="Path 29702" d="M265.7,201.853h8.553V193.3H265.7Z" transform="translate(-248.593 -193.3)" fill="#fff"/>
      <path id="Path_29703" data-name="Path 29703" d="M105.7,348.553h8.553V340H105.7Z" transform="translate(-105.7 -324.315)" fill="#fff"/>
      <path id="Path_29704" data-name="Path 29704" d="M265.7,348.553h8.553V340H265.7Z" transform="translate(-248.593 -324.315)" fill="#fff"/>
      <path id="Path_29705" data-name="Path 29705" d="M105.7,495.253h8.553V486.7H105.7Z" transform="translate(-105.7 -455.331)" fill="#fff"/>
      <path id="Path_29706" data-name="Path 29706" d="M479,415.253h8.553V406.7H479Z" transform="translate(-439.088 -383.884)" fill="#fff"/>
      <path id="Path_29707" data-name="Path 29707" d="M479,561.853h8.553V553.3H479Z" transform="translate(-439.088 -514.81)" fill="#fff"/>
      <path id="Path_29708" data-name="Path 29708" d="M612.3,415.253h8.553V406.7H612.3Z" transform="translate(-558.136 -383.884)" fill="#fff"/>
      <path id="Path_29709" data-name="Path 29709" d="M612.3,561.853h8.553V553.3H612.3Z" transform="translate(-558.136 -514.81)" fill="#fff"/>
      <path id="Path_29710" data-name="Path 29710" d="M265.7,495.253h8.553V486.7H265.7Z" transform="translate(-248.593 -455.331)" fill="#fff"/>
    </g>
    <path id="Path_29711" data-name="Path 29711" d="M719,358.921h4.277V313.3H719Z" transform="translate(-643.02 -238.096)" fill="#c72"/>
    <path id="Path_29712" data-name="Path 29712" d="M39,192.272h4.277V126.7H39Z" transform="translate(-35.723 -71.447)" fill="#fff"/>
    <path id="Path_29713" data-name="Path 29713" d="M67.034,181.816H27.122a1.341,1.341,0,0,1-1.422-1.422V114.822a1.341,1.341,0,0,1,1.422-1.422H67.034a1.341,1.341,0,0,1,1.422,1.422v65.572A1.336,1.336,0,0,1,67.034,181.816Zm-38.49-2.844H65.612V116.244H28.544Z" transform="translate(-23.845 -59.569)" fill="#1f2021"/>
    <path id="Path_29714" data-name="Path 29714" d="M437.49,348.465H400.422A1.341,1.341,0,0,1,399,347.043V301.422A1.341,1.341,0,0,1,400.422,300H437.49a1.341,1.341,0,0,1,1.422,1.422v45.621A1.341,1.341,0,0,1,437.49,348.465Zm-35.635-2.844h34.213V302.855H401.855v42.767Z" transform="translate(-357.233 -226.218)" fill="#1f2021"/>
    <path id="Path_29715" data-name="Path 29715" d="M83.111,729.544H.422a1.422,1.422,0,0,1,0-2.844H83.1a1.341,1.341,0,0,1,1.422,1.422A1.327,1.327,0,0,1,83.111,729.544Z" transform="translate(0 -607.297)" fill="#1f2021"/>
    <path id="Path_29716" data-name="Path 29716" d="M482.326,69.505h-28.5a1.341,1.341,0,0,1-1.422-1.422V48.122a1.341,1.341,0,0,1,1.422-1.422h28.515a1.341,1.341,0,0,1,1.422,1.422V68.083A1.35,1.35,0,0,1,482.326,69.505Zm-27.082-2.855H480.9V49.544h-25.66Z" transform="translate(-404.924)" fill="#1f2021"/>
    <path id="Path_29717" data-name="Path 29717" d="M507.122,243.375a1.341,1.341,0,0,1-1.422-1.422v-7.131a1.422,1.422,0,1,1,2.844,0v7.131A1.347,1.347,0,0,1,507.122,243.375Z" transform="translate(-452.525 -166.739)" fill="#1f2021"/>
    <path id="Path_29718" data-name="Path 29718" d="M667.122,243.375a1.341,1.341,0,0,1-1.422-1.422v-7.131a1.422,1.422,0,0,1,2.844,0v7.131A1.347,1.347,0,0,1,667.122,243.375Z" transform="translate(-595.419 -166.739)" fill="#1f2021"/>
    <path id="Path_29719" data-name="Path 29719" d="M560.422,111.5A1.341,1.341,0,0,1,559,110.075v-8.553a1.422,1.422,0,0,1,2.844,0v8.553A1.341,1.341,0,0,1,560.422,111.5Z" transform="translate(-500.127 -47.691)" fill="#1f2021"/>
    <path id="Path_29720" data-name="Path 29720" d="M613.822,111.5a1.341,1.341,0,0,1-1.422-1.422v-8.553a1.422,1.422,0,0,1,2.844,0v8.553A1.347,1.347,0,0,1,613.822,111.5Z" transform="translate(-547.817 -47.691)" fill="#1f2021"/>
    <path id="Path_29721" data-name="Path 29721" d="M566.221,142.944h-5.7a1.422,1.422,0,1,1,0-2.844h5.7a1.422,1.422,0,1,1,0,2.844Z" transform="translate(-500.216 -83.414)" fill="#1f2021"/>
    <path id="Path_29722" data-name="Path 29722" d="M182.375,634.252h-8.553a1.341,1.341,0,0,1-1.422-1.422V621.422A1.341,1.341,0,0,1,173.822,620h8.553a1.341,1.341,0,0,1,1.422,1.422V632.83A1.341,1.341,0,0,1,182.375,634.252Zm-7.131-2.844h5.7v-8.553h-5.7Z" transform="translate(-154.861 -512.005)" fill="#1f2021"/>
    <path id="Path_29723" data-name="Path 29723" d="M102.375,191.5H93.822a1.341,1.341,0,0,1-1.422-1.422v-8.553a1.341,1.341,0,0,1,1.422-1.422h8.553a1.341,1.341,0,0,1,1.422,1.422v8.553A1.347,1.347,0,0,1,102.375,191.5Zm-7.131-2.855h5.7v-5.7h-5.7Z" transform="translate(-83.414 -119.137)" fill="#1f2021"/>
    <path id="Path_29724" data-name="Path 29724" d="M262.375,191.5h-8.553a1.341,1.341,0,0,1-1.422-1.422v-8.553a1.341,1.341,0,0,1,1.422-1.422h8.553a1.341,1.341,0,0,1,1.422,1.422v8.553A1.347,1.347,0,0,1,262.375,191.5Zm-7.131-2.855h5.7v-5.7h-5.7Z" transform="translate(-226.307 -119.137)" fill="#1f2021"/>
    <path id="Path_29725" data-name="Path 29725" d="M102.375,338.1H93.822a1.341,1.341,0,0,1-1.422-1.422v-8.553a1.341,1.341,0,0,1,1.422-1.422h8.553a1.341,1.341,0,0,1,1.422,1.422v8.553A1.341,1.341,0,0,1,102.375,338.1Zm-7.131-2.844h5.7v-5.7h-5.7Z" transform="translate(-83.414 -250.063)" fill="#1f2021"/>
    <path id="Path_29726" data-name="Path 29726" d="M262.375,338.1h-8.553a1.341,1.341,0,0,1-1.422-1.422v-8.553a1.341,1.341,0,0,1,1.422-1.422h8.553a1.341,1.341,0,0,1,1.422,1.422v8.553A1.341,1.341,0,0,1,262.375,338.1Zm-7.131-2.844h5.7v-5.7h-5.7Z" transform="translate(-226.307 -250.063)" fill="#1f2021"/>
    <path id="Path_29727" data-name="Path 29727" d="M102.375,484.8H93.822a1.341,1.341,0,0,1-1.422-1.422v-8.553a1.341,1.341,0,0,1,1.422-1.422h8.553a1.341,1.341,0,0,1,1.422,1.422v8.553A1.341,1.341,0,0,1,102.375,484.8Zm-7.131-2.855h5.7v-5.7h-5.7Z" transform="translate(-83.414 -381.079)" fill="#1f2021"/>
    <path id="Path_29728" data-name="Path 29728" d="M475.675,404.8h-8.553a1.341,1.341,0,0,1-1.422-1.422v-8.553a1.341,1.341,0,0,1,1.422-1.422h8.553a1.341,1.341,0,0,1,1.422,1.422v8.553A1.341,1.341,0,0,1,475.675,404.8Zm-7.131-2.855h5.7v-5.7h-5.7Z" transform="translate(-416.802 -309.632)" fill="#1f2021"/>
    <path id="Path_29729" data-name="Path 29729" d="M475.675,551.5h-8.553a1.341,1.341,0,0,1-1.422-1.422v-8.553a1.341,1.341,0,0,1,1.422-1.422h8.553a1.341,1.341,0,0,1,1.422,1.422v8.553A1.347,1.347,0,0,1,475.675,551.5Zm-7.131-2.855h5.7v-5.7h-5.7Z" transform="translate(-416.802 -440.647)" fill="#1f2021"/>
    <path id="Path_29730" data-name="Path 29730" d="M608.975,404.8h-8.553A1.341,1.341,0,0,1,599,403.375v-8.553a1.341,1.341,0,0,1,1.422-1.422h8.553a1.341,1.341,0,0,1,1.422,1.422v8.553A1.336,1.336,0,0,1,608.975,404.8Zm-7.121-2.855h5.7v-5.7h-5.7v5.7Z" transform="translate(-535.85 -309.632)" fill="#1f2021"/>
    <path id="Path_29731" data-name="Path 29731" d="M608.975,551.5h-8.553A1.341,1.341,0,0,1,599,550.075v-8.553a1.341,1.341,0,0,1,1.422-1.422h8.553a1.341,1.341,0,0,1,1.422,1.422v8.553A1.341,1.341,0,0,1,608.975,551.5Zm-7.121-2.855h5.7v-5.7h-5.7v5.7Z" transform="translate(-535.85 -440.647)" fill="#1f2021"/>
    <path id="Path_29732" data-name="Path 29732" d="M262.375,484.8h-8.553a1.341,1.341,0,0,1-1.422-1.422v-8.553a1.341,1.341,0,0,1,1.422-1.422h8.553a1.341,1.341,0,0,1,1.422,1.422v8.553A1.341,1.341,0,0,1,262.375,484.8Zm-7.131-2.855h5.7v-5.7h-5.7Z" transform="translate(-226.307 -381.079)" fill="#1f2021"/>
  </g>
</svg>
