<svg xmlns="http://www.w3.org/2000/svg" width="116.981" height="112.95" viewBox="0 0 116.981 112.95">
  <g id="Group_1483" data-name="Group 1483" transform="translate(-479.478 -4370.95)">
    <path id="Path_33441" data-name="Path 33441" d="M743.4,2131.733l-1.6,3.933-25.6,22.4v26.2H697.533V2216h92.533v-36.267H767.133v-12.8l9.333,6.133,5.867-3-2.667-7.4-31.733-30.933Z" transform="translate(-203.722 2265.5)" fill="#c72"/>
    <rect id="Rectangle_720" data-name="Rectangle 720" width="14" height="14" transform="translate(521.278 4432.5)" fill="#fff"/>
    <rect id="Rectangle_721" data-name="Rectangle 721" width="14" height="14" transform="translate(540.278 4432.5)" fill="#fff"/>
    <rect id="Rectangle_722" data-name="Rectangle 722" width="10" height="21" transform="translate(570.278 4452.5)" fill="#fff"/>
    <rect id="Rectangle_723" data-name="Rectangle 723" width="10" height="21" transform="translate(496.278 4452.5)" fill="#fff"/>
    <g id="AdobeStock_664825571" transform="translate(288.978 4116.65)">
      <g id="Group_1310" data-name="Group 1310" transform="translate(190.5 254.3)">
        <path id="Path_29749" data-name="Path 29749" d="M1136.545,2062.777h-53.882a1.763,1.763,0,0,1-1.763-1.763v-50.326a1.763,1.763,0,1,1,3.526,0v48.559h50.326v-48.088a1.781,1.781,0,0,1,2.951-1.974l.238.291a1.884,1.884,0,0,1,.395,1.107v50.433A1.8,1.8,0,0,1,1136.545,2062.777Z" transform="translate(-1051.112 -1949.827)" fill-rule="evenodd"/>
        <path id="Path_29750" data-name="Path 29750" d="M1629.829,2792.335h13.827v-14.907a6.9,6.9,0,1,0-13.8,0l-.03,14.907Zm15.59,3.553h-17.356a1.763,1.763,0,0,1-1.763-1.763v-16.67a10.455,10.455,0,1,1,20.909,0v16.67A1.782,1.782,0,0,1,1645.419,2795.888Z" transform="translate(-1578.266 -2682.938)" fill-rule="evenodd"/>
        <path id="Path_29751" data-name="Path 29751" d="M641.565,995.26Zm42.477-24.941a1.821,1.821,0,0,1,1.265.525l30.364,30.655a3.513,3.513,0,0,0,4.844.1,3.124,3.124,0,0,0,1.027-2.211,3,3,0,0,0-.9-2.238L689.753,966a8.13,8.13,0,0,0-6.005-2.345,8.018,8.018,0,0,0-4.9,1.9L642.7,996.6h0a3.155,3.155,0,0,0-1.107,2.185,2.947,2.947,0,0,0,.843,2.265,3.521,3.521,0,0,0,4.844.264l35.633-30.574a1.686,1.686,0,0,1,1.131-.422Zm34.107,35.736a7.067,7.067,0,0,1-5-2.054l-29.206-29.5-34.368,29.524a7.114,7.114,0,0,1-9.745-.552,6.6,6.6,0,0,1-1.763-4.9,6.676,6.676,0,0,1,2.345-4.687l36.131-31.022a11.411,11.411,0,0,1,7.086-2.74,11.591,11.591,0,0,1,8.665,3.372l30.839,31.153a6.593,6.593,0,0,1-.261,9.561A6.812,6.812,0,0,1,718.15,1006.056Z" transform="translate(-623.078 -936.507)" fill-rule="evenodd"/>
        <path id="Path_29752" data-name="Path 29752" d="M1411.829,2082.538h8.638V2073.9h-8.638v8.638Zm10.4,3.556h-12.167a1.764,1.764,0,0,1-1.763-1.763v-12.167a1.763,1.763,0,0,1,1.763-1.763h12.167a1.763,1.763,0,0,1,1.763,1.763v12.167A1.747,1.747,0,0,1,1422.23,2086.094Z" transform="translate(-1367.559 -2009.643)" fill-rule="evenodd"/>
        <path id="Path_29753" data-name="Path 29753" d="M2003.03,2082.538h8.638V2073.9h-8.638v8.638Zm10.4,3.556h-12.167a1.764,1.764,0,0,1-1.763-1.763v-12.167a1.763,1.763,0,0,1,1.763-1.763h12.167a1.763,1.763,0,0,1,1.763,1.763v12.167A1.764,1.764,0,0,1,2013.43,2086.094Z" transform="translate(-1938.98 -2009.643)" fill-rule="evenodd"/>
        <path id="Path_29754" data-name="Path 29754" d="M1951.663,281.452a1.763,1.763,0,0,1-1.763-1.763V256.063a1.763,1.763,0,1,1,3.526,0v23.622A1.764,1.764,0,0,1,1951.663,281.452Z" transform="translate(-1891.04 -254.3)" fill-rule="evenodd"/>
        <path id="Path_29755" data-name="Path 29755" d="M1648.315,464.126h-21.752a1.763,1.763,0,1,1,0-3.526h21.752a1.763,1.763,0,1,1,0,3.526Z" transform="translate(-1576.816 -453.698)" fill-rule="evenodd"/>
        <path id="Path_29756" data-name="Path 29756" d="M2695.026,2456.074h18.618v-33.445H2695v33.445Zm20.411,3.553h-22.174a1.763,1.763,0,0,1-1.763-1.763v-37a1.763,1.763,0,0,1,1.763-1.763h22.174a1.763,1.763,0,0,1,1.763,1.763v37A1.763,1.763,0,0,1,2715.437,2459.627Z" transform="translate(-2607.83 -2346.677)" fill-rule="evenodd"/>
        <path id="Path_29757" data-name="Path 29757" d="M2889.356,2683h5.583v-17.146h-5.583V2683Zm7.347,3.529h-9.14a1.763,1.763,0,0,1-1.763-1.763v-20.7a1.763,1.763,0,0,1,1.763-1.763h9.14a1.763,1.763,0,0,1,1.763,1.763v20.7A1.76,1.76,0,0,1,2896.7,2686.528Z" transform="translate(-2795.629 -2581.741)" fill-rule="evenodd"/>
        <path id="Path_29758" data-name="Path 29758" d="M420.756,2456.074H439.4v-33.445H420.756v33.445Zm20.411,3.553H418.99a1.763,1.763,0,0,1-1.763-1.763l-.027-37a1.763,1.763,0,0,1,1.763-1.763h22.174a1.763,1.763,0,0,1,1.763,1.763v37A1.719,1.719,0,0,1,441.167,2459.627Z" transform="translate(-409.616 -2346.677)" fill-rule="evenodd"/>
        <path id="Path_29759" data-name="Path 29759" d="M616.053,2683h5.584v-17.146h-5.584V2683Zm7.347,3.529h-9.137a1.763,1.763,0,0,1-1.763-1.763v-20.7a1.763,1.763,0,0,1,1.763-1.763h9.14a1.763,1.763,0,0,1,1.763,1.763v20.7A1.765,1.765,0,0,1,623.4,2686.528Z" transform="translate(-598.382 -2581.741)" fill-rule="evenodd"/>
        <path id="Path_29760" data-name="Path 29760" d="M419.763,1786.543A1.763,1.763,0,0,1,418,1784.78v-22.017a1.763,1.763,0,0,1,3.526,0v22.017A1.759,1.759,0,0,1,419.763,1786.543Z" transform="translate(-410.389 -1710.594)" fill-rule="evenodd"/>
        <path id="Path_29761" data-name="Path 29761" d="M199.874,1309.526a5.821,5.821,0,1,0,5.821,5.821,5.846,5.846,0,0,0-5.821-5.821Zm0,15.222a9.374,9.374,0,1,1,9.374-9.374A9.4,9.4,0,0,1,199.874,1324.748Z" transform="translate(-190.5 -1270.816)" fill-rule="evenodd"/>
        <path id="Path_29762" data-name="Path 29762" d="M3356.063,1786.543a1.764,1.764,0,0,1-1.763-1.763v-22.017a1.763,1.763,0,0,1,3.526,0v22.017A1.763,1.763,0,0,1,3356.063,1786.543Z" transform="translate(-3248.456 -1710.594)" fill-rule="evenodd"/>
        <path id="Path_29763" data-name="Path 29763" d="M3136.174,1309.526a5.821,5.821,0,1,0,5.821,5.821,5.846,5.846,0,0,0-5.821-5.821Zm0,15.222a9.374,9.374,0,1,1,9.374-9.374A9.4,9.4,0,0,1,3136.174,1324.748Z" transform="translate(-3028.567 -1270.816)" fill-rule="evenodd"/>
      </g>
    </g>
  </g>
</svg>
