<svg xmlns="http://www.w3.org/2000/svg" width="104.44" height="82.057" viewBox="0 0 104.44 82.057">
  <g id="Independent_" data-name="Independent " transform="translate(-181.848 -196.062)">
    <g id="Group_1398" data-name="Group 1398" transform="translate(181.848 196.062)">
      <path id="Path_33516" data-name="Path 33516" d="M-1918.467,3400h67.2l3.467-3.733,6.4-42.133,3.2-1.867,4-4-1.867-3.467h-95.2l-3.733,1.6v5.866h5.867l7.467,44Z" transform="translate(1937.099 -3319.544)" fill="#c72"/>
      <path id="Path_33517" data-name="Path 33517" d="M-1920.333,3341.6l-5.867-11.2v-6.134l3.2-2.667,9.067,2.667,9.333,4.533,4.533,3.733v2.134l14.933,1.866,6.933-7.733,7.733,5.867,9.6-2.134,8.267-6.667,4.8,2.934-6.667,10.133-2.4,4.8h-63.467Z" transform="translate(1937.099 -3319.544)" fill="#c72"/>
      <g id="Group_1390" data-name="Group 1390" transform="translate(0 22.667)">
        <path id="Path_33498" data-name="Path 33498" d="M176.425,211.667a1.617,1.617,0,0,0-1.247-.567H87.654a1.617,1.617,0,0,0-1.247.567,1.533,1.533,0,0,0-.368,1.3l.218,1.36,6.724,41.991v.028a7.139,7.139,0,0,0,7.027,5.865h62.817a7.139,7.139,0,0,0,7.027-5.865v-.028l6.724-41.991.218-1.36a1.586,1.586,0,0,0-.368-1.3Zm-9.8,44.117a3.858,3.858,0,0,1-3.8,3.173H100.007a3.858,3.858,0,0,1-3.8-3.173L89.58,214.33h83.7Z" transform="translate(-79.21 -202.826)" fill-rule="evenodd"/>
        <path id="Path_33499" data-name="Path 33499" d="M160.688,193.4H67.752a5.752,5.752,0,0,1,0-11.5h92.937a5.752,5.752,0,0,1,0,11.5Zm-92.937-8.245a2.493,2.493,0,1,0,0,4.987h92.937a2.493,2.493,0,0,0,0-4.987Z" transform="translate(-62 -181.9)" fill-rule="evenodd"/>
        <g id="Group_1389" data-name="Group 1389" transform="translate(26.011 20.599)">
          <g id="Group_1385" data-name="Group 1385">
            <path id="Path_33500" data-name="Path 33500" d="M158.673,254.6h-.708a4.172,4.172,0,0,0-4.165,4.165v18.106a4.172,4.172,0,0,0,4.165,4.165h.708a4.136,4.136,0,0,0,4.165-4.165V258.765A4.172,4.172,0,0,0,158.673,254.6Zm.907,22.271a.9.9,0,0,1-.907.907h-.708a.9.9,0,0,1-.907-.907V258.765a.9.9,0,0,1,.907-.907h.708a.9.9,0,0,1,.907.907Z" transform="translate(-153.8 -254.6)" fill-rule="evenodd"/>
            <rect id="Rectangle_730" data-name="Rectangle 730" width="2.522" height="19.919" rx="1.261" transform="translate(3.258 3.258)" fill="#fff"/>
          </g>
          <g id="Group_1386" data-name="Group 1386" transform="translate(14.45)">
            <path id="Path_33501" data-name="Path 33501" d="M209.673,254.6h-.708a4.172,4.172,0,0,0-4.165,4.165v18.106a4.172,4.172,0,0,0,4.165,4.165h.708a4.136,4.136,0,0,0,4.165-4.165V258.765A4.172,4.172,0,0,0,209.673,254.6Zm.907,22.271a.9.9,0,0,1-.907.907h-.708a.9.9,0,0,1-.907-.907V258.765a.9.9,0,0,1,.907-.907h.708a.9.9,0,0,1,.907.907Z" transform="translate(-204.8 -254.6)" fill-rule="evenodd"/>
            <rect id="Rectangle_731" data-name="Rectangle 731" width="2.522" height="19.919" rx="1.261" transform="translate(3.258 3.258)" fill="#fff"/>
          </g>
          <g id="Group_1387" data-name="Group 1387" transform="translate(28.901)">
            <path id="Path_33502" data-name="Path 33502" d="M260.674,254.6h-.708a4.172,4.172,0,0,0-4.165,4.165v18.106a4.172,4.172,0,0,0,4.165,4.165h.708a4.154,4.154,0,0,0,4.165-4.165V258.765A4.172,4.172,0,0,0,260.674,254.6Zm.907,22.271a.9.9,0,0,1-.907.907h-.708a.9.9,0,0,1-.907-.907V258.765a.9.9,0,0,1,.907-.907h.708a.9.9,0,0,1,.907.907Z" transform="translate(-255.8 -254.6)" fill-rule="evenodd"/>
            <rect id="Rectangle_732" data-name="Rectangle 732" width="2.522" height="19.919" rx="1.261" transform="translate(3.258 3.258)" fill="#fff"/>
          </g>
          <g id="Group_1388" data-name="Group 1388" transform="translate(43.351)">
            <path id="Path_33503" data-name="Path 33503" d="M311.674,254.6h-.708a4.172,4.172,0,0,0-4.165,4.165v18.106a4.172,4.172,0,0,0,4.165,4.165h.708a4.172,4.172,0,0,0,4.165-4.165V258.765A4.172,4.172,0,0,0,311.674,254.6Zm.907,22.271a.9.9,0,0,1-.907.907h-.708a.9.9,0,0,1-.907-.907V258.765a.9.9,0,0,1,.907-.907h.708a.9.9,0,0,1,.907.907Z" transform="translate(-306.8 -254.6)" fill-rule="evenodd"/>
            <rect id="Rectangle_733" data-name="Rectangle 733" width="2.522" height="19.919" rx="1.261" transform="translate(3.258 3.258)" fill="#fff"/>
          </g>
        </g>
      </g>
      <g id="Group_1397" data-name="Group 1397" transform="translate(9.123 0)">
        <g id="Group_1392" data-name="Group 1392" transform="translate(25.133 0)">
          <path id="Path_33504" data-name="Path 33504" d="M203.386,153.243a1.645,1.645,0,0,1-1.643,1.643H186.158v6.942a1.6,1.6,0,0,1-1.615,1.615A1.645,1.645,0,0,1,182.9,161.8v-8.557a1.641,1.641,0,0,1,.465-1.145l.017-.017a1.624,1.624,0,0,1,1.122-.479.187.187,0,0,1,.04,0h17.2A1.645,1.645,0,0,1,203.386,153.243Z" transform="translate(-182.9 -137.518)" fill-rule="evenodd"/>
          <path id="Path_33505" data-name="Path 33505" d="M259.141,140.941A1.645,1.645,0,0,1,257.5,139.3v-7.99l-5.355-6.829-5.355,6.829v7.99a1.643,1.643,0,1,1-3.287,0V130.74a1.7,1.7,0,0,1,.34-1.02l.487-.623,4.4-5.61,2.085-2.663a1.638,1.638,0,0,1,1.275-.623,1.6,1.6,0,0,1,1.275.623l.453.578,6.279,8.016.238.3a1.638,1.638,0,0,1,.34,1.02V139.3A1.488,1.488,0,0,1,259.141,140.941Z" transform="translate(-226.329 -115.015)" fill-rule="evenodd"/>
          <g id="Group_1391" data-name="Group 1391" transform="translate(0.008)">
            <path id="Path_33506" data-name="Path 33506" d="M208.761,101.9h-17.2a1.645,1.645,0,0,0-1.643,1.643v4.618L186.1,113.03l-2.009,2.559-.686.876-.017.017-.1.125a1.626,1.626,0,0,0,.255,2.3,1.561,1.561,0,0,0,1.02.368,1.738,1.738,0,0,0,1.3-.623l2.088-2.663,4.4-5.61h16.406a1.645,1.645,0,0,0,1.643-1.643v-5.185A1.645,1.645,0,0,0,208.761,101.9Zm-15.584,5.214v-1.927h13.941v1.927Z" transform="translate(-182.927 -101.9)" fill-rule="evenodd"/>
            <rect id="Rectangle_734" data-name="Rectangle 734" width="13.94" height="1.927" transform="translate(10.249 3.287)" fill="#fff"/>
            <path id="Path_33507" data-name="Path 33507" d="M218.03,131.8l-4.4,5.61H200.67l4.4-5.61Z" transform="translate(-195.643 -123.328)" fill="#fff" fill-rule="evenodd"/>
          </g>
        </g>
        <g id="Group_1393" data-name="Group 1393" transform="translate(0 0.639)">
          <path id="Path_33508" data-name="Path 33508" d="M102.953,129.443a1.678,1.678,0,0,1-1.3-.652,39.053,39.053,0,0,1-6.8-12.665c-1.53-5.5-.085-8.444,1.417-9.917,2.493-2.493,6.829-2.72,12.184-.652a49.63,49.63,0,0,1,15.386,10.314,1.623,1.623,0,1,1-2.238,2.352c-10.059-9.549-20-12.722-23.036-9.719-1.247,1.247-1.445,3.627-.567,6.744a36.371,36.371,0,0,0,6.262,11.56,1.635,1.635,0,0,1-.312,2.3A1.617,1.617,0,0,1,102.953,129.443Z" transform="translate(-94.197 -104.157)" fill-rule="evenodd"/>
          <path id="Path_33509" data-name="Path 33509" d="M121.979,137.931a1.7,1.7,0,0,1-1.162-.482,1.642,1.642,0,0,1,0-2.3l4.137-4.137a1.623,1.623,0,0,1,2.3,2.3l-4.137,4.137A1.541,1.541,0,0,1,121.979,137.931Z" transform="translate(-112.94 -123.072)" fill-rule="evenodd"/>
          <path id="Path_33510" data-name="Path 33510" d="M138.879,155.293a1.7,1.7,0,0,1-1.162-.482,1.642,1.642,0,0,1,0-2.3l5.3-5.3a1.623,1.623,0,1,1,2.3,2.3l-5.3,5.3A1.482,1.482,0,0,1,138.879,155.293Z" transform="translate(-125.051 -134.681)" fill-rule="evenodd"/>
        </g>
        <g id="Group_1396" data-name="Group 1396" transform="translate(56.317 0.028)">
          <g id="Group_1395" data-name="Group 1395">
            <path id="Path_33511" data-name="Path 33511" d="M314.02,118.3l-1.136,1.017-2.686,2.4-2.071,1.85c-.139.125-.281.249-.422.371a22.906,22.906,0,0,1-11.592,5.267c-.281.045-.564.082-.85.113l-.51.057a.36.36,0,0,1-.17.028,1.634,1.634,0,0,1-.17-3.258l.51-.057q.306-.034.612-.076a19.669,19.669,0,0,0,10.438-4.882l.6-.538,4.012-3.581,1.286-1.15a1.618,1.618,0,0,1,2.153,0l.142.142A1.619,1.619,0,0,1,314.02,118.3Z" transform="translate(-292.955 -111.641)" fill-rule="evenodd"/>
            <path id="Path_33512" data-name="Path 33512" d="M339.746,148.681a2.826,2.826,0,0,1-.453-.057,1.639,1.639,0,0,1-1.133-2.012,23.258,23.258,0,0,1,5.043-9.152l5.27-5.894a1.628,1.628,0,0,1,2.862,1.077h0a1.521,1.521,0,0,1-.425,1.077l-5.27,5.894a20.115,20.115,0,0,0-4.335,7.877A1.632,1.632,0,0,1,339.746,148.681Z" transform="translate(-325.311 -122.783)" fill-rule="evenodd"/>
            <g id="Group_1394" data-name="Group 1394" transform="translate(17.028)">
              <path id="Path_33513" data-name="Path 33513" d="M364.71,106.959l-3.8-3.8A3.991,3.991,0,0,0,358.108,102a3.942,3.942,0,0,0-2.805,1.162l-1.785,1.785a1.642,1.642,0,0,0,0,2.3l.13.13,6.837,6.837.116.116a1.653,1.653,0,0,0,1.162.482,1.756,1.756,0,0,0,1.162-.453l1.785-1.785a4.042,4.042,0,0,0,1.162-2.805A3.991,3.991,0,0,0,364.71,106.959Zm-2.3,3.287-.652.652-4.675-4.675-.113-.113.68-.623a.684.684,0,0,1,.963,0l3.8,3.8a.684.684,0,0,1,0,.963Z" transform="translate(-353.05 -102)" fill-rule="evenodd"/>
              <path id="Path_33514" data-name="Path 33514" d="M372.539,118.077a.719.719,0,0,1-.2.482l-.652.652-4.534-4.534a1.661,1.661,0,0,0-.142-.142l-.113-.113.68-.623a.684.684,0,0,1,.963,0l3.8,3.8A.719.719,0,0,1,372.539,118.077Z" transform="translate(-362.976 -110.313)" fill="#fff" fill-rule="evenodd"/>
            </g>
          </g>
          <path id="Path_33515" data-name="Path 33515" d="M346.258,139.741a1.679,1.679,0,0,1-.992-.34l-5.582-4.222a1.638,1.638,0,0,1,1.983-2.607l5.582,4.222a1.653,1.653,0,0,1,.312,2.3A1.6,1.6,0,0,1,346.258,139.741Z" transform="translate(-325.986 -123.676)" fill-rule="evenodd"/>
        </g>
      </g>
    </g>
  </g>
</svg>
