<svg xmlns="http://www.w3.org/2000/svg" width="88.421" height="88.422" viewBox="0 0 88.421 88.422">
  <g id="Juice_Bars" data-name="Juice Bars" transform="translate(-83.999 -83.994)">
    <path id="Path_33468" data-name="Path 33468" d="M93.946,160.706,91,150.843l2.947-5.555L96.78,140.3l1.7-.907h2.267l6.8,11.449.68,3.061-12.583,8.615Z" transform="translate(-6.256 -49.512)" fill="#fff"/>
    <path id="Path_33467" data-name="Path 33467" d="M-5393.725,1849.441l-10.542-7.142,3.514-1.02,10.2-7.6-1.134-4.308-4.988-7.142-1.02-3.174,5.1-2.494,4.988-.567,5.781.567,3.854,2.494,5.555,8.842,1.587,6.462-2.834,1.587h-9.069l-2.153,2.154,1.247,9.069v2.267l-3.968,1.814Z" transform="translate(5491.957 -1730.199)" fill="#c72"/>
    <path id="Path_33443" data-name="Path 33443" d="M219.347,406.692a19.123,19.123,0,0,1-3.911-.4,1.7,1.7,0,1,1,.7-3.329,15.64,15.64,0,0,0,8.227-.494,1.7,1.7,0,0,1,1.095,3.22A18.981,18.981,0,0,1,219.347,406.692Z" transform="translate(-116.26 -284.545)"/>
    <path id="Path_33444" data-name="Path 33444" d="M296.209,110.654a1.723,1.723,0,0,1-.274-.022,1.7,1.7,0,0,1-1.406-1.95A15.672,15.672,0,0,0,282.26,90.842a1.7,1.7,0,1,1,.7-3.329,19.071,19.071,0,0,1,14.929,21.712A1.7,1.7,0,0,1,296.209,110.654Z" transform="translate(-175.982 -3.113)"/>
    <path id="Path_33460" data-name="Path 33460" d="M-5200,2172.713h13.4l8.244-1.8h4.638l10.82,1.8h11.079l-5.153,43.025-4.122,2.319h-30.4l-3.092-2.319Z" transform="translate(5309.399 -2047.391)" fill="#c72" stroke="#707070" stroke-width="1"/>
    <path id="Path_33445" data-name="Path 33445" d="M249.21,250.9h0a1.7,1.7,0,1,1,1.7-1.7,1.7,1.7,0,0,1-1.7,1.7Z" transform="translate(-146.134 -146.13)"/>
    <path id="Path_33446" data-name="Path 33446" d="M249.2,170.594a1.622,1.622,0,0,1-.189-.011,1.7,1.7,0,0,1-.918-2.982,1.742,1.742,0,0,1,.174-.132l14.535-9.513a1.7,1.7,0,1,1,1.859,2.845l-14.507,9.5A1.7,1.7,0,0,1,249.2,170.594Z" transform="translate(-146.126 -65.823)"/>
    <path id="Path_33447" data-name="Path 33447" d="M215.793,124.906a1.7,1.7,0,0,1-1.665-2.048l3.551-17,3.55-17a1.7,1.7,0,1,1,3.329.7l-3.551,17-3.55,17A1.7,1.7,0,0,1,215.793,124.906Z" transform="translate(-116.268 -3.131)"/>
    <path id="Path_33448" data-name="Path 33448" d="M249.21,250.9a1.7,1.7,0,0,1-1.7-1.7h0a1.7,1.7,0,0,1,1.7-1.7h0a1.7,1.7,0,0,1,0,3.4Z" transform="translate(-146.134 -146.13)"/>
    <path id="Path_33449" data-name="Path 33449" d="M99.526,121.775a1.721,1.721,0,0,1-.35-.036,19.072,19.072,0,1,1,7.8-37.339,1.7,1.7,0,1,1-.7,3.33,15.671,15.671,0,1,0-6.406,30.681,1.7,1.7,0,0,1-.346,3.364Z"/>
    <path id="Path_33450" data-name="Path 33450" d="M106.185,221.03a1.727,1.727,0,0,1-.359-.038l-17-3.55a1.7,1.7,0,1,1,.7-3.329l17,3.551.041.01a1.7,1.7,0,0,1-.387,3.356Z" transform="translate(-3.108 -116.258)"/>
    <path id="Path_33451" data-name="Path 33451" d="M169.176,128.673a1.707,1.707,0,0,1-.391-.046h0a1.7,1.7,0,0,1-1.063-.764l-9.487-14.5a1.7,1.7,0,1,1,2.848-1.858l9.514,14.534a1.7,1.7,0,0,1-1.421,2.629Z" transform="translate(-66.1 -23.902)"/>
    <path id="Path_33461" data-name="Path 33461" d="M-4920.267,2305.748l4.875-5.215,4.761,4.421-3.628,5.441Z" transform="translate(5059.394 -2163.239)" fill="#fff" stroke="#707070" stroke-width="1"/>
    <path id="Path_33462" data-name="Path 33462" d="M-4920.267,2305.748l4.875-5.215,4.761,4.421-3.628,5.441Z" transform="translate(5040.902 -2165.471)" fill="#fff" stroke="#707070" stroke-width="1"/>
    <path id="Path_33463" data-name="Path 33463" d="M-4920.267,2305.748l4.875-5.215,4.761,4.421-3.628,5.441Z" transform="translate(5047.279 -2147.404)" fill="#fff" stroke="#707070" stroke-width="1"/>
    <path id="Path_33452" data-name="Path 33452" d="M215.782,124.85a1.721,1.721,0,0,1-.35-.036,1.7,1.7,0,0,1-1.317-2.012l3.551-17v-.006l3.55-17a1.7,1.7,0,1,1,3.33.7l-3.551,17v.006l-3.55,17A1.7,1.7,0,0,1,215.782,124.85Z" transform="translate(-116.256 -3.075)"/>
    <path id="Path_33464" data-name="Path 33464" d="M-5223.2,2001.48h25.053l-3.288,18.591-15.87.68-3.174-.68-2.721-19.271Z" transform="translate(5330.133 -1895.36)" fill="#fff"/>
    <path id="Path_33465" data-name="Path 33465" d="M-5194.559,2008.189l20.735-1.278-3.387,17.754-16.349.65-3.27-.65,2.27-16.476Z" transform="translate(5333.119 -1900.822)" fill="#fff"/>
    <path id="Path_33453" data-name="Path 33453" d="M112.469,260.46a1.7,1.7,0,0,1-.929-3.122l14.507-9.495.008-.005a1.7,1.7,0,1,1,1.882,2.832l-14.54,9.514A1.689,1.689,0,0,1,112.469,260.46Z" transform="translate(-23.928 -146.177)"/>
    <path id="Path_33454" data-name="Path 33454" d="M409.411,553.667a1.7,1.7,0,0,1-1.2-.5l-6.117-6.117a1.7,1.7,0,0,1,0-2.405l6.117-6.117a1.7,1.7,0,0,1,2.405,0l6.114,6.117a1.7,1.7,0,0,1,0,2.405l-6.117,6.117A1.7,1.7,0,0,1,409.411,553.667ZM405.7,545.85l3.713,3.713,3.712-3.713-3.712-3.712Z" transform="translate(-283.841 -405.786)"/>
    <path id="Path_33455" data-name="Path 33455" d="M478.1,729.373a1.7,1.7,0,0,1-1.2-.5l-5.444-5.445a1.7,1.7,0,0,1,0-2.4l5.444-5.445a1.7,1.7,0,0,1,2.405,0l5.444,5.445a1.7,1.7,0,0,1,0,2.4l-5.444,5.445A1.7,1.7,0,0,1,478.1,729.373Zm-3.039-7.145,3.039,3.039,3.039-3.039-3.039-3.041Z" transform="translate(-345.83 -564.02)"/>
    <path id="Path_33466" data-name="Path 33466" d="M-5023,1857.1l4.344-24.146,5.214-6.575,19.725-5.214,9.976-1.7,2.72,1.7.794,3.287-9.749,3.741-18.478,4.761-3.514,4.761-2.834,18.478Z" transform="translate(5151.211 -1733.298)" fill="#c72"/>
    <path id="Path_33456" data-name="Path 33456" d="M585.827,581.73a1.7,1.7,0,0,1-1.2-.5l-5.573-5.573a1.7,1.7,0,0,1,0-2.405l5.573-5.573a1.7,1.7,0,0,1,2.405,0l5.573,5.573a1.7,1.7,0,0,1,0,2.405l-5.574,5.573A1.7,1.7,0,0,1,585.827,581.73Zm-3.169-7.274,3.169,3.169,3.168-3.169-3.168-3.168Z" transform="translate(-441.995 -431.838)"/>
    <path id="Path_33457" data-name="Path 33457" d="M490.717,125.94a1.763,1.763,0,0,1-.277-.022,1.7,1.7,0,0,1-1.4-1.951l3.658-22.252a14.1,14.1,0,0,1,10.521-11.4l24.708-6.148a5.211,5.211,0,1,1,2.514,10.114l-24.711,6.145a3.682,3.682,0,0,0-2.748,2.976l-3.4,20.685a1.7,1.7,0,1,1-3.356-.553l3.4-20.684a7.082,7.082,0,0,1,5.284-5.729l24.71-6.145a1.807,1.807,0,0,0-.432-3.563,1.771,1.771,0,0,0-.434.054l-24.717,6.146a10.7,10.7,0,0,0-7.982,8.656L492.4,124.516a1.7,1.7,0,0,1-1.68,1.424Z" transform="translate(-361.976 -0.013)"/>
    <path id="Path_33458" data-name="Path 33458" d="M327.043,341.835H299.613a7.571,7.571,0,0,1-7.526-6.72l-4.527-39.839-2.251-19.824A1.7,1.7,0,0,1,287,273.56h24.674a1.7,1.7,0,0,1,0,3.4H288.9l2.037,17.931,4.529,39.84a4.171,4.171,0,0,0,4.145,3.7h27.431a4.171,4.171,0,0,0,4.145-3.7l4.525-39.842,2.036-17.931H318.786a1.7,1.7,0,1,1,0-3.4h20.87a1.7,1.7,0,0,1,1.69,1.893l-2.252,19.824-4.524,39.84a7.57,7.57,0,0,1-7.526,6.719Z" transform="translate(-179.905 -169.42)"/>
    <path id="Path_33459" data-name="Path 33459" d="M347.157,445.54A46.647,46.647,0,0,1,336,444.364c-.809-.17-1.573-.332-2.416-.48l-.379-.066a11.087,11.087,0,0,0-3.662,0c-.894.15-1.723.319-2.5.485l-.3.063a54.32,54.32,0,0,1-19.855.488,1.7,1.7,0,1,1,.6-3.348,50.8,50.8,0,0,0,18.552-.466l.3-.063c.808-.17,1.677-.35,2.636-.51a14.466,14.466,0,0,1,4.782,0c.141.023.28.047.416.072.892.157,1.72.332,2.52.5a43.147,43.147,0,0,0,10.454,1.1,42.565,42.565,0,0,0,8.1-.638,1.7,1.7,0,1,1,.6,3.348A46.738,46.738,0,0,1,347.157,445.54Z" transform="translate(-197.953 -318.411)"/>
  </g>
</svg>
