<svg xmlns="http://www.w3.org/2000/svg" width="106.929" height="77.25" viewBox="0 0 106.929 77.25">
  <g id="Organic_Eateries" data-name="Organic Eateries" transform="translate(-6.406 -5.524)">
    <g id="Group_1356" data-name="Group 1356" transform="translate(6.406 5.525)">
      <path id="Path_33480" data-name="Path 33480" d="M-2472.207,3450h94.99l1.38,3.55-3.153,11.8-9.065,12.4-9.854,9-2.365,1.6v7l-1.971,2.2h-49.269v-9.2l-1.38-1.6s-18.328-22-19.313-33.2S-2472.207,3450-2472.207,3450Z" transform="translate(2480.394 -3421.2)" fill="#c72"/>
      <path id="Path_33481" data-name="Path 33481" d="M-2472.35,3447.25l1.6-4.8-3.4-6.4v-5.6l3.4-3.2,5.2-1.4,7.4,3.2,7.2,1.4h4.6l4.6,9.6,4,7.2,4.2,1.4,15.4,1.6,3.4-1.6,5.2-6.2v-6.4l-8.6-7-1.6-3.2,1.6-1.8h13.4l4,3.2,3,1.8h7l6.2-1.8h4l2.8,3.2v10.8l-1.2,7.4-25.8,1.6-13.4,2.4-51.4-2.4Z" transform="translate(2478.957 -3421.2)" fill="#c72"/>
      <path id="Path_33479" data-name="Path 33479" d="M2096.287,41.7a22.479,22.479,0,0,0-25.59,4.218,9.309,9.309,0,0,0-5.531-.413c-5.236,1.132-6.195-.808-8.592-1.928-4.2-1.936-8.554-2.725-12.61,1.014h0v0l-.037.03c-4.241,3.709-3.5,9.056-1.512,12.8a12.665,12.665,0,0,0,1.18,1.822,4.661,4.661,0,0,1,.811,1.637,8.779,8.779,0,0,1-.664,3.971,8.738,8.738,0,0,0-.257.9h-3.208a1.811,1.811,0,0,0-1.365.616,1.736,1.736,0,0,0-.479,1.434,52.486,52.486,0,0,0,25.184,38.931v7.935a1.835,1.835,0,0,0,1.844,1.844h52.877a1.859,1.859,0,0,0,1.844-1.844v-7.935A52.443,52.443,0,0,0,2145.327,67.8a1.713,1.713,0,0,0-.442-1.434,1.809,1.809,0,0,0-1.365-.616h-3.244a8.473,8.473,0,0,0-.221-.9,8.774,8.774,0,0,1-.663-3.971,3.676,3.676,0,0,1,.811-1.637,17.071,17.071,0,0,0,1.143-1.822c2.028-3.746,2.729-9.108-1.512-12.821l-.037-.011c-4.018-3.739-8.37-2.95-12.573-1.014-2.4,1.1-3.319,2.987-8.3,1.991-10.1-11.379-22.639-3.875-22.639-3.875Zm20.206,65.83H2067.3v5.3h49.189Zm-71.461-38.086h-2.654a48.888,48.888,0,0,0,23.6,34.4s51.843,0,51.843,0a48.889,48.889,0,0,0,23.6-34.4h-96.387Zm33.26-3.687c-3.835-2.238-5.235-6.361-5.051-10.361.184-3.116-2.729-7.264-7.3-6.283-6.637,1.427-7.854-.771-10.914-2.187-2.839-1.309-5.826-2.157-8.555.372l-.074.077c-2.765,2.393-2.028,5.889-.737,8.308.406.745.848,1.294,1.217,1.851a6.547,6.547,0,0,1,1.144,2.725,11.7,11.7,0,0,1-.7,5.5h14.2l-7.08-7.865a1.842,1.842,0,1,1,2.729-2.474l6.564,7.29a23.788,23.788,0,0,1,.737-6.748,1.832,1.832,0,1,1,3.466,1.187c-.812,2.411-.516,7.408-.443,8.61Zm26.955-4.6a18.792,18.792,0,0,0-31.416-13.138,10.322,10.322,0,0,1,3.1,7.563c-.147,3.256,1.179,6.7,5.162,7.788a11.147,11.147,0,0,1,4.166,2.223c.074.052.111.1.185.162h10.915a.67.67,0,0,1,.184-.162,10.869,10.869,0,0,1,4.167-2.223A6.757,6.757,0,0,0,2105.246,61.155Zm31.195,4.6a12.2,12.2,0,0,1-.7-5.5,7.663,7.663,0,0,1,1.143-2.725,15.84,15.84,0,0,0,1.216-1.851c1.291-2.419,2.066-5.914-.7-8.308.332.291.222.225-.074-.077-2.765-2.53-5.715-1.681-8.554-.372-3.06,1.416-4.277,3.614-10.951,2.187-4.535-.981-7.448,3.167-7.3,6.283a12.069,12.069,0,0,1-1.7,7.146,1.77,1.77,0,0,1-.552.785,10.12,10.12,0,0,1-2.766,2.43h10.767c.11-1.2.367-6.2-.443-8.61a1.837,1.837,0,0,1,1.143-2.338,1.856,1.856,0,0,1,2.36,1.15,25.281,25.281,0,0,1,.7,6.748l6.6-7.29a1.819,1.819,0,0,1,2.581-.133,1.848,1.848,0,0,1,.147,2.607l-7.117,7.865ZM2094.7,61.7l4.057-1.147a1.844,1.844,0,1,0-1-3.551l-4.057,1.15a1.842,1.842,0,1,0,1,3.547Zm-9.255-6.862-2.249-3.58a1.856,1.856,0,0,0-2.544-.586,1.88,1.88,0,0,0-.59,2.541l2.249,3.584a1.851,1.851,0,0,0,2.544.583A1.88,1.88,0,0,0,2085.445,54.843Zm6.748.538,1.365-3.993a1.849,1.849,0,0,0-1.144-2.345,1.824,1.824,0,0,0-2.323,1.143l-1.4,3.993a1.868,1.868,0,0,0,1.18,2.345A1.823,1.823,0,0,0,2092.193,55.381Zm21.461-9.679a13.98,13.98,0,0,0-13.607-1.692,23.016,23.016,0,0,1,7.081,9.019A10.256,10.256,0,0,1,2113.654,45.7Z" transform="translate(-2038.416 -39.263)" fill-rule="evenodd"/>
    </g>
  </g>
</svg>
