<svg xmlns="http://www.w3.org/2000/svg" width="60.089" height="74.34" viewBox="0 0 60.089 74.34">
  <g id="_x34_" transform="translate(-76.634 0.049)">
    <g id="Group_945" data-name="Group 945" transform="translate(78.252 1.605)">
      <path id="Path_29686" data-name="Path 29686" d="M117.8,85.639,95.593,30.891l-1.208-2.973a4.643,4.643,0,0,1,2.843-6.142,77.86,77.86,0,0,1,50.576.39,4.631,4.631,0,0,1,2.732,6.17l-1.106,2.62L126.275,85.7A4.585,4.585,0,0,1,117.8,85.639Z" transform="translate(-94.045 -17.747)" fill="#c72"/>
    </g>
    <g id="Group_946" data-name="Group 946" transform="translate(78.252 1.606)">
      <path id="Path_29687" data-name="Path 29687" d="M94.979,29.4l-.595-1.459A4.643,4.643,0,0,1,97.228,21.8a77.8,77.8,0,0,1,50.576.381,4.631,4.631,0,0,1,2.732,6.17l-.53,1.245s-15.053-5.231-27.532-5.231S94.979,29.4,94.979,29.4Z" transform="translate(-94.045 -17.76)" fill="#c72"/>
    </g>
    <g id="Group_947" data-name="Group 947" transform="translate(76.634 -0.049)">
      <path id="Path_29688" data-name="Path 29688" d="M106.263,73.985h-.046a6.11,6.11,0,0,1-5.705-3.875h0L77.1,12.389A6.254,6.254,0,0,1,80.924,4.1a78.906,78.906,0,0,1,51.626.39,6.252,6.252,0,0,1,3.68,8.335L111.977,70.194A6.117,6.117,0,0,1,106.263,73.985Zm-2.75-5.092a2.961,2.961,0,0,0,5.473.037l24.261-57.368a3.013,3.013,0,0,0-1.775-4.014,75.688,75.688,0,0,0-49.517-.372,2.981,2.981,0,0,0-1.793,1.608,2.946,2.946,0,0,0-.056,2.379Z" transform="translate(-76.634 0.049)" fill="#1f2021"/>
    </g>
    <g id="Group_948" data-name="Group 948" transform="translate(82.682 16.316)">
      <path id="Path_29689" data-name="Path 29689" d="M161.522,229.792l-19.773-48.755a.356.356,0,0,1,.2-.465,62.923,62.923,0,0,1,47.649.353.362.362,0,0,1,.2.474L169.3,229.848A4.208,4.208,0,0,1,161.522,229.792Z" transform="translate(-141.723 -176.062)" fill="#c72"/>
    </g>
    <g id="Group_949" data-name="Group 949" transform="translate(82.626 16.316)">
      <path id="Path_29690" data-name="Path 29690" d="M142.366,184.029l-1.217-2.992a.356.356,0,0,1,.2-.465,62.923,62.923,0,0,1,47.649.353.362.362,0,0,1,.2.474l-1.245,2.946S176.29,180.2,165.168,180.2,142.366,184.029,142.366,184.029Z" transform="translate(-141.123 -176.062)" fill="#c72"/>
    </g>
    <g id="Group_950" data-name="Group 950" transform="translate(81.058 14.681)">
      <path id="Path_29691" data-name="Path 29691" d="M149.574,218.079h-.046a5.736,5.736,0,0,1-5.361-3.642l-19.773-48.746a1.97,1.97,0,0,1,.019-1.524,1.933,1.933,0,0,1,1.087-1.059,64.375,64.375,0,0,1,48.876.362,1.933,1.933,0,0,1,1.069,1.078,2.012,2.012,0,0,1-.009,1.524L154.945,214.52A5.766,5.766,0,0,1,149.574,218.079Zm-2.407-4.86a2.526,2.526,0,0,0,2.379,1.617,2.594,2.594,0,0,0,2.407-1.58l20-47.268a61.13,61.13,0,0,0-44.062-.325Z" transform="translate(-124.249 -158.468)" fill="#1f2021"/>
    </g>
    <g id="Group_951" data-name="Group 951" transform="translate(106.681 22.452)">
      <circle id="Ellipse_3" data-name="Ellipse 3" cx="6.895" cy="6.895" r="6.895" transform="translate(0)" fill="#fff"/>
    </g>
    <g id="Group_952" data-name="Group 952" transform="translate(105.064 20.844)">
      <path id="Path_29692" data-name="Path 29692" d="M391.111,241.823a8.511,8.511,0,1,1,8.511-8.511A8.522,8.522,0,0,1,391.111,241.823Zm0-13.789a5.269,5.269,0,1,0,5.269,5.269A5.27,5.27,0,0,0,391.111,228.034Z" transform="translate(-382.6 -224.8)" fill="#1f2021"/>
    </g>
    <g id="Group_953" data-name="Group 953" transform="translate(89.704 36.78)">
      <path id="Path_29693" data-name="Path 29693" d="M229.407,403.195a6.892,6.892,0,0,1-6.895,6.895q-.293,0-.585-.028L217.3,398.688a6.891,6.891,0,0,1,12.107,4.507Z" transform="translate(-217.3 -396.3)" fill="#fff"/>
    </g>
    <g id="Group_954" data-name="Group 954" transform="translate(88.079 35.172)">
      <path id="Path_29694" data-name="Path 29694" d="M206.647,396.023q-.362,0-.725-.028a1.634,1.634,0,0,1-1.366-1l-4.627-11.373a1.617,1.617,0,0,1,.279-1.673,8.511,8.511,0,1,1,6.439,14.077Zm-3.3-12.618,3.81,9.357a5.271,5.271,0,0,0-.5-10.518A5.184,5.184,0,0,0,203.348,383.4Z" transform="translate(-199.809 -379)" fill="#1f2021"/>
    </g>
    <g id="Group_955" data-name="Group 955" transform="translate(107.275 50.3)">
      <path id="Path_29695" data-name="Path 29695" d="M411.975,555.459a6.893,6.893,0,1,1,5.176-12.479Z" transform="translate(-406.4 -541.8)" fill="#fff"/>
    </g>
    <g id="Group_956" data-name="Group 956" transform="translate(105.668 48.683)">
      <path id="Path_29696" data-name="Path 29696" d="M396.292,541.293a1.708,1.708,0,0,1-.307-.028,8.511,8.511,0,0,1,1.626-16.865,8.4,8.4,0,0,1,4.757,1.459,1.624,1.624,0,0,1,.595,1.961L397.788,540.3A1.626,1.626,0,0,1,396.292,541.293Zm1.319-13.659a5.27,5.27,0,0,0-2.249,10.035l4.033-9.729A5.492,5.492,0,0,0,397.611,527.634Z" transform="translate(-389.1 -524.4)" fill="#1f2021"/>
    </g>
  </g>
</svg>
