<svg xmlns="http://www.w3.org/2000/svg" width="72.657" height="86.459" viewBox="0 0 72.657 86.459">
  <g id="Group_1479" data-name="Group 1479" transform="translate(3727.913 -863.596)">
    <g id="Seafood_Markets" data-name="Seafood Markets" transform="translate(-3727.913 863.596)">
      <path id="Path_33283" data-name="Path 33283" d="M19.405,12.29a2.316,2.316,0,1,0,2.27,2.27,2.3,2.3,0,0,0-2.27-2.27Z" transform="translate(9.316 6.686)"/>
      <path id="Path_33284" data-name="Path 33284" d="M43.851,13.68H16.6c-2.779.232-1.127,4.786-.9,6.485-.849-.031-6.994.093-7.736-.124A6.244,6.244,0,0,1,9.234,7.689H37.8a6.109,6.109,0,0,0,6.1-6.083,1.552,1.552,0,0,0-3.1-.062v.062a3,3,0,0,1-3,3H33.985A5.951,5.951,0,0,0,34.8,1.5,1.5,1.5,0,0,0,33.29,0h-.031a1.6,1.6,0,0,0-1.544,1.606,3,3,0,0,1-3,3H9.234c-12.29.371-12.337,18.25,0,18.652h7.55A19.7,19.7,0,0,0,21.2,29.491a10.3,10.3,0,0,0-2.47,10.453,1.553,1.553,0,0,0,2.949-.973,7.163,7.163,0,0,1,1.915-7.519,21.3,21.3,0,0,0,3,1.7,9.845,9.845,0,0,0-1.158,8.708,1.543,1.543,0,0,0,2.934-.957,6.952,6.952,0,0,1,1.235-6.67,24.955,24.955,0,0,0,7.566.71A14.26,14.26,0,0,1,51.4,49.177a13.5,13.5,0,0,1-8.986,12.954c-5.157-.556-15.487-2.193-19.872-4.74a1.549,1.549,0,0,0-2.115.6,1.5,1.5,0,0,0-.108,1.282c.448,1.173,3.767,9.449,8.585,11.858C25.94,75.6,27.083,83.995,27.268,85.168a1.548,1.548,0,0,0,2.9.448C32.549,80.783,42.23,73.6,45.611,71.195A28.676,28.676,0,0,0,66.795,59.815c14.3-18.559.818-46.1-22.944-46.135ZM41.458,32.409a24.34,24.34,0,0,0-6.686-.556A16.637,16.637,0,0,1,18.22,16.768H43.465C44.082,21.431,44.067,27.406,41.458,32.409Zm2.965,1.065a29.7,29.7,0,0,0,2.193-16.552A25.736,25.736,0,0,1,66.085,29.63c-2.331,5.1-6.716,9.341-13.047,12.63a17.432,17.432,0,0,0-8.616-8.785ZM30,80.521c-.046-3.721.51-8.2,3.042-8.955a1.548,1.548,0,0,0-.9-2.965c-2.455.757-5.358-3.2-7.288-6.855A82.92,82.92,0,0,0,39.5,64.88a4.515,4.515,0,0,0-.216,2.671,4.572,4.572,0,0,0,2.007,2.98A76.3,76.3,0,0,0,30,80.521Zm13.85-12.337a1.569,1.569,0,0,1-.618-3.026l3.289-1.436a16.609,16.609,0,0,0,5.419-5.543A28.637,28.637,0,0,0,62.07,60.6,25.567,25.567,0,0,1,43.851,68.184Zm20.8-10.654a25.485,25.485,0,0,1-11.318-2.115,17.279,17.279,0,0,0,.679-10.191A32.216,32.216,0,0,0,67.768,33.088,25.49,25.49,0,0,1,64.649,57.53Z" transform="translate(0.001 0)"/>
      <path id="Path_33285" data-name="Path 33285" d="M32.528,48.775a76.3,76.3,0,0,0-11.287,9.99c-.046-3.721.51-8.2,3.042-8.955a1.548,1.548,0,0,0-.9-2.965c-2.455.757-5.358-3.2-7.288-6.855a82.92,82.92,0,0,0,14.637,3.134,4.515,4.515,0,0,0-.216,2.671,4.572,4.572,0,0,0,2.007,2.98Z" transform="translate(8.761 21.755)" fill="#c72"/>
      <path id="Path_33286" data-name="Path 33286" d="M45.858,45.872A25.485,25.485,0,0,1,34.54,43.757a17.279,17.279,0,0,0,.679-10.191A32.216,32.216,0,0,0,48.977,21.43,25.49,25.49,0,0,1,45.858,45.872Z" transform="translate(18.792 11.658)" fill="#c72"/>
      <path id="Path_33287" data-name="Path 33287" d="M35.037,26.5a24.34,24.34,0,0,0-6.686-.556A16.637,16.637,0,0,1,11.8,10.86H37.045c.618,4.663.6,10.638-2.007,15.641Z" transform="translate(6.421 5.908)" fill="#c72"/>
    </g>
    <circle id="Ellipse_50" data-name="Ellipse 50" cx="2.547" cy="2.547" r="2.547" transform="translate(-3700.531 885.398)" fill="#fff"/>
    <g id="Ellipse_51" data-name="Ellipse 51" transform="translate(-3701.531 883.398)" fill="none" stroke="#000" stroke-width="2">
      <circle cx="4" cy="4" r="4" stroke="none"/>
      <circle cx="4" cy="4" r="3" fill="none"/>
    </g>
  </g>
</svg>
