<svg xmlns="http://www.w3.org/2000/svg" xmlns:xlink="http://www.w3.org/1999/xlink" width="76.53" height="76.533" viewBox="0 0 76.53 76.533">
  <defs>
    <clipPath id="clip-path">
      <rect id="Rectangle_510" data-name="Rectangle 510" width="76.53" height="76.533" fill="none" stroke="#707070" stroke-width="3"/>
    </clipPath>
  </defs>
  <g id="Group_1482" data-name="Group 1482" transform="translate(-539.278 -3538.5)">
    <g id="Group_1308" data-name="Group 1308" transform="translate(547.274 3542.253)">
      <path id="Path_29803" data-name="Path 29803" d="M770.423,1277.6v23.5H752.8v21.539h17.623v24.8h28.066v-18.276h18.928v-33.941H803.711l-5.222-17.623Z" transform="translate(-752.8 -1277.6)" fill="#c72"/>
    </g>
    <g id="Group_1320" data-name="Group 1320" transform="translate(539.278 3538.5)">
      <g id="Group_1319" data-name="Group 1319" clip-path="url(#clip-path)">
        <path id="Path_29797" data-name="Path 29797" d="M166.445,205.2a10.225,10.225,0,0,0-9.434-4.893c-3.779.169-6.025,2.624-8,5.124-.231.292-.482.6-.743.917-.408.5-.84,1.025-1.261,1.574-3.475,4.525-2.064,7.84-.267,9.825a5.44,5.44,0,0,0,4.208,1.8,16.027,16.027,0,0,0,4.3-.81,21.455,21.455,0,0,1,2.29-.566,4.606,4.606,0,0,1,.752-.058,12.46,12.46,0,0,1,2.3.3l.365.069c.323.06.682.145,1.061.233a14.957,14.957,0,0,0,3.336.516,4.352,4.352,0,0,0,2.594-.722c5.027-3.547,1.3-9.121-.934-12.451-.2-.3-.4-.59-.572-.862m.273,11.565a2.327,2.327,0,0,1-1.361.331,13.4,13.4,0,0,1-2.849-.459c-.412-.1-.8-.188-1.154-.254L161,216.32a14.268,14.268,0,0,0-2.706-.338,6.746,6.746,0,0,0-1.1.086,23.206,23.206,0,0,0-2.53.62,14.519,14.519,0,0,1-3.718.729,3.3,3.3,0,0,1-2.623-1.1c-1.843-2.037-1.72-4.355.378-7.088.407-.531.825-1.04,1.219-1.52.27-.329.529-.645.767-.946,1.739-2.2,3.538-4.186,6.418-4.315q.24-.01.475-.011a8.042,8.042,0,0,1,7.071,3.933c.182.28.38.575.588.886,2.626,3.923,4.55,7.346,1.477,9.514" transform="translate(-119.392 -165.07)" fill="#231f20" stroke="#000" stroke-width="2"/>
        <path id="Path_29798" data-name="Path 29798" d="M112.213,168.74a6.235,6.235,0,0,0-5.283-3.647,4.173,4.173,0,0,0-1.91.451c-2.439,1.241-3.181,4.693-1.653,7.7a6.236,6.236,0,0,0,5.283,3.647,4.17,4.17,0,0,0,1.91-.452c2.438-1.24,3.181-4.692,1.654-7.695m-2.623,5.789a2.057,2.057,0,0,1-.941.219,4.165,4.165,0,0,1-3.377-2.479c-.976-1.918-.647-4.126.717-4.819a2.053,2.053,0,0,1,.94-.219,4.163,4.163,0,0,1,3.377,2.479c.976,1.919.647,4.126-.717,4.819" transform="translate(-84.531 -136.056)" fill="#231f20" stroke="#000" stroke-width="2"/>
        <path id="Path_29799" data-name="Path 29799" d="M157.607,130.81a4.5,4.5,0,0,0,.789-.07,4.879,4.879,0,0,0,3.436-2.632,7.22,7.22,0,0,0,.664-4.662c-.569-3.181-2.918-5.49-5.586-5.49a4.48,4.48,0,0,0-.789.07,4.881,4.881,0,0,0-3.437,2.632,7.222,7.222,0,0,0-.664,4.662c.568,3.181,2.918,5.49,5.587,5.49m-3.037-9.143a2.792,2.792,0,0,1,1.928-1.535,2.344,2.344,0,0,1,.412-.037c1.6,0,3.1,1.6,3.481,3.728a5.079,5.079,0,0,1-.445,3.277,2.789,2.789,0,0,1-1.927,1.535,2.34,2.34,0,0,1-.412.036c-1.606,0-3.1-1.6-3.482-3.728a5.076,5.076,0,0,1,.445-3.277" transform="translate(-125.179 -97.21)" fill="#231f20" stroke="#000" stroke-width="2"/>
        <path id="Path_29800" data-name="Path 29800" d="M226.6,130.74a4.486,4.486,0,0,0,.789.07c2.667,0,5.017-2.308,5.589-5.49.626-3.5-1.214-6.776-4.1-7.294a4.482,4.482,0,0,0-.789-.07c-2.669,0-5.018,2.308-5.588,5.49a7.22,7.22,0,0,0,.665,4.663,4.879,4.879,0,0,0,3.436,2.631m-2-6.917c.381-2.125,1.878-3.728,3.483-3.728a2.332,2.332,0,0,1,.412.037c1.727.309,2.792,2.468,2.373,4.812-.381,2.126-1.879,3.728-3.483,3.728a2.345,2.345,0,0,1-.412-.036,2.793,2.793,0,0,1-1.928-1.535,5.083,5.083,0,0,1-.445-3.277" transform="translate(-183.263 -97.21)" fill="#231f20" stroke="#000" stroke-width="2"/>
        <path id="Path_29801" data-name="Path 29801" d="M278.925,165.3a6.333,6.333,0,0,0-5.244,3.434c-1.647,2.938-1.045,6.417,1.341,7.755a4.191,4.191,0,0,0,2.072.532h0a6.327,6.327,0,0,0,5.241-3.433,6.908,6.908,0,0,0,.875-4.345,4.532,4.532,0,0,0-2.213-3.41,4.186,4.186,0,0,0-2.074-.533m1.547,7.242a4.242,4.242,0,0,1-3.376,2.341,2.072,2.072,0,0,1-1.027-.259c-1.335-.749-1.574-2.967-.522-4.844a4.247,4.247,0,0,1,3.378-2.341,2.071,2.071,0,0,1,1.028.259,2.447,2.447,0,0,1,1.144,1.857,4.765,4.765,0,0,1-.624,2.987" transform="translate(-224.78 -136.226)" fill="#231f20" stroke="#000" stroke-width="2"/>
        <path id="Path_29802" data-name="Path 29802" d="M75.461,19.029H57.5V1.069A1.069,1.069,0,0,0,56.43,0H20.093a1.069,1.069,0,0,0-1.069,1.069v17.96H1.069A1.069,1.069,0,0,0,0,20.1V56.433A1.069,1.069,0,0,0,1.069,57.5H19.024V75.464a1.069,1.069,0,0,0,1.069,1.069H56.43A1.069,1.069,0,0,0,57.5,75.464V57.5H75.461a1.069,1.069,0,0,0,1.069-1.069V20.1a1.069,1.069,0,0,0-1.069-1.069M74.391,55.364H56.43a1.069,1.069,0,0,0-1.069,1.069V74.395h-34.2V56.433a1.069,1.069,0,0,0-1.069-1.069H2.138v-34.2H20.093A1.069,1.069,0,0,0,21.162,20.1V2.138h34.2V20.1a1.069,1.069,0,0,0,1.069,1.069H74.391Z" fill="#231f20" stroke="#000" stroke-width="3"/>
      </g>
    </g>
  </g>
</svg>
