<svg xmlns="http://www.w3.org/2000/svg" xmlns:xlink="http://www.w3.org/1999/xlink" width="82" height="60" viewBox="0 0 94.8 55.1"><defs><style>.cls-1{fill:#a5806d;}.cls-1,.cls-10,.cls-11,.cls-12,.cls-13,.cls-14,.cls-15,.cls-16,.cls-17,.cls-18,.cls-19,.cls-20,.cls-21,.cls-4,.cls-5,.cls-6,.cls-7,.cls-8,.cls-9{fill-rule:evenodd;}.cls-2{fill:#fff;}.cls-3{fill:#f0f0f0;}.cls-4{fill:url(#linear-gradient);}.cls-5{fill:url(#linear-gradient-2);}.cls-6{fill:url(#linear-gradient-3);}.cls-7{fill:url(#linear-gradient-4);}.cls-8{fill:url(#linear-gradient-5);}.cls-9{fill:url(#linear-gradient-6);}.cls-10{fill:url(#linear-gradient-7);}.cls-11{fill:url(#linear-gradient-8);}.cls-12{fill:url(#linear-gradient-9);}.cls-13{fill:url(#linear-gradient-10);}.cls-14{fill:url(#linear-gradient-11);}.cls-15{fill:url(#linear-gradient-12);}.cls-16{fill:url(#linear-gradient-13);}.cls-17{fill:url(#linear-gradient-14);}.cls-18{fill:url(#linear-gradient-15);}.cls-19{fill:url(#linear-gradient-16);}.cls-20{fill:url(#linear-gradient-17);}.cls-21{fill:url(#linear-gradient-18);}</style><linearGradient id="linear-gradient" x1="6.64" y1="31.36" x2="8.39" y2="31.36" gradientUnits="userSpaceOnUse"><stop offset="0" stop-color="#2db07c"/><stop offset="1" stop-color="#59da87"/></linearGradient><linearGradient id="linear-gradient-2" x1="1.42" y1="32.65" x2="9.77" y2="32.65" xlink:href="#linear-gradient"/><linearGradient id="linear-gradient-3" x1="22.22" y1="31.36" x2="23.97" y2="31.36" xlink:href="#linear-gradient"/><linearGradient id="linear-gradient-4" x1="17" y1="32.65" x2="25.35" y2="32.65" xlink:href="#linear-gradient"/><linearGradient id="linear-gradient-5" x1="37.79" y1="31.36" x2="39.54" y2="31.36" xlink:href="#linear-gradient"/><linearGradient id="linear-gradient-6" x1="32.57" y1="32.65" x2="40.92" y2="32.65" xlink:href="#linear-gradient"/><linearGradient id="linear-gradient-7" x1="53.37" y1="31.36" x2="55.12" y2="31.36" xlink:href="#linear-gradient"/><linearGradient id="linear-gradient-8" x1="48.15" y1="32.65" x2="56.5" y2="32.65" xlink:href="#linear-gradient"/><linearGradient id="linear-gradient-9" x1="77.94" y1="37.83" x2="81.56" y2="37.83" xlink:href="#linear-gradient"/><linearGradient id="linear-gradient-10" x1="67.14" y1="40.5" x2="84.42" y2="40.5" xlink:href="#linear-gradient"/><linearGradient id="linear-gradient-11" x1="6.64" y1="47.06" x2="8.39" y2="47.06" xlink:href="#linear-gradient"/><linearGradient id="linear-gradient-12" x1="1.42" y1="48.35" x2="9.77" y2="48.35" xlink:href="#linear-gradient"/><linearGradient id="linear-gradient-13" x1="22.22" y1="47.06" x2="23.97" y2="47.06" xlink:href="#linear-gradient"/><linearGradient id="linear-gradient-14" x1="17" y1="48.35" x2="25.35" y2="48.35" xlink:href="#linear-gradient"/><linearGradient id="linear-gradient-15" x1="37.79" y1="47.06" x2="39.54" y2="47.06" xlink:href="#linear-gradient"/><linearGradient id="linear-gradient-16" x1="32.57" y1="48.35" x2="40.92" y2="48.35" xlink:href="#linear-gradient"/><linearGradient id="linear-gradient-17" x1="53.37" y1="47.06" x2="55.12" y2="47.06" xlink:href="#linear-gradient"/><linearGradient id="linear-gradient-18" x1="48.15" y1="48.35" x2="56.5" y2="48.35" xlink:href="#linear-gradient"/></defs><g id="Layer_2" data-name="Layer 2"><g id="Layer_20" data-name="Layer 20"><polygon class="cls-1" points="68.8 0 94.8 0 94.8 20.8 68.8 0"/><path class="cls-2" d="M87.5,9.8a3.3,3.3,0,0,1-1.3-1.3,3.4,3.4,0,0,1-.5-1.7A3.5,3.5,0,0,1,86.2,5a3.7,3.7,0,0,1,1.3-1.2,3.7,3.7,0,0,1,1.8-.4,4.1,4.1,0,0,1,1.6.3,2.3,2.3,0,0,1,1,.7.2.2,0,0,1,0,.3l-.6.6a.3.3,0,0,1-.4,0,2,2,0,0,0-1.5-.6l-1.1.2a1.8,1.8,0,0,0-.7.8,2,2,0,0,0-.3,1.1,2,2,0,0,0,.3,1.1,1.6,1.6,0,0,0,.7.7,2.2,2.2,0,0,0,2.6-.3.3.3,0,0,1,.4,0l.6.6a.2.2,0,0,1,0,.3l-1,.7a4.1,4.1,0,0,1-1.6.3A3.7,3.7,0,0,1,87.5,9.8Z"/><ellipse class="cls-2" cx="89.4" cy="6.8" rx="1.1" ry="1.1"/><rect class="cls-3" y="26" width="11.2" height="13.4" rx="0.5"/><path class="cls-4" d="M7.2,30.5l-.4.4a.9.9,0,0,0,1,1.3A.9.9,0,1,0,7.2,30.5Z"/><path class="cls-5" d="M1.8,33.4V29.9H9.4v3.9l-1.1-.6c-.4-.2-.6,0-1.1.3s-1,.9-2-.1l-.8-.9c-.2-.1-.7-.7-.9-.7a12.5,12.5,0,0,0-1.7,1.6Zm-.4,2.4H9.8V29.5H1.5Z"/><rect class="cls-3" x="15.6" y="26" width="11.2" height="13.4" rx="0.5"/><path class="cls-6" d="M22.8,30.5a.7.7,0,0,0-.5.4.9.9,0,0,0,1.1,1.3C24.5,31.9,23.9,30.1,22.8,30.5Z"/><path class="cls-7" d="M17.4,33.4V29.9h7.5v3.9l-1-.6c-.4-.2-.6,0-1.2.3s-1,.9-1.9-.1l-.8-.9c-.2-.1-.7-.7-.9-.7a12.5,12.5,0,0,0-1.7,1.6ZM17,35.8h8.3V29.5H17Z"/><rect class="cls-3" x="31.1" y="26" width="11.2" height="13.4" rx="0.5"/><path class="cls-8" d="M38.4,30.5a.7.7,0,0,0-.5.4.9.9,0,0,0,1,1.3C40,31.9,39.5,30.1,38.4,30.5Z"/><path class="cls-9" d="M33,33.4V29.9h7.5v3.9l-1-.6c-.4-.2-.6,0-1.2.3s-1,.9-1.9-.1l-.9-.9c-.1-.1-.6-.7-.8-.7A12.5,12.5,0,0,0,33,33.4Zm-.4,2.4h8.3V29.5H32.6Z"/><rect class="cls-3" x="46.7" y="26" width="11.2" height="13.4" rx="0.5"/><path class="cls-10" d="M54,30.5a.7.7,0,0,0-.5.4.9.9,0,0,0,1,1.3C55.6,31.9,55.1,30.1,54,30.5Z"/><path class="cls-11" d="M48.6,33.4V29.9h7.5v3.9L55,33.2c-.3-.2-.6,0-1.1.3s-1,.9-2-.1l-.8-.9c-.1-.1-.6-.7-.8-.7s-1.5,1.4-1.7,1.6Zm-.5,2.4h8.4V29.5H48.2Z"/><rect class="cls-3" x="62" y="26" width="27.5" height="29.1" rx="0.9"/><path class="cls-12" d="M79.2,36.1c-.6.3-.8.4-1,.8a1.8,1.8,0,0,0,2.1,2.7C82.6,38.9,81.5,35.3,79.2,36.1Z"/><path class="cls-13" d="M68,42.1V34.8H83.6v8.1a15.9,15.9,0,0,1-2.2-1.3c-.8-.4-1.2.1-2.4.8s-2,1.7-4-.4l-1.7-1.7c-.3-.3-1.3-1.6-1.8-1.6s-3.1,3-3.5,3.4ZM67.1,47H84.4V34H67.2Z"/><rect class="cls-3" y="41.7" width="11.2" height="13.4" rx="0.5"/><path class="cls-14" d="M7.2,46.2a.8.8,0,0,0-.4.4.9.9,0,0,0,1,1.3A.9.9,0,1,0,7.2,46.2Z"/><path class="cls-15" d="M1.8,49.1V45.6H9.4v3.9a6,6,0,0,1-1.1-.6c-.4-.2-.6,0-1.1.4s-1,.8-2-.2l-.8-.9c-.2-.1-.7-.7-.9-.7a12.5,12.5,0,0,0-1.7,1.6Zm-.4,2.4H9.8V45.2H1.5Z"/><rect class="cls-3" x="15.6" y="41.7" width="11.2" height="13.4" rx="0.5"/><path class="cls-16" d="M22.8,46.2a.7.7,0,0,0-.5.4.9.9,0,0,0,1.1,1.3C24.5,47.6,23.9,45.8,22.8,46.2Z"/><path class="cls-17" d="M17.4,49.1V45.6h7.5v3.9l-1-.6c-.4-.2-.6,0-1.2.4s-1,.8-1.9-.2l-.8-.9c-.2-.1-.7-.7-.9-.7a12.5,12.5,0,0,0-1.7,1.6ZM17,51.5h8.3V45.2H17Z"/><rect class="cls-3" x="31.1" y="41.7" width="11.2" height="13.4" rx="0.5"/><path class="cls-18" d="M38.4,46.2a.7.7,0,0,0-.5.4.9.9,0,0,0,1,1.3C40,47.6,39.5,45.8,38.4,46.2Z"/><path class="cls-19" d="M33,49.1V45.6h7.5v3.9a3.3,3.3,0,0,1-1-.6c-.4-.2-.6,0-1.2.4s-1,.8-1.9-.2l-.9-.9c-.1-.1-.6-.7-.8-.7A12.5,12.5,0,0,0,33,49.1Zm-.4,2.4h8.3V45.2H32.6Z"/><rect class="cls-3" x="46.7" y="41.7" width="11.2" height="13.4" rx="0.5"/><path class="cls-20" d="M54,46.2a.7.7,0,0,0-.5.4.9.9,0,0,0,1,1.3C55.6,47.6,55.1,45.8,54,46.2Z"/><path class="cls-21" d="M48.6,49.1V45.6h7.5v3.9a6,6,0,0,1-1.1-.6c-.3-.2-.6,0-1.1.4s-1,.8-2-.2l-.8-.9c-.1-.1-.6-.7-.8-.7s-1.5,1.4-1.7,1.6Zm-.5,2.4h8.4V45.2H48.2Z"/></g></g></svg>