<svg xmlns="http://www.w3.org/2000/svg" xmlns:xlink="http://www.w3.org/1999/xlink" width="82" height="60" viewBox="0 0 86.2 37.5"><defs><style>.cls-1{fill:#091e42;}.cls-2{fill:#f0f0f0;}.cls-10,.cls-11,.cls-12,.cls-13,.cls-14,.cls-15,.cls-16,.cls-3,.cls-4,.cls-5,.cls-6,.cls-7,.cls-8,.cls-9{fill-rule:evenodd;}.cls-3{fill:url(#linear-gradient);}.cls-4{fill:url(#linear-gradient-2);}.cls-5{fill:url(#linear-gradient-3);}.cls-6{fill:url(#linear-gradient-4);}.cls-7{fill:url(#linear-gradient-5);}.cls-8{fill:url(#linear-gradient-6);}.cls-9{fill:url(#linear-gradient-7);}.cls-10{fill:url(#linear-gradient-8);}.cls-11{fill:url(#linear-gradient-9);}.cls-12{fill:url(#linear-gradient-10);}.cls-13{fill:url(#linear-gradient-11);}.cls-14{fill:url(#linear-gradient-12);}.cls-15{fill:url(#linear-gradient-13);}.cls-16{fill:url(#linear-gradient-14);}</style><linearGradient id="linear-gradient" x1="5.84" y1="3" x2="7.38" y2="3" gradientUnits="userSpaceOnUse"><stop offset="0" stop-color="#2db07c"/><stop offset="1" stop-color="#59da87"/></linearGradient><linearGradient id="linear-gradient-2" x1="1.25" y1="4.13" x2="8.59" y2="4.13" xlink:href="#linear-gradient"/><linearGradient id="linear-gradient-3" x1="5.84" y1="17.61" x2="7.38" y2="17.61" xlink:href="#linear-gradient"/><linearGradient id="linear-gradient-4" x1="1.25" y1="18.74" x2="8.59" y2="18.74" xlink:href="#linear-gradient"/><linearGradient id="linear-gradient-5" x1="5.84" y1="32.22" x2="7.38" y2="32.22" xlink:href="#linear-gradient"/><linearGradient id="linear-gradient-6" x1="1.25" y1="33.35" x2="8.59" y2="33.35" xlink:href="#linear-gradient"/><linearGradient id="linear-gradient-7" x1="74.51" y1="8.7" x2="78.98" y2="8.7" xlink:href="#linear-gradient"/><linearGradient id="linear-gradient-8" x1="61.19" y1="11.99" x2="82.51" y2="11.99" xlink:href="#linear-gradient"/><linearGradient id="linear-gradient-9" x1="34.7" y1="3" x2="36.23" y2="3" xlink:href="#linear-gradient"/><linearGradient id="linear-gradient-10" x1="30.11" y1="4.13" x2="37.45" y2="4.13" xlink:href="#linear-gradient"/><linearGradient id="linear-gradient-11" x1="34.7" y1="17.61" x2="36.23" y2="17.61" xlink:href="#linear-gradient"/><linearGradient id="linear-gradient-12" x1="30.11" y1="18.74" x2="37.45" y2="18.74" xlink:href="#linear-gradient"/><linearGradient id="linear-gradient-13" x1="34.7" y1="32.22" x2="36.23" y2="32.22" xlink:href="#linear-gradient"/><linearGradient id="linear-gradient-14" x1="30.11" y1="33.35" x2="37.45" y2="33.35" xlink:href="#linear-gradient"/></defs><g id="Layer_2" data-name="Layer 2"><g id="Layer_20" data-name="Layer 20"><rect id="path-1" x="12.8" y="1.7" width="7" height="2.34" rx="0.4"/><rect id="path-1-2" data-name="path-1" class="cls-1" x="12.8" y="1.7" width="7" height="2.34" rx="0.4"/><rect class="cls-2" x="12.8" y="7" width="5.5" height="1.17" rx="0.3"/><rect id="path-1-3" data-name="path-1" x="12.8" y="15.8" width="7" height="2.34" rx="0.4"/><rect id="path-1-4" data-name="path-1" class="cls-1" x="12.8" y="15.8" width="7" height="2.34" rx="0.4"/><rect class="cls-2" x="12.8" y="21.2" width="5.5" height="1.17" rx="0.3"/><rect id="path-1-5" data-name="path-1" x="12.8" y="30.1" width="7" height="2.34" rx="0.4"/><rect id="path-1-6" data-name="path-1" class="cls-1" x="12.8" y="30.1" width="7" height="2.34" rx="0.4"/><rect class="cls-2" x="12.8" y="35.4" width="5.5" height="1.17" rx="0.3"/><rect class="cls-2" width="9.8" height="8.26" rx="0.3"/><path class="cls-3" d="M6.4,2.3c-.3.1-.4.1-.5.3a.8.8,0,0,0,.9,1.1C7.8,3.4,7.3,1.9,6.4,2.3Z"/><path class="cls-4" d="M1.6,4.8V1.7H8.2V5.1l-.9-.5c-.3-.2-.5,0-1,.3s-.9.7-1.7-.1L3.9,4c-.2-.1-.6-.7-.8-.6S1.8,4.7,1.6,4.8ZM1.3,6.9H8.6V1.4H1.3Z"/><rect class="cls-2" y="14.6" width="9.8" height="8.26" rx="0.3"/><path class="cls-5" d="M6.4,16.9c-.3.1-.4.1-.5.3a.8.8,0,0,0,.9,1.1C7.8,18.1,7.3,16.5,6.4,16.9Z"/><path class="cls-6" d="M1.6,19.4V16.3H8.2v3.4l-.9-.5c-.3-.2-.5,0-1,.3s-.9.8-1.7-.1l-.7-.8c-.2-.1-.6-.6-.8-.6s-1.3,1.3-1.5,1.4Zm-.3,2.1H8.6V16H1.3Z"/><rect class="cls-2" y="29.2" width="9.8" height="8.26" rx="0.3"/><path class="cls-7" d="M6.4,31.5c-.3.1-.4.1-.5.3s.2,1.4.9,1.2S7.3,31.1,6.4,31.5Z"/><path class="cls-8" d="M1.6,34V30.9H8.2v3.5l-.9-.6c-.3-.2-.5.1-1,.3s-.9.8-1.7-.1l-.7-.7c-.2-.2-.6-.7-.8-.7S1.8,33.9,1.6,34Zm-.3,2.1H8.6V30.6H1.3Z"/><rect id="path-1-7" data-name="path-1" x="57.6" y="30.3" width="28.7" height="2.34" rx="0.4"/><rect id="path-1-8" data-name="path-1" class="cls-1" x="57.6" y="30.3" width="28.7" height="2.34" rx="0.4"/><rect class="cls-2" x="57.6" y="35.7" width="27.2" height="1.17" rx="0.3"/><rect class="cls-2" x="57.6" width="28.6" height="23.99" rx="0.8"/><path class="cls-9" d="M76,6.6c-.7.3-.9.4-1.2,1a2.2,2.2,0,0,0,2.6,3.2C80.2,10,78.9,5.6,76,6.6Z"/><path class="cls-10" d="M62.2,13.9V5H81.5v9.9c-1-.4-1.8-1.1-2.8-1.6s-1.5.2-2.8,1c-3.4,2-2.6,2.1-5-.5l-2.1-2.1c-.4-.4-1.7-2-2.2-1.9s-3.9,3.7-4.4,4.1Zm-1,6.1H82.5V4H61.3Z"/><rect id="path-1-9" data-name="path-1" x="41.5" y="1.7" width="7" height="2.34" rx="0.4"/><rect id="path-1-10" data-name="path-1" class="cls-1" x="41.5" y="1.7" width="7" height="2.34" rx="0.4"/><rect class="cls-2" x="41.5" y="7" width="5.5" height="1.17" rx="0.3"/><rect id="path-1-11" data-name="path-1" x="41.5" y="15.8" width="7" height="2.34" rx="0.4"/><rect id="path-1-12" data-name="path-1" class="cls-1" x="41.5" y="15.8" width="7" height="2.34" rx="0.4"/><rect class="cls-2" x="41.5" y="21.2" width="5.5" height="1.17" rx="0.3"/><rect id="path-1-13" data-name="path-1" x="41.5" y="30.1" width="7" height="2.34" rx="0.4"/><rect id="path-1-14" data-name="path-1" class="cls-1" x="41.5" y="30.1" width="7" height="2.34" rx="0.4"/><rect class="cls-2" x="41.5" y="35.4" width="5.5" height="1.17" rx="0.3"/><rect class="cls-2" x="28.9" width="9.8" height="8.26" rx="0.3"/><path class="cls-11" d="M35.2,2.3c-.2.1-.3.1-.4.3a.8.8,0,0,0,.9,1.1A.7.7,0,1,0,35.2,2.3Z"/><path class="cls-12" d="M30.5,4.8V1.7h6.6V5.1l-.9-.5c-.4-.2-.6,0-1,.3s-.9.7-1.8-.1L32.7,4c-.1-.1-.5-.7-.7-.6a10,10,0,0,0-1.5,1.4Zm-.4,2.1h7.3V1.4H30.1Z"/><rect class="cls-2" x="28.9" y="14.6" width="9.8" height="8.26" rx="0.3"/><path class="cls-13" d="M35.2,16.9c-.2.1-.3.1-.4.3a.8.8,0,0,0,.9,1.1C36.7,18.1,36.2,16.5,35.2,16.9Z"/><path class="cls-14" d="M30.5,19.4V16.3h6.6v3.4l-.9-.5c-.4-.2-.6,0-1,.3s-.9.8-1.8-.1l-.7-.8c-.1-.1-.5-.6-.7-.6a10,10,0,0,0-1.5,1.4Zm-.4,2.1h7.3V16H30.1Z"/><rect class="cls-2" x="28.9" y="29.2" width="9.8" height="8.26" rx="0.3"/><path class="cls-15" d="M35.2,31.5c-.2.1-.3.1-.4.3s.2,1.4.9,1.2S36.2,31.1,35.2,31.5Z"/><path class="cls-16" d="M30.5,34V30.9h6.6v3.5l-.9-.6c-.4-.2-.6.1-1,.3s-.9.8-1.8-.1a2.3,2.3,0,0,0-.7-.7c-.1-.2-.5-.7-.7-.7A10,10,0,0,0,30.5,34Zm-.4,2.1h7.3V30.6H30.1Z"/></g></g></svg>