<svg xmlns="http://www.w3.org/2000/svg" xmlns:xlink="http://www.w3.org/1999/xlink" width="82" height="60" viewBox="0 0 95.1 53.2"><defs><style>.cls-1{fill:#a5806d;}.cls-1,.cls-10,.cls-11,.cls-12,.cls-13,.cls-14,.cls-5,.cls-6,.cls-7,.cls-8,.cls-9{fill-rule:evenodd;}.cls-2{fill:#fff;}.cls-3{fill:#091e42;}.cls-4{fill:#f0f0f0;}.cls-5{fill:url(#linear-gradient);}.cls-6{fill:url(#linear-gradient-2);}.cls-7{fill:url(#linear-gradient-3);}.cls-8{fill:url(#linear-gradient-4);}.cls-9{fill:url(#linear-gradient-5);}.cls-10{fill:url(#linear-gradient-6);}.cls-11{fill:url(#linear-gradient-7);}.cls-12{fill:url(#linear-gradient-8);}.cls-13{fill:url(#linear-gradient-9);}.cls-14{fill:url(#linear-gradient-10);}</style><linearGradient id="linear-gradient" x1="9.55" y1="30.69" x2="12.07" y2="30.69" gradientUnits="userSpaceOnUse"><stop offset="0" stop-color="#2db07c"/><stop offset="1" stop-color="#59da87"/></linearGradient><linearGradient id="linear-gradient-2" x1="2.05" y1="32.55" x2="14.05" y2="32.55" xlink:href="#linear-gradient"/><linearGradient id="linear-gradient-3" x1="28.44" y1="30.69" x2="30.96" y2="30.69" xlink:href="#linear-gradient"/><linearGradient id="linear-gradient-4" x1="20.94" y1="32.55" x2="32.94" y2="32.55" xlink:href="#linear-gradient"/><linearGradient id="linear-gradient-5" x1="47.33" y1="30.69" x2="49.85" y2="30.69" xlink:href="#linear-gradient"/><linearGradient id="linear-gradient-6" x1="39.83" y1="32.55" x2="51.83" y2="32.55" xlink:href="#linear-gradient"/><linearGradient id="linear-gradient-7" x1="66.22" y1="30.69" x2="68.74" y2="30.69" xlink:href="#linear-gradient"/><linearGradient id="linear-gradient-8" x1="58.72" y1="32.55" x2="70.72" y2="32.55" xlink:href="#linear-gradient"/><linearGradient id="linear-gradient-9" x1="85.11" y1="30.69" x2="87.63" y2="30.69" xlink:href="#linear-gradient"/><linearGradient id="linear-gradient-10" x1="77.61" y1="32.55" x2="89.61" y2="32.55" xlink:href="#linear-gradient"/></defs><g id="Layer_2" data-name="Layer 2"><g id="Layer_20" data-name="Layer 20"><polygon class="cls-1" points="69.1 0 95.1 0 95.1 20.8 69.1 0"/><path class="cls-2" d="M87.8,9.8a3,3,0,0,1-1.2-1.3,2.6,2.6,0,0,1-.5-1.7A2.7,2.7,0,0,1,86.6,5a3.4,3.4,0,0,1,1.2-1.2,4.1,4.1,0,0,1,1.9-.4,4.1,4.1,0,0,1,1.6.3,3,3,0,0,1,1,.7.2.2,0,0,1,0,.3l-.7.6a.2.2,0,0,1-.3,0,2,2,0,0,0-1.5-.6l-1.1.2a2,2,0,0,0-.8.8,2,2,0,0,0-.3,1.1,2,2,0,0,0,.3,1.1,1.9,1.9,0,0,0,.8.7,2.2,2.2,0,0,0,2.6-.3.2.2,0,0,1,.3,0l.7.6a.2.2,0,0,1,0,.3,4.1,4.1,0,0,1-1.1.7,3.3,3.3,0,0,1-1.5.3A4.1,4.1,0,0,1,87.8,9.8Z"/><ellipse class="cls-2" cx="89.8" cy="6.8" rx="1.1" ry="1.1"/><rect id="path-1" y="41.9" width="13.9" height="2.58" rx="0.4"/><rect id="path-1-2" data-name="path-1" class="cls-3" y="41.9" width="13.9" height="2.58" rx="0.4"/><rect class="cls-4" y="47.8" width="12.3" height="1.29" rx="0.3"/><rect class="cls-4" y="51.9" width="12.3" height="1.29" rx="0.3"/><rect class="cls-4" y="25.8" width="16.1" height="13.51" rx="0.5"/><path class="cls-5" d="M10.4,29.5c-.4.2-.5.2-.7.6a1.3,1.3,0,1,0,.7-.6Z"/><path class="cls-6" d="M2.6,33.6v-5H13.5v5.6a12.9,12.9,0,0,1-1.6-.9c-.5-.3-.8.1-1.6.5S8.9,35,7.5,33.6L6.3,32.4c-.2-.2-.9-1.1-1.2-1.1a26.1,26.1,0,0,0-2.5,2.3ZM2,37.1H14.1V28H2.1Z"/><rect id="path-5" x="18.9" y="41.9" width="13.9" height="2.58" rx="0.4"/><rect id="path-5-2" data-name="path-5" class="cls-3" x="18.9" y="41.9" width="13.9" height="2.58" rx="0.4"/><rect class="cls-4" x="18.9" y="47.8" width="11" height="1.29" rx="0.3"/><rect class="cls-4" x="18.9" y="51.9" width="11" height="1.29" rx="0.3"/><rect class="cls-4" x="18.9" y="25.8" width="16.1" height="13.51" rx="0.5"/><path class="cls-7" d="M29.3,29.5c-.4.2-.5.2-.7.6a1.3,1.3,0,1,0,.7-.6Z"/><path class="cls-8" d="M21.5,33.6v-5H32.4v5.6a12.9,12.9,0,0,1-1.6-.9c-.5-.3-.8.1-1.6.5s-1.4,1.2-2.8-.2l-1.2-1.2c-.2-.2-.9-1.1-1.2-1.1a26.1,26.1,0,0,0-2.5,2.3Zm-.6,3.5h12V28H21Z"/><rect id="path-9" x="37.8" y="41.9" width="13.9" height="2.58" rx="0.4"/><rect id="path-9-2" data-name="path-9" class="cls-3" x="37.8" y="41.9" width="13.9" height="2.58" rx="0.4"/><rect class="cls-4" x="37.8" y="47.8" width="12.2" height="1.29" rx="0.3"/><rect class="cls-4" x="37.8" y="51.9" width="12.2" height="1.29" rx="0.3"/><rect class="cls-4" x="37.8" y="25.8" width="16.1" height="13.51" rx="0.5"/><path class="cls-9" d="M48.2,29.5c-.4.2-.5.2-.7.6a1.3,1.3,0,1,0,.7-.6Z"/><path class="cls-10" d="M40.4,33.6v-5H51.2v5.6a8.3,8.3,0,0,1-1.6-.9c-.5-.3-.8.1-1.6.5s-1.5,1.2-2.8-.2l-1.2-1.2c-.2-.2-.9-1.1-1.2-1.1s-2.2,2.1-2.5,2.3Zm-.6,3.5h12V28H39.9Z"/><rect id="path-9-3" data-name="path-9" x="56.7" y="41.9" width="13.9" height="2.58" rx="0.4"/><rect id="path-9-4" data-name="path-9" class="cls-3" x="56.7" y="41.9" width="13.9" height="2.58" rx="0.4"/><rect class="cls-4" x="56.7" y="47.8" width="12.2" height="1.29" rx="0.3"/><rect class="cls-4" x="56.7" y="51.9" width="12.2" height="1.29" rx="0.3"/><rect class="cls-4" x="56.7" y="25.8" width="16.1" height="13.51" rx="0.5"/><path class="cls-11" d="M67.1,29.5c-.4.2-.6.2-.7.6a1.2,1.2,0,0,0,1.5,1.8C69.4,31.4,68.7,28.9,67.1,29.5Z"/><path class="cls-12" d="M59.3,33.6v-5H70.1v5.6a11.9,11.9,0,0,1-1.5-.9c-.5-.3-.8.1-1.6.5s-1.5,1.2-2.8-.2L63,32.4c-.2-.2-.9-1.1-1.2-1.1s-2.2,2.1-2.5,2.3Zm-.6,3.5h12V28H58.8Z"/><rect id="path-9-5" data-name="path-9" x="75.6" y="41.9" width="13.9" height="2.58" rx="0.4"/><rect id="path-9-6" data-name="path-9" class="cls-3" x="75.6" y="41.9" width="13.9" height="2.58" rx="0.4"/><rect class="cls-4" x="75.6" y="47.8" width="12.2" height="1.29" rx="0.3"/><rect class="cls-4" x="75.6" y="51.9" width="12.2" height="1.29" rx="0.3"/><rect class="cls-4" x="75.6" y="25.8" width="16.1" height="13.51" rx="0.5"/><path class="cls-13" d="M86,29.5c-.4.2-.6.2-.7.6a1.2,1.2,0,0,0,1.5,1.8C88.3,31.4,87.6,28.9,86,29.5Z"/><path class="cls-14" d="M78.2,33.6v-5H89v5.6a11.9,11.9,0,0,1-1.5-.9c-.5-.3-.8.1-1.6.5s-1.5,1.2-2.8-.2l-1.2-1.2c-.2-.2-1-1.1-1.3-1.1s-2.1,2.1-2.4,2.3Zm-.6,3.5h12V28h-12Z"/></g></g></svg>