<svg xmlns="http://www.w3.org/2000/svg" xmlns:xlink="http://www.w3.org/1999/xlink" width="82" height="60" viewBox="0 0 88.7 55.2"><defs><style>.cls-1{fill:#a5806d;fill-rule:evenodd;}.cls-2{fill:#fff;}.cls-3{fill:#091e42;}.cls-4{fill:url(#linear-gradient);}.cls-5{fill:url(#linear-gradient-2);}.cls-6{fill:url(#linear-gradient-3);}.cls-7{fill:#f0f0f0;}</style><linearGradient id="linear-gradient" y1="36.16" x2="15.79" y2="36.16" gradientUnits="userSpaceOnUse"><stop offset="0" stop-color="#2db07c"/><stop offset="1" stop-color="#59da87"/></linearGradient><linearGradient id="linear-gradient-2" x1="24.8" y1="36.16" x2="39.36" y2="36.16" xlink:href="#linear-gradient"/><linearGradient id="linear-gradient-3" x1="49.61" y1="36.16" x2="64.16" y2="36.16" xlink:href="#linear-gradient"/></defs><g id="Layer_2" data-name="Layer 2"><g id="Layer_20" data-name="Layer 20"><polygon class="cls-1" points="62.7 0 88.7 0 88.7 20.8 62.7 0"/><path class="cls-2" d="M81.4,9.8a3.3,3.3,0,0,1-1.3-1.3,3.4,3.4,0,0,1-.5-1.7A3.5,3.5,0,0,1,80.1,5a3.7,3.7,0,0,1,1.3-1.2,4.1,4.1,0,0,1,1.9-.4,4,4,0,0,1,1.5.3,2.3,2.3,0,0,1,1,.7.2.2,0,0,1,0,.3l-.6.6a.3.3,0,0,1-.4,0,2,2,0,0,0-1.5-.6l-1.1.2a2.7,2.7,0,0,0-.7.8,2,2,0,0,0-.3,1.1,2,2,0,0,0,.3,1.1l.7.7a2.2,2.2,0,0,0,2.6-.3.3.3,0,0,1,.4,0l.6.6a.2.2,0,0,1,0,.3l-1,.7a4.1,4.1,0,0,1-1.6.3A3.9,3.9,0,0,1,81.4,9.8Z"/><ellipse class="cls-2" cx="83.3" cy="6.8" rx="1.1" ry="1.1"/><rect id="path-1" y="29.6" width="17.4" height="2.48" rx="0.4"/><rect id="path-1-2" data-name="path-1" class="cls-3" y="29.6" width="17.4" height="2.48" rx="0.4"/><rect id="path-5" x="24.8" y="29.6" width="17.4" height="2.48" rx="0.4"/><rect id="path-5-2" data-name="path-5" class="cls-3" x="24.8" y="29.6" width="17.4" height="2.48" rx="0.4"/><rect class="cls-4" y="35.5" width="15.8" height="1.24" rx="0.3"/><rect class="cls-5" x="24.8" y="35.5" width="14.6" height="1.24" rx="0.3"/><rect id="path-5-3" data-name="path-5" x="49.6" y="29.6" width="17.4" height="2.48" rx="0.4"/><rect id="path-5-4" data-name="path-5" class="cls-3" x="49.6" y="29.6" width="17.4" height="2.48" rx="0.4"/><rect class="cls-6" x="49.6" y="35.5" width="14.6" height="1.24" rx="0.3"/><rect id="path-5-5" data-name="path-5" x="45.3" y="40.1" width="17.4" height="2.48" rx="0.4"/><rect class="cls-7" y="41.3" width="15.8" height="1.24" rx="0.3"/><rect class="cls-7" x="24.8" y="41.3" width="14.6" height="1.24" rx="0.3"/><rect class="cls-7" y="45.5" width="15.8" height="1.24" rx="0.3"/><rect class="cls-7" x="24.8" y="45.5" width="14.6" height="1.24" rx="0.3"/><rect class="cls-7" y="49.7" width="15.8" height="1.24" rx="0.3"/><rect class="cls-7" x="24.8" y="49.7" width="14.6" height="1.24" rx="0.3"/><rect class="cls-7" y="54" width="15.8" height="1.24" rx="0.3"/><rect class="cls-7" x="24.8" y="54" width="14.6" height="1.24" rx="0.3"/><rect class="cls-7" x="45.3" y="45.5" width="32.1" height="1.24" rx="0.3"/><rect class="cls-7" x="45.3" y="49.7" width="32.1" height="1.24" rx="0.3"/><rect class="cls-7" x="45.3" y="54" width="32.1" height="1.24" rx="0.3"/></g></g></svg>