<svg xmlns="http://www.w3.org/2000/svg" xmlns:xlink="http://www.w3.org/1999/xlink" width="82" height="60" viewBox="0 0 93.3 50.4">
    <defs>
        <style>
            .cls-1{fill:#a5806d;}.cls-1,.cls-4,.cls-5{fill-rule:evenodd;}.cls-2{fill:#fff;}.cls-3{fill:#f0f0f0;}.cls-4{fill:url(#linear-gradient);}.cls-5{fill:url(#linear-gradient-2);}.cls-6{fill:#091e42;}.cls-7{fill:url(#linear-gradient-3);}.cls-8{fill:url(#linear-gradient-4);}.cls-9{fill:url(#linear-gradient-5);}
        </style>
        <linearGradient id="linear-gradient" x1="80.93" y1="37.33" x2="83.88" y2="37.33" gradientUnits="userSpaceOnUse">
            <stop offset="0" stop-color="#2db07c"/>
            <stop offset="1" stop-color="#59da87"/>
        </linearGradient>
        <linearGradient id="linear-gradient-2" x1="72.13" y1="39.5" x2="86.21" y2="39.5" xlink:href="#linear-gradient"/>
        <linearGradient id="linear-gradient-3" x1="0" y1="35.16" x2="15.79" y2="35.16" xlink:href="#linear-gradient"/>
        <linearGradient id="linear-gradient-4" x1="24.8" y1="35.16" x2="39.36" y2="35.16"
                        xlink:href="#linear-gradient"/>
        <linearGradient id="linear-gradient-5" x1="48.37" y1="35.16" x2="64.07" y2="35.16"
                        xlink:href="#linear-gradient"/>
    </defs>
    <g fill="none" fill-rule="evenodd" class="snippets_thumbs">
        <g class="s_mega_menu_style_1">
            <polygon class="cls-1" points="67.3 0 93.3 0 93.3 20.8 67.3 0"/>
            <path class="cls-2"
                  d="M86,9.8a4,4,0,0,1-1.3-1.3,3.3,3.3,0,0,1-.4-1.7A3.4,3.4,0,0,1,84.7,5,4.9,4.9,0,0,1,86,3.8a4.1,4.1,0,0,1,1.9-.4,3.3,3.3,0,0,1,1.5.3,2.6,2.6,0,0,1,1.1.7.4.4,0,0,1-.1.3l-.6.6a.2.2,0,0,1-.3,0A2.2,2.2,0,0,0,88,4.7l-1.1.2a2,2,0,0,0-.8.8,2,2,0,0,0-.3,1.1,2,2,0,0,0,.3,1.1,1.9,1.9,0,0,0,.8.7,1.8,1.8,0,0,0,1.1.3,2.2,2.2,0,0,0,1.5-.6.2.2,0,0,1,.3,0l.6.6a.4.4,0,0,1,.1.3,4.1,4.1,0,0,1-1.1.7,3.7,3.7,0,0,1-1.5.3A4.1,4.1,0,0,1,86,9.8Z"/>
            <ellipse class="cls-2" cx="88" cy="6.8" rx="1.1" ry="1.1"/>
            <rect class="cls-3" x="69.7" y="28.6" width="18.9" height="21.84" rx="0.8"/>
            <path class="cls-4" d="M81.9,35.9a1.4,1.4,0,0,0-.8.7,1.5,1.5,0,0,0,1.8,2.1C84.7,38.2,83.8,35.3,81.9,35.9Z"/>
            <path class="cls-5"
                  d="M72.8,40.8V34.9H85.5v6.5a16.2,16.2,0,0,1-1.8-1c-.6-.3-1,.1-1.9.6s-1.7,1.4-3.3-.3l-1.4-1.4c-.2-.2-1-1.3-1.4-1.3s-2.5,2.5-2.9,2.8Zm-.7,4H86.2V34.2h-14Z"/>
            <rect id="path-1" y="29.6" width="17.4" height="2.48" rx="0.4"/>
            <rect id="path-1-2" data-name="path-1" class="cls-6" y="29.6" width="17.4" height="2.48" rx="0.4"/>
            <rect id="path-5" x="24.8" y="29.6" width="17.4" height="2.48" rx="0.4"/>
            <rect id="path-5-2" data-name="path-5" class="cls-6" x="24.8" y="29.6" width="17.4" height="2.48" rx="0.4"/>
            <rect id="path-9" x="48.4" y="29.6" width="17.4" height="2.48" rx="0.4"/>
            <rect id="path-9-2" data-name="path-9" class="cls-6" x="48.4" y="29.6" width="17.4" height="2.48" rx="0.4"/>
            <rect class="cls-7" y="34.5" width="15.8" height="1.24" rx="0.3"/>
            <rect class="cls-8" x="24.8" y="34.5" width="14.6" height="1.24" rx="0.3"/>
            <rect class="cls-9" x="48.4" y="34.5" width="15.7" height="1.24" rx="0.3"/>
            <rect class="cls-3" y="40.3" width="15.8" height="1.24" rx="0.3"/>
            <rect class="cls-3" x="24.8" y="40.3" width="14.6" height="1.24" rx="0.3"/>
            <rect class="cls-3" x="48.4" y="40.3" width="15.7" height="1.24" rx="0.3"/>
            <rect class="cls-3" y="44.2" width="15.8" height="1.24" rx="0.3"/>
            <rect class="cls-3" x="24.8" y="44.2" width="14.6" height="1.24" rx="0.3"/>
            <rect class="cls-3" x="48.4" y="44.2" width="15.7" height="1.24" rx="0.3"/>
            <rect class="cls-3" y="48.2" width="15.8" height="1.24" rx="0.3"/>
            <rect class="cls-3" x="24.8" y="48.2" width="14.6" height="1.24" rx="0.3"/>
            <rect class="cls-3" x="48.4" y="48.2" width="15.7" height="1.24" rx="0.3"/>
        </g>
    </g>
</svg>