<svg xmlns="http://www.w3.org/2000/svg" xmlns:xlink="http://www.w3.org/1999/xlink" width="82" height="60" viewBox="0 0 96.9 55.4"><defs><style>.cls-1{fill:#a5806d;}.cls-1,.cls-11,.cls-12,.cls-14,.cls-15,.cls-4,.cls-5,.cls-8,.cls-9{fill-rule:evenodd;}.cls-2{fill:#fff;}.cls-3{fill:#f0f0f0;}.cls-4{fill:url(#linear-gradient);}.cls-5{fill:url(#linear-gradient-2);}.cls-6{fill:#091e42;}.cls-7{fill:url(#linear-gradient-3);}.cls-8{fill:url(#linear-gradient-4);}.cls-9{fill:url(#linear-gradient-5);}.cls-10{fill:url(#linear-gradient-6);}.cls-11{fill:url(#linear-gradient-7);}.cls-12{fill:url(#linear-gradient-8);}.cls-13{fill:url(#linear-gradient-9);}.cls-14{fill:url(#linear-gradient-10);}.cls-15{fill:url(#linear-gradient-11);}.cls-16{fill:url(#linear-gradient-12);}</style><linearGradient id="linear-gradient" x1="13.38" y1="33.45" x2="17.25" y2="33.45" gradientUnits="userSpaceOnUse"><stop offset="0" stop-color="#2db07c"/><stop offset="1" stop-color="#59da87"/></linearGradient><linearGradient id="linear-gradient-2" x1="11.08" y1="43.24" x2="11.08" y2="29.35" xlink:href="#linear-gradient"/><linearGradient id="linear-gradient-3" x1="1.99" y1="52.31" x2="19.09" y2="52.31" xlink:href="#linear-gradient"/><linearGradient id="linear-gradient-4" x1="39.61" y1="35.39" x2="39.61" y2="31.51" xlink:href="#linear-gradient"/><linearGradient id="linear-gradient-5" x1="35.38" y1="43.24" x2="35.38" y2="29.35" xlink:href="#linear-gradient"/><linearGradient id="linear-gradient-6" x1="26.29" y1="52.31" x2="43.39" y2="52.31" xlink:href="#linear-gradient"/><linearGradient id="linear-gradient-7" x1="63.91" y1="35.39" x2="63.91" y2="31.51" xlink:href="#linear-gradient"/><linearGradient id="linear-gradient-8" x1="59.68" y1="43.24" x2="59.68" y2="29.35" xlink:href="#linear-gradient"/><linearGradient id="linear-gradient-9" x1="50.58" y1="52.31" x2="67.69" y2="52.31" xlink:href="#linear-gradient"/><linearGradient id="linear-gradient-10" x1="88.21" y1="35.39" x2="88.21" y2="31.51" xlink:href="#linear-gradient"/><linearGradient id="linear-gradient-11" x1="83.97" y1="43.24" x2="83.97" y2="29.35" xlink:href="#linear-gradient"/><linearGradient id="linear-gradient-12" x1="74.88" y1="52.31" x2="91.99" y2="52.31" xlink:href="#linear-gradient"/></defs><g id="Layer_2" data-name="Layer 2"><g id="Layer_20" data-name="Layer 20"><polygon class="cls-1" points="70.9 0 96.9 0 96.9 20.8 70.9 0"/><path class="cls-2" d="M89.7,9.8a2.7,2.7,0,0,1-1.3-1.3,3.4,3.4,0,0,1-.5-1.7A3.5,3.5,0,0,1,88.4,5a3,3,0,0,1,1.3-1.2,3.4,3.4,0,0,1,1.8-.4,4.1,4.1,0,0,1,1.6.3,2.3,2.3,0,0,1,1,.7.2.2,0,0,1,0,.3l-.7.6a.2.2,0,0,1-.3,0,2,2,0,0,0-1.5-.6l-1.1.2-.8.8a2,2,0,0,0-.2,1.1,2,2,0,0,0,.2,1.1,2.7,2.7,0,0,0,.8.7,2.2,2.2,0,0,0,2.6-.3.2.2,0,0,1,.3,0l.7.6a.2.2,0,0,1,0,.3l-1,.7a4.1,4.1,0,0,1-1.6.3A3.4,3.4,0,0,1,89.7,9.8Z"/><ellipse class="cls-2" cx="91.6" cy="6.8" rx="1.1" ry="1.1"/><rect class="cls-3" y="27" width="22.2" height="28.41" rx="1.4"/><path class="cls-4" d="M14.7,31.6a2,2,0,0,0-1.1.9,2,2,0,0,0,2.3,2.8C18.3,34.6,17.2,30.8,14.7,31.6Z"/><path class="cls-5" d="M2.8,38V30.2H19.4v8.6c-.8-.3-1.5-.9-2.4-1.3s-1.3.1-2.4.8c-3,1.7-2.3,1.8-4.4-.4L8.4,36.1c-.3-.4-1.4-1.8-1.9-1.7S3.2,37.6,2.8,38Zm-.9,5.2H20.3V29.3H1.9Z"/><rect id="path-1" x="2" y="46.3" width="18.8" height="2.69" rx="0.5"/><rect id="path-1-2" data-name="path-1" class="cls-6" x="2" y="46.3" width="18.8" height="2.69" rx="0.5"/><rect class="cls-7" x="2" y="51.6" width="17.1" height="1.34" rx="0.3"/><rect class="cls-3" x="24.3" y="27" width="22.2" height="28.41" rx="1.4"/><path class="cls-8" d="M39,31.6a2,2,0,0,0-1.1.9,2,2,0,0,0,2.3,2.8C42.6,34.6,41.5,30.8,39,31.6Z"/><path class="cls-9" d="M27.1,38V30.2H43.7v8.6c-.8-.3-1.5-.9-2.4-1.3s-1.3.1-2.5.8c-2.9,1.7-2.2,1.8-4.3-.4l-1.8-1.8c-.3-.4-1.4-1.8-1.9-1.7s-3.3,3.2-3.7,3.6Zm-.9,5.2H44.6V29.3H26.2Z"/><rect id="path-1-3" data-name="path-1" x="26.3" y="46.3" width="18.8" height="2.69" rx="0.5"/><rect id="path-1-4" data-name="path-1" class="cls-6" x="26.3" y="46.3" width="18.8" height="2.69" rx="0.5"/><rect class="cls-10" x="26.3" y="51.6" width="17.1" height="1.34" rx="0.3"/><rect class="cls-3" x="48.6" y="27" width="22.2" height="28.41" rx="1.4"/><path class="cls-11" d="M63.3,31.6a2,2,0,0,0-1.1.9,2,2,0,0,0,2.3,2.8C66.9,34.6,65.8,30.8,63.3,31.6Z"/><path class="cls-12" d="M51.4,38V30.2H68v8.6c-.8-.3-1.5-.9-2.4-1.3s-1.3.1-2.5.8c-2.9,1.7-2.2,1.8-4.3-.4L57,36.1c-.3-.4-1.4-1.8-1.9-1.7s-3.3,3.2-3.7,3.6Zm-.9,5.2H68.9V29.3H50.5Z"/><rect id="path-1-5" data-name="path-1" x="50.6" y="46.3" width="18.8" height="2.69" rx="0.5"/><rect id="path-1-6" data-name="path-1" class="cls-6" x="50.6" y="46.3" width="18.8" height="2.69" rx="0.5"/><rect class="cls-13" x="50.6" y="51.6" width="17.1" height="1.34" rx="0.3"/><rect class="cls-3" x="72.9" y="27" width="22.2" height="28.41" rx="1.4"/><path class="cls-14" d="M87.6,31.6a2,2,0,0,0-1.1.9,2,2,0,0,0,2.3,2.8C91.2,34.6,90.1,30.8,87.6,31.6Z"/><path class="cls-15" d="M75.7,38V30.2H92.3v8.6c-.8-.3-1.6-.9-2.4-1.3s-1.3.1-2.5.8c-2.9,1.7-2.2,1.8-4.3-.4l-1.8-1.8c-.3-.4-1.4-1.8-1.9-1.7s-3.3,3.2-3.7,3.6Zm-.9,5.2H93.2V29.3H74.8Z"/><rect id="path-1-7" data-name="path-1" x="74.9" y="46.3" width="18.8" height="2.69" rx="0.5"/><rect id="path-1-8" data-name="path-1" class="cls-6" x="74.9" y="46.3" width="18.8" height="2.69" rx="0.5"/><rect class="cls-16" x="74.9" y="51.6" width="17.1" height="1.34" rx="0.3"/></g></g></svg>