<svg xmlns="http://www.w3.org/2000/svg" viewBox="0 0 33.2 23.3"><g id="Layer_2" data-name="Layer 2"><g id="Layer_4" data-name="Layer 4"><path d="M15.8,21.2V18.9a2.1,2.1,0,0,1,2.1-2.1H31.2a2.1,2.1,0,0,1,2,2.1v2.3a2,2,0,0,1-2,2.1H17.8A2,2,0,0,1,15.8,21.2Z"/><path d="M15.8,4.4V2.1A2.1,2.1,0,0,1,17.9,0H31.2a2,2,0,0,1,2,2.1V4.4a2,2,0,0,1-2,2H17.8A2,2,0,0,1,15.8,4.4Z"/><path d="M15.8,12.8V10.5a2.1,2.1,0,0,1,2.1-2.1H31.2a2,2,0,0,1,2,2.1v2.3a2,2,0,0,1-2,2H17.8A2,2,0,0,1,15.8,12.8Z"/><path d="M11.1,13.4H2a2,2,0,0,0-2,2v5.8a2.1,2.1,0,0,0,2.1,2.1H11a2.1,2.1,0,0,0,2.1-2.1V15.4A2,2,0,0,0,11.1,13.4Z"/><path d="M11.1,0H2A2,2,0,0,0,0,2V8.7a2.1,2.1,0,0,0,2.1,2.1H11a2.1,2.1,0,0,0,2.1-2.1V2A2,2,0,0,0,11.1,0Z"/></g></g></svg>