<svg xmlns="http://www.w3.org/2000/svg" viewBox="0 0 33.2 30.2"><g id="Layer_2" data-name="Layer 2"><g id="Layer_4" data-name="Layer 4"><g id="_03_landing_page_web_browser" data-name=" 03 landing page web browser"><path d="M28.7,0H4.5A4.5,4.5,0,0,0,0,4.5V25.7a4.5,4.5,0,0,0,4.5,4.5H28.7a4.5,4.5,0,0,0,4.5-4.5V4.5A4.5,4.5,0,0,0,28.7,0ZM12.8,4.5h1.6a.8.8,0,0,1,.7.8V6.8a.8.8,0,0,1-.7.8H12.8a.8.8,0,0,1-.7-.8V5.3A.8.8,0,0,1,12.8,4.5Zm-6,0H8.3a.9.9,0,0,1,.8.8V6.8a.9.9,0,0,1-.8.8H6.8A.9.9,0,0,1,6,6.8V5.3A.9.9,0,0,1,6.8,4.5ZM30.2,25.7a1.5,1.5,0,0,1-1.5,1.5H4.5A1.5,1.5,0,0,1,3,25.7V13.6a1.6,1.6,0,0,1,1.6-1.5H28.7a1.5,1.5,0,0,1,1.5,1.5ZM6,22.7V16.6a1.6,1.6,0,0,1,1.6-1.5h6a1.5,1.5,0,0,1,1.5,1.5v6.1a1.5,1.5,0,0,1-1.5,1.5h-6A1.6,1.6,0,0,1,6,22.7Zm20.2-4.6h-7a1,1,0,0,1-1.1-1v-1a1.1,1.1,0,0,1,1.1-1h7a1.1,1.1,0,0,1,1,1v1A1,1,0,0,1,26.2,18.1Zm0,6.1h-7a1.1,1.1,0,0,1-1.1-1v-1a1,1,0,0,1,1.1-1h7a1,1,0,0,1,1,1v1A1.1,1.1,0,0,1,26.2,24.2Z"/></g></g></g></svg>