<svg xmlns="http://www.w3.org/2000/svg" viewBox="0 0 29.6 29.6"><g id="Layer_2" data-name="Layer 2"><g id="Layer_4" data-name="Layer 4"><path d="M10.4,0H3A2.9,2.9,0,0,0,0,3v7.4a2.9,2.9,0,0,0,3,2.9h7.4a2.9,2.9,0,0,0,2.9-2.9V3A2.9,2.9,0,0,0,10.4,0Z"/><path d="M26.6,0H19.2a2.9,2.9,0,0,0-2.9,3v7.4a2.9,2.9,0,0,0,2.9,2.9h7.4a2.9,2.9,0,0,0,3-2.9V3A2.9,2.9,0,0,0,26.6,0Z"/><path d="M10.4,16.3H3a2.9,2.9,0,0,0-3,2.9v7.4a2.9,2.9,0,0,0,3,3h7.4a2.9,2.9,0,0,0,2.9-3V19.2A2.9,2.9,0,0,0,10.4,16.3Z"/><path d="M26.6,16.3H19.2a2.9,2.9,0,0,0-2.9,2.9v7.4a2.9,2.9,0,0,0,2.9,3h7.4a2.9,2.9,0,0,0,3-3V19.2A2.9,2.9,0,0,0,26.6,16.3Z"/></g></g></svg>