<svg xmlns="http://www.w3.org/2000/svg" viewBox="0 0 33.2 29"><g id="Layer_2" data-name="Layer 2"><g id="Layer_4" data-name="Layer 4"><circle cx="16.6" cy="5.6" r="5.6"/><circle cx="28.1" cy="7.7" r="3.6"/><circle cx="5.2" cy="7.7" r="3.6"/><path d="M8.7,14.5c-1.4-1.1-2.7-1-4.3-1A4.4,4.4,0,0,0,0,17.9V25a2,2,0,0,0,1.9,1.9c4.6,0,4,.1,4-.2C5.9,21.7,5.3,18,8.7,14.5Z"/><path d="M18.2,13.5c-2.9-.2-5.3,0-7.5,1.8S7.9,22,7.9,26.7A2.3,2.3,0,0,0,10.1,29c13.7,0,14.3.4,15.1-1.4s.2-.4.2-6.2-4-7.9-7.2-7.9Z"/><path d="M28.8,13.5c-1.6,0-2.9-.1-4.3,1,3.4,3.5,2.8,6.9,2.8,12.2,0,.3-.4.2,4,.2a1.9,1.9,0,0,0,1.9-2v-7A4.4,4.4,0,0,0,28.8,13.5Z"/></g></g></svg>