<svg xmlns="http://www.w3.org/2000/svg" viewBox="0 0 29.6 33.3"><g id="Layer_2" data-name="Layer 2"><g id="Layer_4" data-name="Layer 4"><path d="M24.2,21.5a7.3,7.3,0,0,1-5.9,3H15a2.8,2.8,0,0,1-2.6-1.8l-1.3-.5a9.7,9.7,0,0,1-2.6-1.9A10.8,10.8,0,0,0,0,30.9v.7a1.8,1.8,0,0,0,1.7,1.7H27.9a1.8,1.8,0,0,0,1.7-1.7v-.7A11,11,0,0,0,24.2,21.5Z"/><path d="M6.7,16.8a1.8,1.8,0,0,0,1.7-1h0a7.9,7.9,0,0,0,4.3,4.5A2.6,2.6,0,0,1,15,19.1h3.3a1.7,1.7,0,0,0,1-.3,3.8,3.8,0,0,0,1-1.2,7.6,7.6,0,0,0,.9-1.8,1.5,1.5,0,0,0,.5.6v.8a3.4,3.4,0,0,1-3.4,3.4H15a1.2,1.2,0,0,0-1.2,1.2A1.1,1.1,0,0,0,15,22.9h3.3A5.6,5.6,0,0,0,24,17.2v-.8a1.8,1.8,0,0,0,.8-1.5V10.1A1.8,1.8,0,0,0,24,8.5a9.2,9.2,0,0,0-18.4,0,1.8,1.8,0,0,0-.8,1.6v4.8A2,2,0,0,0,6.7,16.8ZM14.8,2.3a6.9,6.9,0,0,1,6.9,6.2l-.6.7a6.9,6.9,0,0,0-6.3-4.8A6.8,6.8,0,0,0,8.5,9.2h0l-.6-.7A6.9,6.9,0,0,1,14.8,2.3Z"/></g></g></svg>