<?xml version="1.0" encoding="UTF-8"?><svg xmlns="http://www.w3.org/2000/svg" viewBox="0 0 32.29 32.28"><g id="a"/><g id="b"><g id="c"><g><path d="M9.52,26.55c0-2.09-1.7-3.78-3.78-3.78s-3.78,1.7-3.78,3.78v1.89c0,1.04-.91,1.95-1.95,1.95v1.89H3.85c3.13,0,5.68-2.61,5.68-5.74h0Z"/><path d="M15.83,7.92c-.5,.14-.8,.65-.67,1.16,.13,.49,.63,.81,1.16,.67,.51-.14,.8-.66,.67-1.16-.14-.51-.66-.8-1.16-.67Z"/><path d="M10.48,15.1c.5,.13,1.02-.16,1.16-.67,.14-.51-.17-1.02-.67-1.16h0c-.27-.07-.34-.02-.53,.04,.01,.57,.02,1.16,.02,1.77,0,0,.01,0,.02,0Z"/><path d="M20.91,23.21c-.14-.51-.66-.8-1.16-.67-.51,.14-.8,.66-.67,1.16,.13,.5,.65,.8,1.16,.67,.5-.14,.8-.65,.67-1.16h0Z"/><path d="M24.05,11.46c.37-.37,.37-.97,0-1.34-.37-.37-.97-.37-1.34,0-.37,.37-.37,.97,0,1.34,.37,.37,.97,.37,1.34,0Z"/><path d="M18.09,1.9c-3.11,.11-5.96,1.34-8.23,2.9,.25,1.73,.43,3.89,.53,6.56,.35-.04,.72-.02,1.07,.08,1.52,.41,2.41,1.96,2.01,3.47-.34,1.28-1.5,2.1-2.74,2.1-.09,0-.18-.03-.27-.04-.01,1.51-.05,3.01-.11,4.44,.97,.4,1.73,.94,2.22,1.63,1,1.41,.73,3.06,.63,3.53-.35,1.57,.58,3.17,2.16,3.48,.9,.17,1.8,.26,2.69,.26,7.78,0,14.3-6.32,14.23-14.29-.07-8.09-7.06-14.39-14.2-14.12Zm3.29,6.88c1.11-1.11,2.91-1.11,4.01,0s1.11,2.91,0,4.01h0c-1.11,1.11-2.91,1.11-4.01,0-1.11-1.11-1.11-2.91,0-4.01h0Zm-8.04,.78c-.4-1.5,.48-3.06,2.01-3.47,1.5-.4,3.07,.49,3.47,2.01,.41,1.51-.49,3.07-2.01,3.47-1.51,.41-3.07-.49-3.47-2.01h0Zm7.39,16.63c-1.51,.41-3.07-.5-3.47-2.01-.41-1.51,.49-3.07,2.01-3.47,1.52-.41,3.07,.49,3.47,2.01,.41,1.51-.49,3.07-2.01,3.47Zm7.36-7.36c-.41,1.52-1.96,2.41-3.47,2.01-1.51-.4-2.41-1.96-2.01-3.47,.41-1.53,1.98-2.41,3.47-2.01,1.51,.41,2.41,1.96,2.01,3.47h0Z"/><path d="M25.59,17.19c-.5-.13-1.02,.16-1.16,.67-.14,.51,.17,1.02,.67,1.16,.52,.13,1.03-.17,1.16-.67,.13-.5-.17-1.02-.67-1.16h0Z"/><path d="M8.56,17.09c0-.32,.01-.63,.01-.95,0-7.33-.49-16.14-2.84-16.14S2.9,8.81,2.9,16.14c0,.32,0,.63,.01,.95h5.65Z"/><path d="M5.74,20.87c.99,0,1.9,.28,2.71,.72,.04-.85,.07-1.72,.09-2.61H2.94c.02,.89,.05,1.76,.09,2.61,.81-.44,1.72-.72,2.71-.72Z"/></g></g></g></svg>