<?xml version="1.0" encoding="UTF-8"?><svg xmlns="http://www.w3.org/2000/svg" viewBox="0 0 32.81 32.81"><g id="a"/><g id="b"><g id="c"><path d="M24.84,0H7.96C3.56,0,0,3.56,0,7.96V24.84c0,4.4,3.56,7.97,7.96,7.97H24.84c4.4,0,7.97-3.57,7.97-7.97V7.96c0-4.4-3.57-7.96-7.97-7.96ZM11.1,23.87c0,.61-.49,1.1-1.1,1.1s-1.1-.49-1.1-1.1V8.93c0-.61,.49-1.1,1.1-1.1s1.1,.49,1.1,1.1v14.94Zm6.4,0c0,.61-.49,1.1-1.1,1.1s-1.1-.49-1.1-1.1V8.93c0-.61,.49-1.1,1.1-1.1s1.1,.49,1.1,1.1v14.94Zm6.41,0c0,.61-.5,1.1-1.1,1.1s-1.1-.49-1.1-1.1V8.93c0-.61,.49-1.1,1.1-1.1s1.1,.49,1.1,1.1v14.94Z"/></g></g></svg>