<?xml version="1.0" encoding="UTF-8"?><svg xmlns="http://www.w3.org/2000/svg" viewBox="0 0 33.79 33.64"><defs><style>.d{fill:none;stroke:#000;stroke-linecap:round;stroke-linejoin:round;stroke-width:2.5px;}</style></defs><g id="a"/><g id="b"><g id="c"><g><g><path d="M24.62,28.42h-.98v-1.72h1.18c.64,0,1.01,.29,1.01,.81h0c0,.58-.42,.9-1.21,.9Z"/><path d="M26.09,30.04h0c0,.62-.43,.94-1.23,.94h-1.23v-1.87h1.17c.85,0,1.29,.32,1.29,.93Z"/><path d="M32.19,31.43h-1.11v-7.39h-12.56v7.39h-1.1c-.62,0-1.11,.49-1.11,1.1s.49,1.11,1.11,1.11h14.78c.61,0,1.11-.49,1.11-1.11s-.5-1.1-1.11-1.1Zm-5.19-1.34c0,1-.73,1.61-1.95,1.61h-2.3v-5.73h2.29c1.01,0,1.68,.57,1.68,1.43h0c0,.61-.46,1.17-1.06,1.26v.02c.82,.08,1.34,.64,1.34,1.4h0Z"/><path d="M32.68,20.04l-6.88-2.05c-.66-.2-1.36-.2-2.02,0l-6.88,2.05c-.38,.19-.61,.57-.61,.99v.74c0,.61,.5,1.11,1.11,1.11h14.78c.61,0,1.11-.5,1.11-1.11v-.74c0-.42-.24-.8-.61-.99h0Z"/></g><g><path d="M8.81,10.57h-.98v-1.72h1.18c.64,0,1.01,.29,1.01,.81h0c0,.58-.42,.9-1.21,.9Z"/><path d="M10.28,12.19h0c0,.62-.43,.94-1.23,.94h-1.23v-1.87h1.17c.85,0,1.29,.32,1.29,.93Z"/><path d="M16.38,13.58h-1.11V6.19H2.71v7.39H1.6c-.62,0-1.11,.49-1.11,1.1s.49,1.11,1.11,1.11h14.78c.61,0,1.11-.49,1.11-1.11s-.5-1.1-1.11-1.1Zm-5.19-1.34c0,1-.73,1.61-1.95,1.61h-2.3v-5.73h2.29c1.01,0,1.68,.57,1.68,1.43h0c0,.61-.46,1.17-1.06,1.26v.02c.82,.08,1.34,.64,1.34,1.4h0Z"/><path d="M16.87,2.2L10,.15c-.66-.2-1.36-.2-2.02,0L1.1,2.2c-.38,.19-.61,.57-.61,.99v.74c0,.61,.5,1.11,1.11,1.11h14.78c.61,0,1.11-.5,1.11-1.11v-.74c0-.42-.24-.8-.61-.99h0Z"/></g><g><path class="d" d="M30.3,12.61c0-5.06-4.1-9.17-9.17-9.17"/><polygon points="33.79 11.59 30.3 17.63 26.81 11.59 33.79 11.59"/></g><g><path class="d" d="M3.49,22.08c0,5.06,4.1,9.17,9.17,9.17"/><polygon points="0 23.1 3.49 17.06 6.98 23.1 0 23.1"/></g></g></g></g></svg>