<?xml version="1.0" encoding="UTF-8"?><svg id="Layer_2" xmlns="http://www.w3.org/2000/svg" viewBox="0 0 497.18 454.23"><g id="Capa_1"><g><g><circle cx="217.11" cy="411" r="43.23"/><circle cx="362.18" cy="411" r="43.23"/><path d="M138.62,305.2l5.46-10.91L74.5,50.74H14.41c-7.96,0-14.41-6.45-14.41-14.41s6.45-14.41,14.41-14.41H85.37c6.44,0,12.09,4.27,13.86,10.45l13.48,47.19H377.22l-243.19,243.19c.24-5.85,1.7-11.8,4.58-17.55Z"/></g><path d="M203.37,310.13l-28.6,28.6c.81,.15,1.65,.22,2.52,.22h242.53c7.97,0,14.41,6.45,14.41,14.41s-6.44,14.41-14.41,14.41H177.29c-9.17,0-17.43-2.75-24.21-7.35l-63.14,63.14c-2.25,2.25-5.2,3.37-8.15,3.37s-5.9-1.12-8.16-3.37c-4.5-4.51-4.5-11.81,0-16.31L477.51,3.38c4.5-4.5,11.8-4.5,16.3,0s4.5,11.8,0,16.3l-59.89,59.89h43.55c4.51,0,8.78,2.12,11.5,5.72,2.72,3.62,3.59,8.29,2.36,12.65l-57.64,201.74c-1.78,6.19-7.44,10.45-13.87,10.45H203.37Z"/></g></g></svg>