<?xml version="1.0" encoding="UTF-8"?><svg xmlns="http://www.w3.org/2000/svg" viewBox="0 0 32.27 33.64"><g id="a"/><g id="b"><g id="c"><path d="M27.96,6.11l-6.64-.02c.23-3.05-2.01-5.72-5.04-6.06-1.58-.18-3.15,.33-4.32,1.4-1.19,1.07-1.86,2.59-1.86,4.17,0,.14,0,.28,.02,.42l-5.8-.02C1.94,5.99,.02,7.89,0,10.26V29.18c0,2.38,1.93,4.32,4.31,4.34l5.29,.02c.63,.02,1.16-.49,1.16-1.12,0-.05,0-.09-.02-.12-.17-1.91,1.23-3.61,3.13-3.78,1.91-.17,3.61,1.23,3.78,3.13,.02,.23,.02,.46,0,.68-.07,.63,.39,1.19,1,1.26,.05,0,.09,.02,.12,.02l9.04,.04c.79,0,1.58-.21,2.24-.61,1.28-.77,2.07-2.15,2.08-3.66l.04-3.9c0-.67-.53-1.21-1.19-1.23-.05,0-.09,.02-.14,.02-2.17,.23-4.11-1.35-4.34-3.52-.23-2.15,1.33-4.08,3.47-4.32,.31-.04,.61-.04,.91,0,.67,.09,1.26-.37,1.35-1.03,.02-.03,.02-.09,.02-.14l.04-4.76c.02-2.4-1.91-4.36-4.31-4.38Zm-4.64,8.51l-7.54,7.53c-.35,.35-.79,.53-1.24,.53s-.89-.18-1.23-.53l-3.82-3.8c-.68-.7-.68-1.8,0-2.49,.68-.68,1.79-.68,2.47,0l2.57,2.57,6.3-6.3c.68-.68,1.8-.68,2.49,0,.68,.68,.68,1.8,0,2.49Z"/></g></g></svg>