<?xml version="1.0" encoding="UTF-8"?><svg xmlns="http://www.w3.org/2000/svg" viewBox="0 0 32.95 29.56"><defs><style>.d{fill-rule:evenodd;}</style></defs><g id="a"/><g id="b"><g id="c"><path class="d" d="M.38,14.04C4.06,7.76,10.08,4.02,16.48,4.02c2.25,0,4.46,.47,6.54,1.34L28.03,.34c.46-.46,1.21-.46,1.66,0s.46,1.21,0,1.66l-4.48,4.48-3.22,3.22-1.66,1.66-7.86,7.86-1.66,1.66-3.25,3.25-5.08,5.08c-.46,.46-1.21,.46-1.66,0s-.46-1.21,0-1.66l4.79-4.79c-2.02-1.6-3.8-3.66-5.24-6.09-.5-.85-.5-1.79,0-2.64h0Zm19.7-5.73c-1.08-.55-2.3-.87-3.6-.87-4.36,0-7.92,3.55-7.92,7.92,0,1.29,.31,2.52,.87,3.6l1.79-1.79c-.2-.57-.3-1.18-.3-1.81,0-3.07,2.5-5.56,5.56-5.56,.63,0,1.24,.11,1.81,.3l1.79-1.79Zm7.13-.47l-3.76,3.76c.61,1.12,.95,2.4,.95,3.76,0,4.36-3.55,7.92-7.92,7.92-1.36,0-2.64-.34-3.76-.95l-2.95,2.95c2.13,.93,4.4,1.42,6.71,1.42,6.39,0,12.41-3.74,16.1-10.02,.5-.85,.5-1.79,0-2.64-1.47-2.49-3.3-4.58-5.38-6.2h0Zm-5.53,5.53l-7.18,7.18c.62,.24,1.29,.37,1.99,.37,3.07,0,5.56-2.5,5.56-5.56,0-.7-.13-1.37-.37-1.99h0Z"/></g></g></svg>