<?xml version="1.0" encoding="UTF-8"?><svg xmlns="http://www.w3.org/2000/svg" viewBox="0 0 33.13 33.12"><defs><style>.g{stroke:#000;stroke-miterlimit:10;stroke-width:.8px;}</style></defs><g id="a"/><g id="b"><g id="c"><g><g id="d"><g id="e"><path id="f" d="M33.13,16.57c.01,9.13-7.38,16.55-16.51,16.56C7.48,33.14,.07,25.74,.06,16.61c0-.01,0-.03,0-.04,0-.61,.49-1.1,1.1-1.1s1.1,.49,1.1,1.1c0,7.92,6.44,14.33,14.36,14.33,7.92,0,14.33-6.44,14.33-14.36,0-7.92-6.44-14.33-14.36-14.33-5.45,0-10.42,3.1-12.84,7.98h2.31c.61,0,1.1,.49,1.1,1.1s-.49,1.1-1.1,1.1H1.1c-.61,0-1.1-.49-1.1-1.1V6.02c0-.61,.49-1.1,1.1-1.1s1.1,.49,1.1,1.1v2.38C6.7,.45,16.79-2.35,24.73,2.14c5.2,2.94,8.41,8.45,8.4,14.43Z"/></g></g><g><path d="M12.72,13h-3.45c-.2,0-.38,.08-.52,.23s-.19,.34-.17,.54l1.17,9.87c.16,1.4,1.33,2.45,2.74,2.45h8.71c1.41,0,2.58-1.05,2.74-2.45l1.17-9.88c.02-.2-.04-.39-.17-.54h0c-.13-.15-.32-.23-.52-.23h-3.45m-1.38,0h-5.51m-.69,2.76c-.38,0-.69-.31-.69-.69s.31-.69,.69-.69,.69,.31,.69,.69-.31,.69-.69,.69Zm6.76,2.47l-2.56,4c-.33,.52-.98,.55-1.36,.16l-1.96-2c-.27-.27-.26-.71,.01-.98,.24-.24,.62-.26,.89-.07l1.49,1.08,2.37-2.99c.24-.3,.67-.35,.97-.11,.28,.22,.34,.62,.15,.91Zm.13-2.47c-.38,0-.69-.31-.69-.69s.31-.69,.69-.69,.69,.31,.69,.69-.31,.69-.69,.69Z"/><path class="g" d="M20.99,13v-2.07c0-2.28-1.85-4.14-4.14-4.14s-4.14,1.85-4.14,4.14v2.07h1.38v-2.07c0-1.52,1.24-2.76,2.76-2.76s2.76,1.24,2.76,2.76v2.07h1.38Z"/></g></g></g></g></svg>