<?xml version="1.0" encoding="UTF-8"?><svg id="Layer_2" xmlns="http://www.w3.org/2000/svg" viewBox="0 0 458.67 458.66"><defs><style>.cls-1{fill-rule:evenodd;}</style></defs><g id="Layer_1-2"><g id="Icon"><circle cx="304.62" cy="304.62" r="112.62"/><path class="cls-1" d="M453.97,431.36l-69.01-69.03c-6.25-6.23-16.38-6.23-22.63,0-6.23,6.25-6.23,16.38,0,22.63l69.03,69.01c6.23,6.25,16.38,6.25,22.61,0,6.25-6.23,6.25-16.38,0-22.61h0Z"/><path class="cls-1" d="M230.21,416c-35.9-24.04-59.54-64.98-59.54-111.38,0-73.92,60.03-133.95,133.95-133.95s133.97,60.03,133.97,133.95c0,23.42-6.02,45.44-16.6,64.58l24.23,24.26c8.02-10.26,12.44-22.95,12.44-36.12V138.67H0v218.67C0,372.89,6.19,387.82,17.17,398.83c11.01,10.99,25.94,17.17,41.49,17.17H230.21ZM0,106.67H458.67V58.67c0-15.55-6.19-30.49-17.17-41.49-11.01-10.99-25.94-17.17-41.49-17.17H58.67c-15.55,0-30.49,6.19-41.49,17.17C6.19,28.18,0,43.11,0,58.67v48Zm80-21.33h21.33c8.83,0,16-7.17,16-16s-7.17-16-16-16h-21.33c-8.83,0-16,7.17-16,16s7.17,16,16,16Zm74.67,0h21.33c8.83,0,16-7.17,16-16s-7.17-16-16-16h-21.33c-8.83,0-16,7.17-16,16s7.17,16,16,16Z"/></g></g></svg>