<svg xmlns="http://www.w3.org/2000/svg" viewBox="0 0 23.3 22.7"><g id="Layer_2" data-name="Layer 2"><g id="Layer_1-2" data-name="Layer 1"><path d="M7.4,17.8a2.5,2.5,0,0,0,0,4.9,2.5,2.5,0,1,0,0-4.9Zm0,3.8a1.3,1.3,0,0,1-1.3-1.4,1.3,1.3,0,0,1,1.3-1.3,1.3,1.3,0,0,1,1.4,1.3A1.4,1.4,0,0,1,7.4,21.6Z"/><path d="M17.7,17.8a2.5,2.5,0,1,0,2.4,2.4A2.4,2.4,0,0,0,17.7,17.8Zm0,3.8a1.4,1.4,0,0,1-1.4-1.4,1.4,1.4,0,0,1,2.8,0A1.4,1.4,0,0,1,17.7,21.6Z"/><path d="M23.2,3.6l-.4-.2L5.2,3.2,4.7,1.7A2.6,2.6,0,0,0,2.4,0H.5A.5.5,0,0,0,0,.5a.6.6,0,0,0,.5.6H2.4A1.3,1.3,0,0,1,3.6,2L7.1,12.4l-.3.6a2.3,2.3,0,0,0,.3,2.3,2.4,2.4,0,0,0,2,1.2H19.6a.6.6,0,0,0,.5-.6.5.5,0,0,0-.5-.5H9.1a1.7,1.7,0,0,1-1.2-.6,2,2,0,0,1-.1-1.3L8,13l11.4-1.2A3.1,3.1,0,0,0,22,9.5l1.3-5.4A.7.7,0,0,0,23.2,3.6ZM20.9,9.3a1.8,1.8,0,0,1-1.6,1.4L8,11.9,5.5,4.2l16.6.3Z"/></g></g></svg>