<svg xmlns="http://www.w3.org/2000/svg" viewBox="0 0 14.6 14.4"><g id="Layer_2" data-name="Layer 2"><g id="Layer_1-2" data-name="Layer 1"><path d="M13.2.8c.4,0,.7.2.7.6v3a.7.7,0,0,1-.7.7h-3a.7.7,0,0,1-.7-.7v-3c0-.4.3-.6.7-.6h3m0-.8h-3A1.4,1.4,0,0,0,8.8,1.4v3a1.4,1.4,0,0,0,1.4,1.4h3a1.4,1.4,0,0,0,1.4-1.4v-3A1.4,1.4,0,0,0,13.2,0Z"/><path d="M4.4.8c.4,0,.7.2.7.6v3a.7.7,0,0,1-.7.7h-3C1,5.1.8,4.8.8,4.4v-3A.5.5,0,0,1,1.4.8h3m0-.8h-3A1.4,1.4,0,0,0,0,1.4v3A1.4,1.4,0,0,0,1.4,5.8h3A1.4,1.4,0,0,0,5.8,4.4v-3A1.4,1.4,0,0,0,4.4,0Z"/><path d="M4.4,9.4a.7.7,0,0,1,.7.6v3a.7.7,0,0,1-.7.7h-3c-.4,0-.6-.3-.6-.7V10a.6.6,0,0,1,.6-.6h3m0-.8h-3A1.4,1.4,0,0,0,0,10v3a1.4,1.4,0,0,0,1.4,1.4h3A1.4,1.4,0,0,0,5.8,13V10A1.4,1.4,0,0,0,4.4,8.6Z"/><path d="M13.2,9.4a.7.7,0,0,1,.7.6v3a.7.7,0,0,1-.7.7h-3a.7.7,0,0,1-.7-.7V10a.7.7,0,0,1,.7-.6h3m0-.8h-3A1.4,1.4,0,0,0,8.8,10v3a1.4,1.4,0,0,0,1.4,1.4h3A1.4,1.4,0,0,0,14.6,13V10a1.4,1.4,0,0,0-1.4-1.4Z"/></g></g></svg>