<svg xmlns="http://www.w3.org/2000/svg" viewBox="0 0 23.5 21.6"><g id="Layer_2" data-name="Layer 2"><g id="Layer_1-2" data-name="Layer 1"><path d="M16.8,0h0a6.4,6.4,0,0,0-5.1,2.6A6.1,6.1,0,0,0,6.7,0C3,0,0,3.3,0,7.4c0,7,11,13.9,11.4,14.1a.4.4,0,0,0,.6,0c.5-.2,11.5-7,11.5-14.1C23.5,3.3,20.5,0,16.8,0ZM11.7,20.2C10,19.1,1.2,13.1,1.2,7.4,1.2,4,3.6,1.3,6.7,1.3a5.2,5.2,0,0,1,4.5,2.8.6.6,0,0,0,.9.1.1.1,0,0,0,.1-.1,5.2,5.2,0,0,1,7.6-1.8,6.5,6.5,0,0,1,2.5,5.1C22.3,13.2,13.5,19.1,11.7,20.2Z"/></g></g></svg>