<svg xmlns="http://www.w3.org/2000/svg" viewBox="0 0 30 30"><g id="Layer_2" data-name="Layer 2"><g id="Layer_3" data-name="Layer 3"><path id="Shape" d="M27.7,0A2.3,2.3,0,0,1,30,2.3v8.6a2.3,2.3,0,0,1-2.3,2.3H19.1a2.3,2.3,0,0,1-2.3-2.3V2.3A2.3,2.3,0,0,1,19.1,0ZM10.9,0a2.3,2.3,0,0,1,2.3,2.3v8.6a2.3,2.3,0,0,1-2.3,2.3H2.3A2.3,2.3,0,0,1,0,10.9V2.3A2.3,2.3,0,0,1,2.3,0Zm0,16.8a2.3,2.3,0,0,1,2.3,2.3v8.6A2.3,2.3,0,0,1,10.9,30H2.3A2.3,2.3,0,0,1,0,27.7V19.1a2.3,2.3,0,0,1,2.3-2.3Zm16.8,0A2.3,2.3,0,0,1,30,19.1v8.6A2.3,2.3,0,0,1,27.7,30H19.1a2.3,2.3,0,0,1-2.3-2.3V19.1a2.3,2.3,0,0,1,2.3-2.3Z"/></g></g></svg>