<svg xmlns="http://www.w3.org/2000/svg" viewBox="0 0 30 32.8"><g id="Layer_2" data-name="Layer 2"><g id="Layer_3" data-name="Layer 3"><path d="M11.3,26.1a.4.4,0,0,1,.2.7l-4,5.7a.8.8,0,0,1-1.3-.1L4.8,29.8a2.1,2.1,0,0,0-1.3-.9L.7,28.5a.8.8,0,0,1-.6-1.2l3.7-5.2c.1-.2.5-.2.7,0a14.2,14.2,0,0,0,6.8,4Z"/><path d="M29.4,28.3l-2.9.5a1.7,1.7,0,0,0-1.2,1L24,32.4a.8.8,0,0,1-1.3.1l-4.3-5.7a.4.4,0,0,1,.2-.7,14.8,14.8,0,0,0,6.9-3.9.5.5,0,0,1,.7,0l3.6,4.9a.7.7,0,0,1-.4,1.2Z"/><path d="M15,0A11.9,11.9,0,1,0,26.9,11.9,11.9,11.9,0,0,0,15,0Zm5.1,12.1-1.2,1.2a1.3,1.3,0,0,0-.4,1l.3,1.7a1.2,1.2,0,0,1-1.7,1.3l-1.5-.8a1.1,1.1,0,0,0-1.1,0l-1.6.8A1.2,1.2,0,0,1,11.2,16l.3-1.7a1.2,1.2,0,0,0-.3-1L9.9,12.1a1.3,1.3,0,0,1,.7-2.1l1.7-.2a1.3,1.3,0,0,0,.9-.7L14,7.6a1.2,1.2,0,0,1,2.1,0l.8,1.5a1.1,1.1,0,0,0,.9.7l1.7.2a1.2,1.2,0,0,1,.6,2.1Z"/></g></g></svg>