<svg xmlns="http://www.w3.org/2000/svg" viewBox="0 0 38.1 29.9"><g id="Layer_2" data-name="Layer 2"><g id="Layer_4" data-name="Layer 4"><path d="M29.6,16.9h6a2.5,2.5,0,0,0,2.5-2.5V2.5A2.5,2.5,0,0,0,35.6,0h-6a2.5,2.5,0,0,0-2.5,2.5V14.4A2.5,2.5,0,0,0,29.6,16.9ZM29,2.5a.6.6,0,0,1,.6-.6h6a.6.6,0,0,1,.6.6V14.4a.6.6,0,0,1-.6.6h-6a.6.6,0,0,1-.6-.6V2.5Z"/><path d="M2.5,29.9h6A2.6,2.6,0,0,0,11,27.4v-6a2.5,2.5,0,0,0-2.5-2.5h-6A2.5,2.5,0,0,0,0,21.4v6A2.5,2.5,0,0,0,2.5,29.9Z"/><path d="M16.1,29.9H22a2.5,2.5,0,0,0,2.5-2.5v-6A2.5,2.5,0,0,0,22,18.9H16.1a2.5,2.5,0,0,0-2.5,2.5v6A2.5,2.5,0,0,0,16.1,29.9Z"/><path d="M29.6,29.9h6a2.5,2.5,0,0,0,2.5-2.5v-6a2.5,2.5,0,0,0-2.5-2.5h-6a2.5,2.5,0,0,0-2.5,2.5v6A2.5,2.5,0,0,0,29.6,29.9Z"/><path d="M24.5,2.5A2.5,2.5,0,0,0,22,0H16.1a2.5,2.5,0,0,0-2.5,2.5V14.4a2.5,2.5,0,0,0,2.5,2.5H22a2.5,2.5,0,0,0,2.5-2.5V2.5ZM22.6,14.4a.6.6,0,0,1-.6.6H16.1a.6.6,0,0,1-.6-.6V2.5a.6.6,0,0,1,.6-.6H22a.6.6,0,0,1,.6.6V14.4Z"/><path d="M11,2.5A2.5,2.5,0,0,0,8.5,0h-6A2.5,2.5,0,0,0,0,2.5V14.4a2.5,2.5,0,0,0,2.5,2.5h6A2.5,2.5,0,0,0,11,14.4V2.5ZM9.1,14.4a.6.6,0,0,1-.6.6h-6a.6.6,0,0,1-.6-.6V2.5a.6.6,0,0,1,.6-.6h6a.6.6,0,0,1,.6.6V14.4Z"/></g></g></svg>