<svg xmlns="http://www.w3.org/2000/svg" viewBox="0 0 45.7 29.3"><defs><style>.cls-1{fill:none;stroke:#000;stroke-linecap:round;stroke-linejoin:round;stroke-width:1.87px;}</style></defs><g id="Layer_2" data-name="Layer 2"><g id="Layer_4" data-name="Layer 4"><polyline class="cls-1" points="4.8 10.7 0.9 14.6 4.8 18.5"/><polyline class="cls-1" points="40.9 10.7 44.8 14.6 40.9 18.5"/><path d="M9.9,12.8h3.9a2.5,2.5,0,0,0,2.5-2.5V2.5A2.5,2.5,0,0,0,13.8,0H9.9A2.5,2.5,0,0,0,7.4,2.5v7.8A2.5,2.5,0,0,0,9.9,12.8Z"/><path d="M20.9,12.8h3.9a2.5,2.5,0,0,0,2.5-2.5V2.5A2.5,2.5,0,0,0,24.8,0H20.9a2.5,2.5,0,0,0-2.5,2.5v7.8A2.4,2.4,0,0,0,20.9,12.8Z"/><path d="M31.8,12.8h4a2.5,2.5,0,0,0,2.5-2.5V2.5A2.5,2.5,0,0,0,35.8,0h-4a2.5,2.5,0,0,0-2.5,2.5v7.8A2.5,2.5,0,0,0,31.8,12.8Z"/><path d="M9.9,29.3h3.9a2.5,2.5,0,0,0,2.5-2.5V19a2.5,2.5,0,0,0-2.5-2.5H9.9A2.5,2.5,0,0,0,7.4,19v7.8A2.5,2.5,0,0,0,9.9,29.3Z"/><path d="M20.9,29.3h3.9a2.5,2.5,0,0,0,2.5-2.5V19a2.5,2.5,0,0,0-2.5-2.5H20.9A2.5,2.5,0,0,0,18.4,19v7.8A2.5,2.5,0,0,0,20.9,29.3Z"/><path d="M31.8,29.3h4a2.5,2.5,0,0,0,2.5-2.5V19a2.5,2.5,0,0,0-2.5-2.5h-4A2.5,2.5,0,0,0,29.3,19v7.8A2.6,2.6,0,0,0,31.8,29.3Z"/></g></g></svg>