<svg xmlns="http://www.w3.org/2000/svg" viewBox="0 0 32.3 29.9"><defs><style>.cls-1{fill:#fff;}</style></defs><g id="Layer_2" data-name="Layer 2"><g id="Layer_3" data-name="Layer 3"><path d="M30.1,0H2.2A2.2,2.2,0,0,0,0,2.2V27.7a2.2,2.2,0,0,0,2.2,2.2H30.1a2.2,2.2,0,0,0,2.2-2.2V2.2A2.2,2.2,0,0,0,30.1,0Zm-.9,6.6H3.1a1,1,0,0,1-1-1V3.5A1.2,1.2,0,0,1,3.3,2.3H29a1.2,1.2,0,0,1,1.2,1.2V5.6A.9.9,0,0,1,29.2,6.6Z"/><path class="cls-1" d="M23.1,23l-2.2,2.2c-.2.1-.4.2-.6,0L18.9,24l-.6.3v1.8a.7.7,0,0,1-.5.4H14.6a.4.4,0,0,1-.4-.4V24.3l-.7-.3-1.3,1.2a.5.5,0,0,1-.6,0L9.3,23a.4.4,0,0,1,0-.6L10.5,21a1.4,1.4,0,0,1-.2-.6H8.4a.5.5,0,0,1-.4-.5v-3a.5.5,0,0,1,.4-.5h2a.8.8,0,0,1,.2-.5L9.3,14.2a.4.4,0,0,1,0-.6l2.2-2.2c.1-.2.4-.2.6,0l1.5,1.3H14l.2-2.1a.4.4,0,0,1,.4-.4h3.1a.7.7,0,0,1,.5.4v2.1h.4l1.6-1.3c.1-.2.4-.2.6,0l2.2,2.2a.6.6,0,0,1,0,.6l-1.3,1.5c.1.1.1.3.2.5h2a.5.5,0,0,1,.4.5v3a.5.5,0,0,1-.4.5H22.1c-.1.2-.1.4-.2.6l1.2,1.4A.6.6,0,0,1,23.1,23Z"/><path d="M16.2,15.3a3,3,0,1,0,3,3A3,3,0,0,0,16.2,15.3Z"/></g></g></svg>