<svg xmlns="http://www.w3.org/2000/svg" viewBox="0 0 61.3 44.9"><defs><style>.cls-1{fill:#fff;}</style></defs><g id="Layer_2" data-name="Layer 2"><g id="Layer_3" data-name="Layer 3"><g id="Layer_2-2" data-name="Layer 2"><path d="M44.6,15.9a6.2,6.2,0,0,1-5.2-7.1,3.1,3.1,0,0,1,.3-1.3,2.8,2.8,0,0,0-.9-3.3,22.7,22.7,0,0,0-6.9-4,2.8,2.8,0,0,0-3.3.9,6.2,6.2,0,0,1-8.7,1.1L18.8,1.1A2.8,2.8,0,0,0,15.5.2,22.4,22.4,0,0,0,9.1,3.8a3,3,0,0,0-1,3.4,6.1,6.1,0,0,1-3.3,8,6.1,6.1,0,0,1-1.8.5A3,3,0,0,0,.4,18,22.5,22.5,0,0,0,0,22.4a24.3,24.3,0,0,0,.3,3.8,2.9,2.9,0,0,0,2.6,2.4,6,6,0,0,1,5.5,6.7,4.6,4.6,0,0,1-.5,2,3.1,3.1,0,0,0,.8,3.5,23.6,23.6,0,0,0,6.9,3.9,1.8,1.8,0,0,0,1,.2A3,3,0,0,0,19,43.7,6,6,0,0,1,24,41a6.4,6.4,0,0,1,5,2.5,2.8,2.8,0,0,0,3.4,1,22.5,22.5,0,0,0,6.3-3.8,2.8,2.8,0,0,0,.9-3.3,6.1,6.1,0,0,1,3.3-8.1l1.6-.5A2.8,2.8,0,0,0,47,26.4a17.5,17.5,0,0,0,.4-4,19.9,19.9,0,0,0-.4-4.2,2.8,2.8,0,0,0-2.4-2.3ZM30.3,22.4a6.6,6.6,0,1,1-6.6-6.6A6.6,6.6,0,0,1,30.3,22.4Z"/></g><path d="M23.8,35.3a12.9,12.9,0,0,1-4.8-1,11.9,11.9,0,0,1-4.2-2.8A11.9,11.9,0,0,1,12,27.3a11.5,11.5,0,0,1-1-4.8,11.2,11.2,0,0,1,1-4.8,10.7,10.7,0,0,1,2.8-4.2A10.7,10.7,0,0,1,19,10.7a11.2,11.2,0,0,1,4.8-1,11.5,11.5,0,0,1,4.8,1,10.7,10.7,0,0,1,4.2,2.8,12.8,12.8,0,0,1,3.1,4.8H58.5a2.2,2.2,0,0,1,1.9,1.3c0,.2.1.4.1.6v4.5c0,.3-.1.5-.1.7a2.2,2.2,0,0,1-1.9,1.3h-2v3.1a1.5,1.5,0,0,1-.1.7,1.9,1.9,0,0,1-1.8,1.3H49.5a2.2,2.2,0,0,1-1.3-1.9V26.7H35.9a13.7,13.7,0,0,1-3.1,4.8,11.9,11.9,0,0,1-4.2,2.8A12.9,12.9,0,0,1,23.8,35.3Zm0-16.9a4.1,4.1,0,1,0,2.9,1.2A4,4,0,0,0,23.8,18.4Z"/><path class="cls-1" d="M23.8,10.6a14.2,14.2,0,0,1,4.5.8,10.5,10.5,0,0,1,3.9,2.7,11,11,0,0,1,3,5.1H58.5a1.2,1.2,0,0,1,1.1.8v5.2a1.2,1.2,0,0,1-1.1.7H55.7v4c0,.2,0,.3-.1.4a1.2,1.2,0,0,1-1,.7H49.8a1.2,1.2,0,0,1-.8-1.1v-4H35.2a11.5,11.5,0,0,1-3,5.1,10.3,10.3,0,0,1-3.9,2.6,11.7,11.7,0,0,1-4.5.9,11.3,11.3,0,0,1-4.5-.9,10.3,10.3,0,0,1-3.9-2.6A10.5,10.5,0,0,1,12.7,27a14.2,14.2,0,0,1-.8-4.5,13.3,13.3,0,0,1,.8-4.5,10.5,10.5,0,0,1,2.7-3.9,10.5,10.5,0,0,1,3.9-2.7,13.3,13.3,0,0,1,4.5-.8m0,16.8h0A5,5,0,0,0,27.3,26a4.8,4.8,0,0,0,0-7,4.8,4.8,0,0,0-7,0,4.8,4.8,0,0,0,0,7,5,5,0,0,0,3.5,1.4m0-18.5a12.5,12.5,0,0,0-5.1,1,13.8,13.8,0,0,0-7.5,7.5,12.5,12.5,0,0,0-1,5.1,12.5,12.5,0,0,0,1,5.1,13.8,13.8,0,0,0,7.5,7.5,12.5,12.5,0,0,0,5.1,1,12.5,12.5,0,0,0,5.1-1,13.7,13.7,0,0,0,4.5-3,12.6,12.6,0,0,0,3-4.6H47.3v2.3a2.8,2.8,0,0,0,1.8,2.6,2,2,0,0,0,1,.2h4.4a2.8,2.8,0,0,0,2.7-1.8,3,3,0,0,0,.2-1V27.5h1.1a2.7,2.7,0,0,0,2.6-1.8,1.6,1.6,0,0,0,.2-1V20.2a1.3,1.3,0,0,0-.2-.9,2.7,2.7,0,0,0-2.6-1.8H36.4a11.9,11.9,0,0,0-3-4.6,12.3,12.3,0,0,0-4.5-3,12.5,12.5,0,0,0-5.1-1Zm0,16.9a3.4,3.4,0,1,1,2.3-1,3.3,3.3,0,0,1-2.3,1Z"/></g></g></svg>