<?xml version="1.0" encoding="iso-8859-1"?>
<!-- Generator: Adobe Illustrator 16.0.0, SVG Export Plug-In . SVG Version: 6.00 Build 0)  -->
<!DOCTYPE svg PUBLIC "-//W3C//DTD SVG 1.1//EN" "http://www.w3.org/Graphics/SVG/1.1/DTD/svg11.dtd">
<svg version="1.1" id="Capa_1" xmlns="http://www.w3.org/2000/svg" xmlns:xlink="http://www.w3.org/1999/xlink" x="0px" y="0px"
	 width="45.202px" height="45.202px" viewBox="0 0 45.202 45.202" style="enable-background:new 0 0 45.202 45.202;"
	 xml:space="preserve">
<g>
	<g>
		<path d="M33.297,23.732c0-1.61-1.305-2.905-2.915-2.905h-4.831v-8.74c0-1.61-1.326-2.915-2.936-2.915s-2.936,1.305-2.936,2.915
			v11.66c0,1.61,1.318,2.891,2.928,2.891h7.773C31.992,26.637,33.297,25.342,33.297,23.732z"/>
		<path d="M22.601,0.709C10.138,0.709,0,10.848,0,23.309c0,4.854,1.54,9.354,4.154,13.041l-2.34,2.312
			c-0.387,0.382-0.506,0.96-0.301,1.464c0.206,0.504,0.695,0.834,1.24,0.836l8.422,0.035c0.984,0.003,1.787-0.789,1.796-1.771
			l0.076-8.422c0.005-0.545-0.319-1.039-0.82-1.25c-0.501-0.213-1.082-0.103-1.468,0.28l-2.37,2.339
			C6.773,29.6,5.83,26.566,5.83,23.309c0-9.247,7.523-16.771,16.771-16.771c9.247,0,16.77,7.523,16.77,16.771
			c0,7.049-4.375,13.076-10.551,15.545c-1.313,0.525-2.068,1.914-1.793,3.302c0.168,0.846,0.705,1.573,1.463,1.985
			c0.759,0.41,1.662,0.465,2.463,0.145c8.338-3.326,14.249-11.466,14.249-20.977C45.201,10.848,35.062,0.709,22.601,0.709z"/>
	</g>
</g>
<g>
</g>
<g>
</g>
<g>
</g>
<g>
</g>
<g>
</g>
<g>
</g>
<g>
</g>
<g>
</g>
<g>
</g>
<g>
</g>
<g>
</g>
<g>
</g>
<g>
</g>
<g>
</g>
<g>
</g>
</svg>
