<svg xmlns="http://www.w3.org/2000/svg" viewBox="0 0 30 30"><g id="Layer_2" data-name="Layer 2"><g id="Layer_3" data-name="Layer 3"><circle cx="10.7" cy="10.7" r="1.1"/><path d="M19.3,18.2a1.1,1.1,0,0,0-1.1,1.1,1,1,0,0,0,1.1,1.1,1.1,1.1,0,0,0,0-2.2Z"/><path d="M28.1,11.7a6.1,6.1,0,0,1-1.2-1.6,7.8,7.8,0,0,1-.3-2.2,5,5,0,0,0-1-3.5,5,5,0,0,0-3.5-1A7.6,7.6,0,0,1,20,3.1a4.8,4.8,0,0,1-1.6-1.2A5.3,5.3,0,0,0,15,0a4.9,4.9,0,0,0-3.3,1.9,6.1,6.1,0,0,1-1.6,1.2,7.8,7.8,0,0,1-2.2.3,5,5,0,0,0-3.5,1,5,5,0,0,0-1,3.5,7.8,7.8,0,0,1-.3,2.2,4.8,4.8,0,0,1-1.3,1.6A5.2,5.2,0,0,0,0,15a5.2,5.2,0,0,0,1.8,3.3A7,7,0,0,1,3.1,20a7.6,7.6,0,0,1,.3,2.1,5.1,5.1,0,0,0,1,3.6,5.5,5.5,0,0,0,3.5,1,7.8,7.8,0,0,1,2.2.3,6.1,6.1,0,0,1,1.6,1.2A5.2,5.2,0,0,0,15,30a5.2,5.2,0,0,0,3.3-1.8A7,7,0,0,1,20,26.9a7.6,7.6,0,0,1,2.1-.3,5.2,5.2,0,0,0,3.6-1,5.5,5.5,0,0,0,1-3.5,5.3,5.3,0,0,1,.3-2.2,6.1,6.1,0,0,1,1.2-1.6A5.2,5.2,0,0,0,30,15a4.9,4.9,0,0,0-1.9-3.3Zm-20-1a2.6,2.6,0,0,1,5.2,0,2.6,2.6,0,0,1-2.6,2.6,2.6,2.6,0,0,1-2.5-2.6Zm2.5,9.7a.7.7,0,0,1-1,0h0a.7.7,0,0,1,0-1h0l9.8-9.8a.7.7,0,0,1,1,1h0Zm8.7,1.4a2.5,2.5,0,0,1-2.6-2.5,2.6,2.6,0,1,1,5.1,0h0a2.5,2.5,0,0,1-2.5,2.5Z"/></g></g></svg>