<svg xmlns="http://www.w3.org/2000/svg" viewBox="0 0 30 30"><g id="Layer_2" data-name="Layer 2"><g id="Layer_3" data-name="Layer 3"><circle cx="15" cy="20.3" r="1"/><circle cx="15" cy="9.7" r="1"/><path d="M29.2.8a2.8,2.8,0,0,0-2-.8H16.7a2.7,2.7,0,0,0-1.9.8l-14,14A2.7,2.7,0,0,0,0,16.7a2.8,2.8,0,0,0,.8,2L11.3,29.2a2.8,2.8,0,0,0,2,.8,2.7,2.7,0,0,0,1.9-.8l14-14a2.7,2.7,0,0,0,.8-1.9V2.8a2.8,2.8,0,0,0-.8-2ZM15,6.9a2.9,2.9,0,0,1,2.8,2.8,2.8,2.8,0,0,1-5.6,0A2.9,2.9,0,0,1,15,6.9Zm0,16.2a2.9,2.9,0,0,1-2.8-2.8,2.8,2.8,0,0,1,5.6,0A2.9,2.9,0,0,1,15,23.1Zm5.6-7.2H9.4a.9.9,0,1,1,0-1.8H20.6a.9.9,0,0,1,0,1.8Zm3.8-9.4a.9.9,0,1,1,.9-.9A.9.9,0,0,1,24.4,6.5Z"/></g></g></svg>