<svg xmlns="http://www.w3.org/2000/svg" viewBox="0 0 54.1 54.1"><g id="Layer_2" data-name="Layer 2"><g id="Layer_4" data-name="Layer 4"><path d="M48.3,0H5.8A5.8,5.8,0,0,0,0,5.8V48.3a5.8,5.8,0,0,0,5.8,5.8H48.3a5.8,5.8,0,0,0,5.8-5.8V5.8A5.8,5.8,0,0,0,48.3,0ZM42.9,9A1.6,1.6,0,0,1,44,8.5a1.4,1.4,0,0,1,1.1.5,1.4,1.4,0,0,1,.5,1.1,1.6,1.6,0,0,1-.5,1.1,1.4,1.4,0,0,1-1.1.5,1.7,1.7,0,0,1-1.6-1.6A1.4,1.4,0,0,1,42.9,9ZM34.4,9a1.6,1.6,0,0,1,1.1-.5,1.7,1.7,0,0,1,1.2.5,1.4,1.4,0,0,1,.4,1.1,1.5,1.5,0,0,1-.4,1.1,1.7,1.7,0,0,1-1.2.5,1.6,1.6,0,0,1-1.1-.5,1.5,1.5,0,0,1-.4-1.1A1.4,1.4,0,0,1,34.4,9ZM25.9,9A1.6,1.6,0,0,1,27,8.5a1.7,1.7,0,0,1,1.2.5,1.4,1.4,0,0,1,.4,1.1,1.5,1.5,0,0,1-.4,1.1,1.7,1.7,0,0,1-1.2.5,1.6,1.6,0,0,1-1.1-.5,1.5,1.5,0,0,1-.4-1.1A1.4,1.4,0,0,1,25.9,9ZM10.1,8.5h8.5a1.6,1.6,0,0,1,1.5,1.6,1.6,1.6,0,0,1-1.5,1.6H10.1a1.6,1.6,0,0,1-1.6-1.6A1.6,1.6,0,0,1,10.1,8.5ZM50.9,48.3a2.6,2.6,0,0,1-2.6,2.6H5.8a2.6,2.6,0,0,1-2.6-2.6V20.1H50.9Z"/><path d="M10.1,45.6H44a1.6,1.6,0,0,0,0-3.2H10.1a1.6,1.6,0,1,0,0,3.2Z"/><path d="M14.3,37.1a5.8,5.8,0,1,0-5.8-5.8A5.8,5.8,0,0,0,14.3,37.1Z"/><path d="M27,28.6H44A1.6,1.6,0,0,0,45.6,27,1.6,1.6,0,0,0,44,25.5H27A1.5,1.5,0,0,0,25.5,27,1.6,1.6,0,0,0,27,28.6Z"/><path d="M27,37.1H44a1.6,1.6,0,0,0,1.6-1.6A1.6,1.6,0,0,0,44,34H27a1.5,1.5,0,0,0-1.5,1.5A1.6,1.6,0,0,0,27,37.1Z"/></g></g></svg>