<svg xmlns="http://www.w3.org/2000/svg" viewBox="0 0 53.3 53.3"><g id="Layer_2" data-name="Layer 2"><g id="Layer_3" data-name="Layer 3"><g id="Layer_18" data-name="Layer 18"><path d="M41.5,0H11.8A11.8,11.8,0,0,0,0,11.8V41.5A11.8,11.8,0,0,0,11.8,53.3H41.5A11.8,11.8,0,0,0,53.3,41.5V11.8A11.8,11.8,0,0,0,41.5,0Zm6.6,33-1.2,1.3-1.2,1.2a.8.8,0,0,1-1.1-1.1l.6-.7-7.3-7.3a17.5,17.5,0,0,1-3.7,17.1,3.2,3.2,0,0,1-5.5,3.3,3.1,3.1,0,0,1,1.1-4.4,2.9,2.9,0,0,1,3.3,0,15.8,15.8,0,0,0,2.4-17.7,4.6,4.6,0,0,1-2.3.6A5.2,5.2,0,0,1,28,20.1a4.6,4.6,0,0,1,.6-2.3A15.8,15.8,0,0,0,11,20.2a3.2,3.2,0,0,1-1.3,4.4,3.2,3.2,0,0,1-4.4-1.2,3.3,3.3,0,0,1,4.6-4.3A17.5,17.5,0,0,1,27,15.4L19.6,8.1l-.6.6a.8.8,0,0,1-1.1-1.1l1.2-1.2,1.2-1.2a.8.8,0,0,1,1.2-.1.8.8,0,0,1,0,1.1h-.1l-.7.7,9.2,9.2a5.1,5.1,0,0,1,7.2,7.2l9.2,9.2.7-.7A.8.8,0,0,1,48.1,33Z"/></g></g></g></svg>